solid OpenSCAD_Model
  facet normal 1 0 0
    outer loop
      vertex 100 60 28
      vertex 100 57.5 25.5
      vertex 100 60 0
    endloop
  endfacet
  facet normal 1 0 0
    outer loop
      vertex 100 60 28
      vertex 100 2.5 25.5
      vertex 100 57.5 25.5
    endloop
  endfacet
  facet normal 1 0 0
    outer loop
      vertex 100 2.5 25.5
      vertex 100 0 28
      vertex 100 2.5 2.5
    endloop
  endfacet
  facet normal 1 -0 0
    outer loop
      vertex 100 0 28
      vertex 100 2.5 25.5
      vertex 100 60 28
    endloop
  endfacet
  facet normal 1 -0 0
    outer loop
      vertex 100 57.5 2.5
      vertex 100 60 0
      vertex 100 57.5 25.5
    endloop
  endfacet
  facet normal 1 -0 0
    outer loop
      vertex 100 2.5 2.5
      vertex 100 60 0
      vertex 100 57.5 2.5
    endloop
  endfacet
  facet normal 1 0 0
    outer loop
      vertex 100 2.5 2.5
      vertex 100 0 0
      vertex 100 60 0
    endloop
  endfacet
  facet normal 1 0 0
    outer loop
      vertex 100 0 0
      vertex 100 2.5 2.5
      vertex 100 0 28
    endloop
  endfacet
  facet normal -0 0 1
    outer loop
      vertex 0 60 28
      vertex 100 0 28
      vertex 100 60 28
    endloop
  endfacet
  facet normal 0 0 1
    outer loop
      vertex 100 0 28
      vertex 0 60 28
      vertex 0 0 28
    endloop
  endfacet
  facet normal 0 0 -1
    outer loop
      vertex 0 0 0
      vertex 100 60 0
      vertex 100 0 0
    endloop
  endfacet
  facet normal -0 0 -1
    outer loop
      vertex 100 60 0
      vertex 0 0 0
      vertex 0 60 0
    endloop
  endfacet
  facet normal -1 0 0
    outer loop
      vertex 0 0 0
      vertex 0 60 28
      vertex 0 60 0
    endloop
  endfacet
  facet normal -1 -0 0
    outer loop
      vertex 0 60 28
      vertex 0 0 0
      vertex 0 0 28
    endloop
  endfacet
  facet normal 0 1 -0
    outer loop
      vertex 100 60 0
      vertex 0 60 28
      vertex 100 60 28
    endloop
  endfacet
  facet normal 0 1 0
    outer loop
      vertex 0 60 28
      vertex 100 60 0
      vertex 0 60 0
    endloop
  endfacet
  facet normal 0 -1 0
    outer loop
      vertex 0 0 0
      vertex 100 0 28
      vertex 0 0 28
    endloop
  endfacet
  facet normal 0 -1 -0
    outer loop
      vertex 100 0 28
      vertex 0 0 0
      vertex 100 0 0
    endloop
  endfacet
  facet normal 0 0 -1
    outer loop
      vertex 2.5 2.5 25.5
      vertex 100 57.5 25.5
      vertex 100 2.5 25.5
    endloop
  endfacet
  facet normal -0 0 -1
    outer loop
      vertex 100 57.5 25.5
      vertex 2.5 2.5 25.5
      vertex 2.5 57.5 25.5
    endloop
  endfacet
  facet normal -0 0 1
    outer loop
      vertex 2.5 57.5 2.5
      vertex 100 2.5 2.5
      vertex 100 57.5 2.5
    endloop
  endfacet
  facet normal 0 0 1
    outer loop
      vertex 100 2.5 2.5
      vertex 2.5 57.5 2.5
      vertex 2.5 2.5 2.5
    endloop
  endfacet
  facet normal 1 -0 0
    outer loop
      vertex 2.5 2.5 25.5
      vertex 2.5 57.5 2.5
      vertex 2.5 57.5 25.5
    endloop
  endfacet
  facet normal 1 0 0
    outer loop
      vertex 2.5 57.5 2.5
      vertex 2.5 2.5 25.5
      vertex 2.5 2.5 2.5
    endloop
  endfacet
  facet normal 0 -1 0
    outer loop
      vertex 2.5 57.5 2.5
      vertex 100 57.5 25.5
      vertex 2.5 57.5 25.5
    endloop
  endfacet
  facet normal 0 -1 -0
    outer loop
      vertex 100 57.5 25.5
      vertex 2.5 57.5 2.5
      vertex 100 57.5 2.5
    endloop
  endfacet
  facet normal 0 1 -0
    outer loop
      vertex 100 2.5 2.5
      vertex 2.5 2.5 25.5
      vertex 100 2.5 25.5
    endloop
  endfacet
  facet normal 0 1 0
    outer loop
      vertex 2.5 2.5 25.5
      vertex 100 2.5 2.5
      vertex 2.5 2.5 2.5
    endloop
  endfacet
endsolid OpenSCAD_Model
