solid OpenSCAD_Model
  facet normal 0.987685 0.156453 0
    outer loop
      vertex 45.9781 30.4181 2.5
      vertex 45.9126 30.8316 0
      vertex 45.9126 30.8316 2.5
    endloop
  endfacet
  facet normal 0.987685 0.156453 0
    outer loop
      vertex 45.9126 30.8316 0
      vertex 45.9781 30.4181 2.5
      vertex 45.9781 30.4181 0
    endloop
  endfacet
  facet normal 0.998631 0.0523081 0
    outer loop
      vertex 46 30 2.5
      vertex 45.9781 30.4181 0
      vertex 45.9781 30.4181 2.5
    endloop
  endfacet
  facet normal 0.998631 0.0523081 0
    outer loop
      vertex 45.9781 30.4181 0
      vertex 46 30 2.5
      vertex 46 30 0
    endloop
  endfacet
  facet normal 0.965917 0.258851 0
    outer loop
      vertex 45.9126 30.8316 2.5
      vertex 45.8042 31.2361 0
      vertex 45.8042 31.2361 2.5
    endloop
  endfacet
  facet normal 0.965917 0.258851 0
    outer loop
      vertex 45.8042 31.2361 0
      vertex 45.9126 30.8316 2.5
      vertex 45.9126 30.8316 0
    endloop
  endfacet
  facet normal 0.453983 -0.89101 0
    outer loop
      vertex 43.6269 26.3458 0
      vertex 44 26.5359 2.5
      vertex 43.6269 26.3458 2.5
    endloop
  endfacet
  facet normal 0.453983 -0.89101 0
    outer loop
      vertex 44 26.5359 2.5
      vertex 43.6269 26.3458 0
      vertex 44 26.5359 0
    endloop
  endfacet
  facet normal -0.156453 0.987685 0
    outer loop
      vertex 41.5819 33.9781 0
      vertex 41.1684 33.9126 2.5
      vertex 41.5819 33.9781 2.5
    endloop
  endfacet
  facet normal -0.156453 0.987685 0
    outer loop
      vertex 41.1684 33.9126 2.5
      vertex 41.5819 33.9781 0
      vertex 41.1684 33.9126 0
    endloop
  endfacet
  facet normal -0.258851 -0.965917 0
    outer loop
      vertex 40.7639 26.1958 0
      vertex 41.1684 26.0874 2.5
      vertex 40.7639 26.1958 2.5
    endloop
  endfacet
  facet normal -0.258851 -0.965917 -0
    outer loop
      vertex 41.1684 26.0874 2.5
      vertex 40.7639 26.1958 0
      vertex 41.1684 26.0874 0
    endloop
  endfacet
  facet normal 0.358339 0.933592 -0
    outer loop
      vertex 43.6269 33.6542 0
      vertex 43.2361 33.8042 2.5
      vertex 43.6269 33.6542 2.5
    endloop
  endfacet
  facet normal 0.358339 0.933592 0
    outer loop
      vertex 43.2361 33.8042 2.5
      vertex 43.6269 33.6542 0
      vertex 43.2361 33.8042 0
    endloop
  endfacet
  facet normal 0.933592 -0.358339 0
    outer loop
      vertex 45.6542 28.3731 2.5
      vertex 45.8042 28.7639 0
      vertex 45.8042 28.7639 2.5
    endloop
  endfacet
  facet normal 0.933592 -0.358339 0
    outer loop
      vertex 45.8042 28.7639 0
      vertex 45.6542 28.3731 2.5
      vertex 45.6542 28.3731 0
    endloop
  endfacet
  facet normal -0.258851 0.965917 0
    outer loop
      vertex 41.1684 33.9126 0
      vertex 40.7639 33.8042 2.5
      vertex 41.1684 33.9126 2.5
    endloop
  endfacet
  facet normal -0.258851 0.965917 0
    outer loop
      vertex 40.7639 33.8042 2.5
      vertex 41.1684 33.9126 0
      vertex 40.7639 33.8042 0
    endloop
  endfacet
  facet normal -0.707107 0.707107 0
    outer loop
      vertex 39.0274 32.6765 0
      vertex 39.3235 32.9726 2.5
      vertex 39.3235 32.9726 0
    endloop
  endfacet
  facet normal -0.707107 0.707107 0
    outer loop
      vertex 39.3235 32.9726 2.5
      vertex 39.0274 32.6765 0
      vertex 39.0274 32.6765 2.5
    endloop
  endfacet
  facet normal -0.544627 0.838678 0
    outer loop
      vertex 40 33.4641 0
      vertex 39.6489 33.2361 2.5
      vertex 40 33.4641 2.5
    endloop
  endfacet
  facet normal -0.544627 0.838678 0
    outer loop
      vertex 39.6489 33.2361 2.5
      vertex 40 33.4641 0
      vertex 39.6489 33.2361 0
    endloop
  endfacet
  facet normal 0.453983 0.89101 -0
    outer loop
      vertex 44 33.4641 0
      vertex 43.6269 33.6542 2.5
      vertex 44 33.4641 2.5
    endloop
  endfacet
  facet normal 0.453983 0.89101 0
    outer loop
      vertex 43.6269 33.6542 2.5
      vertex 44 33.4641 0
      vertex 43.6269 33.6542 0
    endloop
  endfacet
  facet normal 0.707107 -0.707107 0
    outer loop
      vertex 44.6765 27.0274 0
      vertex 44.9726 27.3235 2.5
      vertex 44.6765 27.0274 2.5
    endloop
  endfacet
  facet normal 0.707107 -0.707107 0
    outer loop
      vertex 44.9726 27.3235 2.5
      vertex 44.6765 27.0274 0
      vertex 44.9726 27.3235 0
    endloop
  endfacet
  facet normal 0 0 1
    outer loop
      vertex 45.9781 30.4181 2.5
      vertex 45.9781 29.5819 2.5
      vertex 46 30 2.5
    endloop
  endfacet
  facet normal 0 0 1
    outer loop
      vertex 45.9126 30.8316 2.5
      vertex 45.9781 29.5819 2.5
      vertex 45.9781 30.4181 2.5
    endloop
  endfacet
  facet normal 0 0 1
    outer loop
      vertex 45.9126 30.8316 2.5
      vertex 45.9126 29.1684 2.5
      vertex 45.9781 29.5819 2.5
    endloop
  endfacet
  facet normal 0 0 1
    outer loop
      vertex 45.8042 31.2361 2.5
      vertex 45.9126 29.1684 2.5
      vertex 45.9126 30.8316 2.5
    endloop
  endfacet
  facet normal 0 0 1
    outer loop
      vertex 45.8042 31.2361 2.5
      vertex 45.8042 28.7639 2.5
      vertex 45.9126 29.1684 2.5
    endloop
  endfacet
  facet normal 0 0 1
    outer loop
      vertex 45.6542 31.6269 2.5
      vertex 45.8042 28.7639 2.5
      vertex 45.8042 31.2361 2.5
    endloop
  endfacet
  facet normal 0 0 1
    outer loop
      vertex 45.6542 31.6269 2.5
      vertex 45.6542 28.3731 2.5
      vertex 45.8042 28.7639 2.5
    endloop
  endfacet
  facet normal 0 0 1
    outer loop
      vertex 45.4641 32 2.5
      vertex 45.6542 28.3731 2.5
      vertex 45.6542 31.6269 2.5
    endloop
  endfacet
  facet normal 0 0 1
    outer loop
      vertex 45.4641 32 2.5
      vertex 45.4641 28 2.5
      vertex 45.6542 28.3731 2.5
    endloop
  endfacet
  facet normal 0 0 1
    outer loop
      vertex 45.2361 32.3511 2.5
      vertex 45.4641 28 2.5
      vertex 45.4641 32 2.5
    endloop
  endfacet
  facet normal 0 0 1
    outer loop
      vertex 45.2361 32.3511 2.5
      vertex 45.2361 27.6489 2.5
      vertex 45.4641 28 2.5
    endloop
  endfacet
  facet normal 0 0 1
    outer loop
      vertex 44.9726 32.6765 2.5
      vertex 45.2361 27.6489 2.5
      vertex 45.2361 32.3511 2.5
    endloop
  endfacet
  facet normal 0 0 1
    outer loop
      vertex 44.9726 32.6765 2.5
      vertex 44.9726 27.3235 2.5
      vertex 45.2361 27.6489 2.5
    endloop
  endfacet
  facet normal 0 0 1
    outer loop
      vertex 44.6765 32.9726 2.5
      vertex 44.9726 27.3235 2.5
      vertex 44.9726 32.6765 2.5
    endloop
  endfacet
  facet normal 0 0 1
    outer loop
      vertex 44.6765 32.9726 2.5
      vertex 44.6765 27.0274 2.5
      vertex 44.9726 27.3235 2.5
    endloop
  endfacet
  facet normal 0 0 1
    outer loop
      vertex 44.3511 33.2361 2.5
      vertex 44.6765 27.0274 2.5
      vertex 44.6765 32.9726 2.5
    endloop
  endfacet
  facet normal 0 0 1
    outer loop
      vertex 44.3511 33.2361 2.5
      vertex 44.3511 26.7639 2.5
      vertex 44.6765 27.0274 2.5
    endloop
  endfacet
  facet normal 0 0 1
    outer loop
      vertex 44 33.4641 2.5
      vertex 44.3511 26.7639 2.5
      vertex 44.3511 33.2361 2.5
    endloop
  endfacet
  facet normal 0 0 1
    outer loop
      vertex 44 33.4641 2.5
      vertex 44 26.5359 2.5
      vertex 44.3511 26.7639 2.5
    endloop
  endfacet
  facet normal 0 0 1
    outer loop
      vertex 43.6269 33.6542 2.5
      vertex 44 26.5359 2.5
      vertex 44 33.4641 2.5
    endloop
  endfacet
  facet normal 0 0 1
    outer loop
      vertex 43.6269 33.6542 2.5
      vertex 43.6269 26.3458 2.5
      vertex 44 26.5359 2.5
    endloop
  endfacet
  facet normal 0 0 1
    outer loop
      vertex 43.2361 33.8042 2.5
      vertex 43.6269 26.3458 2.5
      vertex 43.6269 33.6542 2.5
    endloop
  endfacet
  facet normal 0 0 1
    outer loop
      vertex 43.2361 33.8042 2.5
      vertex 43.2361 26.1958 2.5
      vertex 43.6269 26.3458 2.5
    endloop
  endfacet
  facet normal 0 0 1
    outer loop
      vertex 42.8316 33.9126 2.5
      vertex 43.2361 26.1958 2.5
      vertex 43.2361 33.8042 2.5
    endloop
  endfacet
  facet normal 0 0 1
    outer loop
      vertex 42.8316 33.9126 2.5
      vertex 42.8316 26.0874 2.5
      vertex 43.2361 26.1958 2.5
    endloop
  endfacet
  facet normal 0 0 1
    outer loop
      vertex 42.4181 33.9781 2.5
      vertex 42.8316 26.0874 2.5
      vertex 42.8316 33.9126 2.5
    endloop
  endfacet
  facet normal 0 0 1
    outer loop
      vertex 42.4181 33.9781 2.5
      vertex 42.4181 26.0219 2.5
      vertex 42.8316 26.0874 2.5
    endloop
  endfacet
  facet normal 0 0 1
    outer loop
      vertex 42 34 2.5
      vertex 42.4181 26.0219 2.5
      vertex 42.4181 33.9781 2.5
    endloop
  endfacet
  facet normal 0 0 1
    outer loop
      vertex 42 34 2.5
      vertex 42 26 2.5
      vertex 42.4181 26.0219 2.5
    endloop
  endfacet
  facet normal -0 0 1
    outer loop
      vertex 41.5819 33.9781 2.5
      vertex 42 26 2.5
      vertex 42 34 2.5
    endloop
  endfacet
  facet normal 0 0 1
    outer loop
      vertex 41.5819 33.9781 2.5
      vertex 41.5819 26.0219 2.5
      vertex 42 26 2.5
    endloop
  endfacet
  facet normal -0 0 1
    outer loop
      vertex 41.1684 33.9126 2.5
      vertex 41.5819 26.0219 2.5
      vertex 41.5819 33.9781 2.5
    endloop
  endfacet
  facet normal 0 0 1
    outer loop
      vertex 41.1684 33.9126 2.5
      vertex 41.1684 26.0874 2.5
      vertex 41.5819 26.0219 2.5
    endloop
  endfacet
  facet normal -0 0 1
    outer loop
      vertex 40.7639 33.8042 2.5
      vertex 41.1684 26.0874 2.5
      vertex 41.1684 33.9126 2.5
    endloop
  endfacet
  facet normal 0 0 1
    outer loop
      vertex 40.7639 33.8042 2.5
      vertex 40.7639 26.1958 2.5
      vertex 41.1684 26.0874 2.5
    endloop
  endfacet
  facet normal -0 0 1
    outer loop
      vertex 40.3731 33.6542 2.5
      vertex 40.7639 26.1958 2.5
      vertex 40.7639 33.8042 2.5
    endloop
  endfacet
  facet normal 0 0 1
    outer loop
      vertex 40.3731 33.6542 2.5
      vertex 40.3731 26.3458 2.5
      vertex 40.7639 26.1958 2.5
    endloop
  endfacet
  facet normal -0 0 1
    outer loop
      vertex 40 33.4641 2.5
      vertex 40.3731 26.3458 2.5
      vertex 40.3731 33.6542 2.5
    endloop
  endfacet
  facet normal 0 0 1
    outer loop
      vertex 40 33.4641 2.5
      vertex 40 26.5359 2.5
      vertex 40.3731 26.3458 2.5
    endloop
  endfacet
  facet normal -0 0 1
    outer loop
      vertex 39.6489 33.2361 2.5
      vertex 40 26.5359 2.5
      vertex 40 33.4641 2.5
    endloop
  endfacet
  facet normal 0 0 1
    outer loop
      vertex 39.6489 33.2361 2.5
      vertex 39.6489 26.7639 2.5
      vertex 40 26.5359 2.5
    endloop
  endfacet
  facet normal -0 0 1
    outer loop
      vertex 39.3235 32.9726 2.5
      vertex 39.6489 26.7639 2.5
      vertex 39.6489 33.2361 2.5
    endloop
  endfacet
  facet normal 0 0 1
    outer loop
      vertex 39.3235 32.9726 2.5
      vertex 39.3235 27.0274 2.5
      vertex 39.6489 26.7639 2.5
    endloop
  endfacet
  facet normal -0 0 1
    outer loop
      vertex 39.0274 32.6765 2.5
      vertex 39.3235 27.0274 2.5
      vertex 39.3235 32.9726 2.5
    endloop
  endfacet
  facet normal 0 0 1
    outer loop
      vertex 39.0274 32.6765 2.5
      vertex 39.0274 27.3235 2.5
      vertex 39.3235 27.0274 2.5
    endloop
  endfacet
  facet normal -0 0 1
    outer loop
      vertex 38.7639 32.3511 2.5
      vertex 39.0274 27.3235 2.5
      vertex 39.0274 32.6765 2.5
    endloop
  endfacet
  facet normal 0 0 1
    outer loop
      vertex 38.7639 32.3511 2.5
      vertex 38.7639 27.6489 2.5
      vertex 39.0274 27.3235 2.5
    endloop
  endfacet
  facet normal -0 0 1
    outer loop
      vertex 38.5359 32 2.5
      vertex 38.7639 27.6489 2.5
      vertex 38.7639 32.3511 2.5
    endloop
  endfacet
  facet normal 0 0 1
    outer loop
      vertex 38.5359 32 2.5
      vertex 38.5359 28 2.5
      vertex 38.7639 27.6489 2.5
    endloop
  endfacet
  facet normal -0 0 1
    outer loop
      vertex 38.3458 31.6269 2.5
      vertex 38.5359 28 2.5
      vertex 38.5359 32 2.5
    endloop
  endfacet
  facet normal 0 0 1
    outer loop
      vertex 38.3458 31.6269 2.5
      vertex 38.3458 28.3731 2.5
      vertex 38.5359 28 2.5
    endloop
  endfacet
  facet normal -0 0 1
    outer loop
      vertex 38.1958 31.2361 2.5
      vertex 38.3458 28.3731 2.5
      vertex 38.3458 31.6269 2.5
    endloop
  endfacet
  facet normal 0 0 1
    outer loop
      vertex 38.1958 31.2361 2.5
      vertex 38.1958 28.7639 2.5
      vertex 38.3458 28.3731 2.5
    endloop
  endfacet
  facet normal -0 0 1
    outer loop
      vertex 38.0874 30.8316 2.5
      vertex 38.1958 28.7639 2.5
      vertex 38.1958 31.2361 2.5
    endloop
  endfacet
  facet normal 0 0 1
    outer loop
      vertex 38.0874 30.8316 2.5
      vertex 38.0874 29.1684 2.5
      vertex 38.1958 28.7639 2.5
    endloop
  endfacet
  facet normal -0 0 1
    outer loop
      vertex 38.0219 30.4181 2.5
      vertex 38.0874 29.1684 2.5
      vertex 38.0874 30.8316 2.5
    endloop
  endfacet
  facet normal 0 0 1
    outer loop
      vertex 38.0219 30.4181 2.5
      vertex 38.0219 29.5819 2.5
      vertex 38.0874 29.1684 2.5
    endloop
  endfacet
  facet normal 0 -0 1
    outer loop
      vertex 38.0219 29.5819 2.5
      vertex 38.0219 30.4181 2.5
      vertex 38 30 2.5
    endloop
  endfacet
  facet normal 0.629315 -0.77715 0
    outer loop
      vertex 44.3511 26.7639 0
      vertex 44.6765 27.0274 2.5
      vertex 44.3511 26.7639 2.5
    endloop
  endfacet
  facet normal 0.629315 -0.77715 0
    outer loop
      vertex 44.6765 27.0274 2.5
      vertex 44.3511 26.7639 0
      vertex 44.6765 27.0274 0
    endloop
  endfacet
  facet normal -0.987685 -0.156453 0
    outer loop
      vertex 38.0874 29.1684 0
      vertex 38.0219 29.5819 2.5
      vertex 38.0219 29.5819 0
    endloop
  endfacet
  facet normal -0.987685 -0.156453 0
    outer loop
      vertex 38.0219 29.5819 2.5
      vertex 38.0874 29.1684 0
      vertex 38.0874 29.1684 2.5
    endloop
  endfacet
  facet normal -0.838678 -0.544627 0
    outer loop
      vertex 38.7639 27.6489 0
      vertex 38.5359 28 2.5
      vertex 38.5359 28 0
    endloop
  endfacet
  facet normal -0.838678 -0.544627 0
    outer loop
      vertex 38.5359 28 2.5
      vertex 38.7639 27.6489 0
      vertex 38.7639 27.6489 2.5
    endloop
  endfacet
  facet normal 0.544627 0.838678 -0
    outer loop
      vertex 44.3511 33.2361 0
      vertex 44 33.4641 2.5
      vertex 44.3511 33.2361 2.5
    endloop
  endfacet
  facet normal 0.544627 0.838678 0
    outer loop
      vertex 44 33.4641 2.5
      vertex 44.3511 33.2361 0
      vertex 44 33.4641 0
    endloop
  endfacet
  facet normal 0.965917 -0.258851 0
    outer loop
      vertex 45.8042 28.7639 2.5
      vertex 45.9126 29.1684 0
      vertex 45.9126 29.1684 2.5
    endloop
  endfacet
  facet normal 0.965917 -0.258851 0
    outer loop
      vertex 45.9126 29.1684 0
      vertex 45.8042 28.7639 2.5
      vertex 45.8042 28.7639 0
    endloop
  endfacet
  facet normal -0.998631 -0.0523081 0
    outer loop
      vertex 38.0219 29.5819 0
      vertex 38 30 2.5
      vertex 38 30 0
    endloop
  endfacet
  facet normal -0.998631 -0.0523081 0
    outer loop
      vertex 38 30 2.5
      vertex 38.0219 29.5819 0
      vertex 38.0219 29.5819 2.5
    endloop
  endfacet
  facet normal -0.933592 0.358339 0
    outer loop
      vertex 38.1958 31.2361 0
      vertex 38.3458 31.6269 2.5
      vertex 38.3458 31.6269 0
    endloop
  endfacet
  facet normal -0.933592 0.358339 0
    outer loop
      vertex 38.3458 31.6269 2.5
      vertex 38.1958 31.2361 0
      vertex 38.1958 31.2361 2.5
    endloop
  endfacet
  facet normal 0.156453 -0.987685 0
    outer loop
      vertex 42.4181 26.0219 0
      vertex 42.8316 26.0874 2.5
      vertex 42.4181 26.0219 2.5
    endloop
  endfacet
  facet normal 0.156453 -0.987685 0
    outer loop
      vertex 42.8316 26.0874 2.5
      vertex 42.4181 26.0219 0
      vertex 42.8316 26.0874 0
    endloop
  endfacet
  facet normal 0.77715 0.629315 0
    outer loop
      vertex 45.2361 32.3511 2.5
      vertex 44.9726 32.6765 0
      vertex 44.9726 32.6765 2.5
    endloop
  endfacet
  facet normal 0.77715 0.629315 0
    outer loop
      vertex 44.9726 32.6765 0
      vertex 45.2361 32.3511 2.5
      vertex 45.2361 32.3511 0
    endloop
  endfacet
  facet normal -0.933592 -0.358339 0
    outer loop
      vertex 38.3458 28.3731 0
      vertex 38.1958 28.7639 2.5
      vertex 38.1958 28.7639 0
    endloop
  endfacet
  facet normal -0.933592 -0.358339 0
    outer loop
      vertex 38.1958 28.7639 2.5
      vertex 38.3458 28.3731 0
      vertex 38.3458 28.3731 2.5
    endloop
  endfacet
  facet normal -0.987685 0.156453 0
    outer loop
      vertex 38.0219 30.4181 0
      vertex 38.0874 30.8316 2.5
      vertex 38.0874 30.8316 0
    endloop
  endfacet
  facet normal -0.987685 0.156453 0
    outer loop
      vertex 38.0874 30.8316 2.5
      vertex 38.0219 30.4181 0
      vertex 38.0219 30.4181 2.5
    endloop
  endfacet
  facet normal 0.707107 0.707107 0
    outer loop
      vertex 44.9726 32.6765 2.5
      vertex 44.6765 32.9726 0
      vertex 44.6765 32.9726 2.5
    endloop
  endfacet
  facet normal 0.707107 0.707107 0
    outer loop
      vertex 44.6765 32.9726 0
      vertex 44.9726 32.6765 2.5
      vertex 44.9726 32.6765 0
    endloop
  endfacet
  facet normal 0.544627 -0.838678 0
    outer loop
      vertex 44 26.5359 0
      vertex 44.3511 26.7639 2.5
      vertex 44 26.5359 2.5
    endloop
  endfacet
  facet normal 0.544627 -0.838678 0
    outer loop
      vertex 44.3511 26.7639 2.5
      vertex 44 26.5359 0
      vertex 44.3511 26.7639 0
    endloop
  endfacet
  facet normal -0.0523081 0.998631 0
    outer loop
      vertex 42 34 0
      vertex 41.5819 33.9781 2.5
      vertex 42 34 2.5
    endloop
  endfacet
  facet normal -0.0523081 0.998631 0
    outer loop
      vertex 41.5819 33.9781 2.5
      vertex 42 34 0
      vertex 41.5819 33.9781 0
    endloop
  endfacet
  facet normal -0.838678 0.544627 0
    outer loop
      vertex 38.5359 32 0
      vertex 38.7639 32.3511 2.5
      vertex 38.7639 32.3511 0
    endloop
  endfacet
  facet normal -0.838678 0.544627 0
    outer loop
      vertex 38.7639 32.3511 2.5
      vertex 38.5359 32 0
      vertex 38.5359 32 2.5
    endloop
  endfacet
  facet normal -0.965917 0.258851 0
    outer loop
      vertex 38.0874 30.8316 0
      vertex 38.1958 31.2361 2.5
      vertex 38.1958 31.2361 0
    endloop
  endfacet
  facet normal -0.965917 0.258851 0
    outer loop
      vertex 38.1958 31.2361 2.5
      vertex 38.0874 30.8316 0
      vertex 38.0874 30.8316 2.5
    endloop
  endfacet
  facet normal 0.987685 -0.156453 0
    outer loop
      vertex 45.9126 29.1684 2.5
      vertex 45.9781 29.5819 0
      vertex 45.9781 29.5819 2.5
    endloop
  endfacet
  facet normal 0.987685 -0.156453 0
    outer loop
      vertex 45.9781 29.5819 0
      vertex 45.9126 29.1684 2.5
      vertex 45.9126 29.1684 0
    endloop
  endfacet
  facet normal -0.89101 -0.453983 0
    outer loop
      vertex 38.5359 28 0
      vertex 38.3458 28.3731 2.5
      vertex 38.3458 28.3731 0
    endloop
  endfacet
  facet normal -0.89101 -0.453983 0
    outer loop
      vertex 38.3458 28.3731 2.5
      vertex 38.5359 28 0
      vertex 38.5359 28 2.5
    endloop
  endfacet
  facet normal 0.998631 -0.0523081 0
    outer loop
      vertex 45.9781 29.5819 2.5
      vertex 46 30 0
      vertex 46 30 2.5
    endloop
  endfacet
  facet normal 0.998631 -0.0523081 0
    outer loop
      vertex 46 30 0
      vertex 45.9781 29.5819 2.5
      vertex 45.9781 29.5819 0
    endloop
  endfacet
  facet normal 0.358339 -0.933592 0
    outer loop
      vertex 43.2361 26.1958 0
      vertex 43.6269 26.3458 2.5
      vertex 43.2361 26.1958 2.5
    endloop
  endfacet
  facet normal 0.358339 -0.933592 0
    outer loop
      vertex 43.6269 26.3458 2.5
      vertex 43.2361 26.1958 0
      vertex 43.6269 26.3458 0
    endloop
  endfacet
  facet normal 0.258851 -0.965917 0
    outer loop
      vertex 42.8316 26.0874 0
      vertex 43.2361 26.1958 2.5
      vertex 42.8316 26.0874 2.5
    endloop
  endfacet
  facet normal 0.258851 -0.965917 0
    outer loop
      vertex 43.2361 26.1958 2.5
      vertex 42.8316 26.0874 0
      vertex 43.2361 26.1958 0
    endloop
  endfacet
  facet normal 0.933592 0.358339 0
    outer loop
      vertex 45.8042 31.2361 2.5
      vertex 45.6542 31.6269 0
      vertex 45.6542 31.6269 2.5
    endloop
  endfacet
  facet normal 0.933592 0.358339 0
    outer loop
      vertex 45.6542 31.6269 0
      vertex 45.8042 31.2361 2.5
      vertex 45.8042 31.2361 0
    endloop
  endfacet
  facet normal 0.838678 -0.544627 0
    outer loop
      vertex 45.2361 27.6489 2.5
      vertex 45.4641 28 0
      vertex 45.4641 28 2.5
    endloop
  endfacet
  facet normal 0.838678 -0.544627 0
    outer loop
      vertex 45.4641 28 0
      vertex 45.2361 27.6489 2.5
      vertex 45.2361 27.6489 0
    endloop
  endfacet
  facet normal 0.89101 -0.453983 0
    outer loop
      vertex 45.4641 28 2.5
      vertex 45.6542 28.3731 0
      vertex 45.6542 28.3731 2.5
    endloop
  endfacet
  facet normal 0.89101 -0.453983 0
    outer loop
      vertex 45.6542 28.3731 0
      vertex 45.4641 28 2.5
      vertex 45.4641 28 0
    endloop
  endfacet
  facet normal -0.358339 0.933592 0
    outer loop
      vertex 40.7639 33.8042 0
      vertex 40.3731 33.6542 2.5
      vertex 40.7639 33.8042 2.5
    endloop
  endfacet
  facet normal -0.358339 0.933592 0
    outer loop
      vertex 40.3731 33.6542 2.5
      vertex 40.7639 33.8042 0
      vertex 40.3731 33.6542 0
    endloop
  endfacet
  facet normal -0.89101 0.453983 0
    outer loop
      vertex 38.3458 31.6269 0
      vertex 38.5359 32 2.5
      vertex 38.5359 32 0
    endloop
  endfacet
  facet normal -0.89101 0.453983 0
    outer loop
      vertex 38.5359 32 2.5
      vertex 38.3458 31.6269 0
      vertex 38.3458 31.6269 2.5
    endloop
  endfacet
  facet normal -0.453983 -0.89101 0
    outer loop
      vertex 40 26.5359 0
      vertex 40.3731 26.3458 2.5
      vertex 40 26.5359 2.5
    endloop
  endfacet
  facet normal -0.453983 -0.89101 -0
    outer loop
      vertex 40.3731 26.3458 2.5
      vertex 40 26.5359 0
      vertex 40.3731 26.3458 0
    endloop
  endfacet
  facet normal 0.89101 0.453983 0
    outer loop
      vertex 45.6542 31.6269 2.5
      vertex 45.4641 32 0
      vertex 45.4641 32 2.5
    endloop
  endfacet
  facet normal 0.89101 0.453983 0
    outer loop
      vertex 45.4641 32 0
      vertex 45.6542 31.6269 2.5
      vertex 45.6542 31.6269 0
    endloop
  endfacet
  facet normal -0.629315 0.77715 0
    outer loop
      vertex 39.6489 33.2361 0
      vertex 39.3235 32.9726 2.5
      vertex 39.6489 33.2361 2.5
    endloop
  endfacet
  facet normal -0.629315 0.77715 0
    outer loop
      vertex 39.3235 32.9726 2.5
      vertex 39.6489 33.2361 0
      vertex 39.3235 32.9726 0
    endloop
  endfacet
  facet normal 0.838678 0.544627 0
    outer loop
      vertex 45.4641 32 2.5
      vertex 45.2361 32.3511 0
      vertex 45.2361 32.3511 2.5
    endloop
  endfacet
  facet normal 0.838678 0.544627 0
    outer loop
      vertex 45.2361 32.3511 0
      vertex 45.4641 32 2.5
      vertex 45.4641 32 0
    endloop
  endfacet
  facet normal -0.156453 -0.987685 0
    outer loop
      vertex 41.1684 26.0874 0
      vertex 41.5819 26.0219 2.5
      vertex 41.1684 26.0874 2.5
    endloop
  endfacet
  facet normal -0.156453 -0.987685 -0
    outer loop
      vertex 41.5819 26.0219 2.5
      vertex 41.1684 26.0874 0
      vertex 41.5819 26.0219 0
    endloop
  endfacet
  facet normal -0.0523081 -0.998631 0
    outer loop
      vertex 41.5819 26.0219 0
      vertex 42 26 2.5
      vertex 41.5819 26.0219 2.5
    endloop
  endfacet
  facet normal -0.0523081 -0.998631 -0
    outer loop
      vertex 42 26 2.5
      vertex 41.5819 26.0219 0
      vertex 42 26 0
    endloop
  endfacet
  facet normal -0.453983 0.89101 0
    outer loop
      vertex 40.3731 33.6542 0
      vertex 40 33.4641 2.5
      vertex 40.3731 33.6542 2.5
    endloop
  endfacet
  facet normal -0.453983 0.89101 0
    outer loop
      vertex 40 33.4641 2.5
      vertex 40.3731 33.6542 0
      vertex 40 33.4641 0
    endloop
  endfacet
  facet normal -0.629315 -0.77715 0
    outer loop
      vertex 39.3235 27.0274 0
      vertex 39.6489 26.7639 2.5
      vertex 39.3235 27.0274 2.5
    endloop
  endfacet
  facet normal -0.629315 -0.77715 -0
    outer loop
      vertex 39.6489 26.7639 2.5
      vertex 39.3235 27.0274 0
      vertex 39.6489 26.7639 0
    endloop
  endfacet
  facet normal -0.77715 0.629315 0
    outer loop
      vertex 38.7639 32.3511 0
      vertex 39.0274 32.6765 2.5
      vertex 39.0274 32.6765 0
    endloop
  endfacet
  facet normal -0.77715 0.629315 0
    outer loop
      vertex 39.0274 32.6765 2.5
      vertex 38.7639 32.3511 0
      vertex 38.7639 32.3511 2.5
    endloop
  endfacet
  facet normal -0.544627 -0.838678 0
    outer loop
      vertex 39.6489 26.7639 0
      vertex 40 26.5359 2.5
      vertex 39.6489 26.7639 2.5
    endloop
  endfacet
  facet normal -0.544627 -0.838678 -0
    outer loop
      vertex 40 26.5359 2.5
      vertex 39.6489 26.7639 0
      vertex 40 26.5359 0
    endloop
  endfacet
  facet normal 0.156453 0.987685 -0
    outer loop
      vertex 42.8316 33.9126 0
      vertex 42.4181 33.9781 2.5
      vertex 42.8316 33.9126 2.5
    endloop
  endfacet
  facet normal 0.156453 0.987685 0
    outer loop
      vertex 42.4181 33.9781 2.5
      vertex 42.8316 33.9126 0
      vertex 42.4181 33.9781 0
    endloop
  endfacet
  facet normal 0.629315 0.77715 -0
    outer loop
      vertex 44.6765 32.9726 0
      vertex 44.3511 33.2361 2.5
      vertex 44.6765 32.9726 2.5
    endloop
  endfacet
  facet normal 0.629315 0.77715 0
    outer loop
      vertex 44.3511 33.2361 2.5
      vertex 44.6765 32.9726 0
      vertex 44.3511 33.2361 0
    endloop
  endfacet
  facet normal 0.0523081 0.998631 -0
    outer loop
      vertex 42.4181 33.9781 0
      vertex 42 34 2.5
      vertex 42.4181 33.9781 2.5
    endloop
  endfacet
  facet normal 0.0523081 0.998631 0
    outer loop
      vertex 42 34 2.5
      vertex 42.4181 33.9781 0
      vertex 42 34 0
    endloop
  endfacet
  facet normal -0.965917 -0.258851 0
    outer loop
      vertex 38.1958 28.7639 0
      vertex 38.0874 29.1684 2.5
      vertex 38.0874 29.1684 0
    endloop
  endfacet
  facet normal -0.965917 -0.258851 0
    outer loop
      vertex 38.0874 29.1684 2.5
      vertex 38.1958 28.7639 0
      vertex 38.1958 28.7639 2.5
    endloop
  endfacet
  facet normal 0 0 -1
    outer loop
      vertex 45.9781 29.5819 0
      vertex 45.9781 30.4181 0
      vertex 46 30 0
    endloop
  endfacet
  facet normal 0 0 -1
    outer loop
      vertex 45.9126 29.1684 0
      vertex 45.9781 30.4181 0
      vertex 45.9781 29.5819 0
    endloop
  endfacet
  facet normal 0 0 -1
    outer loop
      vertex 45.9126 29.1684 0
      vertex 45.9126 30.8316 0
      vertex 45.9781 30.4181 0
    endloop
  endfacet
  facet normal 0 0 -1
    outer loop
      vertex 45.8042 28.7639 0
      vertex 45.9126 30.8316 0
      vertex 45.9126 29.1684 0
    endloop
  endfacet
  facet normal 0 0 -1
    outer loop
      vertex 45.8042 28.7639 0
      vertex 45.8042 31.2361 0
      vertex 45.9126 30.8316 0
    endloop
  endfacet
  facet normal 0 0 -1
    outer loop
      vertex 45.6542 28.3731 0
      vertex 45.8042 31.2361 0
      vertex 45.8042 28.7639 0
    endloop
  endfacet
  facet normal 0 0 -1
    outer loop
      vertex 45.6542 28.3731 0
      vertex 45.6542 31.6269 0
      vertex 45.8042 31.2361 0
    endloop
  endfacet
  facet normal 0 0 -1
    outer loop
      vertex 45.4641 28 0
      vertex 45.6542 31.6269 0
      vertex 45.6542 28.3731 0
    endloop
  endfacet
  facet normal 0 0 -1
    outer loop
      vertex 45.4641 28 0
      vertex 45.4641 32 0
      vertex 45.6542 31.6269 0
    endloop
  endfacet
  facet normal 0 0 -1
    outer loop
      vertex 45.2361 27.6489 0
      vertex 45.4641 32 0
      vertex 45.4641 28 0
    endloop
  endfacet
  facet normal 0 0 -1
    outer loop
      vertex 45.2361 27.6489 0
      vertex 45.2361 32.3511 0
      vertex 45.4641 32 0
    endloop
  endfacet
  facet normal 0 0 -1
    outer loop
      vertex 44.9726 27.3235 0
      vertex 45.2361 32.3511 0
      vertex 45.2361 27.6489 0
    endloop
  endfacet
  facet normal 0 0 -1
    outer loop
      vertex 44.9726 27.3235 0
      vertex 44.9726 32.6765 0
      vertex 45.2361 32.3511 0
    endloop
  endfacet
  facet normal 0 0 -1
    outer loop
      vertex 44.6765 27.0274 0
      vertex 44.9726 32.6765 0
      vertex 44.9726 27.3235 0
    endloop
  endfacet
  facet normal 0 0 -1
    outer loop
      vertex 44.6765 27.0274 0
      vertex 44.6765 32.9726 0
      vertex 44.9726 32.6765 0
    endloop
  endfacet
  facet normal 0 0 -1
    outer loop
      vertex 44.3511 26.7639 0
      vertex 44.6765 32.9726 0
      vertex 44.6765 27.0274 0
    endloop
  endfacet
  facet normal 0 0 -1
    outer loop
      vertex 44.3511 26.7639 0
      vertex 44.3511 33.2361 0
      vertex 44.6765 32.9726 0
    endloop
  endfacet
  facet normal 0 0 -1
    outer loop
      vertex 44 26.5359 0
      vertex 44.3511 33.2361 0
      vertex 44.3511 26.7639 0
    endloop
  endfacet
  facet normal 0 0 -1
    outer loop
      vertex 44 26.5359 0
      vertex 44 33.4641 0
      vertex 44.3511 33.2361 0
    endloop
  endfacet
  facet normal 0 0 -1
    outer loop
      vertex 43.6269 26.3458 0
      vertex 44 33.4641 0
      vertex 44 26.5359 0
    endloop
  endfacet
  facet normal 0 0 -1
    outer loop
      vertex 43.6269 26.3458 0
      vertex 43.6269 33.6542 0
      vertex 44 33.4641 0
    endloop
  endfacet
  facet normal 0 0 -1
    outer loop
      vertex 43.2361 26.1958 0
      vertex 43.6269 33.6542 0
      vertex 43.6269 26.3458 0
    endloop
  endfacet
  facet normal 0 0 -1
    outer loop
      vertex 43.2361 26.1958 0
      vertex 43.2361 33.8042 0
      vertex 43.6269 33.6542 0
    endloop
  endfacet
  facet normal 0 0 -1
    outer loop
      vertex 42.8316 26.0874 0
      vertex 43.2361 33.8042 0
      vertex 43.2361 26.1958 0
    endloop
  endfacet
  facet normal 0 0 -1
    outer loop
      vertex 42.8316 26.0874 0
      vertex 42.8316 33.9126 0
      vertex 43.2361 33.8042 0
    endloop
  endfacet
  facet normal 0 0 -1
    outer loop
      vertex 42.4181 26.0219 0
      vertex 42.8316 33.9126 0
      vertex 42.8316 26.0874 0
    endloop
  endfacet
  facet normal 0 0 -1
    outer loop
      vertex 42.4181 26.0219 0
      vertex 42.4181 33.9781 0
      vertex 42.8316 33.9126 0
    endloop
  endfacet
  facet normal 0 0 -1
    outer loop
      vertex 42 26 0
      vertex 42.4181 33.9781 0
      vertex 42.4181 26.0219 0
    endloop
  endfacet
  facet normal 0 0 -1
    outer loop
      vertex 42 26 0
      vertex 42 34 0
      vertex 42.4181 33.9781 0
    endloop
  endfacet
  facet normal 0 0 -1
    outer loop
      vertex 41.5819 26.0219 0
      vertex 42 34 0
      vertex 42 26 0
    endloop
  endfacet
  facet normal 0 0 -1
    outer loop
      vertex 41.5819 26.0219 0
      vertex 41.5819 33.9781 0
      vertex 42 34 0
    endloop
  endfacet
  facet normal 0 0 -1
    outer loop
      vertex 41.1684 26.0874 0
      vertex 41.5819 33.9781 0
      vertex 41.5819 26.0219 0
    endloop
  endfacet
  facet normal 0 0 -1
    outer loop
      vertex 41.1684 26.0874 0
      vertex 41.1684 33.9126 0
      vertex 41.5819 33.9781 0
    endloop
  endfacet
  facet normal 0 0 -1
    outer loop
      vertex 40.7639 26.1958 0
      vertex 41.1684 33.9126 0
      vertex 41.1684 26.0874 0
    endloop
  endfacet
  facet normal 0 0 -1
    outer loop
      vertex 40.7639 26.1958 0
      vertex 40.7639 33.8042 0
      vertex 41.1684 33.9126 0
    endloop
  endfacet
  facet normal 0 0 -1
    outer loop
      vertex 40.3731 26.3458 0
      vertex 40.7639 33.8042 0
      vertex 40.7639 26.1958 0
    endloop
  endfacet
  facet normal 0 0 -1
    outer loop
      vertex 40.3731 26.3458 0
      vertex 40.3731 33.6542 0
      vertex 40.7639 33.8042 0
    endloop
  endfacet
  facet normal 0 0 -1
    outer loop
      vertex 40 26.5359 0
      vertex 40.3731 33.6542 0
      vertex 40.3731 26.3458 0
    endloop
  endfacet
  facet normal 0 0 -1
    outer loop
      vertex 40 26.5359 0
      vertex 40 33.4641 0
      vertex 40.3731 33.6542 0
    endloop
  endfacet
  facet normal 0 0 -1
    outer loop
      vertex 39.6489 26.7639 0
      vertex 40 33.4641 0
      vertex 40 26.5359 0
    endloop
  endfacet
  facet normal 0 0 -1
    outer loop
      vertex 39.6489 26.7639 0
      vertex 39.6489 33.2361 0
      vertex 40 33.4641 0
    endloop
  endfacet
  facet normal 0 0 -1
    outer loop
      vertex 39.3235 27.0274 0
      vertex 39.6489 33.2361 0
      vertex 39.6489 26.7639 0
    endloop
  endfacet
  facet normal 0 0 -1
    outer loop
      vertex 39.3235 27.0274 0
      vertex 39.3235 32.9726 0
      vertex 39.6489 33.2361 0
    endloop
  endfacet
  facet normal 0 0 -1
    outer loop
      vertex 39.0274 27.3235 0
      vertex 39.3235 32.9726 0
      vertex 39.3235 27.0274 0
    endloop
  endfacet
  facet normal 0 0 -1
    outer loop
      vertex 39.0274 27.3235 0
      vertex 39.0274 32.6765 0
      vertex 39.3235 32.9726 0
    endloop
  endfacet
  facet normal 0 0 -1
    outer loop
      vertex 38.7639 27.6489 0
      vertex 39.0274 32.6765 0
      vertex 39.0274 27.3235 0
    endloop
  endfacet
  facet normal 0 0 -1
    outer loop
      vertex 38.7639 27.6489 0
      vertex 38.7639 32.3511 0
      vertex 39.0274 32.6765 0
    endloop
  endfacet
  facet normal 0 0 -1
    outer loop
      vertex 38.5359 28 0
      vertex 38.7639 32.3511 0
      vertex 38.7639 27.6489 0
    endloop
  endfacet
  facet normal 0 0 -1
    outer loop
      vertex 38.5359 28 0
      vertex 38.5359 32 0
      vertex 38.7639 32.3511 0
    endloop
  endfacet
  facet normal 0 0 -1
    outer loop
      vertex 38.3458 28.3731 0
      vertex 38.5359 32 0
      vertex 38.5359 28 0
    endloop
  endfacet
  facet normal 0 0 -1
    outer loop
      vertex 38.3458 28.3731 0
      vertex 38.3458 31.6269 0
      vertex 38.5359 32 0
    endloop
  endfacet
  facet normal 0 0 -1
    outer loop
      vertex 38.1958 28.7639 0
      vertex 38.3458 31.6269 0
      vertex 38.3458 28.3731 0
    endloop
  endfacet
  facet normal 0 0 -1
    outer loop
      vertex 38.1958 28.7639 0
      vertex 38.1958 31.2361 0
      vertex 38.3458 31.6269 0
    endloop
  endfacet
  facet normal 0 0 -1
    outer loop
      vertex 38.0874 29.1684 0
      vertex 38.1958 31.2361 0
      vertex 38.1958 28.7639 0
    endloop
  endfacet
  facet normal 0 0 -1
    outer loop
      vertex 38.0874 29.1684 0
      vertex 38.0874 30.8316 0
      vertex 38.1958 31.2361 0
    endloop
  endfacet
  facet normal 0 0 -1
    outer loop
      vertex 38.0219 29.5819 0
      vertex 38.0874 30.8316 0
      vertex 38.0874 29.1684 0
    endloop
  endfacet
  facet normal 0 0 -1
    outer loop
      vertex 38.0219 29.5819 0
      vertex 38.0219 30.4181 0
      vertex 38.0874 30.8316 0
    endloop
  endfacet
  facet normal 0 -0 -1
    outer loop
      vertex 38.0219 30.4181 0
      vertex 38.0219 29.5819 0
      vertex 38 30 0
    endloop
  endfacet
  facet normal -0.358339 -0.933592 0
    outer loop
      vertex 40.3731 26.3458 0
      vertex 40.7639 26.1958 2.5
      vertex 40.3731 26.3458 2.5
    endloop
  endfacet
  facet normal -0.358339 -0.933592 -0
    outer loop
      vertex 40.7639 26.1958 2.5
      vertex 40.3731 26.3458 0
      vertex 40.7639 26.1958 0
    endloop
  endfacet
  facet normal 0.258851 0.965917 -0
    outer loop
      vertex 43.2361 33.8042 0
      vertex 42.8316 33.9126 2.5
      vertex 43.2361 33.8042 2.5
    endloop
  endfacet
  facet normal 0.258851 0.965917 0
    outer loop
      vertex 42.8316 33.9126 2.5
      vertex 43.2361 33.8042 0
      vertex 42.8316 33.9126 0
    endloop
  endfacet
  facet normal -0.707107 -0.707107 0
    outer loop
      vertex 39.0274 27.3235 0
      vertex 39.3235 27.0274 2.5
      vertex 39.0274 27.3235 2.5
    endloop
  endfacet
  facet normal -0.707107 -0.707107 -0
    outer loop
      vertex 39.3235 27.0274 2.5
      vertex 39.0274 27.3235 0
      vertex 39.3235 27.0274 0
    endloop
  endfacet
  facet normal 0.0523081 -0.998631 0
    outer loop
      vertex 42 26 0
      vertex 42.4181 26.0219 2.5
      vertex 42 26 2.5
    endloop
  endfacet
  facet normal 0.0523081 -0.998631 0
    outer loop
      vertex 42.4181 26.0219 2.5
      vertex 42 26 0
      vertex 42.4181 26.0219 0
    endloop
  endfacet
  facet normal -0.77715 -0.629315 0
    outer loop
      vertex 39.0274 27.3235 0
      vertex 38.7639 27.6489 2.5
      vertex 38.7639 27.6489 0
    endloop
  endfacet
  facet normal -0.77715 -0.629315 0
    outer loop
      vertex 38.7639 27.6489 2.5
      vertex 39.0274 27.3235 0
      vertex 39.0274 27.3235 2.5
    endloop
  endfacet
  facet normal -0.998631 0.0523081 0
    outer loop
      vertex 38 30 0
      vertex 38.0219 30.4181 2.5
      vertex 38.0219 30.4181 0
    endloop
  endfacet
  facet normal -0.998631 0.0523081 0
    outer loop
      vertex 38.0219 30.4181 2.5
      vertex 38 30 0
      vertex 38 30 2.5
    endloop
  endfacet
  facet normal 0.77715 -0.629315 0
    outer loop
      vertex 44.9726 27.3235 2.5
      vertex 45.2361 27.6489 0
      vertex 45.2361 27.6489 2.5
    endloop
  endfacet
  facet normal 0.77715 -0.629315 0
    outer loop
      vertex 45.2361 27.6489 0
      vertex 44.9726 27.3235 2.5
      vertex 44.9726 27.3235 0
    endloop
  endfacet
  facet normal 0.987685 0.156453 0
    outer loop
      vertex 75.9781 30.4181 2.5
      vertex 75.9126 30.8316 0
      vertex 75.9126 30.8316 2.5
    endloop
  endfacet
  facet normal 0.987685 0.156453 0
    outer loop
      vertex 75.9126 30.8316 0
      vertex 75.9781 30.4181 2.5
      vertex 75.9781 30.4181 0
    endloop
  endfacet
  facet normal 0.998631 0.0523081 0
    outer loop
      vertex 76 30 2.5
      vertex 75.9781 30.4181 0
      vertex 75.9781 30.4181 2.5
    endloop
  endfacet
  facet normal 0.998631 0.0523081 0
    outer loop
      vertex 75.9781 30.4181 0
      vertex 76 30 2.5
      vertex 76 30 0
    endloop
  endfacet
  facet normal 0.965917 0.258851 0
    outer loop
      vertex 75.9126 30.8316 2.5
      vertex 75.8042 31.2361 0
      vertex 75.8042 31.2361 2.5
    endloop
  endfacet
  facet normal 0.965917 0.258851 0
    outer loop
      vertex 75.8042 31.2361 0
      vertex 75.9126 30.8316 2.5
      vertex 75.9126 30.8316 0
    endloop
  endfacet
  facet normal 0.453983 -0.89101 0
    outer loop
      vertex 73.6269 26.3458 0
      vertex 74 26.5359 2.5
      vertex 73.6269 26.3458 2.5
    endloop
  endfacet
  facet normal 0.453983 -0.89101 0
    outer loop
      vertex 74 26.5359 2.5
      vertex 73.6269 26.3458 0
      vertex 74 26.5359 0
    endloop
  endfacet
  facet normal -0.156453 0.987685 0
    outer loop
      vertex 71.5819 33.9781 0
      vertex 71.1684 33.9126 2.5
      vertex 71.5819 33.9781 2.5
    endloop
  endfacet
  facet normal -0.156453 0.987685 0
    outer loop
      vertex 71.1684 33.9126 2.5
      vertex 71.5819 33.9781 0
      vertex 71.1684 33.9126 0
    endloop
  endfacet
  facet normal -0.258851 -0.965917 0
    outer loop
      vertex 70.7639 26.1958 0
      vertex 71.1684 26.0874 2.5
      vertex 70.7639 26.1958 2.5
    endloop
  endfacet
  facet normal -0.258851 -0.965917 -0
    outer loop
      vertex 71.1684 26.0874 2.5
      vertex 70.7639 26.1958 0
      vertex 71.1684 26.0874 0
    endloop
  endfacet
  facet normal 0.358339 0.933592 -0
    outer loop
      vertex 73.6269 33.6542 0
      vertex 73.2361 33.8042 2.5
      vertex 73.6269 33.6542 2.5
    endloop
  endfacet
  facet normal 0.358339 0.933592 0
    outer loop
      vertex 73.2361 33.8042 2.5
      vertex 73.6269 33.6542 0
      vertex 73.2361 33.8042 0
    endloop
  endfacet
  facet normal 0.933592 -0.358339 0
    outer loop
      vertex 75.6542 28.3731 2.5
      vertex 75.8042 28.7639 0
      vertex 75.8042 28.7639 2.5
    endloop
  endfacet
  facet normal 0.933592 -0.358339 0
    outer loop
      vertex 75.8042 28.7639 0
      vertex 75.6542 28.3731 2.5
      vertex 75.6542 28.3731 0
    endloop
  endfacet
  facet normal -0.258851 0.965917 0
    outer loop
      vertex 71.1684 33.9126 0
      vertex 70.7639 33.8042 2.5
      vertex 71.1684 33.9126 2.5
    endloop
  endfacet
  facet normal -0.258851 0.965917 0
    outer loop
      vertex 70.7639 33.8042 2.5
      vertex 71.1684 33.9126 0
      vertex 70.7639 33.8042 0
    endloop
  endfacet
  facet normal -0.707107 0.707107 0
    outer loop
      vertex 69.0274 32.6765 0
      vertex 69.3235 32.9726 2.5
      vertex 69.3235 32.9726 0
    endloop
  endfacet
  facet normal -0.707107 0.707107 0
    outer loop
      vertex 69.3235 32.9726 2.5
      vertex 69.0274 32.6765 0
      vertex 69.0274 32.6765 2.5
    endloop
  endfacet
  facet normal -0.544627 0.838678 0
    outer loop
      vertex 70 33.4641 0
      vertex 69.6489 33.2361 2.5
      vertex 70 33.4641 2.5
    endloop
  endfacet
  facet normal -0.544627 0.838678 0
    outer loop
      vertex 69.6489 33.2361 2.5
      vertex 70 33.4641 0
      vertex 69.6489 33.2361 0
    endloop
  endfacet
  facet normal 0.453983 0.89101 -0
    outer loop
      vertex 74 33.4641 0
      vertex 73.6269 33.6542 2.5
      vertex 74 33.4641 2.5
    endloop
  endfacet
  facet normal 0.453983 0.89101 0
    outer loop
      vertex 73.6269 33.6542 2.5
      vertex 74 33.4641 0
      vertex 73.6269 33.6542 0
    endloop
  endfacet
  facet normal 0.707107 -0.707107 0
    outer loop
      vertex 74.6765 27.0274 0
      vertex 74.9726 27.3235 2.5
      vertex 74.6765 27.0274 2.5
    endloop
  endfacet
  facet normal 0.707107 -0.707107 0
    outer loop
      vertex 74.9726 27.3235 2.5
      vertex 74.6765 27.0274 0
      vertex 74.9726 27.3235 0
    endloop
  endfacet
  facet normal 0 0 1
    outer loop
      vertex 75.9781 30.4181 2.5
      vertex 75.9781 29.5819 2.5
      vertex 76 30 2.5
    endloop
  endfacet
  facet normal 0 0 1
    outer loop
      vertex 75.9126 30.8316 2.5
      vertex 75.9781 29.5819 2.5
      vertex 75.9781 30.4181 2.5
    endloop
  endfacet
  facet normal 0 0 1
    outer loop
      vertex 75.9126 30.8316 2.5
      vertex 75.9126 29.1684 2.5
      vertex 75.9781 29.5819 2.5
    endloop
  endfacet
  facet normal 0 0 1
    outer loop
      vertex 75.8042 31.2361 2.5
      vertex 75.9126 29.1684 2.5
      vertex 75.9126 30.8316 2.5
    endloop
  endfacet
  facet normal 0 0 1
    outer loop
      vertex 75.8042 31.2361 2.5
      vertex 75.8042 28.7639 2.5
      vertex 75.9126 29.1684 2.5
    endloop
  endfacet
  facet normal 0 0 1
    outer loop
      vertex 75.6542 31.6269 2.5
      vertex 75.8042 28.7639 2.5
      vertex 75.8042 31.2361 2.5
    endloop
  endfacet
  facet normal 0 0 1
    outer loop
      vertex 75.6542 31.6269 2.5
      vertex 75.6542 28.3731 2.5
      vertex 75.8042 28.7639 2.5
    endloop
  endfacet
  facet normal 0 0 1
    outer loop
      vertex 75.4641 32 2.5
      vertex 75.6542 28.3731 2.5
      vertex 75.6542 31.6269 2.5
    endloop
  endfacet
  facet normal 0 0 1
    outer loop
      vertex 75.4641 32 2.5
      vertex 75.4641 28 2.5
      vertex 75.6542 28.3731 2.5
    endloop
  endfacet
  facet normal 0 0 1
    outer loop
      vertex 75.2361 32.3511 2.5
      vertex 75.4641 28 2.5
      vertex 75.4641 32 2.5
    endloop
  endfacet
  facet normal 0 0 1
    outer loop
      vertex 75.2361 32.3511 2.5
      vertex 75.2361 27.6489 2.5
      vertex 75.4641 28 2.5
    endloop
  endfacet
  facet normal 0 0 1
    outer loop
      vertex 74.9726 32.6765 2.5
      vertex 75.2361 27.6489 2.5
      vertex 75.2361 32.3511 2.5
    endloop
  endfacet
  facet normal 0 0 1
    outer loop
      vertex 74.9726 32.6765 2.5
      vertex 74.9726 27.3235 2.5
      vertex 75.2361 27.6489 2.5
    endloop
  endfacet
  facet normal 0 0 1
    outer loop
      vertex 74.6765 32.9726 2.5
      vertex 74.9726 27.3235 2.5
      vertex 74.9726 32.6765 2.5
    endloop
  endfacet
  facet normal 0 0 1
    outer loop
      vertex 74.6765 32.9726 2.5
      vertex 74.6765 27.0274 2.5
      vertex 74.9726 27.3235 2.5
    endloop
  endfacet
  facet normal 0 0 1
    outer loop
      vertex 74.3511 33.2361 2.5
      vertex 74.6765 27.0274 2.5
      vertex 74.6765 32.9726 2.5
    endloop
  endfacet
  facet normal 0 0 1
    outer loop
      vertex 74.3511 33.2361 2.5
      vertex 74.3511 26.7639 2.5
      vertex 74.6765 27.0274 2.5
    endloop
  endfacet
  facet normal 0 0 1
    outer loop
      vertex 74 33.4641 2.5
      vertex 74.3511 26.7639 2.5
      vertex 74.3511 33.2361 2.5
    endloop
  endfacet
  facet normal 0 0 1
    outer loop
      vertex 74 33.4641 2.5
      vertex 74 26.5359 2.5
      vertex 74.3511 26.7639 2.5
    endloop
  endfacet
  facet normal 0 0 1
    outer loop
      vertex 73.6269 33.6542 2.5
      vertex 74 26.5359 2.5
      vertex 74 33.4641 2.5
    endloop
  endfacet
  facet normal 0 0 1
    outer loop
      vertex 73.6269 33.6542 2.5
      vertex 73.6269 26.3458 2.5
      vertex 74 26.5359 2.5
    endloop
  endfacet
  facet normal 0 0 1
    outer loop
      vertex 73.2361 33.8042 2.5
      vertex 73.6269 26.3458 2.5
      vertex 73.6269 33.6542 2.5
    endloop
  endfacet
  facet normal 0 0 1
    outer loop
      vertex 73.2361 33.8042 2.5
      vertex 73.2361 26.1958 2.5
      vertex 73.6269 26.3458 2.5
    endloop
  endfacet
  facet normal 0 0 1
    outer loop
      vertex 72.8316 33.9126 2.5
      vertex 73.2361 26.1958 2.5
      vertex 73.2361 33.8042 2.5
    endloop
  endfacet
  facet normal 0 0 1
    outer loop
      vertex 72.8316 33.9126 2.5
      vertex 72.8316 26.0874 2.5
      vertex 73.2361 26.1958 2.5
    endloop
  endfacet
  facet normal 0 0 1
    outer loop
      vertex 72.4181 33.9781 2.5
      vertex 72.8316 26.0874 2.5
      vertex 72.8316 33.9126 2.5
    endloop
  endfacet
  facet normal 0 0 1
    outer loop
      vertex 72.4181 33.9781 2.5
      vertex 72.4181 26.0219 2.5
      vertex 72.8316 26.0874 2.5
    endloop
  endfacet
  facet normal 0 0 1
    outer loop
      vertex 72 34 2.5
      vertex 72.4181 26.0219 2.5
      vertex 72.4181 33.9781 2.5
    endloop
  endfacet
  facet normal 0 0 1
    outer loop
      vertex 72 34 2.5
      vertex 72 26 2.5
      vertex 72.4181 26.0219 2.5
    endloop
  endfacet
  facet normal -0 0 1
    outer loop
      vertex 71.5819 33.9781 2.5
      vertex 72 26 2.5
      vertex 72 34 2.5
    endloop
  endfacet
  facet normal 0 0 1
    outer loop
      vertex 71.5819 33.9781 2.5
      vertex 71.5819 26.0219 2.5
      vertex 72 26 2.5
    endloop
  endfacet
  facet normal -0 0 1
    outer loop
      vertex 71.1684 33.9126 2.5
      vertex 71.5819 26.0219 2.5
      vertex 71.5819 33.9781 2.5
    endloop
  endfacet
  facet normal 0 0 1
    outer loop
      vertex 71.1684 33.9126 2.5
      vertex 71.1684 26.0874 2.5
      vertex 71.5819 26.0219 2.5
    endloop
  endfacet
  facet normal -0 0 1
    outer loop
      vertex 70.7639 33.8042 2.5
      vertex 71.1684 26.0874 2.5
      vertex 71.1684 33.9126 2.5
    endloop
  endfacet
  facet normal 0 0 1
    outer loop
      vertex 70.7639 33.8042 2.5
      vertex 70.7639 26.1958 2.5
      vertex 71.1684 26.0874 2.5
    endloop
  endfacet
  facet normal -0 0 1
    outer loop
      vertex 70.3731 33.6542 2.5
      vertex 70.7639 26.1958 2.5
      vertex 70.7639 33.8042 2.5
    endloop
  endfacet
  facet normal 0 0 1
    outer loop
      vertex 70.3731 33.6542 2.5
      vertex 70.3731 26.3458 2.5
      vertex 70.7639 26.1958 2.5
    endloop
  endfacet
  facet normal -0 0 1
    outer loop
      vertex 70 33.4641 2.5
      vertex 70.3731 26.3458 2.5
      vertex 70.3731 33.6542 2.5
    endloop
  endfacet
  facet normal 0 0 1
    outer loop
      vertex 70 33.4641 2.5
      vertex 70 26.5359 2.5
      vertex 70.3731 26.3458 2.5
    endloop
  endfacet
  facet normal -0 0 1
    outer loop
      vertex 69.6489 33.2361 2.5
      vertex 70 26.5359 2.5
      vertex 70 33.4641 2.5
    endloop
  endfacet
  facet normal 0 0 1
    outer loop
      vertex 69.6489 33.2361 2.5
      vertex 69.6489 26.7639 2.5
      vertex 70 26.5359 2.5
    endloop
  endfacet
  facet normal -0 0 1
    outer loop
      vertex 69.3235 32.9726 2.5
      vertex 69.6489 26.7639 2.5
      vertex 69.6489 33.2361 2.5
    endloop
  endfacet
  facet normal 0 0 1
    outer loop
      vertex 69.3235 32.9726 2.5
      vertex 69.3235 27.0274 2.5
      vertex 69.6489 26.7639 2.5
    endloop
  endfacet
  facet normal -0 0 1
    outer loop
      vertex 69.0274 32.6765 2.5
      vertex 69.3235 27.0274 2.5
      vertex 69.3235 32.9726 2.5
    endloop
  endfacet
  facet normal 0 0 1
    outer loop
      vertex 69.0274 32.6765 2.5
      vertex 69.0274 27.3235 2.5
      vertex 69.3235 27.0274 2.5
    endloop
  endfacet
  facet normal -0 0 1
    outer loop
      vertex 68.7639 32.3511 2.5
      vertex 69.0274 27.3235 2.5
      vertex 69.0274 32.6765 2.5
    endloop
  endfacet
  facet normal 0 0 1
    outer loop
      vertex 68.7639 32.3511 2.5
      vertex 68.7639 27.6489 2.5
      vertex 69.0274 27.3235 2.5
    endloop
  endfacet
  facet normal -0 0 1
    outer loop
      vertex 68.5359 32 2.5
      vertex 68.7639 27.6489 2.5
      vertex 68.7639 32.3511 2.5
    endloop
  endfacet
  facet normal 0 0 1
    outer loop
      vertex 68.5359 32 2.5
      vertex 68.5359 28 2.5
      vertex 68.7639 27.6489 2.5
    endloop
  endfacet
  facet normal -0 0 1
    outer loop
      vertex 68.3458 31.6269 2.5
      vertex 68.5359 28 2.5
      vertex 68.5359 32 2.5
    endloop
  endfacet
  facet normal 0 0 1
    outer loop
      vertex 68.3458 31.6269 2.5
      vertex 68.3458 28.3731 2.5
      vertex 68.5359 28 2.5
    endloop
  endfacet
  facet normal -0 0 1
    outer loop
      vertex 68.1958 31.2361 2.5
      vertex 68.3458 28.3731 2.5
      vertex 68.3458 31.6269 2.5
    endloop
  endfacet
  facet normal 0 0 1
    outer loop
      vertex 68.1958 31.2361 2.5
      vertex 68.1958 28.7639 2.5
      vertex 68.3458 28.3731 2.5
    endloop
  endfacet
  facet normal -0 0 1
    outer loop
      vertex 68.0874 30.8316 2.5
      vertex 68.1958 28.7639 2.5
      vertex 68.1958 31.2361 2.5
    endloop
  endfacet
  facet normal 0 0 1
    outer loop
      vertex 68.0874 30.8316 2.5
      vertex 68.0874 29.1684 2.5
      vertex 68.1958 28.7639 2.5
    endloop
  endfacet
  facet normal -0 0 1
    outer loop
      vertex 68.0219 30.4181 2.5
      vertex 68.0874 29.1684 2.5
      vertex 68.0874 30.8316 2.5
    endloop
  endfacet
  facet normal 0 0 1
    outer loop
      vertex 68.0219 30.4181 2.5
      vertex 68.0219 29.5819 2.5
      vertex 68.0874 29.1684 2.5
    endloop
  endfacet
  facet normal 0 -0 1
    outer loop
      vertex 68.0219 29.5819 2.5
      vertex 68.0219 30.4181 2.5
      vertex 68 30 2.5
    endloop
  endfacet
  facet normal 0.629315 -0.77715 0
    outer loop
      vertex 74.3511 26.7639 0
      vertex 74.6765 27.0274 2.5
      vertex 74.3511 26.7639 2.5
    endloop
  endfacet
  facet normal 0.629315 -0.77715 0
    outer loop
      vertex 74.6765 27.0274 2.5
      vertex 74.3511 26.7639 0
      vertex 74.6765 27.0274 0
    endloop
  endfacet
  facet normal -0.987685 -0.156453 0
    outer loop
      vertex 68.0874 29.1684 0
      vertex 68.0219 29.5819 2.5
      vertex 68.0219 29.5819 0
    endloop
  endfacet
  facet normal -0.987685 -0.156453 0
    outer loop
      vertex 68.0219 29.5819 2.5
      vertex 68.0874 29.1684 0
      vertex 68.0874 29.1684 2.5
    endloop
  endfacet
  facet normal -0.838678 -0.544627 0
    outer loop
      vertex 68.7639 27.6489 0
      vertex 68.5359 28 2.5
      vertex 68.5359 28 0
    endloop
  endfacet
  facet normal -0.838678 -0.544627 0
    outer loop
      vertex 68.5359 28 2.5
      vertex 68.7639 27.6489 0
      vertex 68.7639 27.6489 2.5
    endloop
  endfacet
  facet normal 0.544627 0.838678 -0
    outer loop
      vertex 74.3511 33.2361 0
      vertex 74 33.4641 2.5
      vertex 74.3511 33.2361 2.5
    endloop
  endfacet
  facet normal 0.544627 0.838678 0
    outer loop
      vertex 74 33.4641 2.5
      vertex 74.3511 33.2361 0
      vertex 74 33.4641 0
    endloop
  endfacet
  facet normal 0.965917 -0.258851 0
    outer loop
      vertex 75.8042 28.7639 2.5
      vertex 75.9126 29.1684 0
      vertex 75.9126 29.1684 2.5
    endloop
  endfacet
  facet normal 0.965917 -0.258851 0
    outer loop
      vertex 75.9126 29.1684 0
      vertex 75.8042 28.7639 2.5
      vertex 75.8042 28.7639 0
    endloop
  endfacet
  facet normal -0.998631 -0.0523081 0
    outer loop
      vertex 68.0219 29.5819 0
      vertex 68 30 2.5
      vertex 68 30 0
    endloop
  endfacet
  facet normal -0.998631 -0.0523081 0
    outer loop
      vertex 68 30 2.5
      vertex 68.0219 29.5819 0
      vertex 68.0219 29.5819 2.5
    endloop
  endfacet
  facet normal -0.89101 -0.453983 0
    outer loop
      vertex 68.5359 28 0
      vertex 68.3458 28.3731 2.5
      vertex 68.3458 28.3731 0
    endloop
  endfacet
  facet normal -0.89101 -0.453983 0
    outer loop
      vertex 68.3458 28.3731 2.5
      vertex 68.5359 28 0
      vertex 68.5359 28 2.5
    endloop
  endfacet
  facet normal -0.933592 0.358339 0
    outer loop
      vertex 68.1958 31.2361 0
      vertex 68.3458 31.6269 2.5
      vertex 68.3458 31.6269 0
    endloop
  endfacet
  facet normal -0.933592 0.358339 0
    outer loop
      vertex 68.3458 31.6269 2.5
      vertex 68.1958 31.2361 0
      vertex 68.1958 31.2361 2.5
    endloop
  endfacet
  facet normal 0.156453 -0.987685 0
    outer loop
      vertex 72.4181 26.0219 0
      vertex 72.8316 26.0874 2.5
      vertex 72.4181 26.0219 2.5
    endloop
  endfacet
  facet normal 0.156453 -0.987685 0
    outer loop
      vertex 72.8316 26.0874 2.5
      vertex 72.4181 26.0219 0
      vertex 72.8316 26.0874 0
    endloop
  endfacet
  facet normal 0.77715 0.629315 0
    outer loop
      vertex 75.2361 32.3511 2.5
      vertex 74.9726 32.6765 0
      vertex 74.9726 32.6765 2.5
    endloop
  endfacet
  facet normal 0.77715 0.629315 0
    outer loop
      vertex 74.9726 32.6765 0
      vertex 75.2361 32.3511 2.5
      vertex 75.2361 32.3511 0
    endloop
  endfacet
  facet normal -0.933592 -0.358339 0
    outer loop
      vertex 68.3458 28.3731 0
      vertex 68.1958 28.7639 2.5
      vertex 68.1958 28.7639 0
    endloop
  endfacet
  facet normal -0.933592 -0.358339 0
    outer loop
      vertex 68.1958 28.7639 2.5
      vertex 68.3458 28.3731 0
      vertex 68.3458 28.3731 2.5
    endloop
  endfacet
  facet normal -0.987685 0.156453 0
    outer loop
      vertex 68.0219 30.4181 0
      vertex 68.0874 30.8316 2.5
      vertex 68.0874 30.8316 0
    endloop
  endfacet
  facet normal -0.987685 0.156453 0
    outer loop
      vertex 68.0874 30.8316 2.5
      vertex 68.0219 30.4181 0
      vertex 68.0219 30.4181 2.5
    endloop
  endfacet
  facet normal 0.707107 0.707107 0
    outer loop
      vertex 74.9726 32.6765 2.5
      vertex 74.6765 32.9726 0
      vertex 74.6765 32.9726 2.5
    endloop
  endfacet
  facet normal 0.707107 0.707107 0
    outer loop
      vertex 74.6765 32.9726 0
      vertex 74.9726 32.6765 2.5
      vertex 74.9726 32.6765 0
    endloop
  endfacet
  facet normal 0.544627 -0.838678 0
    outer loop
      vertex 74 26.5359 0
      vertex 74.3511 26.7639 2.5
      vertex 74 26.5359 2.5
    endloop
  endfacet
  facet normal 0.544627 -0.838678 0
    outer loop
      vertex 74.3511 26.7639 2.5
      vertex 74 26.5359 0
      vertex 74.3511 26.7639 0
    endloop
  endfacet
  facet normal -0.0523081 0.998631 0
    outer loop
      vertex 72 34 0
      vertex 71.5819 33.9781 2.5
      vertex 72 34 2.5
    endloop
  endfacet
  facet normal -0.0523081 0.998631 0
    outer loop
      vertex 71.5819 33.9781 2.5
      vertex 72 34 0
      vertex 71.5819 33.9781 0
    endloop
  endfacet
  facet normal 0.838678 0.544627 0
    outer loop
      vertex 75.4641 32 2.5
      vertex 75.2361 32.3511 0
      vertex 75.2361 32.3511 2.5
    endloop
  endfacet
  facet normal 0.838678 0.544627 0
    outer loop
      vertex 75.2361 32.3511 0
      vertex 75.4641 32 2.5
      vertex 75.4641 32 0
    endloop
  endfacet
  facet normal -0.838678 0.544627 0
    outer loop
      vertex 68.5359 32 0
      vertex 68.7639 32.3511 2.5
      vertex 68.7639 32.3511 0
    endloop
  endfacet
  facet normal -0.838678 0.544627 0
    outer loop
      vertex 68.7639 32.3511 2.5
      vertex 68.5359 32 0
      vertex 68.5359 32 2.5
    endloop
  endfacet
  facet normal -0.965917 0.258851 0
    outer loop
      vertex 68.0874 30.8316 0
      vertex 68.1958 31.2361 2.5
      vertex 68.1958 31.2361 0
    endloop
  endfacet
  facet normal -0.965917 0.258851 0
    outer loop
      vertex 68.1958 31.2361 2.5
      vertex 68.0874 30.8316 0
      vertex 68.0874 30.8316 2.5
    endloop
  endfacet
  facet normal 0.987685 -0.156453 0
    outer loop
      vertex 75.9126 29.1684 2.5
      vertex 75.9781 29.5819 0
      vertex 75.9781 29.5819 2.5
    endloop
  endfacet
  facet normal 0.987685 -0.156453 0
    outer loop
      vertex 75.9781 29.5819 0
      vertex 75.9126 29.1684 2.5
      vertex 75.9126 29.1684 0
    endloop
  endfacet
  facet normal 0.998631 -0.0523081 0
    outer loop
      vertex 75.9781 29.5819 2.5
      vertex 76 30 0
      vertex 76 30 2.5
    endloop
  endfacet
  facet normal 0.998631 -0.0523081 0
    outer loop
      vertex 76 30 0
      vertex 75.9781 29.5819 2.5
      vertex 75.9781 29.5819 0
    endloop
  endfacet
  facet normal 0.358339 -0.933592 0
    outer loop
      vertex 73.2361 26.1958 0
      vertex 73.6269 26.3458 2.5
      vertex 73.2361 26.1958 2.5
    endloop
  endfacet
  facet normal 0.358339 -0.933592 0
    outer loop
      vertex 73.6269 26.3458 2.5
      vertex 73.2361 26.1958 0
      vertex 73.6269 26.3458 0
    endloop
  endfacet
  facet normal 0.258851 -0.965917 0
    outer loop
      vertex 72.8316 26.0874 0
      vertex 73.2361 26.1958 2.5
      vertex 72.8316 26.0874 2.5
    endloop
  endfacet
  facet normal 0.258851 -0.965917 0
    outer loop
      vertex 73.2361 26.1958 2.5
      vertex 72.8316 26.0874 0
      vertex 73.2361 26.1958 0
    endloop
  endfacet
  facet normal 0.933592 0.358339 0
    outer loop
      vertex 75.8042 31.2361 2.5
      vertex 75.6542 31.6269 0
      vertex 75.6542 31.6269 2.5
    endloop
  endfacet
  facet normal 0.933592 0.358339 0
    outer loop
      vertex 75.6542 31.6269 0
      vertex 75.8042 31.2361 2.5
      vertex 75.8042 31.2361 0
    endloop
  endfacet
  facet normal 0.838678 -0.544627 0
    outer loop
      vertex 75.2361 27.6489 2.5
      vertex 75.4641 28 0
      vertex 75.4641 28 2.5
    endloop
  endfacet
  facet normal 0.838678 -0.544627 0
    outer loop
      vertex 75.4641 28 0
      vertex 75.2361 27.6489 2.5
      vertex 75.2361 27.6489 0
    endloop
  endfacet
  facet normal 0.89101 -0.453983 0
    outer loop
      vertex 75.4641 28 2.5
      vertex 75.6542 28.3731 0
      vertex 75.6542 28.3731 2.5
    endloop
  endfacet
  facet normal 0.89101 -0.453983 0
    outer loop
      vertex 75.6542 28.3731 0
      vertex 75.4641 28 2.5
      vertex 75.4641 28 0
    endloop
  endfacet
  facet normal -0.358339 0.933592 0
    outer loop
      vertex 70.7639 33.8042 0
      vertex 70.3731 33.6542 2.5
      vertex 70.7639 33.8042 2.5
    endloop
  endfacet
  facet normal -0.358339 0.933592 0
    outer loop
      vertex 70.3731 33.6542 2.5
      vertex 70.7639 33.8042 0
      vertex 70.3731 33.6542 0
    endloop
  endfacet
  facet normal -0.89101 0.453983 0
    outer loop
      vertex 68.3458 31.6269 0
      vertex 68.5359 32 2.5
      vertex 68.5359 32 0
    endloop
  endfacet
  facet normal -0.89101 0.453983 0
    outer loop
      vertex 68.5359 32 2.5
      vertex 68.3458 31.6269 0
      vertex 68.3458 31.6269 2.5
    endloop
  endfacet
  facet normal -0.453983 -0.89101 0
    outer loop
      vertex 70 26.5359 0
      vertex 70.3731 26.3458 2.5
      vertex 70 26.5359 2.5
    endloop
  endfacet
  facet normal -0.453983 -0.89101 -0
    outer loop
      vertex 70.3731 26.3458 2.5
      vertex 70 26.5359 0
      vertex 70.3731 26.3458 0
    endloop
  endfacet
  facet normal 0.89101 0.453983 0
    outer loop
      vertex 75.6542 31.6269 2.5
      vertex 75.4641 32 0
      vertex 75.4641 32 2.5
    endloop
  endfacet
  facet normal 0.89101 0.453983 0
    outer loop
      vertex 75.4641 32 0
      vertex 75.6542 31.6269 2.5
      vertex 75.6542 31.6269 0
    endloop
  endfacet
  facet normal -0.629315 0.77715 0
    outer loop
      vertex 69.6489 33.2361 0
      vertex 69.3235 32.9726 2.5
      vertex 69.6489 33.2361 2.5
    endloop
  endfacet
  facet normal -0.629315 0.77715 0
    outer loop
      vertex 69.3235 32.9726 2.5
      vertex 69.6489 33.2361 0
      vertex 69.3235 32.9726 0
    endloop
  endfacet
  facet normal -0.156453 -0.987685 0
    outer loop
      vertex 71.1684 26.0874 0
      vertex 71.5819 26.0219 2.5
      vertex 71.1684 26.0874 2.5
    endloop
  endfacet
  facet normal -0.156453 -0.987685 -0
    outer loop
      vertex 71.5819 26.0219 2.5
      vertex 71.1684 26.0874 0
      vertex 71.5819 26.0219 0
    endloop
  endfacet
  facet normal -0.453983 0.89101 0
    outer loop
      vertex 70.3731 33.6542 0
      vertex 70 33.4641 2.5
      vertex 70.3731 33.6542 2.5
    endloop
  endfacet
  facet normal -0.453983 0.89101 0
    outer loop
      vertex 70 33.4641 2.5
      vertex 70.3731 33.6542 0
      vertex 70 33.4641 0
    endloop
  endfacet
  facet normal -0.629315 -0.77715 0
    outer loop
      vertex 69.3235 27.0274 0
      vertex 69.6489 26.7639 2.5
      vertex 69.3235 27.0274 2.5
    endloop
  endfacet
  facet normal -0.629315 -0.77715 -0
    outer loop
      vertex 69.6489 26.7639 2.5
      vertex 69.3235 27.0274 0
      vertex 69.6489 26.7639 0
    endloop
  endfacet
  facet normal -0.77715 0.629315 0
    outer loop
      vertex 68.7639 32.3511 0
      vertex 69.0274 32.6765 2.5
      vertex 69.0274 32.6765 0
    endloop
  endfacet
  facet normal -0.77715 0.629315 0
    outer loop
      vertex 69.0274 32.6765 2.5
      vertex 68.7639 32.3511 0
      vertex 68.7639 32.3511 2.5
    endloop
  endfacet
  facet normal -0.544627 -0.838678 0
    outer loop
      vertex 69.6489 26.7639 0
      vertex 70 26.5359 2.5
      vertex 69.6489 26.7639 2.5
    endloop
  endfacet
  facet normal -0.544627 -0.838678 -0
    outer loop
      vertex 70 26.5359 2.5
      vertex 69.6489 26.7639 0
      vertex 70 26.5359 0
    endloop
  endfacet
  facet normal 0.156453 0.987685 -0
    outer loop
      vertex 72.8316 33.9126 0
      vertex 72.4181 33.9781 2.5
      vertex 72.8316 33.9126 2.5
    endloop
  endfacet
  facet normal 0.156453 0.987685 0
    outer loop
      vertex 72.4181 33.9781 2.5
      vertex 72.8316 33.9126 0
      vertex 72.4181 33.9781 0
    endloop
  endfacet
  facet normal 0.629315 0.77715 -0
    outer loop
      vertex 74.6765 32.9726 0
      vertex 74.3511 33.2361 2.5
      vertex 74.6765 32.9726 2.5
    endloop
  endfacet
  facet normal 0.629315 0.77715 0
    outer loop
      vertex 74.3511 33.2361 2.5
      vertex 74.6765 32.9726 0
      vertex 74.3511 33.2361 0
    endloop
  endfacet
  facet normal 0.0523081 0.998631 -0
    outer loop
      vertex 72.4181 33.9781 0
      vertex 72 34 2.5
      vertex 72.4181 33.9781 2.5
    endloop
  endfacet
  facet normal 0.0523081 0.998631 0
    outer loop
      vertex 72 34 2.5
      vertex 72.4181 33.9781 0
      vertex 72 34 0
    endloop
  endfacet
  facet normal 0 0 -1
    outer loop
      vertex 75.9781 29.5819 0
      vertex 75.9781 30.4181 0
      vertex 76 30 0
    endloop
  endfacet
  facet normal 0 0 -1
    outer loop
      vertex 75.9126 29.1684 0
      vertex 75.9781 30.4181 0
      vertex 75.9781 29.5819 0
    endloop
  endfacet
  facet normal 0 0 -1
    outer loop
      vertex 75.9126 29.1684 0
      vertex 75.9126 30.8316 0
      vertex 75.9781 30.4181 0
    endloop
  endfacet
  facet normal 0 0 -1
    outer loop
      vertex 75.8042 28.7639 0
      vertex 75.9126 30.8316 0
      vertex 75.9126 29.1684 0
    endloop
  endfacet
  facet normal 0 0 -1
    outer loop
      vertex 75.8042 28.7639 0
      vertex 75.8042 31.2361 0
      vertex 75.9126 30.8316 0
    endloop
  endfacet
  facet normal 0 0 -1
    outer loop
      vertex 75.6542 28.3731 0
      vertex 75.8042 31.2361 0
      vertex 75.8042 28.7639 0
    endloop
  endfacet
  facet normal 0 0 -1
    outer loop
      vertex 75.6542 28.3731 0
      vertex 75.6542 31.6269 0
      vertex 75.8042 31.2361 0
    endloop
  endfacet
  facet normal 0 0 -1
    outer loop
      vertex 75.4641 28 0
      vertex 75.6542 31.6269 0
      vertex 75.6542 28.3731 0
    endloop
  endfacet
  facet normal 0 0 -1
    outer loop
      vertex 75.4641 28 0
      vertex 75.4641 32 0
      vertex 75.6542 31.6269 0
    endloop
  endfacet
  facet normal 0 0 -1
    outer loop
      vertex 75.2361 27.6489 0
      vertex 75.4641 32 0
      vertex 75.4641 28 0
    endloop
  endfacet
  facet normal 0 0 -1
    outer loop
      vertex 75.2361 27.6489 0
      vertex 75.2361 32.3511 0
      vertex 75.4641 32 0
    endloop
  endfacet
  facet normal 0 0 -1
    outer loop
      vertex 74.9726 27.3235 0
      vertex 75.2361 32.3511 0
      vertex 75.2361 27.6489 0
    endloop
  endfacet
  facet normal 0 0 -1
    outer loop
      vertex 74.9726 27.3235 0
      vertex 74.9726 32.6765 0
      vertex 75.2361 32.3511 0
    endloop
  endfacet
  facet normal 0 0 -1
    outer loop
      vertex 74.6765 27.0274 0
      vertex 74.9726 32.6765 0
      vertex 74.9726 27.3235 0
    endloop
  endfacet
  facet normal 0 0 -1
    outer loop
      vertex 74.6765 27.0274 0
      vertex 74.6765 32.9726 0
      vertex 74.9726 32.6765 0
    endloop
  endfacet
  facet normal 0 0 -1
    outer loop
      vertex 74.3511 26.7639 0
      vertex 74.6765 32.9726 0
      vertex 74.6765 27.0274 0
    endloop
  endfacet
  facet normal 0 0 -1
    outer loop
      vertex 74.3511 26.7639 0
      vertex 74.3511 33.2361 0
      vertex 74.6765 32.9726 0
    endloop
  endfacet
  facet normal 0 0 -1
    outer loop
      vertex 74 26.5359 0
      vertex 74.3511 33.2361 0
      vertex 74.3511 26.7639 0
    endloop
  endfacet
  facet normal 0 0 -1
    outer loop
      vertex 74 26.5359 0
      vertex 74 33.4641 0
      vertex 74.3511 33.2361 0
    endloop
  endfacet
  facet normal 0 0 -1
    outer loop
      vertex 73.6269 26.3458 0
      vertex 74 33.4641 0
      vertex 74 26.5359 0
    endloop
  endfacet
  facet normal 0 0 -1
    outer loop
      vertex 73.6269 26.3458 0
      vertex 73.6269 33.6542 0
      vertex 74 33.4641 0
    endloop
  endfacet
  facet normal 0 0 -1
    outer loop
      vertex 73.2361 26.1958 0
      vertex 73.6269 33.6542 0
      vertex 73.6269 26.3458 0
    endloop
  endfacet
  facet normal 0 0 -1
    outer loop
      vertex 73.2361 26.1958 0
      vertex 73.2361 33.8042 0
      vertex 73.6269 33.6542 0
    endloop
  endfacet
  facet normal 0 0 -1
    outer loop
      vertex 72.8316 26.0874 0
      vertex 73.2361 33.8042 0
      vertex 73.2361 26.1958 0
    endloop
  endfacet
  facet normal 0 0 -1
    outer loop
      vertex 72.8316 26.0874 0
      vertex 72.8316 33.9126 0
      vertex 73.2361 33.8042 0
    endloop
  endfacet
  facet normal 0 0 -1
    outer loop
      vertex 72.4181 26.0219 0
      vertex 72.8316 33.9126 0
      vertex 72.8316 26.0874 0
    endloop
  endfacet
  facet normal 0 0 -1
    outer loop
      vertex 72.4181 26.0219 0
      vertex 72.4181 33.9781 0
      vertex 72.8316 33.9126 0
    endloop
  endfacet
  facet normal 0 0 -1
    outer loop
      vertex 72 26 0
      vertex 72.4181 33.9781 0
      vertex 72.4181 26.0219 0
    endloop
  endfacet
  facet normal 0 0 -1
    outer loop
      vertex 72 26 0
      vertex 72 34 0
      vertex 72.4181 33.9781 0
    endloop
  endfacet
  facet normal 0 0 -1
    outer loop
      vertex 71.5819 26.0219 0
      vertex 72 34 0
      vertex 72 26 0
    endloop
  endfacet
  facet normal 0 0 -1
    outer loop
      vertex 71.5819 26.0219 0
      vertex 71.5819 33.9781 0
      vertex 72 34 0
    endloop
  endfacet
  facet normal 0 0 -1
    outer loop
      vertex 71.1684 26.0874 0
      vertex 71.5819 33.9781 0
      vertex 71.5819 26.0219 0
    endloop
  endfacet
  facet normal 0 0 -1
    outer loop
      vertex 71.1684 26.0874 0
      vertex 71.1684 33.9126 0
      vertex 71.5819 33.9781 0
    endloop
  endfacet
  facet normal 0 0 -1
    outer loop
      vertex 70.7639 26.1958 0
      vertex 71.1684 33.9126 0
      vertex 71.1684 26.0874 0
    endloop
  endfacet
  facet normal 0 0 -1
    outer loop
      vertex 70.7639 26.1958 0
      vertex 70.7639 33.8042 0
      vertex 71.1684 33.9126 0
    endloop
  endfacet
  facet normal 0 0 -1
    outer loop
      vertex 70.3731 26.3458 0
      vertex 70.7639 33.8042 0
      vertex 70.7639 26.1958 0
    endloop
  endfacet
  facet normal 0 0 -1
    outer loop
      vertex 70.3731 26.3458 0
      vertex 70.3731 33.6542 0
      vertex 70.7639 33.8042 0
    endloop
  endfacet
  facet normal 0 0 -1
    outer loop
      vertex 70 26.5359 0
      vertex 70.3731 33.6542 0
      vertex 70.3731 26.3458 0
    endloop
  endfacet
  facet normal 0 0 -1
    outer loop
      vertex 70 26.5359 0
      vertex 70 33.4641 0
      vertex 70.3731 33.6542 0
    endloop
  endfacet
  facet normal 0 0 -1
    outer loop
      vertex 69.6489 26.7639 0
      vertex 70 33.4641 0
      vertex 70 26.5359 0
    endloop
  endfacet
  facet normal 0 0 -1
    outer loop
      vertex 69.6489 26.7639 0
      vertex 69.6489 33.2361 0
      vertex 70 33.4641 0
    endloop
  endfacet
  facet normal 0 0 -1
    outer loop
      vertex 69.3235 27.0274 0
      vertex 69.6489 33.2361 0
      vertex 69.6489 26.7639 0
    endloop
  endfacet
  facet normal 0 0 -1
    outer loop
      vertex 69.3235 27.0274 0
      vertex 69.3235 32.9726 0
      vertex 69.6489 33.2361 0
    endloop
  endfacet
  facet normal 0 0 -1
    outer loop
      vertex 69.0274 27.3235 0
      vertex 69.3235 32.9726 0
      vertex 69.3235 27.0274 0
    endloop
  endfacet
  facet normal 0 0 -1
    outer loop
      vertex 69.0274 27.3235 0
      vertex 69.0274 32.6765 0
      vertex 69.3235 32.9726 0
    endloop
  endfacet
  facet normal 0 0 -1
    outer loop
      vertex 68.7639 27.6489 0
      vertex 69.0274 32.6765 0
      vertex 69.0274 27.3235 0
    endloop
  endfacet
  facet normal 0 0 -1
    outer loop
      vertex 68.7639 27.6489 0
      vertex 68.7639 32.3511 0
      vertex 69.0274 32.6765 0
    endloop
  endfacet
  facet normal 0 0 -1
    outer loop
      vertex 68.5359 28 0
      vertex 68.7639 32.3511 0
      vertex 68.7639 27.6489 0
    endloop
  endfacet
  facet normal 0 0 -1
    outer loop
      vertex 68.5359 28 0
      vertex 68.5359 32 0
      vertex 68.7639 32.3511 0
    endloop
  endfacet
  facet normal 0 0 -1
    outer loop
      vertex 68.3458 28.3731 0
      vertex 68.5359 32 0
      vertex 68.5359 28 0
    endloop
  endfacet
  facet normal 0 0 -1
    outer loop
      vertex 68.3458 28.3731 0
      vertex 68.3458 31.6269 0
      vertex 68.5359 32 0
    endloop
  endfacet
  facet normal 0 0 -1
    outer loop
      vertex 68.1958 28.7639 0
      vertex 68.3458 31.6269 0
      vertex 68.3458 28.3731 0
    endloop
  endfacet
  facet normal 0 0 -1
    outer loop
      vertex 68.1958 28.7639 0
      vertex 68.1958 31.2361 0
      vertex 68.3458 31.6269 0
    endloop
  endfacet
  facet normal 0 0 -1
    outer loop
      vertex 68.0874 29.1684 0
      vertex 68.1958 31.2361 0
      vertex 68.1958 28.7639 0
    endloop
  endfacet
  facet normal 0 0 -1
    outer loop
      vertex 68.0874 29.1684 0
      vertex 68.0874 30.8316 0
      vertex 68.1958 31.2361 0
    endloop
  endfacet
  facet normal 0 0 -1
    outer loop
      vertex 68.0219 29.5819 0
      vertex 68.0874 30.8316 0
      vertex 68.0874 29.1684 0
    endloop
  endfacet
  facet normal 0 0 -1
    outer loop
      vertex 68.0219 29.5819 0
      vertex 68.0219 30.4181 0
      vertex 68.0874 30.8316 0
    endloop
  endfacet
  facet normal 0 -0 -1
    outer loop
      vertex 68.0219 30.4181 0
      vertex 68.0219 29.5819 0
      vertex 68 30 0
    endloop
  endfacet
  facet normal 0.258851 0.965917 -0
    outer loop
      vertex 73.2361 33.8042 0
      vertex 72.8316 33.9126 2.5
      vertex 73.2361 33.8042 2.5
    endloop
  endfacet
  facet normal 0.258851 0.965917 0
    outer loop
      vertex 72.8316 33.9126 2.5
      vertex 73.2361 33.8042 0
      vertex 72.8316 33.9126 0
    endloop
  endfacet
  facet normal -0.707107 -0.707107 0
    outer loop
      vertex 69.0274 27.3235 0
      vertex 69.3235 27.0274 2.5
      vertex 69.0274 27.3235 2.5
    endloop
  endfacet
  facet normal -0.707107 -0.707107 -0
    outer loop
      vertex 69.3235 27.0274 2.5
      vertex 69.0274 27.3235 0
      vertex 69.3235 27.0274 0
    endloop
  endfacet
  facet normal -0.965917 -0.258851 0
    outer loop
      vertex 68.1958 28.7639 0
      vertex 68.0874 29.1684 2.5
      vertex 68.0874 29.1684 0
    endloop
  endfacet
  facet normal -0.965917 -0.258851 0
    outer loop
      vertex 68.0874 29.1684 2.5
      vertex 68.1958 28.7639 0
      vertex 68.1958 28.7639 2.5
    endloop
  endfacet
  facet normal -0.358339 -0.933592 0
    outer loop
      vertex 70.3731 26.3458 0
      vertex 70.7639 26.1958 2.5
      vertex 70.3731 26.3458 2.5
    endloop
  endfacet
  facet normal -0.358339 -0.933592 -0
    outer loop
      vertex 70.7639 26.1958 2.5
      vertex 70.3731 26.3458 0
      vertex 70.7639 26.1958 0
    endloop
  endfacet
  facet normal 0.0523081 -0.998631 0
    outer loop
      vertex 72 26 0
      vertex 72.4181 26.0219 2.5
      vertex 72 26 2.5
    endloop
  endfacet
  facet normal 0.0523081 -0.998631 0
    outer loop
      vertex 72.4181 26.0219 2.5
      vertex 72 26 0
      vertex 72.4181 26.0219 0
    endloop
  endfacet
  facet normal -0.0523081 -0.998631 0
    outer loop
      vertex 71.5819 26.0219 0
      vertex 72 26 2.5
      vertex 71.5819 26.0219 2.5
    endloop
  endfacet
  facet normal -0.0523081 -0.998631 -0
    outer loop
      vertex 72 26 2.5
      vertex 71.5819 26.0219 0
      vertex 72 26 0
    endloop
  endfacet
  facet normal -0.77715 -0.629315 0
    outer loop
      vertex 69.0274 27.3235 0
      vertex 68.7639 27.6489 2.5
      vertex 68.7639 27.6489 0
    endloop
  endfacet
  facet normal -0.77715 -0.629315 0
    outer loop
      vertex 68.7639 27.6489 2.5
      vertex 69.0274 27.3235 0
      vertex 69.0274 27.3235 2.5
    endloop
  endfacet
  facet normal -0.998631 0.0523081 0
    outer loop
      vertex 68 30 0
      vertex 68.0219 30.4181 2.5
      vertex 68.0219 30.4181 0
    endloop
  endfacet
  facet normal -0.998631 0.0523081 0
    outer loop
      vertex 68.0219 30.4181 2.5
      vertex 68 30 0
      vertex 68 30 2.5
    endloop
  endfacet
  facet normal 0.77715 -0.629315 0
    outer loop
      vertex 74.9726 27.3235 2.5
      vertex 75.2361 27.6489 0
      vertex 75.2361 27.6489 2.5
    endloop
  endfacet
  facet normal 0.77715 -0.629315 0
    outer loop
      vertex 75.2361 27.6489 0
      vertex 74.9726 27.3235 2.5
      vertex 74.9726 27.3235 0
    endloop
  endfacet
endsolid OpenSCAD_Model
