solid OpenSCAD_Model
  facet normal 1 -0 0
    outer loop
      vertex 110 0 15
      vertex 110 74 0
      vertex 110 74 15
    endloop
  endfacet
  facet normal 1 0 0
    outer loop
      vertex 110 74 0
      vertex 110 0 15
      vertex 110 0 0
    endloop
  endfacet
  facet normal 0 0 1
    outer loop
      vertex 110 74 15
      vertex 107.5 71.5 15
      vertex 110 0 15
    endloop
  endfacet
  facet normal 0 0 1
    outer loop
      vertex 110 74 15
      vertex 2.5 71.5 15
      vertex 107.5 71.5 15
    endloop
  endfacet
  facet normal 0 0 1
    outer loop
      vertex 2.5 71.5 15
      vertex 0 74 15
      vertex 2.5 2.5 15
    endloop
  endfacet
  facet normal -0 0 1
    outer loop
      vertex 0 74 15
      vertex 2.5 71.5 15
      vertex 110 74 15
    endloop
  endfacet
  facet normal -0 0 1
    outer loop
      vertex 107.5 2.5 15
      vertex 110 0 15
      vertex 107.5 71.5 15
    endloop
  endfacet
  facet normal -0 0 1
    outer loop
      vertex 2.5 2.5 15
      vertex 110 0 15
      vertex 107.5 2.5 15
    endloop
  endfacet
  facet normal 0 0 1
    outer loop
      vertex 2.5 2.5 15
      vertex 0 0 15
      vertex 110 0 15
    endloop
  endfacet
  facet normal 0 0 1
    outer loop
      vertex 0 0 15
      vertex 2.5 2.5 15
      vertex 0 74 15
    endloop
  endfacet
  facet normal 0 0 -1
    outer loop
      vertex 110 0 0
      vertex 107.5 2.5 0
      vertex 110 74 0
    endloop
  endfacet
  facet normal 0 0 -1
    outer loop
      vertex 110 0 0
      vertex 2.5 2.5 0
      vertex 107.5 2.5 0
    endloop
  endfacet
  facet normal -0 0 -1
    outer loop
      vertex 2.5 2.5 0
      vertex 0 0 0
      vertex 2.5 71.5 0
    endloop
  endfacet
  facet normal 0 0 -1
    outer loop
      vertex 0 0 0
      vertex 2.5 2.5 0
      vertex 110 0 0
    endloop
  endfacet
  facet normal 0 0 -1
    outer loop
      vertex 107.5 71.5 0
      vertex 110 74 0
      vertex 107.5 2.5 0
    endloop
  endfacet
  facet normal 0 0 -1
    outer loop
      vertex 2.5 71.5 0
      vertex 110 74 0
      vertex 107.5 71.5 0
    endloop
  endfacet
  facet normal 0 0 -1
    outer loop
      vertex 2.5 71.5 0
      vertex 0 74 0
      vertex 110 74 0
    endloop
  endfacet
  facet normal 0 0 -1
    outer loop
      vertex 0 74 0
      vertex 2.5 71.5 0
      vertex 0 0 0
    endloop
  endfacet
  facet normal -1 0 0
    outer loop
      vertex 0 0 0
      vertex 0 74 15
      vertex 0 74 0
    endloop
  endfacet
  facet normal -1 -0 0
    outer loop
      vertex 0 74 15
      vertex 0 0 0
      vertex 0 0 15
    endloop
  endfacet
  facet normal 0 1 -0
    outer loop
      vertex 110 74 0
      vertex 0 74 15
      vertex 110 74 15
    endloop
  endfacet
  facet normal 0 1 0
    outer loop
      vertex 0 74 15
      vertex 110 74 0
      vertex 0 74 0
    endloop
  endfacet
  facet normal 0 -1 0
    outer loop
      vertex 0 0 0
      vertex 110 0 15
      vertex 0 0 15
    endloop
  endfacet
  facet normal 0 -1 -0
    outer loop
      vertex 110 0 15
      vertex 0 0 0
      vertex 110 0 0
    endloop
  endfacet
  facet normal -1 0 0
    outer loop
      vertex 107.5 2.5 0
      vertex 107.5 71.5 15
      vertex 107.5 71.5 0
    endloop
  endfacet
  facet normal -1 -0 0
    outer loop
      vertex 107.5 71.5 15
      vertex 107.5 2.5 0
      vertex 107.5 2.5 15
    endloop
  endfacet
  facet normal 1 -0 0
    outer loop
      vertex 2.5 2.5 15
      vertex 2.5 71.5 0
      vertex 2.5 71.5 15
    endloop
  endfacet
  facet normal 1 0 0
    outer loop
      vertex 2.5 71.5 0
      vertex 2.5 2.5 15
      vertex 2.5 2.5 0
    endloop
  endfacet
  facet normal 0 -1 0
    outer loop
      vertex 2.5 71.5 0
      vertex 107.5 71.5 15
      vertex 2.5 71.5 15
    endloop
  endfacet
  facet normal 0 -1 -0
    outer loop
      vertex 107.5 71.5 15
      vertex 2.5 71.5 0
      vertex 107.5 71.5 0
    endloop
  endfacet
  facet normal 0 1 -0
    outer loop
      vertex 107.5 2.5 0
      vertex 2.5 2.5 15
      vertex 107.5 2.5 15
    endloop
  endfacet
  facet normal 0 1 0
    outer loop
      vertex 2.5 2.5 15
      vertex 107.5 2.5 0
      vertex 2.5 2.5 0
    endloop
  endfacet
endsolid OpenSCAD_Model
