solid OpenSCAD_Model
  facet normal 1 -0 0
    outer loop
      vertex 80.5 16 6
      vertex 80.5 55 2
      vertex 80.5 55 6
    endloop
  endfacet
  facet normal 1 0 0
    outer loop
      vertex 80.5 55 2
      vertex 80.5 16 6
      vertex 80.5 16 2
    endloop
  endfacet
  facet normal 0 0 1
    outer loop
      vertex 80.5 55 6
      vertex 79 53.5 6
      vertex 80.5 16 6
    endloop
  endfacet
  facet normal 0 0 1
    outer loop
      vertex 80.5 55 6
      vertex 28 53.5 6
      vertex 79 53.5 6
    endloop
  endfacet
  facet normal 0 0 1
    outer loop
      vertex 28 53.5 6
      vertex 26.5 55 6
      vertex 28 17.5 6
    endloop
  endfacet
  facet normal -0 0 1
    outer loop
      vertex 26.5 55 6
      vertex 28 53.5 6
      vertex 80.5 55 6
    endloop
  endfacet
  facet normal -0 0 1
    outer loop
      vertex 79 17.5 6
      vertex 80.5 16 6
      vertex 79 53.5 6
    endloop
  endfacet
  facet normal -0 0 1
    outer loop
      vertex 28 17.5 6
      vertex 80.5 16 6
      vertex 79 17.5 6
    endloop
  endfacet
  facet normal 0 0 1
    outer loop
      vertex 28 17.5 6
      vertex 26.5 16 6
      vertex 80.5 16 6
    endloop
  endfacet
  facet normal 0 0 1
    outer loop
      vertex 26.5 16 6
      vertex 28 17.5 6
      vertex 26.5 55 6
    endloop
  endfacet
  facet normal -0 0 1
    outer loop
      vertex 26.5 16 2
      vertex 65 8 2
      vertex 80.5 16 2
    endloop
  endfacet
  facet normal 0 0 1
    outer loop
      vertex 40 8 2
      vertex 26.5 16 2
      vertex 40 4 2
    endloop
  endfacet
  facet normal 0 0 1
    outer loop
      vertex 65 8 2
      vertex 26.5 16 2
      vertex 40 8 2
    endloop
  endfacet
  facet normal -0 0 1
    outer loop
      vertex 79 58 2
      vertex 80.5 55 2
      vertex 91 58 2
    endloop
  endfacet
  facet normal 0 0 1
    outer loop
      vertex 75 58 2
      vertex 79 58 2
      vertex 75 60.5 2
    endloop
  endfacet
  facet normal 0 0 1
    outer loop
      vertex 79 58 2
      vertex 75 58 2
      vertex 80.5 55 2
    endloop
  endfacet
  facet normal -0 0 1
    outer loop
      vertex 63 58 2
      vertex 80.5 55 2
      vertex 75 58 2
    endloop
  endfacet
  facet normal 0 0 1
    outer loop
      vertex 59 58 2
      vertex 63 58 2
      vertex 59 60.5 2
    endloop
  endfacet
  facet normal -0 0 1
    outer loop
      vertex 59 58 2
      vertex 80.5 55 2
      vertex 63 58 2
    endloop
  endfacet
  facet normal -0 0 1
    outer loop
      vertex 47 58 2
      vertex 80.5 55 2
      vertex 59 58 2
    endloop
  endfacet
  facet normal 0 0 1
    outer loop
      vertex 43 58 2
      vertex 47 58 2
      vertex 43 60.5 2
    endloop
  endfacet
  facet normal 0 0 1
    outer loop
      vertex 26.5 55 2
      vertex 47 58 2
      vertex 43 58 2
    endloop
  endfacet
  facet normal 0 0 1
    outer loop
      vertex 26.5 55 2
      vertex 43 58 2
      vertex 31 58 2
    endloop
  endfacet
  facet normal 0 0 1
    outer loop
      vertex 27 58 2
      vertex 31 58 2
      vertex 27 60.5 2
    endloop
  endfacet
  facet normal 0 0 1
    outer loop
      vertex 26.5 55 2
      vertex 31 58 2
      vertex 27 58 2
    endloop
  endfacet
  facet normal 0 0 1
    outer loop
      vertex 47 58 2
      vertex 26.5 55 2
      vertex 80.5 55 2
    endloop
  endfacet
  facet normal 0 0 1
    outer loop
      vertex 26.5 55 2
      vertex 15 58 2
      vertex 26.5 16 2
    endloop
  endfacet
  facet normal -0 0 1
    outer loop
      vertex 15 58 2
      vertex 26.5 55 2
      vertex 27 58 2
    endloop
  endfacet
  facet normal 0 0 1
    outer loop
      vertex 91 58 2
      vertex 105 69 2
      vertex 91 60.5 2
    endloop
  endfacet
  facet normal 0 0 1
    outer loop
      vertex 105 69 2
      vertex 79 60.5 2
      vertex 91 60.5 2
    endloop
  endfacet
  facet normal 0 0 1
    outer loop
      vertex 79 60.5 2
      vertex 75 60.5 2
      vertex 79 58 2
    endloop
  endfacet
  facet normal 0 0 1
    outer loop
      vertex 105 69 2
      vertex 75 60.5 2
      vertex 79 60.5 2
    endloop
  endfacet
  facet normal 0 0 1
    outer loop
      vertex 105 69 2
      vertex 63 60.5 2
      vertex 75 60.5 2
    endloop
  endfacet
  facet normal 0 0 1
    outer loop
      vertex 63 60.5 2
      vertex 59 60.5 2
      vertex 63 58 2
    endloop
  endfacet
  facet normal 0 0 1
    outer loop
      vertex 105 69 2
      vertex 59 60.5 2
      vertex 63 60.5 2
    endloop
  endfacet
  facet normal 0 0 1
    outer loop
      vertex 105 69 2
      vertex 47 60.5 2
      vertex 59 60.5 2
    endloop
  endfacet
  facet normal 0 0 1
    outer loop
      vertex 47 60.5 2
      vertex 43 60.5 2
      vertex 47 58 2
    endloop
  endfacet
  facet normal -0 0 1
    outer loop
      vertex 0 69 2
      vertex 47 60.5 2
      vertex 105 69 2
    endloop
  endfacet
  facet normal 0 0 1
    outer loop
      vertex 47 60.5 2
      vertex 0 69 2
      vertex 43 60.5 2
    endloop
  endfacet
  facet normal 0 0 1
    outer loop
      vertex 31 60.5 2
      vertex 27 60.5 2
      vertex 31 58 2
    endloop
  endfacet
  facet normal 0 0 1
    outer loop
      vertex 43 60.5 2
      vertex 0 69 2
      vertex 31 60.5 2
    endloop
  endfacet
  facet normal 0 0 1
    outer loop
      vertex 31 60.5 2
      vertex 0 69 2
      vertex 27 60.5 2
    endloop
  endfacet
  facet normal 0 0 1
    outer loop
      vertex 15 60.5 2
      vertex 0 69 2
      vertex 15 58 2
    endloop
  endfacet
  facet normal 0 0 1
    outer loop
      vertex 27 60.5 2
      vertex 0 69 2
      vertex 15 60.5 2
    endloop
  endfacet
  facet normal 0 0 1
    outer loop
      vertex 105 69 2
      vertex 91 58 2
      vertex 105 0 2
    endloop
  endfacet
  facet normal 0 0 1
    outer loop
      vertex 80.5 16 2
      vertex 91 58 2
      vertex 80.5 55 2
    endloop
  endfacet
  facet normal 0 0 1
    outer loop
      vertex 91 58 2
      vertex 80.5 16 2
      vertex 105 0 2
    endloop
  endfacet
  facet normal 0 0 1
    outer loop
      vertex 65 4 2
      vertex 80.5 16 2
      vertex 65 8 2
    endloop
  endfacet
  facet normal 0 0 1
    outer loop
      vertex 80.5 16 2
      vertex 65 4 2
      vertex 105 0 2
    endloop
  endfacet
  facet normal -0 0 1
    outer loop
      vertex 40 4 2
      vertex 105 0 2
      vertex 65 4 2
    endloop
  endfacet
  facet normal 0 0 1
    outer loop
      vertex 0 0 2
      vertex 15 58 2
      vertex 0 69 2
    endloop
  endfacet
  facet normal 0 0 1
    outer loop
      vertex 40 4 2
      vertex 0 0 2
      vertex 105 0 2
    endloop
  endfacet
  facet normal 0 0 1
    outer loop
      vertex 26.5 16 2
      vertex 0 0 2
      vertex 40 4 2
    endloop
  endfacet
  facet normal 0 0 1
    outer loop
      vertex 15 58 2
      vertex 0 0 2
      vertex 26.5 16 2
    endloop
  endfacet
  facet normal -0 0 1
    outer loop
      vertex 28 53.5 2
      vertex 79 17.5 2
      vertex 79 53.5 2
    endloop
  endfacet
  facet normal 0 0 1
    outer loop
      vertex 79 17.5 2
      vertex 28 53.5 2
      vertex 28 17.5 2
    endloop
  endfacet
  facet normal -1 0 0
    outer loop
      vertex 26.5 16 2
      vertex 26.5 55 6
      vertex 26.5 55 2
    endloop
  endfacet
  facet normal -1 -0 0
    outer loop
      vertex 26.5 55 6
      vertex 26.5 16 2
      vertex 26.5 16 6
    endloop
  endfacet
  facet normal 0 1 -0
    outer loop
      vertex 80.5 55 2
      vertex 26.5 55 6
      vertex 80.5 55 6
    endloop
  endfacet
  facet normal 0 1 0
    outer loop
      vertex 26.5 55 6
      vertex 80.5 55 2
      vertex 26.5 55 2
    endloop
  endfacet
  facet normal 0 -1 0
    outer loop
      vertex 26.5 16 2
      vertex 80.5 16 6
      vertex 26.5 16 6
    endloop
  endfacet
  facet normal 0 -1 -0
    outer loop
      vertex 80.5 16 6
      vertex 26.5 16 2
      vertex 80.5 16 2
    endloop
  endfacet
  facet normal -1 0 0
    outer loop
      vertex 79 17.5 2
      vertex 79 53.5 6
      vertex 79 53.5 2
    endloop
  endfacet
  facet normal -1 -0 0
    outer loop
      vertex 79 53.5 6
      vertex 79 17.5 2
      vertex 79 17.5 6
    endloop
  endfacet
  facet normal 1 -0 0
    outer loop
      vertex 28 17.5 6
      vertex 28 53.5 2
      vertex 28 53.5 6
    endloop
  endfacet
  facet normal 1 0 0
    outer loop
      vertex 28 53.5 2
      vertex 28 17.5 6
      vertex 28 17.5 2
    endloop
  endfacet
  facet normal 0 -1 0
    outer loop
      vertex 28 53.5 2
      vertex 79 53.5 6
      vertex 28 53.5 6
    endloop
  endfacet
  facet normal 0 -1 -0
    outer loop
      vertex 79 53.5 6
      vertex 28 53.5 2
      vertex 79 53.5 2
    endloop
  endfacet
  facet normal 0 1 -0
    outer loop
      vertex 79 17.5 2
      vertex 28 17.5 6
      vertex 79 17.5 6
    endloop
  endfacet
  facet normal 0 1 0
    outer loop
      vertex 28 17.5 6
      vertex 79 17.5 2
      vertex 28 17.5 2
    endloop
  endfacet
  facet normal 1 -0 0
    outer loop
      vertex 105 0 2
      vertex 105 69 0
      vertex 105 69 2
    endloop
  endfacet
  facet normal 1 0 0
    outer loop
      vertex 105 69 0
      vertex 105 0 2
      vertex 105 0 0
    endloop
  endfacet
  facet normal 0 0 -1
    outer loop
      vertex 105 0 0
      vertex 91 58 0
      vertex 105 69 0
    endloop
  endfacet
  facet normal 0 0 -1
    outer loop
      vertex 65 8 0
      vertex 91 58 0
      vertex 105 0 0
    endloop
  endfacet
  facet normal 0 0 -1
    outer loop
      vertex 79 58 0
      vertex 75 58 0
      vertex 79 60.5 0
    endloop
  endfacet
  facet normal -0 0 -1
    outer loop
      vertex 91 58 0
      vertex 65 8 0
      vertex 79 58 0
    endloop
  endfacet
  facet normal 0 0 -1
    outer loop
      vertex 65 8 0
      vertex 105 0 0
      vertex 65 4 0
    endloop
  endfacet
  facet normal 0 0 -1
    outer loop
      vertex 105 0 0
      vertex 40 4 0
      vertex 65 4 0
    endloop
  endfacet
  facet normal 0 0 -1
    outer loop
      vertex 0 0 0
      vertex 40 8 0
      vertex 40 4 0
    endloop
  endfacet
  facet normal 0 0 -1
    outer loop
      vertex 31 58 0
      vertex 27 58 0
      vertex 31 60.5 0
    endloop
  endfacet
  facet normal 0 0 -1
    outer loop
      vertex 40 8 0
      vertex 27 58 0
      vertex 31 58 0
    endloop
  endfacet
  facet normal 0 0 -1
    outer loop
      vertex 40 8 0
      vertex 15 58 0
      vertex 27 58 0
    endloop
  endfacet
  facet normal 0 0 -1
    outer loop
      vertex 0 69 0
      vertex 15 58 0
      vertex 0 0 0
    endloop
  endfacet
  facet normal -0 0 -1
    outer loop
      vertex 40 8 0
      vertex 0 0 0
      vertex 15 58 0
    endloop
  endfacet
  facet normal 0 0 -1
    outer loop
      vertex 0 0 0
      vertex 40 4 0
      vertex 105 0 0
    endloop
  endfacet
  facet normal 0 0 -1
    outer loop
      vertex 91 60.5 0
      vertex 105 69 0
      vertex 91 58 0
    endloop
  endfacet
  facet normal 0 0 -1
    outer loop
      vertex 79 60.5 0
      vertex 105 69 0
      vertex 91 60.5 0
    endloop
  endfacet
  facet normal 0 0 -1
    outer loop
      vertex 75 60.5 0
      vertex 79 60.5 0
      vertex 75 58 0
    endloop
  endfacet
  facet normal 0 0 -1
    outer loop
      vertex 75 60.5 0
      vertex 105 69 0
      vertex 79 60.5 0
    endloop
  endfacet
  facet normal 0 0 -1
    outer loop
      vertex 63 60.5 0
      vertex 105 69 0
      vertex 75 60.5 0
    endloop
  endfacet
  facet normal 0 0 -1
    outer loop
      vertex 59 60.5 0
      vertex 63 60.5 0
      vertex 59 58 0
    endloop
  endfacet
  facet normal 0 0 -1
    outer loop
      vertex 59 60.5 0
      vertex 105 69 0
      vertex 63 60.5 0
    endloop
  endfacet
  facet normal 0 0 -1
    outer loop
      vertex 47 60.5 0
      vertex 105 69 0
      vertex 59 60.5 0
    endloop
  endfacet
  facet normal 0 0 -1
    outer loop
      vertex 43 60.5 0
      vertex 47 60.5 0
      vertex 43 58 0
    endloop
  endfacet
  facet normal 0 0 -1
    outer loop
      vertex 0 69 0
      vertex 47 60.5 0
      vertex 43 60.5 0
    endloop
  endfacet
  facet normal 0 0 -1
    outer loop
      vertex 0 69 0
      vertex 43 60.5 0
      vertex 31 60.5 0
    endloop
  endfacet
  facet normal 0 0 -1
    outer loop
      vertex 27 60.5 0
      vertex 31 60.5 0
      vertex 27 58 0
    endloop
  endfacet
  facet normal 0 0 -1
    outer loop
      vertex 0 69 0
      vertex 31 60.5 0
      vertex 27 60.5 0
    endloop
  endfacet
  facet normal 0 0 -1
    outer loop
      vertex 0 69 0
      vertex 27 60.5 0
      vertex 15 60.5 0
    endloop
  endfacet
  facet normal 0 0 -1
    outer loop
      vertex 47 60.5 0
      vertex 0 69 0
      vertex 105 69 0
    endloop
  endfacet
  facet normal 0 0 -1
    outer loop
      vertex 15 58 0
      vertex 0 69 0
      vertex 15 60.5 0
    endloop
  endfacet
  facet normal -0 0 -1
    outer loop
      vertex 79 58 0
      vertex 65 8 0
      vertex 75 58 0
    endloop
  endfacet
  facet normal 0 0 -1
    outer loop
      vertex 65 8 0
      vertex 63 58 0
      vertex 75 58 0
    endloop
  endfacet
  facet normal 0 0 -1
    outer loop
      vertex 63 58 0
      vertex 59 58 0
      vertex 63 60.5 0
    endloop
  endfacet
  facet normal 0 0 -1
    outer loop
      vertex 65 8 0
      vertex 59 58 0
      vertex 63 58 0
    endloop
  endfacet
  facet normal 0 0 -1
    outer loop
      vertex 65 8 0
      vertex 47 58 0
      vertex 59 58 0
    endloop
  endfacet
  facet normal 0 0 -1
    outer loop
      vertex 47 58 0
      vertex 43 58 0
      vertex 47 60.5 0
    endloop
  endfacet
  facet normal 0 0 -1
    outer loop
      vertex 40 8 0
      vertex 47 58 0
      vertex 65 8 0
    endloop
  endfacet
  facet normal -0 0 -1
    outer loop
      vertex 47 58 0
      vertex 40 8 0
      vertex 43 58 0
    endloop
  endfacet
  facet normal -0 0 -1
    outer loop
      vertex 43 58 0
      vertex 40 8 0
      vertex 31 58 0
    endloop
  endfacet
  facet normal -1 0 0
    outer loop
      vertex 0 0 0
      vertex 0 69 2
      vertex 0 69 0
    endloop
  endfacet
  facet normal -1 -0 0
    outer loop
      vertex 0 69 2
      vertex 0 0 0
      vertex 0 0 2
    endloop
  endfacet
  facet normal 0 1 -0
    outer loop
      vertex 105 69 0
      vertex 0 69 2
      vertex 105 69 2
    endloop
  endfacet
  facet normal 0 1 0
    outer loop
      vertex 0 69 2
      vertex 105 69 0
      vertex 0 69 0
    endloop
  endfacet
  facet normal 0 -1 0
    outer loop
      vertex 0 0 0
      vertex 105 0 2
      vertex 0 0 2
    endloop
  endfacet
  facet normal 0 -1 -0
    outer loop
      vertex 105 0 2
      vertex 0 0 0
      vertex 105 0 0
    endloop
  endfacet
  facet normal -1 0 0
    outer loop
      vertex 27 58 0
      vertex 27 60.5 2
      vertex 27 60.5 0
    endloop
  endfacet
  facet normal -1 -0 0
    outer loop
      vertex 27 60.5 2
      vertex 27 58 0
      vertex 27 58 2
    endloop
  endfacet
  facet normal 1 -0 0
    outer loop
      vertex 15 58 2
      vertex 15 60.5 0
      vertex 15 60.5 2
    endloop
  endfacet
  facet normal 1 0 0
    outer loop
      vertex 15 60.5 0
      vertex 15 58 2
      vertex 15 58 0
    endloop
  endfacet
  facet normal 0 -1 0
    outer loop
      vertex 15 60.5 0
      vertex 27 60.5 2
      vertex 15 60.5 2
    endloop
  endfacet
  facet normal 0 -1 -0
    outer loop
      vertex 27 60.5 2
      vertex 15 60.5 0
      vertex 27 60.5 0
    endloop
  endfacet
  facet normal 0 1 -0
    outer loop
      vertex 27 58 0
      vertex 15 58 2
      vertex 27 58 2
    endloop
  endfacet
  facet normal 0 1 0
    outer loop
      vertex 15 58 2
      vertex 27 58 0
      vertex 15 58 0
    endloop
  endfacet
  facet normal -1 0 0
    outer loop
      vertex 43 58 0
      vertex 43 60.5 2
      vertex 43 60.5 0
    endloop
  endfacet
  facet normal -1 -0 0
    outer loop
      vertex 43 60.5 2
      vertex 43 58 0
      vertex 43 58 2
    endloop
  endfacet
  facet normal 1 -0 0
    outer loop
      vertex 31 58 2
      vertex 31 60.5 0
      vertex 31 60.5 2
    endloop
  endfacet
  facet normal 1 0 0
    outer loop
      vertex 31 60.5 0
      vertex 31 58 2
      vertex 31 58 0
    endloop
  endfacet
  facet normal 0 -1 0
    outer loop
      vertex 31 60.5 0
      vertex 43 60.5 2
      vertex 31 60.5 2
    endloop
  endfacet
  facet normal 0 -1 -0
    outer loop
      vertex 43 60.5 2
      vertex 31 60.5 0
      vertex 43 60.5 0
    endloop
  endfacet
  facet normal 0 1 -0
    outer loop
      vertex 43 58 0
      vertex 31 58 2
      vertex 43 58 2
    endloop
  endfacet
  facet normal 0 1 0
    outer loop
      vertex 31 58 2
      vertex 43 58 0
      vertex 31 58 0
    endloop
  endfacet
  facet normal -1 0 0
    outer loop
      vertex 59 58 0
      vertex 59 60.5 2
      vertex 59 60.5 0
    endloop
  endfacet
  facet normal -1 -0 0
    outer loop
      vertex 59 60.5 2
      vertex 59 58 0
      vertex 59 58 2
    endloop
  endfacet
  facet normal 1 -0 0
    outer loop
      vertex 47 58 2
      vertex 47 60.5 0
      vertex 47 60.5 2
    endloop
  endfacet
  facet normal 1 0 0
    outer loop
      vertex 47 60.5 0
      vertex 47 58 2
      vertex 47 58 0
    endloop
  endfacet
  facet normal 0 -1 0
    outer loop
      vertex 47 60.5 0
      vertex 59 60.5 2
      vertex 47 60.5 2
    endloop
  endfacet
  facet normal 0 -1 -0
    outer loop
      vertex 59 60.5 2
      vertex 47 60.5 0
      vertex 59 60.5 0
    endloop
  endfacet
  facet normal 0 1 -0
    outer loop
      vertex 59 58 0
      vertex 47 58 2
      vertex 59 58 2
    endloop
  endfacet
  facet normal 0 1 0
    outer loop
      vertex 47 58 2
      vertex 59 58 0
      vertex 47 58 0
    endloop
  endfacet
  facet normal -1 0 0
    outer loop
      vertex 75 58 0
      vertex 75 60.5 2
      vertex 75 60.5 0
    endloop
  endfacet
  facet normal -1 -0 0
    outer loop
      vertex 75 60.5 2
      vertex 75 58 0
      vertex 75 58 2
    endloop
  endfacet
  facet normal 1 -0 0
    outer loop
      vertex 63 58 2
      vertex 63 60.5 0
      vertex 63 60.5 2
    endloop
  endfacet
  facet normal 1 0 0
    outer loop
      vertex 63 60.5 0
      vertex 63 58 2
      vertex 63 58 0
    endloop
  endfacet
  facet normal 0 -1 0
    outer loop
      vertex 63 60.5 0
      vertex 75 60.5 2
      vertex 63 60.5 2
    endloop
  endfacet
  facet normal 0 -1 -0
    outer loop
      vertex 75 60.5 2
      vertex 63 60.5 0
      vertex 75 60.5 0
    endloop
  endfacet
  facet normal 0 1 -0
    outer loop
      vertex 75 58 0
      vertex 63 58 2
      vertex 75 58 2
    endloop
  endfacet
  facet normal 0 1 0
    outer loop
      vertex 63 58 2
      vertex 75 58 0
      vertex 63 58 0
    endloop
  endfacet
  facet normal -1 0 0
    outer loop
      vertex 91 58 0
      vertex 91 60.5 2
      vertex 91 60.5 0
    endloop
  endfacet
  facet normal -1 -0 0
    outer loop
      vertex 91 60.5 2
      vertex 91 58 0
      vertex 91 58 2
    endloop
  endfacet
  facet normal 1 -0 0
    outer loop
      vertex 79 58 2
      vertex 79 60.5 0
      vertex 79 60.5 2
    endloop
  endfacet
  facet normal 1 0 0
    outer loop
      vertex 79 60.5 0
      vertex 79 58 2
      vertex 79 58 0
    endloop
  endfacet
  facet normal 0 -1 0
    outer loop
      vertex 79 60.5 0
      vertex 91 60.5 2
      vertex 79 60.5 2
    endloop
  endfacet
  facet normal 0 -1 -0
    outer loop
      vertex 91 60.5 2
      vertex 79 60.5 0
      vertex 91 60.5 0
    endloop
  endfacet
  facet normal 0 1 -0
    outer loop
      vertex 91 58 0
      vertex 79 58 2
      vertex 91 58 2
    endloop
  endfacet
  facet normal 0 1 0
    outer loop
      vertex 79 58 2
      vertex 91 58 0
      vertex 79 58 0
    endloop
  endfacet
  facet normal -1 0 0
    outer loop
      vertex 65 4 0
      vertex 65 8 2
      vertex 65 8 0
    endloop
  endfacet
  facet normal -1 -0 0
    outer loop
      vertex 65 8 2
      vertex 65 4 0
      vertex 65 4 2
    endloop
  endfacet
  facet normal 1 -0 0
    outer loop
      vertex 40 4 2
      vertex 40 8 0
      vertex 40 8 2
    endloop
  endfacet
  facet normal 1 0 0
    outer loop
      vertex 40 8 0
      vertex 40 4 2
      vertex 40 4 0
    endloop
  endfacet
  facet normal 0 -1 0
    outer loop
      vertex 40 8 0
      vertex 65 8 2
      vertex 40 8 2
    endloop
  endfacet
  facet normal 0 -1 -0
    outer loop
      vertex 65 8 2
      vertex 40 8 0
      vertex 65 8 0
    endloop
  endfacet
  facet normal 0 1 -0
    outer loop
      vertex 65 4 0
      vertex 40 4 2
      vertex 65 4 2
    endloop
  endfacet
  facet normal 0 1 0
    outer loop
      vertex 40 4 2
      vertex 65 4 0
      vertex 40 4 0
    endloop
  endfacet
endsolid OpenSCAD_Model
