solid OpenSCAD_Model
  facet normal 1 -0 0
    outer loop
      vertex 50 0 6
      vertex 50 35 5
      vertex 50 35 6
    endloop
  endfacet
  facet normal 1 0 0
    outer loop
      vertex 50 35 5
      vertex 50 0 6
      vertex 50 35 1
    endloop
  endfacet
  facet normal 1 0 0
    outer loop
      vertex 50 0 0
      vertex 50 35 1
      vertex 50 0 6
    endloop
  endfacet
  facet normal 1 0 0
    outer loop
      vertex 50 35 1
      vertex 50 0 0
      vertex 50 35 0
    endloop
  endfacet
  facet normal 1 -0 0
    outer loop
      vertex 50 35 5
      vertex 50 39 1
      vertex 50 39 5
    endloop
  endfacet
  facet normal 1 0 0
    outer loop
      vertex 50 39 1
      vertex 50 35 5
      vertex 50 35 1
    endloop
  endfacet
  facet normal -0 0 1
    outer loop
      vertex 0 35 6
      vertex 50 0 6
      vertex 50 35 6
    endloop
  endfacet
  facet normal 0 0 1
    outer loop
      vertex 50 0 6
      vertex 0 35 6
      vertex 0 0 6
    endloop
  endfacet
  facet normal 0 0 -1
    outer loop
      vertex 0 0 0
      vertex 50 35 0
      vertex 50 0 0
    endloop
  endfacet
  facet normal -0 0 -1
    outer loop
      vertex 50 35 0
      vertex 0 0 0
      vertex 0 35 0
    endloop
  endfacet
  facet normal -1 0 0
    outer loop
      vertex 0 0 0
      vertex 0 35 1
      vertex 0 35 0
    endloop
  endfacet
  facet normal -1 -0 0
    outer loop
      vertex 0 35 1
      vertex 0 0 0
      vertex 0 35 5
    endloop
  endfacet
  facet normal -1 0 0
    outer loop
      vertex 0 0 6
      vertex 0 35 5
      vertex 0 0 0
    endloop
  endfacet
  facet normal -1 0 0
    outer loop
      vertex 0 35 5
      vertex 0 0 6
      vertex 0 35 6
    endloop
  endfacet
  facet normal -1 0 0
    outer loop
      vertex 0 35 1
      vertex 0 39 5
      vertex 0 39 1
    endloop
  endfacet
  facet normal -1 -0 0
    outer loop
      vertex 0 39 5
      vertex 0 35 1
      vertex 0 35 5
    endloop
  endfacet
  facet normal 0 1 -0
    outer loop
      vertex 50 35 5
      vertex 0 35 6
      vertex 50 35 6
    endloop
  endfacet
  facet normal 0 1 0
    outer loop
      vertex 0 35 6
      vertex 50 35 5
      vertex 0 35 5
    endloop
  endfacet
  facet normal 0 1 -0
    outer loop
      vertex 50 35 0
      vertex 0 35 1
      vertex 50 35 1
    endloop
  endfacet
  facet normal 0 1 0
    outer loop
      vertex 0 35 1
      vertex 50 35 0
      vertex 0 35 0
    endloop
  endfacet
  facet normal 0 -1 0
    outer loop
      vertex 0 0 0
      vertex 50 0 6
      vertex 0 0 6
    endloop
  endfacet
  facet normal 0 -1 -0
    outer loop
      vertex 50 0 6
      vertex 0 0 0
      vertex 50 0 0
    endloop
  endfacet
  facet normal -0 0 1
    outer loop
      vertex 0 39 5
      vertex 50 35 5
      vertex 50 39 5
    endloop
  endfacet
  facet normal 0 0 1
    outer loop
      vertex 50 35 5
      vertex 0 39 5
      vertex 0 35 5
    endloop
  endfacet
  facet normal 0 0 -1
    outer loop
      vertex 0 35 1
      vertex 50 39 1
      vertex 50 35 1
    endloop
  endfacet
  facet normal -0 0 -1
    outer loop
      vertex 50 39 1
      vertex 0 35 1
      vertex 0 39 1
    endloop
  endfacet
  facet normal 0 1 -0
    outer loop
      vertex 19.9268 39 3.19617
      vertex 15 39 3.2
      vertex 20 39 3.2
    endloop
  endfacet
  facet normal 0 1 0
    outer loop
      vertex 19.9268 39 3.19617
      vertex 15.0732 39 3.19617
      vertex 15 39 3.2
    endloop
  endfacet
  facet normal 0 1 -0
    outer loop
      vertex 19.8545 39 3.1847
      vertex 15.0732 39 3.19617
      vertex 19.9268 39 3.19617
    endloop
  endfacet
  facet normal 0 1 0
    outer loop
      vertex 19.8545 39 3.1847
      vertex 15.1455 39 3.1847
      vertex 15.0732 39 3.19617
    endloop
  endfacet
  facet normal 0 1 -0
    outer loop
      vertex 19.7837 39 3.16574
      vertex 15.1455 39 3.1847
      vertex 19.8545 39 3.1847
    endloop
  endfacet
  facet normal 0 1 0
    outer loop
      vertex 19.7837 39 3.16574
      vertex 15.2163 39 3.16574
      vertex 15.1455 39 3.1847
    endloop
  endfacet
  facet normal 0 1 -0
    outer loop
      vertex 19.7153 39 3.13948
      vertex 15.2163 39 3.16574
      vertex 19.7837 39 3.16574
    endloop
  endfacet
  facet normal 0 1 0
    outer loop
      vertex 19.7153 39 3.13948
      vertex 15.2847 39 3.13948
      vertex 15.2163 39 3.16574
    endloop
  endfacet
  facet normal 0 1 -0
    outer loop
      vertex 19.65 39 3.10622
      vertex 15.2847 39 3.13948
      vertex 19.7153 39 3.13948
    endloop
  endfacet
  facet normal 0 1 0
    outer loop
      vertex 19.65 39 3.10622
      vertex 15.35 39 3.10622
      vertex 15.2847 39 3.13948
    endloop
  endfacet
  facet normal 0 1 -0
    outer loop
      vertex 19.5886 39 3.06631
      vertex 15.35 39 3.10622
      vertex 19.65 39 3.10622
    endloop
  endfacet
  facet normal 0 1 0
    outer loop
      vertex 19.5886 39 3.06631
      vertex 15.4114 39 3.06631
      vertex 15.35 39 3.10622
    endloop
  endfacet
  facet normal 0 1 -0
    outer loop
      vertex 19.5316 39 3.0202
      vertex 15.4114 39 3.06631
      vertex 19.5886 39 3.06631
    endloop
  endfacet
  facet normal 0 1 0
    outer loop
      vertex 19.5316 39 3.0202
      vertex 15.4684 39 3.0202
      vertex 15.4114 39 3.06631
    endloop
  endfacet
  facet normal 0 1 -0
    outer loop
      vertex 19.4798 39 2.96839
      vertex 15.4684 39 3.0202
      vertex 19.5316 39 3.0202
    endloop
  endfacet
  facet normal 0 1 0
    outer loop
      vertex 19.4798 39 2.96839
      vertex 15.5202 39 2.96839
      vertex 15.4684 39 3.0202
    endloop
  endfacet
  facet normal 0 1 -0
    outer loop
      vertex 19.4337 39 2.91145
      vertex 15.5202 39 2.96839
      vertex 19.4798 39 2.96839
    endloop
  endfacet
  facet normal 0 1 0
    outer loop
      vertex 19.4337 39 2.91145
      vertex 15.5663 39 2.91145
      vertex 15.5202 39 2.96839
    endloop
  endfacet
  facet normal 0 1 -0
    outer loop
      vertex 19.3938 39 2.85
      vertex 15.5663 39 2.91145
      vertex 19.4337 39 2.91145
    endloop
  endfacet
  facet normal 0 1 0
    outer loop
      vertex 19.3938 39 2.85
      vertex 15.6062 39 2.85
      vertex 15.5663 39 2.91145
    endloop
  endfacet
  facet normal 0 1 -0
    outer loop
      vertex 19.3605 39 2.78471
      vertex 15.6062 39 2.85
      vertex 19.3938 39 2.85
    endloop
  endfacet
  facet normal 0 1 0
    outer loop
      vertex 19.3605 39 2.78471
      vertex 15.6395 39 2.78471
      vertex 15.6062 39 2.85
    endloop
  endfacet
  facet normal 0 1 -0
    outer loop
      vertex 19.3343 39 2.71631
      vertex 15.6395 39 2.78471
      vertex 19.3605 39 2.78471
    endloop
  endfacet
  facet normal 0 1 0
    outer loop
      vertex 19.3343 39 2.71631
      vertex 15.6657 39 2.71631
      vertex 15.6395 39 2.78471
    endloop
  endfacet
  facet normal 0 1 -0
    outer loop
      vertex 19.3153 39 2.64554
      vertex 15.6657 39 2.71631
      vertex 19.3343 39 2.71631
    endloop
  endfacet
  facet normal 0 1 0
    outer loop
      vertex 19.3153 39 2.64554
      vertex 15.6847 39 2.64554
      vertex 15.6657 39 2.71631
    endloop
  endfacet
  facet normal 0 1 -0
    outer loop
      vertex 19.3038 39 2.57317
      vertex 15.6847 39 2.64554
      vertex 19.3153 39 2.64554
    endloop
  endfacet
  facet normal 0 1 0
    outer loop
      vertex 19.3038 39 2.57317
      vertex 15.6962 39 2.57317
      vertex 15.6847 39 2.64554
    endloop
  endfacet
  facet normal 0 1 -0
    outer loop
      vertex 19.3 39 2.5
      vertex 15.6962 39 2.57317
      vertex 19.3038 39 2.57317
    endloop
  endfacet
  facet normal 0 1 0
    outer loop
      vertex 19.3 39 2.5
      vertex 15.7 39 2.5
      vertex 15.6962 39 2.57317
    endloop
  endfacet
  facet normal 0 1 0
    outer loop
      vertex 19.3038 39 2.42683
      vertex 15.7 39 2.5
      vertex 19.3 39 2.5
    endloop
  endfacet
  facet normal 0 1 0
    outer loop
      vertex 19.3038 39 2.42683
      vertex 15.6962 39 2.42683
      vertex 15.7 39 2.5
    endloop
  endfacet
  facet normal 0 1 0
    outer loop
      vertex 19.3153 39 2.35446
      vertex 15.6962 39 2.42683
      vertex 19.3038 39 2.42683
    endloop
  endfacet
  facet normal 0 1 0
    outer loop
      vertex 19.3153 39 2.35446
      vertex 15.6847 39 2.35446
      vertex 15.6962 39 2.42683
    endloop
  endfacet
  facet normal 0 1 0
    outer loop
      vertex 19.3343 39 2.28369
      vertex 15.6847 39 2.35446
      vertex 19.3153 39 2.35446
    endloop
  endfacet
  facet normal 0 1 0
    outer loop
      vertex 19.3343 39 2.28369
      vertex 15.6657 39 2.28369
      vertex 15.6847 39 2.35446
    endloop
  endfacet
  facet normal 0 1 0
    outer loop
      vertex 19.3605 39 2.21528
      vertex 15.6657 39 2.28369
      vertex 19.3343 39 2.28369
    endloop
  endfacet
  facet normal 0 1 0
    outer loop
      vertex 19.3605 39 2.21528
      vertex 15.6395 39 2.21528
      vertex 15.6657 39 2.28369
    endloop
  endfacet
  facet normal 0 1 0
    outer loop
      vertex 19.3938 39 2.15
      vertex 15.6395 39 2.21528
      vertex 19.3605 39 2.21528
    endloop
  endfacet
  facet normal 0 1 0
    outer loop
      vertex 19.3938 39 2.15
      vertex 15.6062 39 2.15
      vertex 15.6395 39 2.21528
    endloop
  endfacet
  facet normal 0 1 0
    outer loop
      vertex 19.4337 39 2.08855
      vertex 15.6062 39 2.15
      vertex 19.3938 39 2.15
    endloop
  endfacet
  facet normal 0 1 0
    outer loop
      vertex 19.4337 39 2.08855
      vertex 15.5663 39 2.08855
      vertex 15.6062 39 2.15
    endloop
  endfacet
  facet normal 0 1 0
    outer loop
      vertex 19.4798 39 2.03161
      vertex 15.5663 39 2.08855
      vertex 19.4337 39 2.08855
    endloop
  endfacet
  facet normal 0 1 0
    outer loop
      vertex 19.4798 39 2.03161
      vertex 15.5202 39 2.03161
      vertex 15.5663 39 2.08855
    endloop
  endfacet
  facet normal 0 1 0
    outer loop
      vertex 19.5316 39 1.9798
      vertex 15.5202 39 2.03161
      vertex 19.4798 39 2.03161
    endloop
  endfacet
  facet normal 0 1 0
    outer loop
      vertex 19.5316 39 1.9798
      vertex 15.4684 39 1.9798
      vertex 15.5202 39 2.03161
    endloop
  endfacet
  facet normal 0 1 0
    outer loop
      vertex 19.5886 39 1.93369
      vertex 15.4684 39 1.9798
      vertex 19.5316 39 1.9798
    endloop
  endfacet
  facet normal 0 1 0
    outer loop
      vertex 19.5886 39 1.93369
      vertex 15.4114 39 1.93369
      vertex 15.4684 39 1.9798
    endloop
  endfacet
  facet normal 0 1 0
    outer loop
      vertex 19.65 39 1.89378
      vertex 15.4114 39 1.93369
      vertex 19.5886 39 1.93369
    endloop
  endfacet
  facet normal 0 1 0
    outer loop
      vertex 19.65 39 1.89378
      vertex 15.35 39 1.89378
      vertex 15.4114 39 1.93369
    endloop
  endfacet
  facet normal 0 1 0
    outer loop
      vertex 19.7153 39 1.86052
      vertex 15.35 39 1.89378
      vertex 19.65 39 1.89378
    endloop
  endfacet
  facet normal 0 1 0
    outer loop
      vertex 19.7153 39 1.86052
      vertex 15.2847 39 1.86052
      vertex 15.35 39 1.89378
    endloop
  endfacet
  facet normal 0 1 0
    outer loop
      vertex 19.7837 39 1.83426
      vertex 15.2847 39 1.86052
      vertex 19.7153 39 1.86052
    endloop
  endfacet
  facet normal 0 1 0
    outer loop
      vertex 19.7837 39 1.83426
      vertex 15.2163 39 1.83426
      vertex 15.2847 39 1.86052
    endloop
  endfacet
  facet normal 0 1 0
    outer loop
      vertex 19.8545 39 1.8153
      vertex 15.2163 39 1.83426
      vertex 19.7837 39 1.83426
    endloop
  endfacet
  facet normal 0 1 0
    outer loop
      vertex 19.8545 39 1.8153
      vertex 15.1455 39 1.8153
      vertex 15.2163 39 1.83426
    endloop
  endfacet
  facet normal 0 1 0
    outer loop
      vertex 19.9268 39 1.80383
      vertex 15.1455 39 1.8153
      vertex 19.8545 39 1.8153
    endloop
  endfacet
  facet normal 0 1 0
    outer loop
      vertex 19.9268 39 1.80383
      vertex 15.0732 39 1.80383
      vertex 15.1455 39 1.8153
    endloop
  endfacet
  facet normal 0 1 0
    outer loop
      vertex 20 39 1.8
      vertex 15.0732 39 1.80383
      vertex 19.9268 39 1.80383
    endloop
  endfacet
  facet normal 0 1 0
    outer loop
      vertex 15.0732 39 1.80383
      vertex 20 39 1.8
      vertex 15 39 1.8
    endloop
  endfacet
  facet normal 0 1 0
    outer loop
      vertex 50 39 5
      vertex 20 39 3.2
      vertex 0 39 5
    endloop
  endfacet
  facet normal 0 1 0
    outer loop
      vertex 50 39 5
      vertex 20.0732 39 3.19617
      vertex 20 39 3.2
    endloop
  endfacet
  facet normal 0 1 0
    outer loop
      vertex 50 39 5
      vertex 20.1455 39 3.1847
      vertex 20.0732 39 3.19617
    endloop
  endfacet
  facet normal 0 1 0
    outer loop
      vertex 50 39 5
      vertex 20.2163 39 3.16574
      vertex 20.1455 39 3.1847
    endloop
  endfacet
  facet normal 0 1 0
    outer loop
      vertex 50 39 5
      vertex 20.2847 39 3.13948
      vertex 20.2163 39 3.16574
    endloop
  endfacet
  facet normal 0 1 0
    outer loop
      vertex 50 39 5
      vertex 20.35 39 3.10622
      vertex 20.2847 39 3.13948
    endloop
  endfacet
  facet normal 0 1 0
    outer loop
      vertex 50 39 5
      vertex 20.4114 39 3.06631
      vertex 20.35 39 3.10622
    endloop
  endfacet
  facet normal 0 1 0
    outer loop
      vertex 50 39 5
      vertex 20.4684 39 3.0202
      vertex 20.4114 39 3.06631
    endloop
  endfacet
  facet normal 0 1 0
    outer loop
      vertex 50 39 5
      vertex 20.5202 39 2.96839
      vertex 20.4684 39 3.0202
    endloop
  endfacet
  facet normal 0 1 0
    outer loop
      vertex 50 39 5
      vertex 20.5663 39 2.91145
      vertex 20.5202 39 2.96839
    endloop
  endfacet
  facet normal 0 1 0
    outer loop
      vertex 50 39 5
      vertex 20.6062 39 2.85
      vertex 20.5663 39 2.91145
    endloop
  endfacet
  facet normal 0 1 0
    outer loop
      vertex 50 39 5
      vertex 20.6395 39 2.78471
      vertex 20.6062 39 2.85
    endloop
  endfacet
  facet normal 0 1 0
    outer loop
      vertex 50 39 5
      vertex 20.6657 39 2.71631
      vertex 20.6395 39 2.78471
    endloop
  endfacet
  facet normal 0 1 0
    outer loop
      vertex 50 39 5
      vertex 20.6847 39 2.64554
      vertex 20.6657 39 2.71631
    endloop
  endfacet
  facet normal 0 1 0
    outer loop
      vertex 50 39 5
      vertex 20.6962 39 2.57317
      vertex 20.6847 39 2.64554
    endloop
  endfacet
  facet normal 0 1 0
    outer loop
      vertex 50 39 5
      vertex 20.7 39 2.5
      vertex 20.6962 39 2.57317
    endloop
  endfacet
  facet normal 0 1 -0
    outer loop
      vertex 50 39 1
      vertex 20.7 39 2.5
      vertex 50 39 5
    endloop
  endfacet
  facet normal 0 1 0
    outer loop
      vertex 20.7 39 2.5
      vertex 50 39 1
      vertex 20.6962 39 2.42683
    endloop
  endfacet
  facet normal 0 1 0
    outer loop
      vertex 20.6962 39 2.42683
      vertex 50 39 1
      vertex 20.6847 39 2.35446
    endloop
  endfacet
  facet normal 0 1 0
    outer loop
      vertex 20.6847 39 2.35446
      vertex 50 39 1
      vertex 20.6657 39 2.28369
    endloop
  endfacet
  facet normal 0 1 0
    outer loop
      vertex 20.6657 39 2.28369
      vertex 50 39 1
      vertex 20.6395 39 2.21528
    endloop
  endfacet
  facet normal 0 1 0
    outer loop
      vertex 20.6395 39 2.21528
      vertex 50 39 1
      vertex 20.6062 39 2.15
    endloop
  endfacet
  facet normal 0 1 0
    outer loop
      vertex 20.6062 39 2.15
      vertex 50 39 1
      vertex 20.5663 39 2.08855
    endloop
  endfacet
  facet normal 0 1 0
    outer loop
      vertex 20.5663 39 2.08855
      vertex 50 39 1
      vertex 20.5202 39 2.03161
    endloop
  endfacet
  facet normal 0 1 0
    outer loop
      vertex 20.5202 39 2.03161
      vertex 50 39 1
      vertex 20.4684 39 1.9798
    endloop
  endfacet
  facet normal 0 1 0
    outer loop
      vertex 20.4684 39 1.9798
      vertex 50 39 1
      vertex 20.4114 39 1.93369
    endloop
  endfacet
  facet normal 0 1 0
    outer loop
      vertex 20.4114 39 1.93369
      vertex 50 39 1
      vertex 20.35 39 1.89378
    endloop
  endfacet
  facet normal 0 1 0
    outer loop
      vertex 20.35 39 1.89378
      vertex 50 39 1
      vertex 20.2847 39 1.86052
    endloop
  endfacet
  facet normal 0 1 0
    outer loop
      vertex 20.2847 39 1.86052
      vertex 50 39 1
      vertex 20.2163 39 1.83426
    endloop
  endfacet
  facet normal 0 1 0
    outer loop
      vertex 20.2163 39 1.83426
      vertex 50 39 1
      vertex 20.1455 39 1.8153
    endloop
  endfacet
  facet normal 0 1 0
    outer loop
      vertex 0 39 1
      vertex 20 39 1.8
      vertex 50 39 1
    endloop
  endfacet
  facet normal 0 1 0
    outer loop
      vertex 20.0732 39 1.80383
      vertex 50 39 1
      vertex 20 39 1.8
    endloop
  endfacet
  facet normal 0 1 0
    outer loop
      vertex 20.1455 39 1.8153
      vertex 50 39 1
      vertex 20.0732 39 1.80383
    endloop
  endfacet
  facet normal 0 1 -0
    outer loop
      vertex 15 39 3.2
      vertex 0 39 5
      vertex 20 39 3.2
    endloop
  endfacet
  facet normal 0 1 -0
    outer loop
      vertex 14.9268 39 3.19617
      vertex 0 39 5
      vertex 15 39 3.2
    endloop
  endfacet
  facet normal 0 1 -0
    outer loop
      vertex 14.8545 39 3.1847
      vertex 0 39 5
      vertex 14.9268 39 3.19617
    endloop
  endfacet
  facet normal 0 1 -0
    outer loop
      vertex 14.7837 39 3.16574
      vertex 0 39 5
      vertex 14.8545 39 3.1847
    endloop
  endfacet
  facet normal 0 1 -0
    outer loop
      vertex 14.7153 39 3.13948
      vertex 0 39 5
      vertex 14.7837 39 3.16574
    endloop
  endfacet
  facet normal 0 1 -0
    outer loop
      vertex 14.65 39 3.10622
      vertex 0 39 5
      vertex 14.7153 39 3.13948
    endloop
  endfacet
  facet normal 0 1 -0
    outer loop
      vertex 14.5885 39 3.06631
      vertex 0 39 5
      vertex 14.65 39 3.10622
    endloop
  endfacet
  facet normal 0 1 -0
    outer loop
      vertex 14.5316 39 3.0202
      vertex 0 39 5
      vertex 14.5885 39 3.06631
    endloop
  endfacet
  facet normal 0 1 -0
    outer loop
      vertex 14.4798 39 2.96839
      vertex 0 39 5
      vertex 14.5316 39 3.0202
    endloop
  endfacet
  facet normal 0 1 -0
    outer loop
      vertex 14.4337 39 2.91145
      vertex 0 39 5
      vertex 14.4798 39 2.96839
    endloop
  endfacet
  facet normal 0 1 -0
    outer loop
      vertex 14.3938 39 2.85
      vertex 0 39 5
      vertex 14.4337 39 2.91145
    endloop
  endfacet
  facet normal 0 1 -0
    outer loop
      vertex 14.3605 39 2.78471
      vertex 0 39 5
      vertex 14.3938 39 2.85
    endloop
  endfacet
  facet normal 0 1 -0
    outer loop
      vertex 14.3343 39 2.71631
      vertex 0 39 5
      vertex 14.3605 39 2.78471
    endloop
  endfacet
  facet normal 0 1 -0
    outer loop
      vertex 14.3153 39 2.64554
      vertex 0 39 5
      vertex 14.3343 39 2.71631
    endloop
  endfacet
  facet normal 0 1 -0
    outer loop
      vertex 14.3038 39 2.57317
      vertex 0 39 5
      vertex 14.3153 39 2.64554
    endloop
  endfacet
  facet normal 0 1 0
    outer loop
      vertex 0 39 1
      vertex 14.3038 39 2.57317
      vertex 14.3 39 2.5
    endloop
  endfacet
  facet normal 0 1 0
    outer loop
      vertex 0 39 1
      vertex 14.3 39 2.5
      vertex 14.3038 39 2.42683
    endloop
  endfacet
  facet normal 0 1 0
    outer loop
      vertex 0 39 1
      vertex 14.3038 39 2.42683
      vertex 14.3153 39 2.35446
    endloop
  endfacet
  facet normal 0 1 0
    outer loop
      vertex 0 39 1
      vertex 14.3153 39 2.35446
      vertex 14.3343 39 2.28369
    endloop
  endfacet
  facet normal 0 1 0
    outer loop
      vertex 0 39 1
      vertex 14.3343 39 2.28369
      vertex 14.3605 39 2.21528
    endloop
  endfacet
  facet normal 0 1 0
    outer loop
      vertex 0 39 1
      vertex 14.3605 39 2.21528
      vertex 14.3938 39 2.15
    endloop
  endfacet
  facet normal 0 1 0
    outer loop
      vertex 0 39 1
      vertex 14.3938 39 2.15
      vertex 14.4337 39 2.08855
    endloop
  endfacet
  facet normal 0 1 0
    outer loop
      vertex 0 39 1
      vertex 14.4337 39 2.08855
      vertex 14.4798 39 2.03161
    endloop
  endfacet
  facet normal 0 1 0
    outer loop
      vertex 0 39 1
      vertex 14.4798 39 2.03161
      vertex 14.5316 39 1.9798
    endloop
  endfacet
  facet normal 0 1 0
    outer loop
      vertex 0 39 1
      vertex 14.5316 39 1.9798
      vertex 14.5885 39 1.93369
    endloop
  endfacet
  facet normal 0 1 0
    outer loop
      vertex 0 39 1
      vertex 14.5885 39 1.93369
      vertex 14.65 39 1.89378
    endloop
  endfacet
  facet normal 0 1 0
    outer loop
      vertex 0 39 1
      vertex 14.65 39 1.89378
      vertex 14.7153 39 1.86052
    endloop
  endfacet
  facet normal 0 1 0
    outer loop
      vertex 0 39 1
      vertex 14.7153 39 1.86052
      vertex 14.7837 39 1.83426
    endloop
  endfacet
  facet normal 0 1 0
    outer loop
      vertex 0 39 1
      vertex 14.7837 39 1.83426
      vertex 14.8545 39 1.8153
    endloop
  endfacet
  facet normal 0 1 0
    outer loop
      vertex 14.3038 39 2.57317
      vertex 0 39 1
      vertex 0 39 5
    endloop
  endfacet
  facet normal 0 1 0
    outer loop
      vertex 14.9268 39 1.80383
      vertex 0 39 1
      vertex 14.8545 39 1.8153
    endloop
  endfacet
  facet normal 0 1 0
    outer loop
      vertex 15 39 1.8
      vertex 0 39 1
      vertex 14.9268 39 1.80383
    endloop
  endfacet
  facet normal 0 1 0
    outer loop
      vertex 20 39 1.8
      vertex 0 39 1
      vertex 15 39 1.8
    endloop
  endfacet
  facet normal -0.45386 0 0.891073
    outer loop
      vertex 14.65 51 3.10622
      vertex 14.7153 39 3.13948
      vertex 14.7153 51 3.13948
    endloop
  endfacet
  facet normal -0.45386 0 0.891073
    outer loop
      vertex 14.7153 39 3.13948
      vertex 14.65 51 3.10622
      vertex 14.65 39 3.10622
    endloop
  endfacet
  facet normal 0.987609 0 -0.156937
    outer loop
      vertex 15.6962 39 2.42683
      vertex 15.6847 51 2.35446
      vertex 15.6962 51 2.42683
    endloop
  endfacet
  facet normal 0.987609 0 -0.156937
    outer loop
      vertex 15.6847 51 2.35446
      vertex 15.6962 39 2.42683
      vertex 15.6847 39 2.35446
    endloop
  endfacet
  facet normal 0.998654 0 -0.051864
    outer loop
      vertex 15.7 39 2.5
      vertex 15.6962 51 2.42683
      vertex 15.7 51 2.5
    endloop
  endfacet
  facet normal 0.998654 0 -0.051864
    outer loop
      vertex 15.6962 51 2.42683
      vertex 15.7 39 2.5
      vertex 15.6962 39 2.42683
    endloop
  endfacet
  facet normal 0.965799 0 -0.259293
    outer loop
      vertex 15.6847 39 2.35446
      vertex 15.6657 51 2.28369
      vertex 15.6847 51 2.35446
    endloop
  endfacet
  facet normal 0.965799 0 -0.259293
    outer loop
      vertex 15.6657 51 2.28369
      vertex 15.6847 39 2.35446
      vertex 15.6657 39 2.28369
    endloop
  endfacet
  facet normal 0.258682 0 -0.965963
    outer loop
      vertex 15.1455 39 1.8153
      vertex 15.2163 51 1.83426
      vertex 15.2163 39 1.83426
    endloop
  endfacet
  facet normal 0.258682 0 -0.965963
    outer loop
      vertex 15.2163 51 1.83426
      vertex 15.1455 39 1.8153
      vertex 15.1455 51 1.8153
    endloop
  endfacet
  facet normal -0.965799 0 -0.259293
    outer loop
      vertex 14.3343 39 2.28369
      vertex 14.3153 51 2.35446
      vertex 14.3343 51 2.28369
    endloop
  endfacet
  facet normal -0.965799 -0 -0.259293
    outer loop
      vertex 14.3153 51 2.35446
      vertex 14.3343 39 2.28369
      vertex 14.3153 39 2.35446
    endloop
  endfacet
  facet normal -0.890796 0 -0.454404
    outer loop
      vertex 14.3938 39 2.15
      vertex 14.3605 51 2.21528
      vertex 14.3938 51 2.15
    endloop
  endfacet
  facet normal -0.890796 -0 -0.454404
    outer loop
      vertex 14.3605 51 2.21528
      vertex 14.3938 39 2.15
      vertex 14.3605 39 2.21528
    endloop
  endfacet
  facet normal -0.544365 0 -0.838849
    outer loop
      vertex 14.5885 39 1.93369
      vertex 14.65 51 1.89378
      vertex 14.65 39 1.89378
    endloop
  endfacet
  facet normal -0.544365 0 -0.838849
    outer loop
      vertex 14.65 51 1.89378
      vertex 14.5885 39 1.93369
      vertex 14.5885 51 1.93369
    endloop
  endfacet
  facet normal 0.45386 0 0.891073
    outer loop
      vertex 15.2847 51 3.13948
      vertex 15.35 39 3.10622
      vertex 15.35 51 3.10622
    endloop
  endfacet
  facet normal 0.45386 0 0.891073
    outer loop
      vertex 15.35 39 3.10622
      vertex 15.2847 51 3.13948
      vertex 15.2847 39 3.13948
    endloop
  endfacet
  facet normal -0.838709 0 0.544581
    outer loop
      vertex 14.3938 39 2.85
      vertex 14.4337 51 2.91145
      vertex 14.3938 51 2.85
    endloop
  endfacet
  facet normal -0.838709 0 0.544581
    outer loop
      vertex 14.4337 51 2.91145
      vertex 14.3938 39 2.85
      vertex 14.4337 39 2.91145
    endloop
  endfacet
  facet normal 0.156685 0 0.987649
    outer loop
      vertex 15.0732 51 3.19617
      vertex 15.1455 39 3.1847
      vertex 15.1455 51 3.1847
    endloop
  endfacet
  facet normal 0.156685 0 0.987649
    outer loop
      vertex 15.1455 39 3.1847
      vertex 15.0732 51 3.19617
      vertex 15.0732 39 3.19617
    endloop
  endfacet
  facet normal -0.258682 0 0.965963
    outer loop
      vertex 14.7837 51 3.16574
      vertex 14.8545 39 3.1847
      vertex 14.8545 51 3.1847
    endloop
  endfacet
  facet normal -0.258682 0 0.965963
    outer loop
      vertex 14.8545 39 3.1847
      vertex 14.7837 51 3.16574
      vertex 14.7837 39 3.16574
    endloop
  endfacet
  facet normal 0.777207 -0 0.629245
    outer loop
      vertex 15.5202 39 2.96839
      vertex 15.5663 51 2.91145
      vertex 15.5202 51 2.96839
    endloop
  endfacet
  facet normal 0.777207 0 0.629245
    outer loop
      vertex 15.5663 51 2.91145
      vertex 15.5202 39 2.96839
      vertex 15.5663 39 2.91145
    endloop
  endfacet
  facet normal -0.965799 0 0.259293
    outer loop
      vertex 14.3153 39 2.64554
      vertex 14.3343 51 2.71631
      vertex 14.3153 51 2.64554
    endloop
  endfacet
  facet normal -0.965799 0 0.259293
    outer loop
      vertex 14.3343 51 2.71631
      vertex 14.3153 39 2.64554
      vertex 14.3343 39 2.71631
    endloop
  endfacet
  facet normal 0.987609 -0 0.156937
    outer loop
      vertex 15.6847 39 2.64554
      vertex 15.6962 51 2.57317
      vertex 15.6847 51 2.64554
    endloop
  endfacet
  facet normal 0.987609 0 0.156937
    outer loop
      vertex 15.6962 51 2.57317
      vertex 15.6847 39 2.64554
      vertex 15.6962 39 2.57317
    endloop
  endfacet
  facet normal 0.544988 0 0.838444
    outer loop
      vertex 15.35 51 3.10622
      vertex 15.4114 39 3.06631
      vertex 15.4114 51 3.06631
    endloop
  endfacet
  facet normal 0.544988 0 0.838444
    outer loop
      vertex 15.4114 39 3.06631
      vertex 15.35 51 3.10622
      vertex 15.35 39 3.10622
    endloop
  endfacet
  facet normal -0.707175 0 0.707039
    outer loop
      vertex 14.4798 39 2.96839
      vertex 14.5316 51 3.0202
      vertex 14.4798 51 2.96839
    endloop
  endfacet
  facet normal -0.707175 0 0.707039
    outer loop
      vertex 14.5316 51 3.0202
      vertex 14.4798 39 2.96839
      vertex 14.5316 39 3.0202
    endloop
  endfacet
  facet normal -0.0522509 0 -0.998634
    outer loop
      vertex 14.9268 39 1.80383
      vertex 15 51 1.8
      vertex 15 39 1.8
    endloop
  endfacet
  facet normal -0.0522509 0 -0.998634
    outer loop
      vertex 15 51 1.8
      vertex 14.9268 39 1.80383
      vertex 14.9268 51 1.80383
    endloop
  endfacet
  facet normal 0.358412 0 -0.933564
    outer loop
      vertex 15.2163 39 1.83426
      vertex 15.2847 51 1.86052
      vertex 15.2847 39 1.86052
    endloop
  endfacet
  facet normal 0.358412 0 -0.933564
    outer loop
      vertex 15.2847 51 1.86052
      vertex 15.2163 39 1.83426
      vertex 15.2163 51 1.83426
    endloop
  endfacet
  facet normal -0.777207 0 -0.629245
    outer loop
      vertex 14.4798 39 2.03161
      vertex 14.4337 51 2.08855
      vertex 14.4798 51 2.03161
    endloop
  endfacet
  facet normal -0.777207 -0 -0.629245
    outer loop
      vertex 14.4337 51 2.08855
      vertex 14.4798 39 2.03161
      vertex 14.4337 39 2.08855
    endloop
  endfacet
  facet normal 0.965799 -0 0.259293
    outer loop
      vertex 15.6657 39 2.71631
      vertex 15.6847 51 2.64554
      vertex 15.6657 51 2.71631
    endloop
  endfacet
  facet normal 0.965799 0 0.259293
    outer loop
      vertex 15.6847 51 2.64554
      vertex 15.6657 39 2.71631
      vertex 15.6847 39 2.64554
    endloop
  endfacet
  facet normal -0.629595 0 0.776924
    outer loop
      vertex 14.5316 51 3.0202
      vertex 14.5885 39 3.06631
      vertex 14.5885 51 3.06631
    endloop
  endfacet
  facet normal -0.629595 0 0.776924
    outer loop
      vertex 14.5885 39 3.06631
      vertex 14.5316 51 3.0202
      vertex 14.5316 39 3.0202
    endloop
  endfacet
  facet normal -0.629595 0 -0.776924
    outer loop
      vertex 14.5316 39 1.9798
      vertex 14.5885 51 1.93369
      vertex 14.5885 39 1.93369
    endloop
  endfacet
  facet normal -0.629595 0 -0.776924
    outer loop
      vertex 14.5885 51 1.93369
      vertex 14.5316 39 1.9798
      vertex 14.5316 51 1.9798
    endloop
  endfacet
  facet normal -0.358412 0 -0.933564
    outer loop
      vertex 14.7153 39 1.86052
      vertex 14.7837 51 1.83426
      vertex 14.7837 39 1.83426
    endloop
  endfacet
  facet normal -0.358412 0 -0.933564
    outer loop
      vertex 14.7837 51 1.83426
      vertex 14.7153 39 1.86052
      vertex 14.7153 51 1.86052
    endloop
  endfacet
  facet normal -0.933855 0 -0.357652
    outer loop
      vertex 14.3605 39 2.21528
      vertex 14.3343 51 2.28369
      vertex 14.3605 51 2.21528
    endloop
  endfacet
  facet normal -0.933855 -0 -0.357652
    outer loop
      vertex 14.3343 51 2.28369
      vertex 14.3605 39 2.21528
      vertex 14.3343 39 2.28369
    endloop
  endfacet
  facet normal 0.777207 0 -0.629245
    outer loop
      vertex 15.5663 39 2.08855
      vertex 15.5202 51 2.03161
      vertex 15.5663 51 2.08855
    endloop
  endfacet
  facet normal 0.777207 0 -0.629245
    outer loop
      vertex 15.5202 51 2.03161
      vertex 15.5663 39 2.08855
      vertex 15.5202 39 2.03161
    endloop
  endfacet
  facet normal -0.998654 0 0.051864
    outer loop
      vertex 14.3 39 2.5
      vertex 14.3038 51 2.57317
      vertex 14.3 51 2.5
    endloop
  endfacet
  facet normal -0.998654 0 0.051864
    outer loop
      vertex 14.3038 51 2.57317
      vertex 14.3 39 2.5
      vertex 14.3038 39 2.57317
    endloop
  endfacet
  facet normal -0.358412 0 0.933564
    outer loop
      vertex 14.7153 51 3.13948
      vertex 14.7837 39 3.16574
      vertex 14.7837 51 3.16574
    endloop
  endfacet
  facet normal -0.358412 0 0.933564
    outer loop
      vertex 14.7837 39 3.16574
      vertex 14.7153 51 3.13948
      vertex 14.7153 39 3.13948
    endloop
  endfacet
  facet normal 0.0522509 0 -0.998634
    outer loop
      vertex 15 39 1.8
      vertex 15.0732 51 1.80383
      vertex 15.0732 39 1.80383
    endloop
  endfacet
  facet normal 0.0522509 0 -0.998634
    outer loop
      vertex 15.0732 51 1.80383
      vertex 15 39 1.8
      vertex 15 51 1.8
    endloop
  endfacet
  facet normal -0.156685 0 -0.987649
    outer loop
      vertex 14.8545 39 1.8153
      vertex 14.9268 51 1.80383
      vertex 14.9268 39 1.80383
    endloop
  endfacet
  facet normal -0.156685 0 -0.987649
    outer loop
      vertex 14.9268 51 1.80383
      vertex 14.8545 39 1.8153
      vertex 14.8545 51 1.8153
    endloop
  endfacet
  facet normal 0.998654 -0 0.051864
    outer loop
      vertex 15.6962 39 2.57317
      vertex 15.7 51 2.5
      vertex 15.6962 51 2.57317
    endloop
  endfacet
  facet normal 0.998654 0 0.051864
    outer loop
      vertex 15.7 51 2.5
      vertex 15.6962 39 2.57317
      vertex 15.7 39 2.5
    endloop
  endfacet
  facet normal 0.890824 -0 0.454349
    outer loop
      vertex 15.6062 39 2.85
      vertex 15.6395 51 2.78471
      vertex 15.6062 51 2.85
    endloop
  endfacet
  facet normal 0.890824 0 0.454349
    outer loop
      vertex 15.6395 51 2.78471
      vertex 15.6062 39 2.85
      vertex 15.6395 39 2.78471
    endloop
  endfacet
  facet normal 0.838709 0 -0.544581
    outer loop
      vertex 15.6062 39 2.15
      vertex 15.5663 51 2.08855
      vertex 15.6062 51 2.15
    endloop
  endfacet
  facet normal 0.838709 0 -0.544581
    outer loop
      vertex 15.5663 51 2.08855
      vertex 15.6062 39 2.15
      vertex 15.5663 39 2.08855
    endloop
  endfacet
  facet normal 0.156685 0 -0.987649
    outer loop
      vertex 15.0732 39 1.80383
      vertex 15.1455 51 1.8153
      vertex 15.1455 39 1.8153
    endloop
  endfacet
  facet normal 0.156685 0 -0.987649
    outer loop
      vertex 15.1455 51 1.8153
      vertex 15.0732 39 1.80383
      vertex 15.0732 51 1.80383
    endloop
  endfacet
  facet normal 0.544988 0 -0.838444
    outer loop
      vertex 15.35 39 1.89378
      vertex 15.4114 51 1.93369
      vertex 15.4114 39 1.93369
    endloop
  endfacet
  facet normal 0.544988 0 -0.838444
    outer loop
      vertex 15.4114 51 1.93369
      vertex 15.35 39 1.89378
      vertex 15.35 51 1.89378
    endloop
  endfacet
  facet normal 0.45386 0 -0.891073
    outer loop
      vertex 15.2847 39 1.86052
      vertex 15.35 51 1.89378
      vertex 15.35 39 1.89378
    endloop
  endfacet
  facet normal 0.45386 0 -0.891073
    outer loop
      vertex 15.35 51 1.89378
      vertex 15.2847 39 1.86052
      vertex 15.2847 51 1.86052
    endloop
  endfacet
  facet normal 0.0522509 0 0.998634
    outer loop
      vertex 15 51 3.2
      vertex 15.0732 39 3.19617
      vertex 15.0732 51 3.19617
    endloop
  endfacet
  facet normal 0.0522509 0 0.998634
    outer loop
      vertex 15.0732 39 3.19617
      vertex 15 51 3.2
      vertex 15 39 3.2
    endloop
  endfacet
  facet normal 0.933855 0 -0.357652
    outer loop
      vertex 15.6657 39 2.28369
      vertex 15.6395 51 2.21528
      vertex 15.6657 51 2.28369
    endloop
  endfacet
  facet normal 0.933855 0 -0.357652
    outer loop
      vertex 15.6395 51 2.21528
      vertex 15.6657 39 2.28369
      vertex 15.6395 39 2.21528
    endloop
  endfacet
  facet normal 0.838709 -0 0.544581
    outer loop
      vertex 15.5663 39 2.91145
      vertex 15.6062 51 2.85
      vertex 15.5663 51 2.91145
    endloop
  endfacet
  facet normal 0.838709 0 0.544581
    outer loop
      vertex 15.6062 51 2.85
      vertex 15.5663 39 2.91145
      vertex 15.6062 39 2.85
    endloop
  endfacet
  facet normal -0.156685 0 0.987649
    outer loop
      vertex 14.8545 51 3.1847
      vertex 14.9268 39 3.19617
      vertex 14.9268 51 3.19617
    endloop
  endfacet
  facet normal -0.156685 0 0.987649
    outer loop
      vertex 14.9268 39 3.19617
      vertex 14.8545 51 3.1847
      vertex 14.8545 39 3.1847
    endloop
  endfacet
  facet normal 0.933837 -0 0.357698
    outer loop
      vertex 15.6395 39 2.78471
      vertex 15.6657 51 2.71631
      vertex 15.6395 51 2.78471
    endloop
  endfacet
  facet normal 0.933837 0 0.357698
    outer loop
      vertex 15.6657 51 2.71631
      vertex 15.6395 39 2.78471
      vertex 15.6657 39 2.71631
    endloop
  endfacet
  facet normal 0.258682 0 0.965963
    outer loop
      vertex 15.1455 51 3.1847
      vertex 15.2163 39 3.16574
      vertex 15.2163 51 3.16574
    endloop
  endfacet
  facet normal 0.258682 0 0.965963
    outer loop
      vertex 15.2163 39 3.16574
      vertex 15.1455 51 3.1847
      vertex 15.1455 39 3.1847
    endloop
  endfacet
  facet normal 0.707175 0 -0.707039
    outer loop
      vertex 15.5202 39 2.03161
      vertex 15.4684 51 1.9798
      vertex 15.5202 51 2.03161
    endloop
  endfacet
  facet normal 0.707175 0 -0.707039
    outer loop
      vertex 15.4684 51 1.9798
      vertex 15.5202 39 2.03161
      vertex 15.4684 39 1.9798
    endloop
  endfacet
  facet normal 0.890796 0 -0.454404
    outer loop
      vertex 15.6395 39 2.21528
      vertex 15.6062 51 2.15
      vertex 15.6395 51 2.21528
    endloop
  endfacet
  facet normal 0.890796 0 -0.454404
    outer loop
      vertex 15.6062 51 2.15
      vertex 15.6395 39 2.21528
      vertex 15.6062 39 2.15
    endloop
  endfacet
  facet normal -0.987609 0 -0.156937
    outer loop
      vertex 14.3153 39 2.35446
      vertex 14.3038 51 2.42683
      vertex 14.3153 51 2.35446
    endloop
  endfacet
  facet normal -0.987609 -0 -0.156937
    outer loop
      vertex 14.3038 51 2.42683
      vertex 14.3153 39 2.35446
      vertex 14.3038 39 2.42683
    endloop
  endfacet
  facet normal 0 -1 0
    outer loop
      vertex 15.2163 51 3.16574
      vertex 13.5 51 5
      vertex 15.1455 51 3.1847
    endloop
  endfacet
  facet normal 0 -1 0
    outer loop
      vertex 21.5 51 5
      vertex 19.9268 51 3.19617
      vertex 20 51 3.2
    endloop
  endfacet
  facet normal 0 -1 0
    outer loop
      vertex 15.2847 51 3.13948
      vertex 13.5 51 5
      vertex 15.2163 51 3.16574
    endloop
  endfacet
  facet normal 0 -1 0
    outer loop
      vertex 21.5 51 5
      vertex 19.8545 51 3.1847
      vertex 19.9268 51 3.19617
    endloop
  endfacet
  facet normal 0 -1 0
    outer loop
      vertex 15.35 51 3.10622
      vertex 13.5 51 5
      vertex 15.2847 51 3.13948
    endloop
  endfacet
  facet normal 0 -1 0
    outer loop
      vertex 21.5 51 5
      vertex 19.7837 51 3.16574
      vertex 19.8545 51 3.1847
    endloop
  endfacet
  facet normal 0 -1 0
    outer loop
      vertex 13.5 51 5
      vertex 15.35 51 3.10622
      vertex 21.5 51 5
    endloop
  endfacet
  facet normal 0 -1 0
    outer loop
      vertex 21.5 51 5
      vertex 19.7153 51 3.13948
      vertex 19.7837 51 3.16574
    endloop
  endfacet
  facet normal 0 -1 0
    outer loop
      vertex 19.65 51 3.10622
      vertex 21.5 51 5
      vertex 15.35 51 3.10622
    endloop
  endfacet
  facet normal 0 -1 0
    outer loop
      vertex 21.5 51 5
      vertex 19.65 51 3.10622
      vertex 19.7153 51 3.13948
    endloop
  endfacet
  facet normal 0 -1 0
    outer loop
      vertex 15.4114 51 3.06631
      vertex 19.65 51 3.10622
      vertex 15.35 51 3.10622
    endloop
  endfacet
  facet normal 0 -1 0
    outer loop
      vertex 15.4114 51 3.06631
      vertex 19.5886 51 3.06631
      vertex 19.65 51 3.10622
    endloop
  endfacet
  facet normal 0 -1 0
    outer loop
      vertex 15.4684 51 3.0202
      vertex 19.5886 51 3.06631
      vertex 15.4114 51 3.06631
    endloop
  endfacet
  facet normal 0 -1 0
    outer loop
      vertex 15.4684 51 3.0202
      vertex 19.5316 51 3.0202
      vertex 19.5886 51 3.06631
    endloop
  endfacet
  facet normal 0 -1 0
    outer loop
      vertex 15.5202 51 2.96839
      vertex 19.5316 51 3.0202
      vertex 15.4684 51 3.0202
    endloop
  endfacet
  facet normal 0 -1 0
    outer loop
      vertex 15.5202 51 2.96839
      vertex 19.4798 51 2.96839
      vertex 19.5316 51 3.0202
    endloop
  endfacet
  facet normal 0 -1 0
    outer loop
      vertex 15.5663 51 2.91145
      vertex 19.4798 51 2.96839
      vertex 15.5202 51 2.96839
    endloop
  endfacet
  facet normal 0 -1 0
    outer loop
      vertex 15.5663 51 2.91145
      vertex 19.4337 51 2.91145
      vertex 19.4798 51 2.96839
    endloop
  endfacet
  facet normal 0 -1 0
    outer loop
      vertex 15.6062 51 2.85
      vertex 19.4337 51 2.91145
      vertex 15.5663 51 2.91145
    endloop
  endfacet
  facet normal 0 -1 0
    outer loop
      vertex 15.6062 51 2.85
      vertex 19.3938 51 2.85
      vertex 19.4337 51 2.91145
    endloop
  endfacet
  facet normal 0 -1 0
    outer loop
      vertex 15.6395 51 2.78471
      vertex 19.3938 51 2.85
      vertex 15.6062 51 2.85
    endloop
  endfacet
  facet normal 0 -1 0
    outer loop
      vertex 15.6395 51 2.78471
      vertex 19.3605 51 2.78471
      vertex 19.3938 51 2.85
    endloop
  endfacet
  facet normal 0 -1 0
    outer loop
      vertex 15.6657 51 2.71631
      vertex 19.3605 51 2.78471
      vertex 15.6395 51 2.78471
    endloop
  endfacet
  facet normal 0 -1 0
    outer loop
      vertex 15.6657 51 2.71631
      vertex 19.3343 51 2.71631
      vertex 19.3605 51 2.78471
    endloop
  endfacet
  facet normal 0 -1 0
    outer loop
      vertex 15.6847 51 2.64554
      vertex 19.3343 51 2.71631
      vertex 15.6657 51 2.71631
    endloop
  endfacet
  facet normal 0 -1 0
    outer loop
      vertex 15.6847 51 2.64554
      vertex 19.3153 51 2.64554
      vertex 19.3343 51 2.71631
    endloop
  endfacet
  facet normal 0 -1 0
    outer loop
      vertex 15.6962 51 2.57317
      vertex 19.3153 51 2.64554
      vertex 15.6847 51 2.64554
    endloop
  endfacet
  facet normal 0 -1 0
    outer loop
      vertex 15.6962 51 2.57317
      vertex 19.3038 51 2.57317
      vertex 19.3153 51 2.64554
    endloop
  endfacet
  facet normal 0 -1 0
    outer loop
      vertex 15.7 51 2.5
      vertex 19.3038 51 2.57317
      vertex 15.6962 51 2.57317
    endloop
  endfacet
  facet normal 0 -1 0
    outer loop
      vertex 15.7 51 2.5
      vertex 19.3 51 2.5
      vertex 19.3038 51 2.57317
    endloop
  endfacet
  facet normal 0 -1 0
    outer loop
      vertex 15.6962 51 2.42683
      vertex 19.3 51 2.5
      vertex 15.7 51 2.5
    endloop
  endfacet
  facet normal 0 -1 0
    outer loop
      vertex 15.6962 51 2.42683
      vertex 19.3038 51 2.42683
      vertex 19.3 51 2.5
    endloop
  endfacet
  facet normal 0 -1 0
    outer loop
      vertex 15.6847 51 2.35446
      vertex 19.3038 51 2.42683
      vertex 15.6962 51 2.42683
    endloop
  endfacet
  facet normal 0 -1 0
    outer loop
      vertex 15.6847 51 2.35446
      vertex 19.3153 51 2.35446
      vertex 19.3038 51 2.42683
    endloop
  endfacet
  facet normal 0 -1 0
    outer loop
      vertex 15.6657 51 2.28369
      vertex 19.3153 51 2.35446
      vertex 15.6847 51 2.35446
    endloop
  endfacet
  facet normal 0 -1 0
    outer loop
      vertex 15.6657 51 2.28369
      vertex 19.3343 51 2.28369
      vertex 19.3153 51 2.35446
    endloop
  endfacet
  facet normal 0 -1 0
    outer loop
      vertex 15.6395 51 2.21528
      vertex 19.3343 51 2.28369
      vertex 15.6657 51 2.28369
    endloop
  endfacet
  facet normal 0 -1 0
    outer loop
      vertex 15.6395 51 2.21528
      vertex 19.3605 51 2.21528
      vertex 19.3343 51 2.28369
    endloop
  endfacet
  facet normal 0 -1 0
    outer loop
      vertex 15.6062 51 2.15
      vertex 19.3605 51 2.21528
      vertex 15.6395 51 2.21528
    endloop
  endfacet
  facet normal 0 -1 0
    outer loop
      vertex 15.6062 51 2.15
      vertex 19.3938 51 2.15
      vertex 19.3605 51 2.21528
    endloop
  endfacet
  facet normal 0 -1 0
    outer loop
      vertex 15.5663 51 2.08855
      vertex 19.3938 51 2.15
      vertex 15.6062 51 2.15
    endloop
  endfacet
  facet normal 0 -1 0
    outer loop
      vertex 15.5663 51 2.08855
      vertex 19.4337 51 2.08855
      vertex 19.3938 51 2.15
    endloop
  endfacet
  facet normal 0 -1 0
    outer loop
      vertex 15.5202 51 2.03161
      vertex 19.4337 51 2.08855
      vertex 15.5663 51 2.08855
    endloop
  endfacet
  facet normal 0 -1 0
    outer loop
      vertex 15.5202 51 2.03161
      vertex 19.4798 51 2.03161
      vertex 19.4337 51 2.08855
    endloop
  endfacet
  facet normal 0 -1 0
    outer loop
      vertex 15.4684 51 1.9798
      vertex 19.4798 51 2.03161
      vertex 15.5202 51 2.03161
    endloop
  endfacet
  facet normal 0 -1 0
    outer loop
      vertex 15.4684 51 1.9798
      vertex 19.5316 51 1.9798
      vertex 19.4798 51 2.03161
    endloop
  endfacet
  facet normal 0 -1 0
    outer loop
      vertex 15.4114 51 1.93369
      vertex 19.5316 51 1.9798
      vertex 15.4684 51 1.9798
    endloop
  endfacet
  facet normal 0 -1 0
    outer loop
      vertex 15.4114 51 1.93369
      vertex 19.5886 51 1.93369
      vertex 19.5316 51 1.9798
    endloop
  endfacet
  facet normal 0 -1 0
    outer loop
      vertex 15.35 51 1.89378
      vertex 19.5886 51 1.93369
      vertex 15.4114 51 1.93369
    endloop
  endfacet
  facet normal 0 -1 0
    outer loop
      vertex 15.35 51 1.89378
      vertex 19.65 51 1.89378
      vertex 19.5886 51 1.93369
    endloop
  endfacet
  facet normal 0 -1 0
    outer loop
      vertex 15.2847 51 1.86052
      vertex 19.65 51 1.89378
      vertex 15.35 51 1.89378
    endloop
  endfacet
  facet normal 0 -1 0
    outer loop
      vertex 15.2847 51 1.86052
      vertex 19.7153 51 1.86052
      vertex 19.65 51 1.89378
    endloop
  endfacet
  facet normal 0 -1 0
    outer loop
      vertex 13.5 51 0.5
      vertex 15.2847 51 1.86052
      vertex 15.2163 51 1.83426
    endloop
  endfacet
  facet normal 0 -1 -0
    outer loop
      vertex 15.2847 51 1.86052
      vertex 13.5 51 0.5
      vertex 19.7153 51 1.86052
    endloop
  endfacet
  facet normal 0 -1 0
    outer loop
      vertex 13.5 51 0.5
      vertex 15.2163 51 1.83426
      vertex 15.1455 51 1.8153
    endloop
  endfacet
  facet normal 0 -1 0
    outer loop
      vertex 21.5 51 0.5
      vertex 19.7153 51 1.86052
      vertex 13.5 51 0.5
    endloop
  endfacet
  facet normal 0 -1 0
    outer loop
      vertex 13.5 51 0.5
      vertex 15.1455 51 1.8153
      vertex 15.0732 51 1.80383
    endloop
  endfacet
  facet normal 0 -1 0
    outer loop
      vertex 19.7153 51 1.86052
      vertex 21.5 51 0.5
      vertex 19.7837 51 1.83426
    endloop
  endfacet
  facet normal 0 -1 0
    outer loop
      vertex 13.5 51 0.5
      vertex 15.0732 51 1.80383
      vertex 15 51 1.8
    endloop
  endfacet
  facet normal 0 -1 0
    outer loop
      vertex 19.7837 51 1.83426
      vertex 21.5 51 0.5
      vertex 19.8545 51 1.8153
    endloop
  endfacet
  facet normal 0 -1 0
    outer loop
      vertex 15.0732 51 3.19617
      vertex 13.5 51 5
      vertex 15 51 3.2
    endloop
  endfacet
  facet normal 0 -1 0
    outer loop
      vertex 13.5 51 5
      vertex 14.9268 51 3.19617
      vertex 15 51 3.2
    endloop
  endfacet
  facet normal 0 -1 0
    outer loop
      vertex 13.5 51 5
      vertex 14.8545 51 3.1847
      vertex 14.9268 51 3.19617
    endloop
  endfacet
  facet normal 0 -1 0
    outer loop
      vertex 13.5 51 5
      vertex 14.7837 51 3.16574
      vertex 14.8545 51 3.1847
    endloop
  endfacet
  facet normal 0 -1 0
    outer loop
      vertex 13.5 51 5
      vertex 14.7153 51 3.13948
      vertex 14.7837 51 3.16574
    endloop
  endfacet
  facet normal 0 -1 0
    outer loop
      vertex 13.5 51 5
      vertex 14.65 51 3.10622
      vertex 14.7153 51 3.13948
    endloop
  endfacet
  facet normal 0 -1 0
    outer loop
      vertex 13.5 51 5
      vertex 14.5885 51 3.06631
      vertex 14.65 51 3.10622
    endloop
  endfacet
  facet normal 0 -1 0
    outer loop
      vertex 13.5 51 5
      vertex 14.5316 51 3.0202
      vertex 14.5885 51 3.06631
    endloop
  endfacet
  facet normal 0 -1 0
    outer loop
      vertex 13.5 51 5
      vertex 14.4798 51 2.96839
      vertex 14.5316 51 3.0202
    endloop
  endfacet
  facet normal 0 -1 0
    outer loop
      vertex 13.5 51 5
      vertex 14.4337 51 2.91145
      vertex 14.4798 51 2.96839
    endloop
  endfacet
  facet normal 0 -1 0
    outer loop
      vertex 13.5 51 5
      vertex 14.3938 51 2.85
      vertex 14.4337 51 2.91145
    endloop
  endfacet
  facet normal 0 -1 0
    outer loop
      vertex 13.5 51 5
      vertex 14.3605 51 2.78471
      vertex 14.3938 51 2.85
    endloop
  endfacet
  facet normal 0 -1 0
    outer loop
      vertex 13.5 51 5
      vertex 14.3343 51 2.71631
      vertex 14.3605 51 2.78471
    endloop
  endfacet
  facet normal 0 -1 0
    outer loop
      vertex 13.5 51 5
      vertex 14.3153 51 2.64554
      vertex 14.3343 51 2.71631
    endloop
  endfacet
  facet normal 0 -1 0
    outer loop
      vertex 13.5 51 5
      vertex 14.3038 51 2.57317
      vertex 14.3153 51 2.64554
    endloop
  endfacet
  facet normal 0 -1 0
    outer loop
      vertex 13.5 51 5
      vertex 14.3 51 2.5
      vertex 14.3038 51 2.57317
    endloop
  endfacet
  facet normal 0 -1 0
    outer loop
      vertex 13.5 51 0.5
      vertex 14.3 51 2.5
      vertex 13.5 51 5
    endloop
  endfacet
  facet normal 0 -1 -0
    outer loop
      vertex 14.3 51 2.5
      vertex 13.5 51 0.5
      vertex 14.3038 51 2.42683
    endloop
  endfacet
  facet normal 0 -1 -0
    outer loop
      vertex 14.3038 51 2.42683
      vertex 13.5 51 0.5
      vertex 14.3153 51 2.35446
    endloop
  endfacet
  facet normal 0 -1 0
    outer loop
      vertex 19.8545 51 1.8153
      vertex 21.5 51 0.5
      vertex 19.9268 51 1.80383
    endloop
  endfacet
  facet normal 0 -1 -0
    outer loop
      vertex 14.9268 51 1.80383
      vertex 13.5 51 0.5
      vertex 15 51 1.8
    endloop
  endfacet
  facet normal 0 -1 -0
    outer loop
      vertex 14.8545 51 1.8153
      vertex 13.5 51 0.5
      vertex 14.9268 51 1.80383
    endloop
  endfacet
  facet normal 0 -1 -0
    outer loop
      vertex 14.7837 51 1.83426
      vertex 13.5 51 0.5
      vertex 14.8545 51 1.8153
    endloop
  endfacet
  facet normal 0 -1 -0
    outer loop
      vertex 14.7153 51 1.86052
      vertex 13.5 51 0.5
      vertex 14.7837 51 1.83426
    endloop
  endfacet
  facet normal 0 -1 -0
    outer loop
      vertex 14.65 51 1.89378
      vertex 13.5 51 0.5
      vertex 14.7153 51 1.86052
    endloop
  endfacet
  facet normal 0 -1 -0
    outer loop
      vertex 14.5885 51 1.93369
      vertex 13.5 51 0.5
      vertex 14.65 51 1.89378
    endloop
  endfacet
  facet normal 0 -1 -0
    outer loop
      vertex 14.5316 51 1.9798
      vertex 13.5 51 0.5
      vertex 14.5885 51 1.93369
    endloop
  endfacet
  facet normal 0 -1 -0
    outer loop
      vertex 14.4798 51 2.03161
      vertex 13.5 51 0.5
      vertex 14.5316 51 1.9798
    endloop
  endfacet
  facet normal 0 -1 -0
    outer loop
      vertex 14.4337 51 2.08855
      vertex 13.5 51 0.5
      vertex 14.4798 51 2.03161
    endloop
  endfacet
  facet normal 0 -1 -0
    outer loop
      vertex 14.3938 51 2.15
      vertex 13.5 51 0.5
      vertex 14.4337 51 2.08855
    endloop
  endfacet
  facet normal 0 -1 -0
    outer loop
      vertex 14.3605 51 2.21528
      vertex 13.5 51 0.5
      vertex 14.3938 51 2.15
    endloop
  endfacet
  facet normal 0 -1 -0
    outer loop
      vertex 14.3343 51 2.28369
      vertex 13.5 51 0.5
      vertex 14.3605 51 2.21528
    endloop
  endfacet
  facet normal 0 -1 -0
    outer loop
      vertex 14.3153 51 2.35446
      vertex 13.5 51 0.5
      vertex 14.3343 51 2.28369
    endloop
  endfacet
  facet normal 0 -1 0
    outer loop
      vertex 15.1455 51 3.1847
      vertex 13.5 51 5
      vertex 15.0732 51 3.19617
    endloop
  endfacet
  facet normal 0 -1 0
    outer loop
      vertex 20.0732 51 3.19617
      vertex 21.5 51 5
      vertex 20 51 3.2
    endloop
  endfacet
  facet normal 0 -1 0
    outer loop
      vertex 20.1455 51 3.1847
      vertex 21.5 51 5
      vertex 20.0732 51 3.19617
    endloop
  endfacet
  facet normal 0 -1 0
    outer loop
      vertex 20.2163 51 3.16574
      vertex 21.5 51 5
      vertex 20.1455 51 3.1847
    endloop
  endfacet
  facet normal 0 -1 0
    outer loop
      vertex 20.2847 51 3.13948
      vertex 21.5 51 5
      vertex 20.2163 51 3.16574
    endloop
  endfacet
  facet normal 0 -1 0
    outer loop
      vertex 20.35 51 3.10622
      vertex 21.5 51 5
      vertex 20.2847 51 3.13948
    endloop
  endfacet
  facet normal 0 -1 0
    outer loop
      vertex 20.4114 51 3.06631
      vertex 21.5 51 5
      vertex 20.35 51 3.10622
    endloop
  endfacet
  facet normal 0 -1 0
    outer loop
      vertex 20.4684 51 3.0202
      vertex 21.5 51 5
      vertex 20.4114 51 3.06631
    endloop
  endfacet
  facet normal 0 -1 0
    outer loop
      vertex 20.5202 51 2.96839
      vertex 21.5 51 5
      vertex 20.4684 51 3.0202
    endloop
  endfacet
  facet normal 0 -1 0
    outer loop
      vertex 20.5663 51 2.91145
      vertex 21.5 51 5
      vertex 20.5202 51 2.96839
    endloop
  endfacet
  facet normal 0 -1 0
    outer loop
      vertex 20.6062 51 2.85
      vertex 21.5 51 5
      vertex 20.5663 51 2.91145
    endloop
  endfacet
  facet normal 0 -1 0
    outer loop
      vertex 20.6395 51 2.78471
      vertex 21.5 51 5
      vertex 20.6062 51 2.85
    endloop
  endfacet
  facet normal 0 -1 0
    outer loop
      vertex 20.6657 51 2.71631
      vertex 21.5 51 5
      vertex 20.6395 51 2.78471
    endloop
  endfacet
  facet normal 0 -1 0
    outer loop
      vertex 20.6847 51 2.64554
      vertex 21.5 51 5
      vertex 20.6657 51 2.71631
    endloop
  endfacet
  facet normal 0 -1 0
    outer loop
      vertex 20.6962 51 2.57317
      vertex 21.5 51 5
      vertex 20.6847 51 2.64554
    endloop
  endfacet
  facet normal 0 -1 0
    outer loop
      vertex 20.7 51 2.5
      vertex 21.5 51 5
      vertex 20.6962 51 2.57317
    endloop
  endfacet
  facet normal 0 -1 0
    outer loop
      vertex 21.5 51 0.5
      vertex 20.7 51 2.5
      vertex 20.6962 51 2.42683
    endloop
  endfacet
  facet normal 0 -1 0
    outer loop
      vertex 21.5 51 0.5
      vertex 20.6962 51 2.42683
      vertex 20.6847 51 2.35446
    endloop
  endfacet
  facet normal 0 -1 0
    outer loop
      vertex 21.5 51 0.5
      vertex 20.6847 51 2.35446
      vertex 20.6657 51 2.28369
    endloop
  endfacet
  facet normal 0 -1 0
    outer loop
      vertex 19.9268 51 1.80383
      vertex 21.5 51 0.5
      vertex 20 51 1.8
    endloop
  endfacet
  facet normal 0 -1 0
    outer loop
      vertex 20 51 1.8
      vertex 21.5 51 0.5
      vertex 20.0732 51 1.80383
    endloop
  endfacet
  facet normal 0 -1 0
    outer loop
      vertex 20.7 51 2.5
      vertex 21.5 51 0.5
      vertex 21.5 51 5
    endloop
  endfacet
  facet normal 0 -1 0
    outer loop
      vertex 20.6395 51 2.21528
      vertex 21.5 51 0.5
      vertex 20.6657 51 2.28369
    endloop
  endfacet
  facet normal 0 -1 0
    outer loop
      vertex 20.6062 51 2.15
      vertex 21.5 51 0.5
      vertex 20.6395 51 2.21528
    endloop
  endfacet
  facet normal 0 -1 0
    outer loop
      vertex 20.5663 51 2.08855
      vertex 21.5 51 0.5
      vertex 20.6062 51 2.15
    endloop
  endfacet
  facet normal 0 -1 0
    outer loop
      vertex 20.5202 51 2.03161
      vertex 21.5 51 0.5
      vertex 20.5663 51 2.08855
    endloop
  endfacet
  facet normal 0 -1 0
    outer loop
      vertex 20.4684 51 1.9798
      vertex 21.5 51 0.5
      vertex 20.5202 51 2.03161
    endloop
  endfacet
  facet normal 0 -1 0
    outer loop
      vertex 20.4114 51 1.93369
      vertex 21.5 51 0.5
      vertex 20.4684 51 1.9798
    endloop
  endfacet
  facet normal 0 -1 0
    outer loop
      vertex 20.35 51 1.89378
      vertex 21.5 51 0.5
      vertex 20.4114 51 1.93369
    endloop
  endfacet
  facet normal 0 -1 0
    outer loop
      vertex 20.2847 51 1.86052
      vertex 21.5 51 0.5
      vertex 20.35 51 1.89378
    endloop
  endfacet
  facet normal 0 -1 0
    outer loop
      vertex 20.2163 51 1.83426
      vertex 21.5 51 0.5
      vertex 20.2847 51 1.86052
    endloop
  endfacet
  facet normal 0 -1 0
    outer loop
      vertex 20.1455 51 1.8153
      vertex 21.5 51 0.5
      vertex 20.2163 51 1.83426
    endloop
  endfacet
  facet normal 0 -1 0
    outer loop
      vertex 20.0732 51 1.80383
      vertex 21.5 51 0.5
      vertex 20.1455 51 1.8153
    endloop
  endfacet
  facet normal -0.838709 0 -0.544581
    outer loop
      vertex 14.4337 39 2.08855
      vertex 14.3938 51 2.15
      vertex 14.4337 51 2.08855
    endloop
  endfacet
  facet normal -0.838709 -0 -0.544581
    outer loop
      vertex 14.3938 51 2.15
      vertex 14.4337 39 2.08855
      vertex 14.3938 39 2.15
    endloop
  endfacet
  facet normal -0.890824 0 0.454349
    outer loop
      vertex 14.3605 39 2.78471
      vertex 14.3938 51 2.85
      vertex 14.3605 51 2.78471
    endloop
  endfacet
  facet normal -0.890824 0 0.454349
    outer loop
      vertex 14.3938 51 2.85
      vertex 14.3605 39 2.78471
      vertex 14.3938 39 2.85
    endloop
  endfacet
  facet normal -0.707175 0 -0.707039
    outer loop
      vertex 14.5316 39 1.9798
      vertex 14.4798 51 2.03161
      vertex 14.5316 51 1.9798
    endloop
  endfacet
  facet normal -0.707175 -0 -0.707039
    outer loop
      vertex 14.4798 51 2.03161
      vertex 14.5316 39 1.9798
      vertex 14.4798 39 2.03161
    endloop
  endfacet
  facet normal -0.45386 0 -0.891073
    outer loop
      vertex 14.65 39 1.89378
      vertex 14.7153 51 1.86052
      vertex 14.7153 39 1.86052
    endloop
  endfacet
  facet normal -0.45386 0 -0.891073
    outer loop
      vertex 14.7153 51 1.86052
      vertex 14.65 39 1.89378
      vertex 14.65 51 1.89378
    endloop
  endfacet
  facet normal -0.933837 0 0.357698
    outer loop
      vertex 14.3343 39 2.71631
      vertex 14.3605 51 2.78471
      vertex 14.3343 51 2.71631
    endloop
  endfacet
  facet normal -0.933837 0 0.357698
    outer loop
      vertex 14.3605 51 2.78471
      vertex 14.3343 39 2.71631
      vertex 14.3605 39 2.78471
    endloop
  endfacet
  facet normal 0.628927 0 -0.777464
    outer loop
      vertex 15.4114 39 1.93369
      vertex 15.4684 51 1.9798
      vertex 15.4684 39 1.9798
    endloop
  endfacet
  facet normal 0.628927 0 -0.777464
    outer loop
      vertex 15.4684 51 1.9798
      vertex 15.4114 39 1.93369
      vertex 15.4114 51 1.93369
    endloop
  endfacet
  facet normal 0.358412 0 0.933564
    outer loop
      vertex 15.2163 51 3.16574
      vertex 15.2847 39 3.13948
      vertex 15.2847 51 3.13948
    endloop
  endfacet
  facet normal 0.358412 0 0.933564
    outer loop
      vertex 15.2847 39 3.13948
      vertex 15.2163 51 3.16574
      vertex 15.2163 39 3.16574
    endloop
  endfacet
  facet normal -0.258682 0 -0.965963
    outer loop
      vertex 14.7837 39 1.83426
      vertex 14.8545 51 1.8153
      vertex 14.8545 39 1.8153
    endloop
  endfacet
  facet normal -0.258682 0 -0.965963
    outer loop
      vertex 14.8545 51 1.8153
      vertex 14.7837 39 1.83426
      vertex 14.7837 51 1.83426
    endloop
  endfacet
  facet normal -0.0522509 0 0.998634
    outer loop
      vertex 14.9268 51 3.19617
      vertex 15 39 3.2
      vertex 15 51 3.2
    endloop
  endfacet
  facet normal -0.0522509 0 0.998634
    outer loop
      vertex 15 39 3.2
      vertex 14.9268 51 3.19617
      vertex 14.9268 39 3.19617
    endloop
  endfacet
  facet normal -0.777207 0 0.629245
    outer loop
      vertex 14.4337 39 2.91145
      vertex 14.4798 51 2.96839
      vertex 14.4337 51 2.91145
    endloop
  endfacet
  facet normal -0.777207 0 0.629245
    outer loop
      vertex 14.4798 51 2.96839
      vertex 14.4337 39 2.91145
      vertex 14.4798 39 2.96839
    endloop
  endfacet
  facet normal -0.987609 0 0.156937
    outer loop
      vertex 14.3038 39 2.57317
      vertex 14.3153 51 2.64554
      vertex 14.3038 51 2.57317
    endloop
  endfacet
  facet normal -0.987609 0 0.156937
    outer loop
      vertex 14.3153 51 2.64554
      vertex 14.3038 39 2.57317
      vertex 14.3153 39 2.64554
    endloop
  endfacet
  facet normal -0.998654 0 -0.051864
    outer loop
      vertex 14.3038 39 2.42683
      vertex 14.3 51 2.5
      vertex 14.3038 51 2.42683
    endloop
  endfacet
  facet normal -0.998654 -0 -0.051864
    outer loop
      vertex 14.3 51 2.5
      vertex 14.3038 39 2.42683
      vertex 14.3 39 2.5
    endloop
  endfacet
  facet normal -0.544365 0 0.838849
    outer loop
      vertex 14.5885 51 3.06631
      vertex 14.65 39 3.10622
      vertex 14.65 51 3.10622
    endloop
  endfacet
  facet normal -0.544365 0 0.838849
    outer loop
      vertex 14.65 39 3.10622
      vertex 14.5885 51 3.06631
      vertex 14.5885 39 3.06631
    endloop
  endfacet
  facet normal 0.707175 -0 0.707039
    outer loop
      vertex 15.4684 39 3.0202
      vertex 15.5202 51 2.96839
      vertex 15.4684 51 3.0202
    endloop
  endfacet
  facet normal 0.707175 0 0.707039
    outer loop
      vertex 15.5202 51 2.96839
      vertex 15.4684 39 3.0202
      vertex 15.5202 39 2.96839
    endloop
  endfacet
  facet normal 0.628927 0 0.777464
    outer loop
      vertex 15.4114 51 3.06631
      vertex 15.4684 39 3.0202
      vertex 15.4684 51 3.0202
    endloop
  endfacet
  facet normal 0.628927 0 0.777464
    outer loop
      vertex 15.4684 39 3.0202
      vertex 15.4114 51 3.06631
      vertex 15.4114 39 3.06631
    endloop
  endfacet
  facet normal -0.45386 0 0.891073
    outer loop
      vertex 19.65 51 3.10622
      vertex 19.7153 39 3.13948
      vertex 19.7153 51 3.13948
    endloop
  endfacet
  facet normal -0.45386 0 0.891073
    outer loop
      vertex 19.7153 39 3.13948
      vertex 19.65 51 3.10622
      vertex 19.65 39 3.10622
    endloop
  endfacet
  facet normal 0.987609 0 -0.156937
    outer loop
      vertex 20.6962 39 2.42683
      vertex 20.6847 51 2.35446
      vertex 20.6962 51 2.42683
    endloop
  endfacet
  facet normal 0.987609 0 -0.156937
    outer loop
      vertex 20.6847 51 2.35446
      vertex 20.6962 39 2.42683
      vertex 20.6847 39 2.35446
    endloop
  endfacet
  facet normal 0.998654 0 -0.051864
    outer loop
      vertex 20.7 39 2.5
      vertex 20.6962 51 2.42683
      vertex 20.7 51 2.5
    endloop
  endfacet
  facet normal 0.998654 0 -0.051864
    outer loop
      vertex 20.6962 51 2.42683
      vertex 20.7 39 2.5
      vertex 20.6962 39 2.42683
    endloop
  endfacet
  facet normal 0.965799 0 -0.259293
    outer loop
      vertex 20.6847 39 2.35446
      vertex 20.6657 51 2.28369
      vertex 20.6847 51 2.35446
    endloop
  endfacet
  facet normal 0.965799 0 -0.259293
    outer loop
      vertex 20.6657 51 2.28369
      vertex 20.6847 39 2.35446
      vertex 20.6657 39 2.28369
    endloop
  endfacet
  facet normal -0.933837 0 0.357698
    outer loop
      vertex 19.3343 39 2.71631
      vertex 19.3605 51 2.78471
      vertex 19.3343 51 2.71631
    endloop
  endfacet
  facet normal -0.933837 0 0.357698
    outer loop
      vertex 19.3605 51 2.78471
      vertex 19.3343 39 2.71631
      vertex 19.3605 39 2.78471
    endloop
  endfacet
  facet normal 0.258682 0 -0.965963
    outer loop
      vertex 20.1455 39 1.8153
      vertex 20.2163 51 1.83426
      vertex 20.2163 39 1.83426
    endloop
  endfacet
  facet normal 0.258682 0 -0.965963
    outer loop
      vertex 20.2163 51 1.83426
      vertex 20.1455 39 1.8153
      vertex 20.1455 51 1.8153
    endloop
  endfacet
  facet normal -0.965799 0 -0.259293
    outer loop
      vertex 19.3343 39 2.28369
      vertex 19.3153 51 2.35446
      vertex 19.3343 51 2.28369
    endloop
  endfacet
  facet normal -0.965799 -0 -0.259293
    outer loop
      vertex 19.3153 51 2.35446
      vertex 19.3343 39 2.28369
      vertex 19.3153 39 2.35446
    endloop
  endfacet
  facet normal -0.890796 0 -0.454404
    outer loop
      vertex 19.3938 39 2.15
      vertex 19.3605 51 2.21528
      vertex 19.3938 51 2.15
    endloop
  endfacet
  facet normal -0.890796 -0 -0.454404
    outer loop
      vertex 19.3605 51 2.21528
      vertex 19.3938 39 2.15
      vertex 19.3605 39 2.21528
    endloop
  endfacet
  facet normal -0.544988 0 -0.838444
    outer loop
      vertex 19.5886 39 1.93369
      vertex 19.65 51 1.89378
      vertex 19.65 39 1.89378
    endloop
  endfacet
  facet normal -0.544988 0 -0.838444
    outer loop
      vertex 19.65 51 1.89378
      vertex 19.5886 39 1.93369
      vertex 19.5886 51 1.93369
    endloop
  endfacet
  facet normal 0.45386 0 0.891073
    outer loop
      vertex 20.2847 51 3.13948
      vertex 20.35 39 3.10622
      vertex 20.35 51 3.10622
    endloop
  endfacet
  facet normal 0.45386 0 0.891073
    outer loop
      vertex 20.35 39 3.10622
      vertex 20.2847 51 3.13948
      vertex 20.2847 39 3.13948
    endloop
  endfacet
  facet normal -0.838709 0 0.544581
    outer loop
      vertex 19.3938 39 2.85
      vertex 19.4337 51 2.91145
      vertex 19.3938 51 2.85
    endloop
  endfacet
  facet normal -0.838709 0 0.544581
    outer loop
      vertex 19.4337 51 2.91145
      vertex 19.3938 39 2.85
      vertex 19.4337 39 2.91145
    endloop
  endfacet
  facet normal 0.156685 0 0.987649
    outer loop
      vertex 20.0732 51 3.19617
      vertex 20.1455 39 3.1847
      vertex 20.1455 51 3.1847
    endloop
  endfacet
  facet normal 0.156685 0 0.987649
    outer loop
      vertex 20.1455 39 3.1847
      vertex 20.0732 51 3.19617
      vertex 20.0732 39 3.19617
    endloop
  endfacet
  facet normal -0.258682 0 0.965963
    outer loop
      vertex 19.7837 51 3.16574
      vertex 19.8545 39 3.1847
      vertex 19.8545 51 3.1847
    endloop
  endfacet
  facet normal -0.258682 0 0.965963
    outer loop
      vertex 19.8545 39 3.1847
      vertex 19.7837 51 3.16574
      vertex 19.7837 39 3.16574
    endloop
  endfacet
  facet normal 0.777207 -0 0.629245
    outer loop
      vertex 20.5202 39 2.96839
      vertex 20.5663 51 2.91145
      vertex 20.5202 51 2.96839
    endloop
  endfacet
  facet normal 0.777207 0 0.629245
    outer loop
      vertex 20.5663 51 2.91145
      vertex 20.5202 39 2.96839
      vertex 20.5663 39 2.91145
    endloop
  endfacet
  facet normal -0.965799 0 0.259293
    outer loop
      vertex 19.3153 39 2.64554
      vertex 19.3343 51 2.71631
      vertex 19.3153 51 2.64554
    endloop
  endfacet
  facet normal -0.965799 0 0.259293
    outer loop
      vertex 19.3343 51 2.71631
      vertex 19.3153 39 2.64554
      vertex 19.3343 39 2.71631
    endloop
  endfacet
  facet normal 0.987609 -0 0.156937
    outer loop
      vertex 20.6847 39 2.64554
      vertex 20.6962 51 2.57317
      vertex 20.6847 51 2.64554
    endloop
  endfacet
  facet normal 0.987609 0 0.156937
    outer loop
      vertex 20.6962 51 2.57317
      vertex 20.6847 39 2.64554
      vertex 20.6962 39 2.57317
    endloop
  endfacet
  facet normal 0.544988 0 0.838444
    outer loop
      vertex 20.35 51 3.10622
      vertex 20.4114 39 3.06631
      vertex 20.4114 51 3.06631
    endloop
  endfacet
  facet normal 0.544988 0 0.838444
    outer loop
      vertex 20.4114 39 3.06631
      vertex 20.35 51 3.10622
      vertex 20.35 39 3.10622
    endloop
  endfacet
  facet normal -0.707175 0 0.707039
    outer loop
      vertex 19.4798 51 2.96839
      vertex 19.5316 39 3.0202
      vertex 19.5316 51 3.0202
    endloop
  endfacet
  facet normal -0.707175 0 0.707039
    outer loop
      vertex 19.5316 39 3.0202
      vertex 19.4798 51 2.96839
      vertex 19.4798 39 2.96839
    endloop
  endfacet
  facet normal -0.0522509 0 -0.998634
    outer loop
      vertex 19.9268 39 1.80383
      vertex 20 51 1.8
      vertex 20 39 1.8
    endloop
  endfacet
  facet normal -0.0522509 0 -0.998634
    outer loop
      vertex 20 51 1.8
      vertex 19.9268 39 1.80383
      vertex 19.9268 51 1.80383
    endloop
  endfacet
  facet normal 0.358412 0 -0.933564
    outer loop
      vertex 20.2163 39 1.83426
      vertex 20.2847 51 1.86052
      vertex 20.2847 39 1.86052
    endloop
  endfacet
  facet normal 0.358412 0 -0.933564
    outer loop
      vertex 20.2847 51 1.86052
      vertex 20.2163 39 1.83426
      vertex 20.2163 51 1.83426
    endloop
  endfacet
  facet normal -0.777207 0 -0.629245
    outer loop
      vertex 19.4798 39 2.03161
      vertex 19.4337 51 2.08855
      vertex 19.4798 51 2.03161
    endloop
  endfacet
  facet normal -0.777207 -0 -0.629245
    outer loop
      vertex 19.4337 51 2.08855
      vertex 19.4798 39 2.03161
      vertex 19.4337 39 2.08855
    endloop
  endfacet
  facet normal 0.965799 -0 0.259293
    outer loop
      vertex 20.6657 39 2.71631
      vertex 20.6847 51 2.64554
      vertex 20.6657 51 2.71631
    endloop
  endfacet
  facet normal 0.965799 0 0.259293
    outer loop
      vertex 20.6847 51 2.64554
      vertex 20.6657 39 2.71631
      vertex 20.6847 39 2.64554
    endloop
  endfacet
  facet normal -0.628927 0 0.777464
    outer loop
      vertex 19.5316 51 3.0202
      vertex 19.5886 39 3.06631
      vertex 19.5886 51 3.06631
    endloop
  endfacet
  facet normal -0.628927 0 0.777464
    outer loop
      vertex 19.5886 39 3.06631
      vertex 19.5316 51 3.0202
      vertex 19.5316 39 3.0202
    endloop
  endfacet
  facet normal -0.628927 0 -0.777464
    outer loop
      vertex 19.5316 39 1.9798
      vertex 19.5886 51 1.93369
      vertex 19.5886 39 1.93369
    endloop
  endfacet
  facet normal -0.628927 0 -0.777464
    outer loop
      vertex 19.5886 51 1.93369
      vertex 19.5316 39 1.9798
      vertex 19.5316 51 1.9798
    endloop
  endfacet
  facet normal -0.358412 0 -0.933564
    outer loop
      vertex 19.7153 39 1.86052
      vertex 19.7837 51 1.83426
      vertex 19.7837 39 1.83426
    endloop
  endfacet
  facet normal -0.358412 0 -0.933564
    outer loop
      vertex 19.7837 51 1.83426
      vertex 19.7153 39 1.86052
      vertex 19.7153 51 1.86052
    endloop
  endfacet
  facet normal -0.933855 0 -0.357652
    outer loop
      vertex 19.3605 39 2.21528
      vertex 19.3343 51 2.28369
      vertex 19.3605 51 2.21528
    endloop
  endfacet
  facet normal -0.933855 -0 -0.357652
    outer loop
      vertex 19.3343 51 2.28369
      vertex 19.3605 39 2.21528
      vertex 19.3343 39 2.28369
    endloop
  endfacet
  facet normal 0.777207 0 -0.629245
    outer loop
      vertex 20.5663 39 2.08855
      vertex 20.5202 51 2.03161
      vertex 20.5663 51 2.08855
    endloop
  endfacet
  facet normal 0.777207 0 -0.629245
    outer loop
      vertex 20.5202 51 2.03161
      vertex 20.5663 39 2.08855
      vertex 20.5202 39 2.03161
    endloop
  endfacet
  facet normal -0.998654 0 0.051864
    outer loop
      vertex 19.3 39 2.5
      vertex 19.3038 51 2.57317
      vertex 19.3 51 2.5
    endloop
  endfacet
  facet normal -0.998654 0 0.051864
    outer loop
      vertex 19.3038 51 2.57317
      vertex 19.3 39 2.5
      vertex 19.3038 39 2.57317
    endloop
  endfacet
  facet normal -0.358412 0 0.933564
    outer loop
      vertex 19.7153 51 3.13948
      vertex 19.7837 39 3.16574
      vertex 19.7837 51 3.16574
    endloop
  endfacet
  facet normal -0.358412 0 0.933564
    outer loop
      vertex 19.7837 39 3.16574
      vertex 19.7153 51 3.13948
      vertex 19.7153 39 3.13948
    endloop
  endfacet
  facet normal 0.0522509 0 -0.998634
    outer loop
      vertex 20 39 1.8
      vertex 20.0732 51 1.80383
      vertex 20.0732 39 1.80383
    endloop
  endfacet
  facet normal 0.0522509 0 -0.998634
    outer loop
      vertex 20.0732 51 1.80383
      vertex 20 39 1.8
      vertex 20 51 1.8
    endloop
  endfacet
  facet normal -0.156685 0 -0.987649
    outer loop
      vertex 19.8545 39 1.8153
      vertex 19.9268 51 1.80383
      vertex 19.9268 39 1.80383
    endloop
  endfacet
  facet normal -0.156685 0 -0.987649
    outer loop
      vertex 19.9268 51 1.80383
      vertex 19.8545 39 1.8153
      vertex 19.8545 51 1.8153
    endloop
  endfacet
  facet normal 0.998654 -0 0.051864
    outer loop
      vertex 20.6962 39 2.57317
      vertex 20.7 51 2.5
      vertex 20.6962 51 2.57317
    endloop
  endfacet
  facet normal 0.998654 0 0.051864
    outer loop
      vertex 20.7 51 2.5
      vertex 20.6962 39 2.57317
      vertex 20.7 39 2.5
    endloop
  endfacet
  facet normal 0.890824 -0 0.454349
    outer loop
      vertex 20.6062 39 2.85
      vertex 20.6395 51 2.78471
      vertex 20.6062 51 2.85
    endloop
  endfacet
  facet normal 0.890824 0 0.454349
    outer loop
      vertex 20.6395 51 2.78471
      vertex 20.6062 39 2.85
      vertex 20.6395 39 2.78471
    endloop
  endfacet
  facet normal 0.838709 0 -0.544581
    outer loop
      vertex 20.6062 39 2.15
      vertex 20.5663 51 2.08855
      vertex 20.6062 51 2.15
    endloop
  endfacet
  facet normal 0.838709 0 -0.544581
    outer loop
      vertex 20.5663 51 2.08855
      vertex 20.6062 39 2.15
      vertex 20.5663 39 2.08855
    endloop
  endfacet
  facet normal 0.156685 0 -0.987649
    outer loop
      vertex 20.0732 39 1.80383
      vertex 20.1455 51 1.8153
      vertex 20.1455 39 1.8153
    endloop
  endfacet
  facet normal 0.156685 0 -0.987649
    outer loop
      vertex 20.1455 51 1.8153
      vertex 20.0732 39 1.80383
      vertex 20.0732 51 1.80383
    endloop
  endfacet
  facet normal 0.45386 0 -0.891073
    outer loop
      vertex 20.2847 39 1.86052
      vertex 20.35 51 1.89378
      vertex 20.35 39 1.89378
    endloop
  endfacet
  facet normal 0.45386 0 -0.891073
    outer loop
      vertex 20.35 51 1.89378
      vertex 20.2847 39 1.86052
      vertex 20.2847 51 1.86052
    endloop
  endfacet
  facet normal 0.544988 0 -0.838444
    outer loop
      vertex 20.35 39 1.89378
      vertex 20.4114 51 1.93369
      vertex 20.4114 39 1.93369
    endloop
  endfacet
  facet normal 0.544988 0 -0.838444
    outer loop
      vertex 20.4114 51 1.93369
      vertex 20.35 39 1.89378
      vertex 20.35 51 1.89378
    endloop
  endfacet
  facet normal 0.0522509 0 0.998634
    outer loop
      vertex 20 51 3.2
      vertex 20.0732 39 3.19617
      vertex 20.0732 51 3.19617
    endloop
  endfacet
  facet normal 0.0522509 0 0.998634
    outer loop
      vertex 20.0732 39 3.19617
      vertex 20 51 3.2
      vertex 20 39 3.2
    endloop
  endfacet
  facet normal 0.933855 0 -0.357652
    outer loop
      vertex 20.6657 39 2.28369
      vertex 20.6395 51 2.21528
      vertex 20.6657 51 2.28369
    endloop
  endfacet
  facet normal 0.933855 0 -0.357652
    outer loop
      vertex 20.6395 51 2.21528
      vertex 20.6657 39 2.28369
      vertex 20.6395 39 2.21528
    endloop
  endfacet
  facet normal 0.838709 -0 0.544581
    outer loop
      vertex 20.5663 39 2.91145
      vertex 20.6062 51 2.85
      vertex 20.5663 51 2.91145
    endloop
  endfacet
  facet normal 0.838709 0 0.544581
    outer loop
      vertex 20.6062 51 2.85
      vertex 20.5663 39 2.91145
      vertex 20.6062 39 2.85
    endloop
  endfacet
  facet normal -0.156685 0 0.987649
    outer loop
      vertex 19.8545 51 3.1847
      vertex 19.9268 39 3.19617
      vertex 19.9268 51 3.19617
    endloop
  endfacet
  facet normal -0.156685 0 0.987649
    outer loop
      vertex 19.9268 39 3.19617
      vertex 19.8545 51 3.1847
      vertex 19.8545 39 3.1847
    endloop
  endfacet
  facet normal 0.933837 -0 0.357698
    outer loop
      vertex 20.6395 39 2.78471
      vertex 20.6657 51 2.71631
      vertex 20.6395 51 2.78471
    endloop
  endfacet
  facet normal 0.933837 0 0.357698
    outer loop
      vertex 20.6657 51 2.71631
      vertex 20.6395 39 2.78471
      vertex 20.6657 39 2.71631
    endloop
  endfacet
  facet normal 0.258682 0 0.965963
    outer loop
      vertex 20.1455 51 3.1847
      vertex 20.2163 39 3.16574
      vertex 20.2163 51 3.16574
    endloop
  endfacet
  facet normal 0.258682 0 0.965963
    outer loop
      vertex 20.2163 39 3.16574
      vertex 20.1455 51 3.1847
      vertex 20.1455 39 3.1847
    endloop
  endfacet
  facet normal 0.707175 0 -0.707039
    outer loop
      vertex 20.5202 39 2.03161
      vertex 20.4684 51 1.9798
      vertex 20.5202 51 2.03161
    endloop
  endfacet
  facet normal 0.707175 0 -0.707039
    outer loop
      vertex 20.4684 51 1.9798
      vertex 20.5202 39 2.03161
      vertex 20.4684 39 1.9798
    endloop
  endfacet
  facet normal 0.890796 0 -0.454404
    outer loop
      vertex 20.6395 39 2.21528
      vertex 20.6062 51 2.15
      vertex 20.6395 51 2.21528
    endloop
  endfacet
  facet normal 0.890796 0 -0.454404
    outer loop
      vertex 20.6062 51 2.15
      vertex 20.6395 39 2.21528
      vertex 20.6062 39 2.15
    endloop
  endfacet
  facet normal -0.987609 0 -0.156937
    outer loop
      vertex 19.3153 39 2.35446
      vertex 19.3038 51 2.42683
      vertex 19.3153 51 2.35446
    endloop
  endfacet
  facet normal -0.987609 -0 -0.156937
    outer loop
      vertex 19.3038 51 2.42683
      vertex 19.3153 39 2.35446
      vertex 19.3038 39 2.42683
    endloop
  endfacet
  facet normal -0.838709 0 -0.544581
    outer loop
      vertex 19.4337 39 2.08855
      vertex 19.3938 51 2.15
      vertex 19.4337 51 2.08855
    endloop
  endfacet
  facet normal -0.838709 -0 -0.544581
    outer loop
      vertex 19.3938 51 2.15
      vertex 19.4337 39 2.08855
      vertex 19.3938 39 2.15
    endloop
  endfacet
  facet normal -0.890824 0 0.454349
    outer loop
      vertex 19.3605 39 2.78471
      vertex 19.3938 51 2.85
      vertex 19.3605 51 2.78471
    endloop
  endfacet
  facet normal -0.890824 0 0.454349
    outer loop
      vertex 19.3938 51 2.85
      vertex 19.3605 39 2.78471
      vertex 19.3938 39 2.85
    endloop
  endfacet
  facet normal -0.707175 0 -0.707039
    outer loop
      vertex 19.4798 39 2.03161
      vertex 19.5316 51 1.9798
      vertex 19.5316 39 1.9798
    endloop
  endfacet
  facet normal -0.707175 0 -0.707039
    outer loop
      vertex 19.5316 51 1.9798
      vertex 19.4798 39 2.03161
      vertex 19.4798 51 2.03161
    endloop
  endfacet
  facet normal -0.45386 0 -0.891073
    outer loop
      vertex 19.65 39 1.89378
      vertex 19.7153 51 1.86052
      vertex 19.7153 39 1.86052
    endloop
  endfacet
  facet normal -0.45386 0 -0.891073
    outer loop
      vertex 19.7153 51 1.86052
      vertex 19.65 39 1.89378
      vertex 19.65 51 1.89378
    endloop
  endfacet
  facet normal 0.628927 0 -0.777464
    outer loop
      vertex 20.4114 39 1.93369
      vertex 20.4684 51 1.9798
      vertex 20.4684 39 1.9798
    endloop
  endfacet
  facet normal 0.628927 0 -0.777464
    outer loop
      vertex 20.4684 51 1.9798
      vertex 20.4114 39 1.93369
      vertex 20.4114 51 1.93369
    endloop
  endfacet
  facet normal 0.358412 0 0.933564
    outer loop
      vertex 20.2163 51 3.16574
      vertex 20.2847 39 3.13948
      vertex 20.2847 51 3.13948
    endloop
  endfacet
  facet normal 0.358412 0 0.933564
    outer loop
      vertex 20.2847 39 3.13948
      vertex 20.2163 51 3.16574
      vertex 20.2163 39 3.16574
    endloop
  endfacet
  facet normal -0.258682 0 -0.965963
    outer loop
      vertex 19.7837 39 1.83426
      vertex 19.8545 51 1.8153
      vertex 19.8545 39 1.8153
    endloop
  endfacet
  facet normal -0.258682 0 -0.965963
    outer loop
      vertex 19.8545 51 1.8153
      vertex 19.7837 39 1.83426
      vertex 19.7837 51 1.83426
    endloop
  endfacet
  facet normal -0.0522509 0 0.998634
    outer loop
      vertex 19.9268 51 3.19617
      vertex 20 39 3.2
      vertex 20 51 3.2
    endloop
  endfacet
  facet normal -0.0522509 0 0.998634
    outer loop
      vertex 20 39 3.2
      vertex 19.9268 51 3.19617
      vertex 19.9268 39 3.19617
    endloop
  endfacet
  facet normal -0.777207 0 0.629245
    outer loop
      vertex 19.4337 39 2.91145
      vertex 19.4798 51 2.96839
      vertex 19.4337 51 2.91145
    endloop
  endfacet
  facet normal -0.777207 0 0.629245
    outer loop
      vertex 19.4798 51 2.96839
      vertex 19.4337 39 2.91145
      vertex 19.4798 39 2.96839
    endloop
  endfacet
  facet normal -0.987609 0 0.156937
    outer loop
      vertex 19.3038 39 2.57317
      vertex 19.3153 51 2.64554
      vertex 19.3038 51 2.57317
    endloop
  endfacet
  facet normal -0.987609 0 0.156937
    outer loop
      vertex 19.3153 51 2.64554
      vertex 19.3038 39 2.57317
      vertex 19.3153 39 2.64554
    endloop
  endfacet
  facet normal -0.998654 0 -0.051864
    outer loop
      vertex 19.3038 39 2.42683
      vertex 19.3 51 2.5
      vertex 19.3038 51 2.42683
    endloop
  endfacet
  facet normal -0.998654 -0 -0.051864
    outer loop
      vertex 19.3 51 2.5
      vertex 19.3038 39 2.42683
      vertex 19.3 39 2.5
    endloop
  endfacet
  facet normal -0.544988 0 0.838444
    outer loop
      vertex 19.5886 51 3.06631
      vertex 19.65 39 3.10622
      vertex 19.65 51 3.10622
    endloop
  endfacet
  facet normal -0.544988 0 0.838444
    outer loop
      vertex 19.65 39 3.10622
      vertex 19.5886 51 3.06631
      vertex 19.5886 39 3.06631
    endloop
  endfacet
  facet normal 0.707175 -0 0.707039
    outer loop
      vertex 20.4684 39 3.0202
      vertex 20.5202 51 2.96839
      vertex 20.4684 51 3.0202
    endloop
  endfacet
  facet normal 0.707175 0 0.707039
    outer loop
      vertex 20.5202 51 2.96839
      vertex 20.4684 39 3.0202
      vertex 20.5202 39 2.96839
    endloop
  endfacet
  facet normal 0.628927 0 0.777464
    outer loop
      vertex 20.4114 51 3.06631
      vertex 20.4684 39 3.0202
      vertex 20.4684 51 3.0202
    endloop
  endfacet
  facet normal 0.628927 0 0.777464
    outer loop
      vertex 20.4684 39 3.0202
      vertex 20.4114 51 3.06631
      vertex 20.4114 39 3.06631
    endloop
  endfacet
  facet normal 1 -0 0
    outer loop
      vertex 21.5 51 5
      vertex 21.5 57 0.5
      vertex 21.5 57 5
    endloop
  endfacet
  facet normal 1 0 0
    outer loop
      vertex 21.5 57 0.5
      vertex 21.5 51 5
      vertex 21.5 51 0.5
    endloop
  endfacet
  facet normal -0 0 1
    outer loop
      vertex 13.5 57 5
      vertex 21.5 51 5
      vertex 21.5 57 5
    endloop
  endfacet
  facet normal 0 0 1
    outer loop
      vertex 21.5 51 5
      vertex 13.5 57 5
      vertex 13.5 51 5
    endloop
  endfacet
  facet normal 0 0 -1
    outer loop
      vertex 13.5 51 0.5
      vertex 21.5 57 0.5
      vertex 21.5 51 0.5
    endloop
  endfacet
  facet normal -0 0 -1
    outer loop
      vertex 21.5 57 0.5
      vertex 13.5 51 0.5
      vertex 13.5 57 0.5
    endloop
  endfacet
  facet normal -1 0 0
    outer loop
      vertex 13.5 51 0.5
      vertex 13.5 57 5
      vertex 13.5 57 0.5
    endloop
  endfacet
  facet normal -1 -0 0
    outer loop
      vertex 13.5 57 5
      vertex 13.5 51 0.5
      vertex 13.5 51 5
    endloop
  endfacet
  facet normal 0 1 -0
    outer loop
      vertex 21.5 57 0.5
      vertex 13.5 57 5
      vertex 21.5 57 5
    endloop
  endfacet
  facet normal 0 1 0
    outer loop
      vertex 13.5 57 5
      vertex 21.5 57 0.5
      vertex 13.5 57 0.5
    endloop
  endfacet
endsolid OpenSCAD_Model
