%TF.GenerationSoftware,KiCad,Pcbnew,10.0.5*%
%TF.CreationDate,2026-08-24T11:26:59+02:00*%
%TF.ProjectId,openmotorbridge_main,6f70656e-6d6f-4746-9f72-627269646765,v8.0*%
%TF.SameCoordinates,Original*%
%TF.FileFunction,Legend,Top*%
%TF.FilePolarity,Positive*%
%FSLAX46Y46*%
G04 Gerber Fmt 4.6, Leading zero omitted, Abs format (unit mm)*
G04 Created by KiCad (PCBNEW 10.0.5) date 2026-08-24 11:26:59*
%MOMM*%
%LPD*%
G01*
G04 APERTURE LIST*
%ADD10C,0.150000*%
%ADD11C,0.200000*%
%ADD12C,0.158750*%
%ADD13C,0.120000*%
G04 APERTURE END LIST*
D10*
X182771652Y-105991106D02*
X182728795Y-106076821D01*
X182728795Y-106076821D02*
X182728795Y-106205392D01*
X182728795Y-106205392D02*
X182771652Y-106333963D01*
X182771652Y-106333963D02*
X182857366Y-106419678D01*
X182857366Y-106419678D02*
X182943080Y-106462535D01*
X182943080Y-106462535D02*
X183114509Y-106505392D01*
X183114509Y-106505392D02*
X183243080Y-106505392D01*
X183243080Y-106505392D02*
X183414509Y-106462535D01*
X183414509Y-106462535D02*
X183500223Y-106419678D01*
X183500223Y-106419678D02*
X183585938Y-106333963D01*
X183585938Y-106333963D02*
X183628795Y-106205392D01*
X183628795Y-106205392D02*
X183628795Y-106119678D01*
X183628795Y-106119678D02*
X183585938Y-105991106D01*
X183585938Y-105991106D02*
X183543080Y-105948249D01*
X183543080Y-105948249D02*
X183243080Y-105948249D01*
X183243080Y-105948249D02*
X183243080Y-106119678D01*
X183371652Y-105605392D02*
X183371652Y-105176821D01*
X183628795Y-105691106D02*
X182728795Y-105391106D01*
X182728795Y-105391106D02*
X183628795Y-105091106D01*
X183628795Y-104362534D02*
X183628795Y-104791106D01*
X183628795Y-104791106D02*
X182728795Y-104791106D01*
X182728795Y-104191106D02*
X183628795Y-103891106D01*
X183628795Y-103891106D02*
X182728795Y-103591106D01*
X183371652Y-103333963D02*
X183371652Y-102905392D01*
X183628795Y-103419677D02*
X182728795Y-103119677D01*
X182728795Y-103119677D02*
X183628795Y-102819677D01*
X183628795Y-102519677D02*
X182728795Y-102519677D01*
X182728795Y-102519677D02*
X183628795Y-102005391D01*
X183628795Y-102005391D02*
X182728795Y-102005391D01*
X183628795Y-101576820D02*
X182728795Y-101576820D01*
X183543080Y-100633963D02*
X183585938Y-100676820D01*
X183585938Y-100676820D02*
X183628795Y-100805392D01*
X183628795Y-100805392D02*
X183628795Y-100891106D01*
X183628795Y-100891106D02*
X183585938Y-101019677D01*
X183585938Y-101019677D02*
X183500223Y-101105392D01*
X183500223Y-101105392D02*
X183414509Y-101148249D01*
X183414509Y-101148249D02*
X183243080Y-101191106D01*
X183243080Y-101191106D02*
X183114509Y-101191106D01*
X183114509Y-101191106D02*
X182943080Y-101148249D01*
X182943080Y-101148249D02*
X182857366Y-101105392D01*
X182857366Y-101105392D02*
X182771652Y-101019677D01*
X182771652Y-101019677D02*
X182728795Y-100891106D01*
X182728795Y-100891106D02*
X182728795Y-100805392D01*
X182728795Y-100805392D02*
X182771652Y-100676820D01*
X182771652Y-100676820D02*
X182814509Y-100633963D01*
X183157366Y-99262535D02*
X183200223Y-99133963D01*
X183200223Y-99133963D02*
X183243080Y-99091106D01*
X183243080Y-99091106D02*
X183328795Y-99048249D01*
X183328795Y-99048249D02*
X183457366Y-99048249D01*
X183457366Y-99048249D02*
X183543080Y-99091106D01*
X183543080Y-99091106D02*
X183585938Y-99133963D01*
X183585938Y-99133963D02*
X183628795Y-99219678D01*
X183628795Y-99219678D02*
X183628795Y-99562535D01*
X183628795Y-99562535D02*
X182728795Y-99562535D01*
X182728795Y-99562535D02*
X182728795Y-99262535D01*
X182728795Y-99262535D02*
X182771652Y-99176821D01*
X182771652Y-99176821D02*
X182814509Y-99133963D01*
X182814509Y-99133963D02*
X182900223Y-99091106D01*
X182900223Y-99091106D02*
X182985938Y-99091106D01*
X182985938Y-99091106D02*
X183071652Y-99133963D01*
X183071652Y-99133963D02*
X183114509Y-99176821D01*
X183114509Y-99176821D02*
X183157366Y-99262535D01*
X183157366Y-99262535D02*
X183157366Y-99562535D01*
X183371652Y-98705392D02*
X183371652Y-98276821D01*
X183628795Y-98791106D02*
X182728795Y-98491106D01*
X182728795Y-98491106D02*
X183628795Y-98191106D01*
X183628795Y-97376820D02*
X183200223Y-97676820D01*
X183628795Y-97891106D02*
X182728795Y-97891106D01*
X182728795Y-97891106D02*
X182728795Y-97548249D01*
X182728795Y-97548249D02*
X182771652Y-97462534D01*
X182771652Y-97462534D02*
X182814509Y-97419677D01*
X182814509Y-97419677D02*
X182900223Y-97376820D01*
X182900223Y-97376820D02*
X183028795Y-97376820D01*
X183028795Y-97376820D02*
X183114509Y-97419677D01*
X183114509Y-97419677D02*
X183157366Y-97462534D01*
X183157366Y-97462534D02*
X183200223Y-97548249D01*
X183200223Y-97548249D02*
X183200223Y-97891106D01*
X183628795Y-96476820D02*
X183200223Y-96776820D01*
X183628795Y-96991106D02*
X182728795Y-96991106D01*
X182728795Y-96991106D02*
X182728795Y-96648249D01*
X182728795Y-96648249D02*
X182771652Y-96562534D01*
X182771652Y-96562534D02*
X182814509Y-96519677D01*
X182814509Y-96519677D02*
X182900223Y-96476820D01*
X182900223Y-96476820D02*
X183028795Y-96476820D01*
X183028795Y-96476820D02*
X183114509Y-96519677D01*
X183114509Y-96519677D02*
X183157366Y-96562534D01*
X183157366Y-96562534D02*
X183200223Y-96648249D01*
X183200223Y-96648249D02*
X183200223Y-96991106D01*
X183628795Y-96091106D02*
X182728795Y-96091106D01*
X183157366Y-95662535D02*
X183157366Y-95362535D01*
X183628795Y-95233963D02*
X183628795Y-95662535D01*
X183628795Y-95662535D02*
X182728795Y-95662535D01*
X182728795Y-95662535D02*
X182728795Y-95233963D01*
X183628795Y-94333963D02*
X183200223Y-94633963D01*
X183628795Y-94848249D02*
X182728795Y-94848249D01*
X182728795Y-94848249D02*
X182728795Y-94505392D01*
X182728795Y-94505392D02*
X182771652Y-94419677D01*
X182771652Y-94419677D02*
X182814509Y-94376820D01*
X182814509Y-94376820D02*
X182900223Y-94333963D01*
X182900223Y-94333963D02*
X183028795Y-94333963D01*
X183028795Y-94333963D02*
X183114509Y-94376820D01*
X183114509Y-94376820D02*
X183157366Y-94419677D01*
X183157366Y-94419677D02*
X183200223Y-94505392D01*
X183200223Y-94505392D02*
X183200223Y-94848249D01*
X183971652Y-93005392D02*
X183928795Y-93048249D01*
X183928795Y-93048249D02*
X183800223Y-93133963D01*
X183800223Y-93133963D02*
X183714509Y-93176821D01*
X183714509Y-93176821D02*
X183585938Y-93219678D01*
X183585938Y-93219678D02*
X183371652Y-93262535D01*
X183371652Y-93262535D02*
X183200223Y-93262535D01*
X183200223Y-93262535D02*
X182985938Y-93219678D01*
X182985938Y-93219678D02*
X182857366Y-93176821D01*
X182857366Y-93176821D02*
X182771652Y-93133963D01*
X182771652Y-93133963D02*
X182643080Y-93048249D01*
X182643080Y-93048249D02*
X182600223Y-93005392D01*
X183028795Y-92276821D02*
X183628795Y-92276821D01*
X182685938Y-92491106D02*
X183328795Y-92705392D01*
X183328795Y-92705392D02*
X183328795Y-92148249D01*
X183628795Y-91805392D02*
X183028795Y-91805392D01*
X183114509Y-91805392D02*
X183071652Y-91762535D01*
X183071652Y-91762535D02*
X183028795Y-91676820D01*
X183028795Y-91676820D02*
X183028795Y-91548249D01*
X183028795Y-91548249D02*
X183071652Y-91462535D01*
X183071652Y-91462535D02*
X183157366Y-91419678D01*
X183157366Y-91419678D02*
X183628795Y-91419678D01*
X183157366Y-91419678D02*
X183071652Y-91376820D01*
X183071652Y-91376820D02*
X183028795Y-91291106D01*
X183028795Y-91291106D02*
X183028795Y-91162535D01*
X183028795Y-91162535D02*
X183071652Y-91076820D01*
X183071652Y-91076820D02*
X183157366Y-91033963D01*
X183157366Y-91033963D02*
X183628795Y-91033963D01*
X183628795Y-90605392D02*
X183028795Y-90605392D01*
X183114509Y-90605392D02*
X183071652Y-90562535D01*
X183071652Y-90562535D02*
X183028795Y-90476820D01*
X183028795Y-90476820D02*
X183028795Y-90348249D01*
X183028795Y-90348249D02*
X183071652Y-90262535D01*
X183071652Y-90262535D02*
X183157366Y-90219678D01*
X183157366Y-90219678D02*
X183628795Y-90219678D01*
X183157366Y-90219678D02*
X183071652Y-90176820D01*
X183071652Y-90176820D02*
X183028795Y-90091106D01*
X183028795Y-90091106D02*
X183028795Y-89962535D01*
X183028795Y-89962535D02*
X183071652Y-89876820D01*
X183071652Y-89876820D02*
X183157366Y-89833963D01*
X183157366Y-89833963D02*
X183628795Y-89833963D01*
X183971652Y-89491106D02*
X183928795Y-89448249D01*
X183928795Y-89448249D02*
X183800223Y-89362535D01*
X183800223Y-89362535D02*
X183714509Y-89319678D01*
X183714509Y-89319678D02*
X183585938Y-89276820D01*
X183585938Y-89276820D02*
X183371652Y-89233963D01*
X183371652Y-89233963D02*
X183200223Y-89233963D01*
X183200223Y-89233963D02*
X182985938Y-89276820D01*
X182985938Y-89276820D02*
X182857366Y-89319678D01*
X182857366Y-89319678D02*
X182771652Y-89362535D01*
X182771652Y-89362535D02*
X182643080Y-89448249D01*
X182643080Y-89448249D02*
X182600223Y-89491106D01*
X148529760Y-82707830D02*
X148482141Y-82755450D01*
X148482141Y-82755450D02*
X148339284Y-82803069D01*
X148339284Y-82803069D02*
X148244046Y-82803069D01*
X148244046Y-82803069D02*
X148101189Y-82755450D01*
X148101189Y-82755450D02*
X148005951Y-82660211D01*
X148005951Y-82660211D02*
X147958332Y-82564973D01*
X147958332Y-82564973D02*
X147910713Y-82374497D01*
X147910713Y-82374497D02*
X147910713Y-82231640D01*
X147910713Y-82231640D02*
X147958332Y-82041164D01*
X147958332Y-82041164D02*
X148005951Y-81945926D01*
X148005951Y-81945926D02*
X148101189Y-81850688D01*
X148101189Y-81850688D02*
X148244046Y-81803069D01*
X148244046Y-81803069D02*
X148339284Y-81803069D01*
X148339284Y-81803069D02*
X148482141Y-81850688D01*
X148482141Y-81850688D02*
X148529760Y-81898307D01*
X148958332Y-82279259D02*
X149291665Y-82279259D01*
X149434522Y-82803069D02*
X148958332Y-82803069D01*
X148958332Y-82803069D02*
X148958332Y-81803069D01*
X148958332Y-81803069D02*
X149434522Y-81803069D01*
X150434522Y-82803069D02*
X150101189Y-82326878D01*
X149863094Y-82803069D02*
X149863094Y-81803069D01*
X149863094Y-81803069D02*
X150244046Y-81803069D01*
X150244046Y-81803069D02*
X150339284Y-81850688D01*
X150339284Y-81850688D02*
X150386903Y-81898307D01*
X150386903Y-81898307D02*
X150434522Y-81993545D01*
X150434522Y-81993545D02*
X150434522Y-82136402D01*
X150434522Y-82136402D02*
X150386903Y-82231640D01*
X150386903Y-82231640D02*
X150339284Y-82279259D01*
X150339284Y-82279259D02*
X150244046Y-82326878D01*
X150244046Y-82326878D02*
X149863094Y-82326878D01*
X150863094Y-82803069D02*
X150863094Y-81803069D01*
X150863094Y-81803069D02*
X151434522Y-82803069D01*
X151434522Y-82803069D02*
X151434522Y-81803069D01*
X151910713Y-82422116D02*
X152672618Y-82422116D01*
X153339284Y-81803069D02*
X153529760Y-81803069D01*
X153529760Y-81803069D02*
X153624998Y-81850688D01*
X153624998Y-81850688D02*
X153720236Y-81945926D01*
X153720236Y-81945926D02*
X153767855Y-82136402D01*
X153767855Y-82136402D02*
X153767855Y-82469735D01*
X153767855Y-82469735D02*
X153720236Y-82660211D01*
X153720236Y-82660211D02*
X153624998Y-82755450D01*
X153624998Y-82755450D02*
X153529760Y-82803069D01*
X153529760Y-82803069D02*
X153339284Y-82803069D01*
X153339284Y-82803069D02*
X153244046Y-82755450D01*
X153244046Y-82755450D02*
X153148808Y-82660211D01*
X153148808Y-82660211D02*
X153101189Y-82469735D01*
X153101189Y-82469735D02*
X153101189Y-82136402D01*
X153101189Y-82136402D02*
X153148808Y-81945926D01*
X153148808Y-81945926D02*
X153244046Y-81850688D01*
X153244046Y-81850688D02*
X153339284Y-81803069D01*
X154196427Y-82803069D02*
X154196427Y-81803069D01*
X154196427Y-82279259D02*
X154767855Y-82279259D01*
X154767855Y-82803069D02*
X154767855Y-81803069D01*
X155720236Y-82803069D02*
X155244046Y-82803069D01*
X155244046Y-82803069D02*
X155244046Y-81803069D01*
X156053570Y-82422116D02*
X156815475Y-82422116D01*
X157244046Y-82755450D02*
X157386903Y-82803069D01*
X157386903Y-82803069D02*
X157624998Y-82803069D01*
X157624998Y-82803069D02*
X157720236Y-82755450D01*
X157720236Y-82755450D02*
X157767855Y-82707830D01*
X157767855Y-82707830D02*
X157815474Y-82612592D01*
X157815474Y-82612592D02*
X157815474Y-82517354D01*
X157815474Y-82517354D02*
X157767855Y-82422116D01*
X157767855Y-82422116D02*
X157720236Y-82374497D01*
X157720236Y-82374497D02*
X157624998Y-82326878D01*
X157624998Y-82326878D02*
X157434522Y-82279259D01*
X157434522Y-82279259D02*
X157339284Y-82231640D01*
X157339284Y-82231640D02*
X157291665Y-82184021D01*
X157291665Y-82184021D02*
X157244046Y-82088783D01*
X157244046Y-82088783D02*
X157244046Y-81993545D01*
X157244046Y-81993545D02*
X157291665Y-81898307D01*
X157291665Y-81898307D02*
X157339284Y-81850688D01*
X157339284Y-81850688D02*
X157434522Y-81803069D01*
X157434522Y-81803069D02*
X157672617Y-81803069D01*
X157672617Y-81803069D02*
X157815474Y-81850688D01*
X158910713Y-82136402D02*
X159148808Y-82803069D01*
X159148808Y-82803069D02*
X159386903Y-82136402D01*
X159720237Y-81898307D02*
X159767856Y-81850688D01*
X159767856Y-81850688D02*
X159863094Y-81803069D01*
X159863094Y-81803069D02*
X160101189Y-81803069D01*
X160101189Y-81803069D02*
X160196427Y-81850688D01*
X160196427Y-81850688D02*
X160244046Y-81898307D01*
X160244046Y-81898307D02*
X160291665Y-81993545D01*
X160291665Y-81993545D02*
X160291665Y-82088783D01*
X160291665Y-82088783D02*
X160244046Y-82231640D01*
X160244046Y-82231640D02*
X159672618Y-82803069D01*
X159672618Y-82803069D02*
X160291665Y-82803069D01*
X161720237Y-83136402D02*
X161720237Y-81707830D01*
X163624999Y-82136402D02*
X163624999Y-82803069D01*
X163386904Y-81755450D02*
X163148809Y-82469735D01*
X163148809Y-82469735D02*
X163767856Y-82469735D01*
X164148809Y-82422116D02*
X164910714Y-82422116D01*
X165863094Y-82803069D02*
X165386904Y-82803069D01*
X165386904Y-82803069D02*
X165386904Y-81803069D01*
X166624999Y-82803069D02*
X166624999Y-82279259D01*
X166624999Y-82279259D02*
X166577380Y-82184021D01*
X166577380Y-82184021D02*
X166482142Y-82136402D01*
X166482142Y-82136402D02*
X166291666Y-82136402D01*
X166291666Y-82136402D02*
X166196428Y-82184021D01*
X166624999Y-82755450D02*
X166529761Y-82803069D01*
X166529761Y-82803069D02*
X166291666Y-82803069D01*
X166291666Y-82803069D02*
X166196428Y-82755450D01*
X166196428Y-82755450D02*
X166148809Y-82660211D01*
X166148809Y-82660211D02*
X166148809Y-82564973D01*
X166148809Y-82564973D02*
X166196428Y-82469735D01*
X166196428Y-82469735D02*
X166291666Y-82422116D01*
X166291666Y-82422116D02*
X166529761Y-82422116D01*
X166529761Y-82422116D02*
X166624999Y-82374497D01*
X167005952Y-82136402D02*
X167244047Y-82803069D01*
X167482142Y-82136402D02*
X167244047Y-82803069D01*
X167244047Y-82803069D02*
X167148809Y-83041164D01*
X167148809Y-83041164D02*
X167101190Y-83088783D01*
X167101190Y-83088783D02*
X167005952Y-83136402D01*
X168244047Y-82755450D02*
X168148809Y-82803069D01*
X168148809Y-82803069D02*
X167958333Y-82803069D01*
X167958333Y-82803069D02*
X167863095Y-82755450D01*
X167863095Y-82755450D02*
X167815476Y-82660211D01*
X167815476Y-82660211D02*
X167815476Y-82279259D01*
X167815476Y-82279259D02*
X167863095Y-82184021D01*
X167863095Y-82184021D02*
X167958333Y-82136402D01*
X167958333Y-82136402D02*
X168148809Y-82136402D01*
X168148809Y-82136402D02*
X168244047Y-82184021D01*
X168244047Y-82184021D02*
X168291666Y-82279259D01*
X168291666Y-82279259D02*
X168291666Y-82374497D01*
X168291666Y-82374497D02*
X167815476Y-82469735D01*
X168720238Y-82803069D02*
X168720238Y-82136402D01*
X168720238Y-82326878D02*
X168767857Y-82231640D01*
X168767857Y-82231640D02*
X168815476Y-82184021D01*
X168815476Y-82184021D02*
X168910714Y-82136402D01*
X168910714Y-82136402D02*
X169005952Y-82136402D01*
X170053572Y-82755450D02*
X170196429Y-82803069D01*
X170196429Y-82803069D02*
X170434524Y-82803069D01*
X170434524Y-82803069D02*
X170529762Y-82755450D01*
X170529762Y-82755450D02*
X170577381Y-82707830D01*
X170577381Y-82707830D02*
X170625000Y-82612592D01*
X170625000Y-82612592D02*
X170625000Y-82517354D01*
X170625000Y-82517354D02*
X170577381Y-82422116D01*
X170577381Y-82422116D02*
X170529762Y-82374497D01*
X170529762Y-82374497D02*
X170434524Y-82326878D01*
X170434524Y-82326878D02*
X170244048Y-82279259D01*
X170244048Y-82279259D02*
X170148810Y-82231640D01*
X170148810Y-82231640D02*
X170101191Y-82184021D01*
X170101191Y-82184021D02*
X170053572Y-82088783D01*
X170053572Y-82088783D02*
X170053572Y-81993545D01*
X170053572Y-81993545D02*
X170101191Y-81898307D01*
X170101191Y-81898307D02*
X170148810Y-81850688D01*
X170148810Y-81850688D02*
X170244048Y-81803069D01*
X170244048Y-81803069D02*
X170482143Y-81803069D01*
X170482143Y-81803069D02*
X170625000Y-81850688D01*
X171053572Y-82803069D02*
X171053572Y-81803069D01*
X171053572Y-81803069D02*
X171386905Y-82517354D01*
X171386905Y-82517354D02*
X171720238Y-81803069D01*
X171720238Y-81803069D02*
X171720238Y-82803069D01*
X172053572Y-81803069D02*
X172625000Y-81803069D01*
X172339286Y-82803069D02*
X172339286Y-81803069D01*
D11*
X148470238Y-79031778D02*
X148755952Y-79031778D01*
X148755952Y-79031778D02*
X148898809Y-79103207D01*
X148898809Y-79103207D02*
X149041666Y-79246064D01*
X149041666Y-79246064D02*
X149113095Y-79531778D01*
X149113095Y-79531778D02*
X149113095Y-80031778D01*
X149113095Y-80031778D02*
X149041666Y-80317492D01*
X149041666Y-80317492D02*
X148898809Y-80460350D01*
X148898809Y-80460350D02*
X148755952Y-80531778D01*
X148755952Y-80531778D02*
X148470238Y-80531778D01*
X148470238Y-80531778D02*
X148327381Y-80460350D01*
X148327381Y-80460350D02*
X148184523Y-80317492D01*
X148184523Y-80317492D02*
X148113095Y-80031778D01*
X148113095Y-80031778D02*
X148113095Y-79531778D01*
X148113095Y-79531778D02*
X148184523Y-79246064D01*
X148184523Y-79246064D02*
X148327381Y-79103207D01*
X148327381Y-79103207D02*
X148470238Y-79031778D01*
X149755952Y-79531778D02*
X149755952Y-81031778D01*
X149755952Y-79603207D02*
X149898810Y-79531778D01*
X149898810Y-79531778D02*
X150184524Y-79531778D01*
X150184524Y-79531778D02*
X150327381Y-79603207D01*
X150327381Y-79603207D02*
X150398810Y-79674635D01*
X150398810Y-79674635D02*
X150470238Y-79817492D01*
X150470238Y-79817492D02*
X150470238Y-80246064D01*
X150470238Y-80246064D02*
X150398810Y-80388921D01*
X150398810Y-80388921D02*
X150327381Y-80460350D01*
X150327381Y-80460350D02*
X150184524Y-80531778D01*
X150184524Y-80531778D02*
X149898810Y-80531778D01*
X149898810Y-80531778D02*
X149755952Y-80460350D01*
X151684524Y-80460350D02*
X151541667Y-80531778D01*
X151541667Y-80531778D02*
X151255953Y-80531778D01*
X151255953Y-80531778D02*
X151113095Y-80460350D01*
X151113095Y-80460350D02*
X151041667Y-80317492D01*
X151041667Y-80317492D02*
X151041667Y-79746064D01*
X151041667Y-79746064D02*
X151113095Y-79603207D01*
X151113095Y-79603207D02*
X151255953Y-79531778D01*
X151255953Y-79531778D02*
X151541667Y-79531778D01*
X151541667Y-79531778D02*
X151684524Y-79603207D01*
X151684524Y-79603207D02*
X151755953Y-79746064D01*
X151755953Y-79746064D02*
X151755953Y-79888921D01*
X151755953Y-79888921D02*
X151041667Y-80031778D01*
X152398809Y-79531778D02*
X152398809Y-80531778D01*
X152398809Y-79674635D02*
X152470238Y-79603207D01*
X152470238Y-79603207D02*
X152613095Y-79531778D01*
X152613095Y-79531778D02*
X152827381Y-79531778D01*
X152827381Y-79531778D02*
X152970238Y-79603207D01*
X152970238Y-79603207D02*
X153041667Y-79746064D01*
X153041667Y-79746064D02*
X153041667Y-80531778D01*
X153755952Y-80531778D02*
X153755952Y-79031778D01*
X153755952Y-79031778D02*
X154255952Y-80103207D01*
X154255952Y-80103207D02*
X154755952Y-79031778D01*
X154755952Y-79031778D02*
X154755952Y-80531778D01*
X155684524Y-80531778D02*
X155541667Y-80460350D01*
X155541667Y-80460350D02*
X155470238Y-80388921D01*
X155470238Y-80388921D02*
X155398810Y-80246064D01*
X155398810Y-80246064D02*
X155398810Y-79817492D01*
X155398810Y-79817492D02*
X155470238Y-79674635D01*
X155470238Y-79674635D02*
X155541667Y-79603207D01*
X155541667Y-79603207D02*
X155684524Y-79531778D01*
X155684524Y-79531778D02*
X155898810Y-79531778D01*
X155898810Y-79531778D02*
X156041667Y-79603207D01*
X156041667Y-79603207D02*
X156113096Y-79674635D01*
X156113096Y-79674635D02*
X156184524Y-79817492D01*
X156184524Y-79817492D02*
X156184524Y-80246064D01*
X156184524Y-80246064D02*
X156113096Y-80388921D01*
X156113096Y-80388921D02*
X156041667Y-80460350D01*
X156041667Y-80460350D02*
X155898810Y-80531778D01*
X155898810Y-80531778D02*
X155684524Y-80531778D01*
X156613096Y-79531778D02*
X157184524Y-79531778D01*
X156827381Y-79031778D02*
X156827381Y-80317492D01*
X156827381Y-80317492D02*
X156898810Y-80460350D01*
X156898810Y-80460350D02*
X157041667Y-80531778D01*
X157041667Y-80531778D02*
X157184524Y-80531778D01*
X157898810Y-80531778D02*
X157755953Y-80460350D01*
X157755953Y-80460350D02*
X157684524Y-80388921D01*
X157684524Y-80388921D02*
X157613096Y-80246064D01*
X157613096Y-80246064D02*
X157613096Y-79817492D01*
X157613096Y-79817492D02*
X157684524Y-79674635D01*
X157684524Y-79674635D02*
X157755953Y-79603207D01*
X157755953Y-79603207D02*
X157898810Y-79531778D01*
X157898810Y-79531778D02*
X158113096Y-79531778D01*
X158113096Y-79531778D02*
X158255953Y-79603207D01*
X158255953Y-79603207D02*
X158327382Y-79674635D01*
X158327382Y-79674635D02*
X158398810Y-79817492D01*
X158398810Y-79817492D02*
X158398810Y-80246064D01*
X158398810Y-80246064D02*
X158327382Y-80388921D01*
X158327382Y-80388921D02*
X158255953Y-80460350D01*
X158255953Y-80460350D02*
X158113096Y-80531778D01*
X158113096Y-80531778D02*
X157898810Y-80531778D01*
X159041667Y-80531778D02*
X159041667Y-79531778D01*
X159041667Y-79817492D02*
X159113096Y-79674635D01*
X159113096Y-79674635D02*
X159184525Y-79603207D01*
X159184525Y-79603207D02*
X159327382Y-79531778D01*
X159327382Y-79531778D02*
X159470239Y-79531778D01*
X160470238Y-79746064D02*
X160684524Y-79817492D01*
X160684524Y-79817492D02*
X160755953Y-79888921D01*
X160755953Y-79888921D02*
X160827381Y-80031778D01*
X160827381Y-80031778D02*
X160827381Y-80246064D01*
X160827381Y-80246064D02*
X160755953Y-80388921D01*
X160755953Y-80388921D02*
X160684524Y-80460350D01*
X160684524Y-80460350D02*
X160541667Y-80531778D01*
X160541667Y-80531778D02*
X159970238Y-80531778D01*
X159970238Y-80531778D02*
X159970238Y-79031778D01*
X159970238Y-79031778D02*
X160470238Y-79031778D01*
X160470238Y-79031778D02*
X160613096Y-79103207D01*
X160613096Y-79103207D02*
X160684524Y-79174635D01*
X160684524Y-79174635D02*
X160755953Y-79317492D01*
X160755953Y-79317492D02*
X160755953Y-79460350D01*
X160755953Y-79460350D02*
X160684524Y-79603207D01*
X160684524Y-79603207D02*
X160613096Y-79674635D01*
X160613096Y-79674635D02*
X160470238Y-79746064D01*
X160470238Y-79746064D02*
X159970238Y-79746064D01*
X161470238Y-80531778D02*
X161470238Y-79531778D01*
X161470238Y-79817492D02*
X161541667Y-79674635D01*
X161541667Y-79674635D02*
X161613096Y-79603207D01*
X161613096Y-79603207D02*
X161755953Y-79531778D01*
X161755953Y-79531778D02*
X161898810Y-79531778D01*
X162398809Y-80531778D02*
X162398809Y-79531778D01*
X162398809Y-79031778D02*
X162327381Y-79103207D01*
X162327381Y-79103207D02*
X162398809Y-79174635D01*
X162398809Y-79174635D02*
X162470238Y-79103207D01*
X162470238Y-79103207D02*
X162398809Y-79031778D01*
X162398809Y-79031778D02*
X162398809Y-79174635D01*
X163755953Y-80531778D02*
X163755953Y-79031778D01*
X163755953Y-80460350D02*
X163613095Y-80531778D01*
X163613095Y-80531778D02*
X163327381Y-80531778D01*
X163327381Y-80531778D02*
X163184524Y-80460350D01*
X163184524Y-80460350D02*
X163113095Y-80388921D01*
X163113095Y-80388921D02*
X163041667Y-80246064D01*
X163041667Y-80246064D02*
X163041667Y-79817492D01*
X163041667Y-79817492D02*
X163113095Y-79674635D01*
X163113095Y-79674635D02*
X163184524Y-79603207D01*
X163184524Y-79603207D02*
X163327381Y-79531778D01*
X163327381Y-79531778D02*
X163613095Y-79531778D01*
X163613095Y-79531778D02*
X163755953Y-79603207D01*
X165113096Y-79531778D02*
X165113096Y-80746064D01*
X165113096Y-80746064D02*
X165041667Y-80888921D01*
X165041667Y-80888921D02*
X164970238Y-80960350D01*
X164970238Y-80960350D02*
X164827381Y-81031778D01*
X164827381Y-81031778D02*
X164613096Y-81031778D01*
X164613096Y-81031778D02*
X164470238Y-80960350D01*
X165113096Y-80460350D02*
X164970238Y-80531778D01*
X164970238Y-80531778D02*
X164684524Y-80531778D01*
X164684524Y-80531778D02*
X164541667Y-80460350D01*
X164541667Y-80460350D02*
X164470238Y-80388921D01*
X164470238Y-80388921D02*
X164398810Y-80246064D01*
X164398810Y-80246064D02*
X164398810Y-79817492D01*
X164398810Y-79817492D02*
X164470238Y-79674635D01*
X164470238Y-79674635D02*
X164541667Y-79603207D01*
X164541667Y-79603207D02*
X164684524Y-79531778D01*
X164684524Y-79531778D02*
X164970238Y-79531778D01*
X164970238Y-79531778D02*
X165113096Y-79603207D01*
X166398810Y-80460350D02*
X166255953Y-80531778D01*
X166255953Y-80531778D02*
X165970239Y-80531778D01*
X165970239Y-80531778D02*
X165827381Y-80460350D01*
X165827381Y-80460350D02*
X165755953Y-80317492D01*
X165755953Y-80317492D02*
X165755953Y-79746064D01*
X165755953Y-79746064D02*
X165827381Y-79603207D01*
X165827381Y-79603207D02*
X165970239Y-79531778D01*
X165970239Y-79531778D02*
X166255953Y-79531778D01*
X166255953Y-79531778D02*
X166398810Y-79603207D01*
X166398810Y-79603207D02*
X166470239Y-79746064D01*
X166470239Y-79746064D02*
X166470239Y-79888921D01*
X166470239Y-79888921D02*
X165755953Y-80031778D01*
X168113095Y-79531778D02*
X168470238Y-80531778D01*
X168470238Y-80531778D02*
X168827381Y-79531778D01*
X169613095Y-79674635D02*
X169470238Y-79603207D01*
X169470238Y-79603207D02*
X169398809Y-79531778D01*
X169398809Y-79531778D02*
X169327381Y-79388921D01*
X169327381Y-79388921D02*
X169327381Y-79317492D01*
X169327381Y-79317492D02*
X169398809Y-79174635D01*
X169398809Y-79174635D02*
X169470238Y-79103207D01*
X169470238Y-79103207D02*
X169613095Y-79031778D01*
X169613095Y-79031778D02*
X169898809Y-79031778D01*
X169898809Y-79031778D02*
X170041667Y-79103207D01*
X170041667Y-79103207D02*
X170113095Y-79174635D01*
X170113095Y-79174635D02*
X170184524Y-79317492D01*
X170184524Y-79317492D02*
X170184524Y-79388921D01*
X170184524Y-79388921D02*
X170113095Y-79531778D01*
X170113095Y-79531778D02*
X170041667Y-79603207D01*
X170041667Y-79603207D02*
X169898809Y-79674635D01*
X169898809Y-79674635D02*
X169613095Y-79674635D01*
X169613095Y-79674635D02*
X169470238Y-79746064D01*
X169470238Y-79746064D02*
X169398809Y-79817492D01*
X169398809Y-79817492D02*
X169327381Y-79960350D01*
X169327381Y-79960350D02*
X169327381Y-80246064D01*
X169327381Y-80246064D02*
X169398809Y-80388921D01*
X169398809Y-80388921D02*
X169470238Y-80460350D01*
X169470238Y-80460350D02*
X169613095Y-80531778D01*
X169613095Y-80531778D02*
X169898809Y-80531778D01*
X169898809Y-80531778D02*
X170041667Y-80460350D01*
X170041667Y-80460350D02*
X170113095Y-80388921D01*
X170113095Y-80388921D02*
X170184524Y-80246064D01*
X170184524Y-80246064D02*
X170184524Y-79960350D01*
X170184524Y-79960350D02*
X170113095Y-79817492D01*
X170113095Y-79817492D02*
X170041667Y-79746064D01*
X170041667Y-79746064D02*
X169898809Y-79674635D01*
X170827380Y-80388921D02*
X170898809Y-80460350D01*
X170898809Y-80460350D02*
X170827380Y-80531778D01*
X170827380Y-80531778D02*
X170755952Y-80460350D01*
X170755952Y-80460350D02*
X170827380Y-80388921D01*
X170827380Y-80388921D02*
X170827380Y-80531778D01*
X171827381Y-79031778D02*
X171970238Y-79031778D01*
X171970238Y-79031778D02*
X172113095Y-79103207D01*
X172113095Y-79103207D02*
X172184524Y-79174635D01*
X172184524Y-79174635D02*
X172255952Y-79317492D01*
X172255952Y-79317492D02*
X172327381Y-79603207D01*
X172327381Y-79603207D02*
X172327381Y-79960350D01*
X172327381Y-79960350D02*
X172255952Y-80246064D01*
X172255952Y-80246064D02*
X172184524Y-80388921D01*
X172184524Y-80388921D02*
X172113095Y-80460350D01*
X172113095Y-80460350D02*
X171970238Y-80531778D01*
X171970238Y-80531778D02*
X171827381Y-80531778D01*
X171827381Y-80531778D02*
X171684524Y-80460350D01*
X171684524Y-80460350D02*
X171613095Y-80388921D01*
X171613095Y-80388921D02*
X171541666Y-80246064D01*
X171541666Y-80246064D02*
X171470238Y-79960350D01*
X171470238Y-79960350D02*
X171470238Y-79603207D01*
X171470238Y-79603207D02*
X171541666Y-79317492D01*
X171541666Y-79317492D02*
X171613095Y-79174635D01*
X171613095Y-79174635D02*
X171684524Y-79103207D01*
X171684524Y-79103207D02*
X171827381Y-79031778D01*
D12*
X163288333Y-76958318D02*
X163227857Y-77018795D01*
X163227857Y-77018795D02*
X163046428Y-77079271D01*
X163046428Y-77079271D02*
X162925476Y-77079271D01*
X162925476Y-77079271D02*
X162744047Y-77018795D01*
X162744047Y-77018795D02*
X162623095Y-76897842D01*
X162623095Y-76897842D02*
X162562618Y-76776890D01*
X162562618Y-76776890D02*
X162502142Y-76534985D01*
X162502142Y-76534985D02*
X162502142Y-76353556D01*
X162502142Y-76353556D02*
X162562618Y-76111652D01*
X162562618Y-76111652D02*
X162623095Y-75990699D01*
X162623095Y-75990699D02*
X162744047Y-75869747D01*
X162744047Y-75869747D02*
X162925476Y-75809271D01*
X162925476Y-75809271D02*
X163046428Y-75809271D01*
X163046428Y-75809271D02*
X163227857Y-75869747D01*
X163227857Y-75869747D02*
X163288333Y-75930223D01*
X164376904Y-75809271D02*
X164134999Y-75809271D01*
X164134999Y-75809271D02*
X164014047Y-75869747D01*
X164014047Y-75869747D02*
X163953571Y-75930223D01*
X163953571Y-75930223D02*
X163832618Y-76111652D01*
X163832618Y-76111652D02*
X163772142Y-76353556D01*
X163772142Y-76353556D02*
X163772142Y-76837366D01*
X163772142Y-76837366D02*
X163832618Y-76958318D01*
X163832618Y-76958318D02*
X163893095Y-77018795D01*
X163893095Y-77018795D02*
X164014047Y-77079271D01*
X164014047Y-77079271D02*
X164255952Y-77079271D01*
X164255952Y-77079271D02*
X164376904Y-77018795D01*
X164376904Y-77018795D02*
X164437380Y-76958318D01*
X164437380Y-76958318D02*
X164497857Y-76837366D01*
X164497857Y-76837366D02*
X164497857Y-76534985D01*
X164497857Y-76534985D02*
X164437380Y-76414033D01*
X164437380Y-76414033D02*
X164376904Y-76353556D01*
X164376904Y-76353556D02*
X164255952Y-76293080D01*
X164255952Y-76293080D02*
X164014047Y-76293080D01*
X164014047Y-76293080D02*
X163893095Y-76353556D01*
X163893095Y-76353556D02*
X163832618Y-76414033D01*
X163832618Y-76414033D02*
X163772142Y-76534985D01*
X150288333Y-88458318D02*
X150227857Y-88518795D01*
X150227857Y-88518795D02*
X150046428Y-88579271D01*
X150046428Y-88579271D02*
X149925476Y-88579271D01*
X149925476Y-88579271D02*
X149744047Y-88518795D01*
X149744047Y-88518795D02*
X149623095Y-88397842D01*
X149623095Y-88397842D02*
X149562618Y-88276890D01*
X149562618Y-88276890D02*
X149502142Y-88034985D01*
X149502142Y-88034985D02*
X149502142Y-87853556D01*
X149502142Y-87853556D02*
X149562618Y-87611652D01*
X149562618Y-87611652D02*
X149623095Y-87490699D01*
X149623095Y-87490699D02*
X149744047Y-87369747D01*
X149744047Y-87369747D02*
X149925476Y-87309271D01*
X149925476Y-87309271D02*
X150046428Y-87309271D01*
X150046428Y-87309271D02*
X150227857Y-87369747D01*
X150227857Y-87369747D02*
X150288333Y-87430223D01*
X151376904Y-87732604D02*
X151376904Y-88579271D01*
X151074523Y-87248795D02*
X150772142Y-88155937D01*
X150772142Y-88155937D02*
X151558333Y-88155937D01*
X136788333Y-77079271D02*
X136364999Y-76474509D01*
X136062618Y-77079271D02*
X136062618Y-75809271D01*
X136062618Y-75809271D02*
X136546428Y-75809271D01*
X136546428Y-75809271D02*
X136667380Y-75869747D01*
X136667380Y-75869747D02*
X136727857Y-75930223D01*
X136727857Y-75930223D02*
X136788333Y-76051175D01*
X136788333Y-76051175D02*
X136788333Y-76232604D01*
X136788333Y-76232604D02*
X136727857Y-76353556D01*
X136727857Y-76353556D02*
X136667380Y-76414033D01*
X136667380Y-76414033D02*
X136546428Y-76474509D01*
X136546428Y-76474509D02*
X136062618Y-76474509D01*
X137997857Y-77079271D02*
X137272142Y-77079271D01*
X137634999Y-77079271D02*
X137634999Y-75809271D01*
X137634999Y-75809271D02*
X137514047Y-75990699D01*
X137514047Y-75990699D02*
X137393095Y-76111652D01*
X137393095Y-76111652D02*
X137272142Y-76172128D01*
X129076667Y-117309271D02*
X129076667Y-118216414D01*
X129076667Y-118216414D02*
X129016190Y-118397842D01*
X129016190Y-118397842D02*
X128895238Y-118518795D01*
X128895238Y-118518795D02*
X128713809Y-118579271D01*
X128713809Y-118579271D02*
X128592857Y-118579271D01*
X130225714Y-117309271D02*
X129983809Y-117309271D01*
X129983809Y-117309271D02*
X129862857Y-117369747D01*
X129862857Y-117369747D02*
X129802381Y-117430223D01*
X129802381Y-117430223D02*
X129681428Y-117611652D01*
X129681428Y-117611652D02*
X129620952Y-117853556D01*
X129620952Y-117853556D02*
X129620952Y-118337366D01*
X129620952Y-118337366D02*
X129681428Y-118458318D01*
X129681428Y-118458318D02*
X129741905Y-118518795D01*
X129741905Y-118518795D02*
X129862857Y-118579271D01*
X129862857Y-118579271D02*
X130104762Y-118579271D01*
X130104762Y-118579271D02*
X130225714Y-118518795D01*
X130225714Y-118518795D02*
X130286190Y-118458318D01*
X130286190Y-118458318D02*
X130346667Y-118337366D01*
X130346667Y-118337366D02*
X130346667Y-118034985D01*
X130346667Y-118034985D02*
X130286190Y-117914033D01*
X130286190Y-117914033D02*
X130225714Y-117853556D01*
X130225714Y-117853556D02*
X130104762Y-117793080D01*
X130104762Y-117793080D02*
X129862857Y-117793080D01*
X129862857Y-117793080D02*
X129741905Y-117853556D01*
X129741905Y-117853556D02*
X129681428Y-117914033D01*
X129681428Y-117914033D02*
X129620952Y-118034985D01*
D10*
X118458095Y-73804819D02*
X118458095Y-72804819D01*
X118458095Y-73281009D02*
X119029523Y-73281009D01*
X119029523Y-73804819D02*
X119029523Y-72804819D01*
X120029523Y-73804819D02*
X119458095Y-73804819D01*
X119743809Y-73804819D02*
X119743809Y-72804819D01*
X119743809Y-72804819D02*
X119648571Y-72947676D01*
X119648571Y-72947676D02*
X119553333Y-73042914D01*
X119553333Y-73042914D02*
X119458095Y-73090533D01*
D12*
X122183571Y-76958318D02*
X122123095Y-77018795D01*
X122123095Y-77018795D02*
X121941666Y-77079271D01*
X121941666Y-77079271D02*
X121820714Y-77079271D01*
X121820714Y-77079271D02*
X121639285Y-77018795D01*
X121639285Y-77018795D02*
X121518333Y-76897842D01*
X121518333Y-76897842D02*
X121457856Y-76776890D01*
X121457856Y-76776890D02*
X121397380Y-76534985D01*
X121397380Y-76534985D02*
X121397380Y-76353556D01*
X121397380Y-76353556D02*
X121457856Y-76111652D01*
X121457856Y-76111652D02*
X121518333Y-75990699D01*
X121518333Y-75990699D02*
X121639285Y-75869747D01*
X121639285Y-75869747D02*
X121820714Y-75809271D01*
X121820714Y-75809271D02*
X121941666Y-75809271D01*
X121941666Y-75809271D02*
X122123095Y-75869747D01*
X122123095Y-75869747D02*
X122183571Y-75930223D01*
X123393095Y-77079271D02*
X122667380Y-77079271D01*
X123030237Y-77079271D02*
X123030237Y-75809271D01*
X123030237Y-75809271D02*
X122909285Y-75990699D01*
X122909285Y-75990699D02*
X122788333Y-76111652D01*
X122788333Y-76111652D02*
X122667380Y-76172128D01*
X124179285Y-75809271D02*
X124300238Y-75809271D01*
X124300238Y-75809271D02*
X124421190Y-75869747D01*
X124421190Y-75869747D02*
X124481666Y-75930223D01*
X124481666Y-75930223D02*
X124542142Y-76051175D01*
X124542142Y-76051175D02*
X124602619Y-76293080D01*
X124602619Y-76293080D02*
X124602619Y-76595461D01*
X124602619Y-76595461D02*
X124542142Y-76837366D01*
X124542142Y-76837366D02*
X124481666Y-76958318D01*
X124481666Y-76958318D02*
X124421190Y-77018795D01*
X124421190Y-77018795D02*
X124300238Y-77079271D01*
X124300238Y-77079271D02*
X124179285Y-77079271D01*
X124179285Y-77079271D02*
X124058333Y-77018795D01*
X124058333Y-77018795D02*
X123997857Y-76958318D01*
X123997857Y-76958318D02*
X123937380Y-76837366D01*
X123937380Y-76837366D02*
X123876904Y-76595461D01*
X123876904Y-76595461D02*
X123876904Y-76293080D01*
X123876904Y-76293080D02*
X123937380Y-76051175D01*
X123937380Y-76051175D02*
X123997857Y-75930223D01*
X123997857Y-75930223D02*
X124058333Y-75869747D01*
X124058333Y-75869747D02*
X124179285Y-75809271D01*
D10*
X118458095Y-125804819D02*
X118458095Y-124804819D01*
X118458095Y-125281009D02*
X119029523Y-125281009D01*
X119029523Y-125804819D02*
X119029523Y-124804819D01*
X119410476Y-124804819D02*
X120029523Y-124804819D01*
X120029523Y-124804819D02*
X119696190Y-125185771D01*
X119696190Y-125185771D02*
X119839047Y-125185771D01*
X119839047Y-125185771D02*
X119934285Y-125233390D01*
X119934285Y-125233390D02*
X119981904Y-125281009D01*
X119981904Y-125281009D02*
X120029523Y-125376247D01*
X120029523Y-125376247D02*
X120029523Y-125614342D01*
X120029523Y-125614342D02*
X119981904Y-125709580D01*
X119981904Y-125709580D02*
X119934285Y-125757200D01*
X119934285Y-125757200D02*
X119839047Y-125804819D01*
X119839047Y-125804819D02*
X119553333Y-125804819D01*
X119553333Y-125804819D02*
X119458095Y-125757200D01*
X119458095Y-125757200D02*
X119410476Y-125709580D01*
D12*
X143288333Y-88458318D02*
X143227857Y-88518795D01*
X143227857Y-88518795D02*
X143046428Y-88579271D01*
X143046428Y-88579271D02*
X142925476Y-88579271D01*
X142925476Y-88579271D02*
X142744047Y-88518795D01*
X142744047Y-88518795D02*
X142623095Y-88397842D01*
X142623095Y-88397842D02*
X142562618Y-88276890D01*
X142562618Y-88276890D02*
X142502142Y-88034985D01*
X142502142Y-88034985D02*
X142502142Y-87853556D01*
X142502142Y-87853556D02*
X142562618Y-87611652D01*
X142562618Y-87611652D02*
X142623095Y-87490699D01*
X142623095Y-87490699D02*
X142744047Y-87369747D01*
X142744047Y-87369747D02*
X142925476Y-87309271D01*
X142925476Y-87309271D02*
X143046428Y-87309271D01*
X143046428Y-87309271D02*
X143227857Y-87369747D01*
X143227857Y-87369747D02*
X143288333Y-87430223D01*
X143711666Y-87309271D02*
X144497857Y-87309271D01*
X144497857Y-87309271D02*
X144074523Y-87793080D01*
X144074523Y-87793080D02*
X144255952Y-87793080D01*
X144255952Y-87793080D02*
X144376904Y-87853556D01*
X144376904Y-87853556D02*
X144437380Y-87914033D01*
X144437380Y-87914033D02*
X144497857Y-88034985D01*
X144497857Y-88034985D02*
X144497857Y-88337366D01*
X144497857Y-88337366D02*
X144437380Y-88458318D01*
X144437380Y-88458318D02*
X144376904Y-88518795D01*
X144376904Y-88518795D02*
X144255952Y-88579271D01*
X144255952Y-88579271D02*
X143893095Y-88579271D01*
X143893095Y-88579271D02*
X143772142Y-88518795D01*
X143772142Y-88518795D02*
X143711666Y-88458318D01*
X139062618Y-77079271D02*
X139062618Y-75809271D01*
X139062618Y-75809271D02*
X139364999Y-75809271D01*
X139364999Y-75809271D02*
X139546428Y-75869747D01*
X139546428Y-75869747D02*
X139667380Y-75990699D01*
X139667380Y-75990699D02*
X139727857Y-76111652D01*
X139727857Y-76111652D02*
X139788333Y-76353556D01*
X139788333Y-76353556D02*
X139788333Y-76534985D01*
X139788333Y-76534985D02*
X139727857Y-76776890D01*
X139727857Y-76776890D02*
X139667380Y-76897842D01*
X139667380Y-76897842D02*
X139546428Y-77018795D01*
X139546428Y-77018795D02*
X139364999Y-77079271D01*
X139364999Y-77079271D02*
X139062618Y-77079271D01*
X140272142Y-75930223D02*
X140332618Y-75869747D01*
X140332618Y-75869747D02*
X140453571Y-75809271D01*
X140453571Y-75809271D02*
X140755952Y-75809271D01*
X140755952Y-75809271D02*
X140876904Y-75869747D01*
X140876904Y-75869747D02*
X140937380Y-75930223D01*
X140937380Y-75930223D02*
X140997857Y-76051175D01*
X140997857Y-76051175D02*
X140997857Y-76172128D01*
X140997857Y-76172128D02*
X140937380Y-76353556D01*
X140937380Y-76353556D02*
X140211666Y-77079271D01*
X140211666Y-77079271D02*
X140997857Y-77079271D01*
D10*
X187238095Y-91454819D02*
X187238095Y-92264342D01*
X187238095Y-92264342D02*
X187285714Y-92359580D01*
X187285714Y-92359580D02*
X187333333Y-92407200D01*
X187333333Y-92407200D02*
X187428571Y-92454819D01*
X187428571Y-92454819D02*
X187619047Y-92454819D01*
X187619047Y-92454819D02*
X187714285Y-92407200D01*
X187714285Y-92407200D02*
X187761904Y-92359580D01*
X187761904Y-92359580D02*
X187809523Y-92264342D01*
X187809523Y-92264342D02*
X187809523Y-91454819D01*
X188714285Y-91454819D02*
X188523809Y-91454819D01*
X188523809Y-91454819D02*
X188428571Y-91502438D01*
X188428571Y-91502438D02*
X188380952Y-91550057D01*
X188380952Y-91550057D02*
X188285714Y-91692914D01*
X188285714Y-91692914D02*
X188238095Y-91883390D01*
X188238095Y-91883390D02*
X188238095Y-92264342D01*
X188238095Y-92264342D02*
X188285714Y-92359580D01*
X188285714Y-92359580D02*
X188333333Y-92407200D01*
X188333333Y-92407200D02*
X188428571Y-92454819D01*
X188428571Y-92454819D02*
X188619047Y-92454819D01*
X188619047Y-92454819D02*
X188714285Y-92407200D01*
X188714285Y-92407200D02*
X188761904Y-92359580D01*
X188761904Y-92359580D02*
X188809523Y-92264342D01*
X188809523Y-92264342D02*
X188809523Y-92026247D01*
X188809523Y-92026247D02*
X188761904Y-91931009D01*
X188761904Y-91931009D02*
X188714285Y-91883390D01*
X188714285Y-91883390D02*
X188619047Y-91835771D01*
X188619047Y-91835771D02*
X188428571Y-91835771D01*
X188428571Y-91835771D02*
X188333333Y-91883390D01*
X188333333Y-91883390D02*
X188285714Y-91931009D01*
X188285714Y-91931009D02*
X188238095Y-92026247D01*
X195458095Y-125804819D02*
X195458095Y-124804819D01*
X195458095Y-125281009D02*
X196029523Y-125281009D01*
X196029523Y-125804819D02*
X196029523Y-124804819D01*
X196934285Y-125138152D02*
X196934285Y-125804819D01*
X196696190Y-124757200D02*
X196458095Y-125471485D01*
X196458095Y-125471485D02*
X197077142Y-125471485D01*
D12*
X187788333Y-102579271D02*
X187364999Y-101974509D01*
X187062618Y-102579271D02*
X187062618Y-101309271D01*
X187062618Y-101309271D02*
X187546428Y-101309271D01*
X187546428Y-101309271D02*
X187667380Y-101369747D01*
X187667380Y-101369747D02*
X187727857Y-101430223D01*
X187727857Y-101430223D02*
X187788333Y-101551175D01*
X187788333Y-101551175D02*
X187788333Y-101732604D01*
X187788333Y-101732604D02*
X187727857Y-101853556D01*
X187727857Y-101853556D02*
X187667380Y-101914033D01*
X187667380Y-101914033D02*
X187546428Y-101974509D01*
X187546428Y-101974509D02*
X187062618Y-101974509D01*
X188393095Y-102579271D02*
X188634999Y-102579271D01*
X188634999Y-102579271D02*
X188755952Y-102518795D01*
X188755952Y-102518795D02*
X188816428Y-102458318D01*
X188816428Y-102458318D02*
X188937380Y-102276890D01*
X188937380Y-102276890D02*
X188997857Y-102034985D01*
X188997857Y-102034985D02*
X188997857Y-101551175D01*
X188997857Y-101551175D02*
X188937380Y-101430223D01*
X188937380Y-101430223D02*
X188876904Y-101369747D01*
X188876904Y-101369747D02*
X188755952Y-101309271D01*
X188755952Y-101309271D02*
X188514047Y-101309271D01*
X188514047Y-101309271D02*
X188393095Y-101369747D01*
X188393095Y-101369747D02*
X188332618Y-101430223D01*
X188332618Y-101430223D02*
X188272142Y-101551175D01*
X188272142Y-101551175D02*
X188272142Y-101853556D01*
X188272142Y-101853556D02*
X188332618Y-101974509D01*
X188332618Y-101974509D02*
X188393095Y-102034985D01*
X188393095Y-102034985D02*
X188514047Y-102095461D01*
X188514047Y-102095461D02*
X188755952Y-102095461D01*
X188755952Y-102095461D02*
X188876904Y-102034985D01*
X188876904Y-102034985D02*
X188937380Y-101974509D01*
X188937380Y-101974509D02*
X188997857Y-101853556D01*
D10*
X131454819Y-79261904D02*
X132264342Y-79261904D01*
X132264342Y-79261904D02*
X132359580Y-79214285D01*
X132359580Y-79214285D02*
X132407200Y-79166666D01*
X132407200Y-79166666D02*
X132454819Y-79071428D01*
X132454819Y-79071428D02*
X132454819Y-78880952D01*
X132454819Y-78880952D02*
X132407200Y-78785714D01*
X132407200Y-78785714D02*
X132359580Y-78738095D01*
X132359580Y-78738095D02*
X132264342Y-78690476D01*
X132264342Y-78690476D02*
X131454819Y-78690476D01*
X131550057Y-78261904D02*
X131502438Y-78214285D01*
X131502438Y-78214285D02*
X131454819Y-78119047D01*
X131454819Y-78119047D02*
X131454819Y-77880952D01*
X131454819Y-77880952D02*
X131502438Y-77785714D01*
X131502438Y-77785714D02*
X131550057Y-77738095D01*
X131550057Y-77738095D02*
X131645295Y-77690476D01*
X131645295Y-77690476D02*
X131740533Y-77690476D01*
X131740533Y-77690476D02*
X131883390Y-77738095D01*
X131883390Y-77738095D02*
X132454819Y-78309523D01*
X132454819Y-78309523D02*
X132454819Y-77690476D01*
D12*
X143288333Y-76958318D02*
X143227857Y-77018795D01*
X143227857Y-77018795D02*
X143046428Y-77079271D01*
X143046428Y-77079271D02*
X142925476Y-77079271D01*
X142925476Y-77079271D02*
X142744047Y-77018795D01*
X142744047Y-77018795D02*
X142623095Y-76897842D01*
X142623095Y-76897842D02*
X142562618Y-76776890D01*
X142562618Y-76776890D02*
X142502142Y-76534985D01*
X142502142Y-76534985D02*
X142502142Y-76353556D01*
X142502142Y-76353556D02*
X142562618Y-76111652D01*
X142562618Y-76111652D02*
X142623095Y-75990699D01*
X142623095Y-75990699D02*
X142744047Y-75869747D01*
X142744047Y-75869747D02*
X142925476Y-75809271D01*
X142925476Y-75809271D02*
X143046428Y-75809271D01*
X143046428Y-75809271D02*
X143227857Y-75869747D01*
X143227857Y-75869747D02*
X143288333Y-75930223D01*
X144497857Y-77079271D02*
X143772142Y-77079271D01*
X144134999Y-77079271D02*
X144134999Y-75809271D01*
X144134999Y-75809271D02*
X144014047Y-75990699D01*
X144014047Y-75990699D02*
X143893095Y-76111652D01*
X143893095Y-76111652D02*
X143772142Y-76172128D01*
X149788333Y-78079271D02*
X149183571Y-78079271D01*
X149183571Y-78079271D02*
X149183571Y-76809271D01*
X150876905Y-78079271D02*
X150151190Y-78079271D01*
X150514047Y-78079271D02*
X150514047Y-76809271D01*
X150514047Y-76809271D02*
X150393095Y-76990699D01*
X150393095Y-76990699D02*
X150272143Y-77111652D01*
X150272143Y-77111652D02*
X150151190Y-77172128D01*
X189288333Y-76958318D02*
X189227857Y-77018795D01*
X189227857Y-77018795D02*
X189046428Y-77079271D01*
X189046428Y-77079271D02*
X188925476Y-77079271D01*
X188925476Y-77079271D02*
X188744047Y-77018795D01*
X188744047Y-77018795D02*
X188623095Y-76897842D01*
X188623095Y-76897842D02*
X188562618Y-76776890D01*
X188562618Y-76776890D02*
X188502142Y-76534985D01*
X188502142Y-76534985D02*
X188502142Y-76353556D01*
X188502142Y-76353556D02*
X188562618Y-76111652D01*
X188562618Y-76111652D02*
X188623095Y-75990699D01*
X188623095Y-75990699D02*
X188744047Y-75869747D01*
X188744047Y-75869747D02*
X188925476Y-75809271D01*
X188925476Y-75809271D02*
X189046428Y-75809271D01*
X189046428Y-75809271D02*
X189227857Y-75869747D01*
X189227857Y-75869747D02*
X189288333Y-75930223D01*
X189711666Y-75809271D02*
X190558333Y-75809271D01*
X190558333Y-75809271D02*
X190014047Y-77079271D01*
X136788333Y-80079271D02*
X136364999Y-79474509D01*
X136062618Y-80079271D02*
X136062618Y-78809271D01*
X136062618Y-78809271D02*
X136546428Y-78809271D01*
X136546428Y-78809271D02*
X136667380Y-78869747D01*
X136667380Y-78869747D02*
X136727857Y-78930223D01*
X136727857Y-78930223D02*
X136788333Y-79051175D01*
X136788333Y-79051175D02*
X136788333Y-79232604D01*
X136788333Y-79232604D02*
X136727857Y-79353556D01*
X136727857Y-79353556D02*
X136667380Y-79414033D01*
X136667380Y-79414033D02*
X136546428Y-79474509D01*
X136546428Y-79474509D02*
X136062618Y-79474509D01*
X137272142Y-78930223D02*
X137332618Y-78869747D01*
X137332618Y-78869747D02*
X137453571Y-78809271D01*
X137453571Y-78809271D02*
X137755952Y-78809271D01*
X137755952Y-78809271D02*
X137876904Y-78869747D01*
X137876904Y-78869747D02*
X137937380Y-78930223D01*
X137937380Y-78930223D02*
X137997857Y-79051175D01*
X137997857Y-79051175D02*
X137997857Y-79172128D01*
X137997857Y-79172128D02*
X137937380Y-79353556D01*
X137937380Y-79353556D02*
X137211666Y-80079271D01*
X137211666Y-80079271D02*
X137997857Y-80079271D01*
D10*
X190666666Y-113954819D02*
X190666666Y-114669104D01*
X190666666Y-114669104D02*
X190619047Y-114811961D01*
X190619047Y-114811961D02*
X190523809Y-114907200D01*
X190523809Y-114907200D02*
X190380952Y-114954819D01*
X190380952Y-114954819D02*
X190285714Y-114954819D01*
X191047619Y-113954819D02*
X191666666Y-113954819D01*
X191666666Y-113954819D02*
X191333333Y-114335771D01*
X191333333Y-114335771D02*
X191476190Y-114335771D01*
X191476190Y-114335771D02*
X191571428Y-114383390D01*
X191571428Y-114383390D02*
X191619047Y-114431009D01*
X191619047Y-114431009D02*
X191666666Y-114526247D01*
X191666666Y-114526247D02*
X191666666Y-114764342D01*
X191666666Y-114764342D02*
X191619047Y-114859580D01*
X191619047Y-114859580D02*
X191571428Y-114907200D01*
X191571428Y-114907200D02*
X191476190Y-114954819D01*
X191476190Y-114954819D02*
X191190476Y-114954819D01*
X191190476Y-114954819D02*
X191095238Y-114907200D01*
X191095238Y-114907200D02*
X191047619Y-114859580D01*
D12*
X182032381Y-76309271D02*
X182758095Y-76309271D01*
X182395238Y-77579271D02*
X182395238Y-76309271D01*
X183120952Y-76430223D02*
X183181428Y-76369747D01*
X183181428Y-76369747D02*
X183302381Y-76309271D01*
X183302381Y-76309271D02*
X183604762Y-76309271D01*
X183604762Y-76309271D02*
X183725714Y-76369747D01*
X183725714Y-76369747D02*
X183786190Y-76430223D01*
X183786190Y-76430223D02*
X183846667Y-76551175D01*
X183846667Y-76551175D02*
X183846667Y-76672128D01*
X183846667Y-76672128D02*
X183786190Y-76853556D01*
X183786190Y-76853556D02*
X183060476Y-77579271D01*
X183060476Y-77579271D02*
X183846667Y-77579271D01*
X168032380Y-85309271D02*
X168032380Y-86337366D01*
X168032380Y-86337366D02*
X168092857Y-86458318D01*
X168092857Y-86458318D02*
X168153333Y-86518795D01*
X168153333Y-86518795D02*
X168274285Y-86579271D01*
X168274285Y-86579271D02*
X168516190Y-86579271D01*
X168516190Y-86579271D02*
X168637142Y-86518795D01*
X168637142Y-86518795D02*
X168697619Y-86458318D01*
X168697619Y-86458318D02*
X168758095Y-86337366D01*
X168758095Y-86337366D02*
X168758095Y-85309271D01*
X169241904Y-85309271D02*
X170088571Y-85309271D01*
X170088571Y-85309271D02*
X169544285Y-86579271D01*
D13*
X161390476Y-89363855D02*
X161390476Y-90011474D01*
X161390476Y-90011474D02*
X161428571Y-90087664D01*
X161428571Y-90087664D02*
X161466666Y-90125760D01*
X161466666Y-90125760D02*
X161542857Y-90163855D01*
X161542857Y-90163855D02*
X161695238Y-90163855D01*
X161695238Y-90163855D02*
X161771428Y-90125760D01*
X161771428Y-90125760D02*
X161809523Y-90087664D01*
X161809523Y-90087664D02*
X161847619Y-90011474D01*
X161847619Y-90011474D02*
X161847619Y-89363855D01*
X162609523Y-89363855D02*
X162228571Y-89363855D01*
X162228571Y-89363855D02*
X162190475Y-89744807D01*
X162190475Y-89744807D02*
X162228571Y-89706712D01*
X162228571Y-89706712D02*
X162304761Y-89668617D01*
X162304761Y-89668617D02*
X162495237Y-89668617D01*
X162495237Y-89668617D02*
X162571428Y-89706712D01*
X162571428Y-89706712D02*
X162609523Y-89744807D01*
X162609523Y-89744807D02*
X162647618Y-89820998D01*
X162647618Y-89820998D02*
X162647618Y-90011474D01*
X162647618Y-90011474D02*
X162609523Y-90087664D01*
X162609523Y-90087664D02*
X162571428Y-90125760D01*
X162571428Y-90125760D02*
X162495237Y-90163855D01*
X162495237Y-90163855D02*
X162304761Y-90163855D01*
X162304761Y-90163855D02*
X162228571Y-90125760D01*
X162228571Y-90125760D02*
X162190475Y-90087664D01*
D12*
X161183571Y-86958318D02*
X161123095Y-87018795D01*
X161123095Y-87018795D02*
X160941666Y-87079271D01*
X160941666Y-87079271D02*
X160820714Y-87079271D01*
X160820714Y-87079271D02*
X160639285Y-87018795D01*
X160639285Y-87018795D02*
X160518333Y-86897842D01*
X160518333Y-86897842D02*
X160457856Y-86776890D01*
X160457856Y-86776890D02*
X160397380Y-86534985D01*
X160397380Y-86534985D02*
X160397380Y-86353556D01*
X160397380Y-86353556D02*
X160457856Y-86111652D01*
X160457856Y-86111652D02*
X160518333Y-85990699D01*
X160518333Y-85990699D02*
X160639285Y-85869747D01*
X160639285Y-85869747D02*
X160820714Y-85809271D01*
X160820714Y-85809271D02*
X160941666Y-85809271D01*
X160941666Y-85809271D02*
X161123095Y-85869747D01*
X161123095Y-85869747D02*
X161183571Y-85930223D01*
X162393095Y-87079271D02*
X161667380Y-87079271D01*
X162030237Y-87079271D02*
X162030237Y-85809271D01*
X162030237Y-85809271D02*
X161909285Y-85990699D01*
X161909285Y-85990699D02*
X161788333Y-86111652D01*
X161788333Y-86111652D02*
X161667380Y-86172128D01*
X162876904Y-85930223D02*
X162937380Y-85869747D01*
X162937380Y-85869747D02*
X163058333Y-85809271D01*
X163058333Y-85809271D02*
X163360714Y-85809271D01*
X163360714Y-85809271D02*
X163481666Y-85869747D01*
X163481666Y-85869747D02*
X163542142Y-85930223D01*
X163542142Y-85930223D02*
X163602619Y-86051175D01*
X163602619Y-86051175D02*
X163602619Y-86172128D01*
X163602619Y-86172128D02*
X163542142Y-86353556D01*
X163542142Y-86353556D02*
X162816428Y-87079271D01*
X162816428Y-87079271D02*
X163602619Y-87079271D01*
D10*
X153666666Y-86954819D02*
X153666666Y-87669104D01*
X153666666Y-87669104D02*
X153619047Y-87811961D01*
X153619047Y-87811961D02*
X153523809Y-87907200D01*
X153523809Y-87907200D02*
X153380952Y-87954819D01*
X153380952Y-87954819D02*
X153285714Y-87954819D01*
X154095238Y-87050057D02*
X154142857Y-87002438D01*
X154142857Y-87002438D02*
X154238095Y-86954819D01*
X154238095Y-86954819D02*
X154476190Y-86954819D01*
X154476190Y-86954819D02*
X154571428Y-87002438D01*
X154571428Y-87002438D02*
X154619047Y-87050057D01*
X154619047Y-87050057D02*
X154666666Y-87145295D01*
X154666666Y-87145295D02*
X154666666Y-87240533D01*
X154666666Y-87240533D02*
X154619047Y-87383390D01*
X154619047Y-87383390D02*
X154047619Y-87954819D01*
X154047619Y-87954819D02*
X154666666Y-87954819D01*
D12*
X169032381Y-76309271D02*
X169758095Y-76309271D01*
X169395238Y-77579271D02*
X169395238Y-76309271D01*
X170846667Y-77579271D02*
X170120952Y-77579271D01*
X170483809Y-77579271D02*
X170483809Y-76309271D01*
X170483809Y-76309271D02*
X170362857Y-76490699D01*
X170362857Y-76490699D02*
X170241905Y-76611652D01*
X170241905Y-76611652D02*
X170120952Y-76672128D01*
X161183571Y-97579271D02*
X160760237Y-96974509D01*
X160457856Y-97579271D02*
X160457856Y-96309271D01*
X160457856Y-96309271D02*
X160941666Y-96309271D01*
X160941666Y-96309271D02*
X161062618Y-96369747D01*
X161062618Y-96369747D02*
X161123095Y-96430223D01*
X161123095Y-96430223D02*
X161183571Y-96551175D01*
X161183571Y-96551175D02*
X161183571Y-96732604D01*
X161183571Y-96732604D02*
X161123095Y-96853556D01*
X161123095Y-96853556D02*
X161062618Y-96914033D01*
X161062618Y-96914033D02*
X160941666Y-96974509D01*
X160941666Y-96974509D02*
X160457856Y-96974509D01*
X162393095Y-97579271D02*
X161667380Y-97579271D01*
X162030237Y-97579271D02*
X162030237Y-96309271D01*
X162030237Y-96309271D02*
X161909285Y-96490699D01*
X161909285Y-96490699D02*
X161788333Y-96611652D01*
X161788333Y-96611652D02*
X161667380Y-96672128D01*
X163179285Y-96309271D02*
X163300238Y-96309271D01*
X163300238Y-96309271D02*
X163421190Y-96369747D01*
X163421190Y-96369747D02*
X163481666Y-96430223D01*
X163481666Y-96430223D02*
X163542142Y-96551175D01*
X163542142Y-96551175D02*
X163602619Y-96793080D01*
X163602619Y-96793080D02*
X163602619Y-97095461D01*
X163602619Y-97095461D02*
X163542142Y-97337366D01*
X163542142Y-97337366D02*
X163481666Y-97458318D01*
X163481666Y-97458318D02*
X163421190Y-97518795D01*
X163421190Y-97518795D02*
X163300238Y-97579271D01*
X163300238Y-97579271D02*
X163179285Y-97579271D01*
X163179285Y-97579271D02*
X163058333Y-97518795D01*
X163058333Y-97518795D02*
X162997857Y-97458318D01*
X162997857Y-97458318D02*
X162937380Y-97337366D01*
X162937380Y-97337366D02*
X162876904Y-97095461D01*
X162876904Y-97095461D02*
X162876904Y-96793080D01*
X162876904Y-96793080D02*
X162937380Y-96551175D01*
X162937380Y-96551175D02*
X162997857Y-96430223D01*
X162997857Y-96430223D02*
X163058333Y-96369747D01*
X163058333Y-96369747D02*
X163179285Y-96309271D01*
D13*
X153409524Y-82563855D02*
X153409524Y-81763855D01*
X153409524Y-81763855D02*
X153600000Y-81763855D01*
X153600000Y-81763855D02*
X153714286Y-81801950D01*
X153714286Y-81801950D02*
X153790476Y-81878140D01*
X153790476Y-81878140D02*
X153828571Y-81954331D01*
X153828571Y-81954331D02*
X153866667Y-82106712D01*
X153866667Y-82106712D02*
X153866667Y-82220998D01*
X153866667Y-82220998D02*
X153828571Y-82373379D01*
X153828571Y-82373379D02*
X153790476Y-82449569D01*
X153790476Y-82449569D02*
X153714286Y-82525760D01*
X153714286Y-82525760D02*
X153600000Y-82563855D01*
X153600000Y-82563855D02*
X153409524Y-82563855D01*
X154628571Y-82563855D02*
X154171428Y-82563855D01*
X154400000Y-82563855D02*
X154400000Y-81763855D01*
X154400000Y-81763855D02*
X154323809Y-81878140D01*
X154323809Y-81878140D02*
X154247619Y-81954331D01*
X154247619Y-81954331D02*
X154171428Y-81992426D01*
D12*
X189288333Y-80079271D02*
X188864999Y-79474509D01*
X188562618Y-80079271D02*
X188562618Y-78809271D01*
X188562618Y-78809271D02*
X189046428Y-78809271D01*
X189046428Y-78809271D02*
X189167380Y-78869747D01*
X189167380Y-78869747D02*
X189227857Y-78930223D01*
X189227857Y-78930223D02*
X189288333Y-79051175D01*
X189288333Y-79051175D02*
X189288333Y-79232604D01*
X189288333Y-79232604D02*
X189227857Y-79353556D01*
X189227857Y-79353556D02*
X189167380Y-79414033D01*
X189167380Y-79414033D02*
X189046428Y-79474509D01*
X189046428Y-79474509D02*
X188562618Y-79474509D01*
X190376904Y-78809271D02*
X190134999Y-78809271D01*
X190134999Y-78809271D02*
X190014047Y-78869747D01*
X190014047Y-78869747D02*
X189953571Y-78930223D01*
X189953571Y-78930223D02*
X189832618Y-79111652D01*
X189832618Y-79111652D02*
X189772142Y-79353556D01*
X189772142Y-79353556D02*
X189772142Y-79837366D01*
X189772142Y-79837366D02*
X189832618Y-79958318D01*
X189832618Y-79958318D02*
X189893095Y-80018795D01*
X189893095Y-80018795D02*
X190014047Y-80079271D01*
X190014047Y-80079271D02*
X190255952Y-80079271D01*
X190255952Y-80079271D02*
X190376904Y-80018795D01*
X190376904Y-80018795D02*
X190437380Y-79958318D01*
X190437380Y-79958318D02*
X190497857Y-79837366D01*
X190497857Y-79837366D02*
X190497857Y-79534985D01*
X190497857Y-79534985D02*
X190437380Y-79414033D01*
X190437380Y-79414033D02*
X190376904Y-79353556D01*
X190376904Y-79353556D02*
X190255952Y-79293080D01*
X190255952Y-79293080D02*
X190014047Y-79293080D01*
X190014047Y-79293080D02*
X189893095Y-79353556D01*
X189893095Y-79353556D02*
X189832618Y-79414033D01*
X189832618Y-79414033D02*
X189772142Y-79534985D01*
X181032380Y-85309271D02*
X181032380Y-86337366D01*
X181032380Y-86337366D02*
X181092857Y-86458318D01*
X181092857Y-86458318D02*
X181153333Y-86518795D01*
X181153333Y-86518795D02*
X181274285Y-86579271D01*
X181274285Y-86579271D02*
X181516190Y-86579271D01*
X181516190Y-86579271D02*
X181637142Y-86518795D01*
X181637142Y-86518795D02*
X181697619Y-86458318D01*
X181697619Y-86458318D02*
X181758095Y-86337366D01*
X181758095Y-86337366D02*
X181758095Y-85309271D01*
X182544285Y-85853556D02*
X182423333Y-85793080D01*
X182423333Y-85793080D02*
X182362856Y-85732604D01*
X182362856Y-85732604D02*
X182302380Y-85611652D01*
X182302380Y-85611652D02*
X182302380Y-85551175D01*
X182302380Y-85551175D02*
X182362856Y-85430223D01*
X182362856Y-85430223D02*
X182423333Y-85369747D01*
X182423333Y-85369747D02*
X182544285Y-85309271D01*
X182544285Y-85309271D02*
X182786190Y-85309271D01*
X182786190Y-85309271D02*
X182907142Y-85369747D01*
X182907142Y-85369747D02*
X182967618Y-85430223D01*
X182967618Y-85430223D02*
X183028095Y-85551175D01*
X183028095Y-85551175D02*
X183028095Y-85611652D01*
X183028095Y-85611652D02*
X182967618Y-85732604D01*
X182967618Y-85732604D02*
X182907142Y-85793080D01*
X182907142Y-85793080D02*
X182786190Y-85853556D01*
X182786190Y-85853556D02*
X182544285Y-85853556D01*
X182544285Y-85853556D02*
X182423333Y-85914033D01*
X182423333Y-85914033D02*
X182362856Y-85974509D01*
X182362856Y-85974509D02*
X182302380Y-86095461D01*
X182302380Y-86095461D02*
X182302380Y-86337366D01*
X182302380Y-86337366D02*
X182362856Y-86458318D01*
X182362856Y-86458318D02*
X182423333Y-86518795D01*
X182423333Y-86518795D02*
X182544285Y-86579271D01*
X182544285Y-86579271D02*
X182786190Y-86579271D01*
X182786190Y-86579271D02*
X182907142Y-86518795D01*
X182907142Y-86518795D02*
X182967618Y-86458318D01*
X182967618Y-86458318D02*
X183028095Y-86337366D01*
X183028095Y-86337366D02*
X183028095Y-86095461D01*
X183028095Y-86095461D02*
X182967618Y-85974509D01*
X182967618Y-85974509D02*
X182907142Y-85914033D01*
X182907142Y-85914033D02*
X182786190Y-85853556D01*
X161183571Y-100079271D02*
X160760237Y-99474509D01*
X160457856Y-100079271D02*
X160457856Y-98809271D01*
X160457856Y-98809271D02*
X160941666Y-98809271D01*
X160941666Y-98809271D02*
X161062618Y-98869747D01*
X161062618Y-98869747D02*
X161123095Y-98930223D01*
X161123095Y-98930223D02*
X161183571Y-99051175D01*
X161183571Y-99051175D02*
X161183571Y-99232604D01*
X161183571Y-99232604D02*
X161123095Y-99353556D01*
X161123095Y-99353556D02*
X161062618Y-99414033D01*
X161062618Y-99414033D02*
X160941666Y-99474509D01*
X160941666Y-99474509D02*
X160457856Y-99474509D01*
X162393095Y-100079271D02*
X161667380Y-100079271D01*
X162030237Y-100079271D02*
X162030237Y-98809271D01*
X162030237Y-98809271D02*
X161909285Y-98990699D01*
X161909285Y-98990699D02*
X161788333Y-99111652D01*
X161788333Y-99111652D02*
X161667380Y-99172128D01*
X163602619Y-100079271D02*
X162876904Y-100079271D01*
X163239761Y-100079271D02*
X163239761Y-98809271D01*
X163239761Y-98809271D02*
X163118809Y-98990699D01*
X163118809Y-98990699D02*
X162997857Y-99111652D01*
X162997857Y-99111652D02*
X162876904Y-99172128D01*
D10*
X126166666Y-117454819D02*
X126166666Y-118169104D01*
X126166666Y-118169104D02*
X126119047Y-118311961D01*
X126119047Y-118311961D02*
X126023809Y-118407200D01*
X126023809Y-118407200D02*
X125880952Y-118454819D01*
X125880952Y-118454819D02*
X125785714Y-118454819D01*
X127166666Y-118454819D02*
X126595238Y-118454819D01*
X126880952Y-118454819D02*
X126880952Y-117454819D01*
X126880952Y-117454819D02*
X126785714Y-117597676D01*
X126785714Y-117597676D02*
X126690476Y-117692914D01*
X126690476Y-117692914D02*
X126595238Y-117740533D01*
D12*
X183576667Y-117309271D02*
X183576667Y-118216414D01*
X183576667Y-118216414D02*
X183516190Y-118397842D01*
X183516190Y-118397842D02*
X183395238Y-118518795D01*
X183395238Y-118518795D02*
X183213809Y-118579271D01*
X183213809Y-118579271D02*
X183092857Y-118579271D01*
X184725714Y-117732604D02*
X184725714Y-118579271D01*
X184423333Y-117248795D02*
X184120952Y-118155937D01*
X184120952Y-118155937D02*
X184907143Y-118155937D01*
D10*
X146238095Y-82254819D02*
X146238095Y-83064342D01*
X146238095Y-83064342D02*
X146285714Y-83159580D01*
X146285714Y-83159580D02*
X146333333Y-83207200D01*
X146333333Y-83207200D02*
X146428571Y-83254819D01*
X146428571Y-83254819D02*
X146619047Y-83254819D01*
X146619047Y-83254819D02*
X146714285Y-83207200D01*
X146714285Y-83207200D02*
X146761904Y-83159580D01*
X146761904Y-83159580D02*
X146809523Y-83064342D01*
X146809523Y-83064342D02*
X146809523Y-82254819D01*
X147809523Y-83254819D02*
X147238095Y-83254819D01*
X147523809Y-83254819D02*
X147523809Y-82254819D01*
X147523809Y-82254819D02*
X147428571Y-82397676D01*
X147428571Y-82397676D02*
X147333333Y-82492914D01*
X147333333Y-82492914D02*
X147238095Y-82540533D01*
D12*
X125183571Y-76958318D02*
X125123095Y-77018795D01*
X125123095Y-77018795D02*
X124941666Y-77079271D01*
X124941666Y-77079271D02*
X124820714Y-77079271D01*
X124820714Y-77079271D02*
X124639285Y-77018795D01*
X124639285Y-77018795D02*
X124518333Y-76897842D01*
X124518333Y-76897842D02*
X124457856Y-76776890D01*
X124457856Y-76776890D02*
X124397380Y-76534985D01*
X124397380Y-76534985D02*
X124397380Y-76353556D01*
X124397380Y-76353556D02*
X124457856Y-76111652D01*
X124457856Y-76111652D02*
X124518333Y-75990699D01*
X124518333Y-75990699D02*
X124639285Y-75869747D01*
X124639285Y-75869747D02*
X124820714Y-75809271D01*
X124820714Y-75809271D02*
X124941666Y-75809271D01*
X124941666Y-75809271D02*
X125123095Y-75869747D01*
X125123095Y-75869747D02*
X125183571Y-75930223D01*
X126393095Y-77079271D02*
X125667380Y-77079271D01*
X126030237Y-77079271D02*
X126030237Y-75809271D01*
X126030237Y-75809271D02*
X125909285Y-75990699D01*
X125909285Y-75990699D02*
X125788333Y-76111652D01*
X125788333Y-76111652D02*
X125667380Y-76172128D01*
X127602619Y-77079271D02*
X126876904Y-77079271D01*
X127239761Y-77079271D02*
X127239761Y-75809271D01*
X127239761Y-75809271D02*
X127118809Y-75990699D01*
X127118809Y-75990699D02*
X126997857Y-76111652D01*
X126997857Y-76111652D02*
X126876904Y-76172128D01*
X156288333Y-76958318D02*
X156227857Y-77018795D01*
X156227857Y-77018795D02*
X156046428Y-77079271D01*
X156046428Y-77079271D02*
X155925476Y-77079271D01*
X155925476Y-77079271D02*
X155744047Y-77018795D01*
X155744047Y-77018795D02*
X155623095Y-76897842D01*
X155623095Y-76897842D02*
X155562618Y-76776890D01*
X155562618Y-76776890D02*
X155502142Y-76534985D01*
X155502142Y-76534985D02*
X155502142Y-76353556D01*
X155502142Y-76353556D02*
X155562618Y-76111652D01*
X155562618Y-76111652D02*
X155623095Y-75990699D01*
X155623095Y-75990699D02*
X155744047Y-75869747D01*
X155744047Y-75869747D02*
X155925476Y-75809271D01*
X155925476Y-75809271D02*
X156046428Y-75809271D01*
X156046428Y-75809271D02*
X156227857Y-75869747D01*
X156227857Y-75869747D02*
X156288333Y-75930223D01*
X156772142Y-75930223D02*
X156832618Y-75869747D01*
X156832618Y-75869747D02*
X156953571Y-75809271D01*
X156953571Y-75809271D02*
X157255952Y-75809271D01*
X157255952Y-75809271D02*
X157376904Y-75869747D01*
X157376904Y-75869747D02*
X157437380Y-75930223D01*
X157437380Y-75930223D02*
X157497857Y-76051175D01*
X157497857Y-76051175D02*
X157497857Y-76172128D01*
X157497857Y-76172128D02*
X157437380Y-76353556D01*
X157437380Y-76353556D02*
X156711666Y-77079271D01*
X156711666Y-77079271D02*
X157497857Y-77079271D01*
D10*
X183238095Y-74954819D02*
X183238095Y-75764342D01*
X183238095Y-75764342D02*
X183285714Y-75859580D01*
X183285714Y-75859580D02*
X183333333Y-75907200D01*
X183333333Y-75907200D02*
X183428571Y-75954819D01*
X183428571Y-75954819D02*
X183619047Y-75954819D01*
X183619047Y-75954819D02*
X183714285Y-75907200D01*
X183714285Y-75907200D02*
X183761904Y-75859580D01*
X183761904Y-75859580D02*
X183809523Y-75764342D01*
X183809523Y-75764342D02*
X183809523Y-74954819D01*
X184714285Y-75288152D02*
X184714285Y-75954819D01*
X184476190Y-74907200D02*
X184238095Y-75621485D01*
X184238095Y-75621485D02*
X184857142Y-75621485D01*
D12*
X123076667Y-117309271D02*
X123076667Y-118216414D01*
X123076667Y-118216414D02*
X123016190Y-118397842D01*
X123016190Y-118397842D02*
X122895238Y-118518795D01*
X122895238Y-118518795D02*
X122713809Y-118579271D01*
X122713809Y-118579271D02*
X122592857Y-118579271D01*
X124286190Y-117309271D02*
X123681428Y-117309271D01*
X123681428Y-117309271D02*
X123620952Y-117914033D01*
X123620952Y-117914033D02*
X123681428Y-117853556D01*
X123681428Y-117853556D02*
X123802381Y-117793080D01*
X123802381Y-117793080D02*
X124104762Y-117793080D01*
X124104762Y-117793080D02*
X124225714Y-117853556D01*
X124225714Y-117853556D02*
X124286190Y-117914033D01*
X124286190Y-117914033D02*
X124346667Y-118034985D01*
X124346667Y-118034985D02*
X124346667Y-118337366D01*
X124346667Y-118337366D02*
X124286190Y-118458318D01*
X124286190Y-118458318D02*
X124225714Y-118518795D01*
X124225714Y-118518795D02*
X124104762Y-118579271D01*
X124104762Y-118579271D02*
X123802381Y-118579271D01*
X123802381Y-118579271D02*
X123681428Y-118518795D01*
X123681428Y-118518795D02*
X123620952Y-118458318D01*
X138532380Y-82809271D02*
X138532380Y-83837366D01*
X138532380Y-83837366D02*
X138592857Y-83958318D01*
X138592857Y-83958318D02*
X138653333Y-84018795D01*
X138653333Y-84018795D02*
X138774285Y-84079271D01*
X138774285Y-84079271D02*
X139016190Y-84079271D01*
X139016190Y-84079271D02*
X139137142Y-84018795D01*
X139137142Y-84018795D02*
X139197619Y-83958318D01*
X139197619Y-83958318D02*
X139258095Y-83837366D01*
X139258095Y-83837366D02*
X139258095Y-82809271D01*
X139923333Y-84079271D02*
X140165237Y-84079271D01*
X140165237Y-84079271D02*
X140286190Y-84018795D01*
X140286190Y-84018795D02*
X140346666Y-83958318D01*
X140346666Y-83958318D02*
X140467618Y-83776890D01*
X140467618Y-83776890D02*
X140528095Y-83534985D01*
X140528095Y-83534985D02*
X140528095Y-83051175D01*
X140528095Y-83051175D02*
X140467618Y-82930223D01*
X140467618Y-82930223D02*
X140407142Y-82869747D01*
X140407142Y-82869747D02*
X140286190Y-82809271D01*
X140286190Y-82809271D02*
X140044285Y-82809271D01*
X140044285Y-82809271D02*
X139923333Y-82869747D01*
X139923333Y-82869747D02*
X139862856Y-82930223D01*
X139862856Y-82930223D02*
X139802380Y-83051175D01*
X139802380Y-83051175D02*
X139802380Y-83353556D01*
X139802380Y-83353556D02*
X139862856Y-83474509D01*
X139862856Y-83474509D02*
X139923333Y-83534985D01*
X139923333Y-83534985D02*
X140044285Y-83595461D01*
X140044285Y-83595461D02*
X140286190Y-83595461D01*
X140286190Y-83595461D02*
X140407142Y-83534985D01*
X140407142Y-83534985D02*
X140467618Y-83474509D01*
X140467618Y-83474509D02*
X140528095Y-83353556D01*
X163288333Y-80079271D02*
X162864999Y-79474509D01*
X162562618Y-80079271D02*
X162562618Y-78809271D01*
X162562618Y-78809271D02*
X163046428Y-78809271D01*
X163046428Y-78809271D02*
X163167380Y-78869747D01*
X163167380Y-78869747D02*
X163227857Y-78930223D01*
X163227857Y-78930223D02*
X163288333Y-79051175D01*
X163288333Y-79051175D02*
X163288333Y-79232604D01*
X163288333Y-79232604D02*
X163227857Y-79353556D01*
X163227857Y-79353556D02*
X163167380Y-79414033D01*
X163167380Y-79414033D02*
X163046428Y-79474509D01*
X163046428Y-79474509D02*
X162562618Y-79474509D01*
X164437380Y-78809271D02*
X163832618Y-78809271D01*
X163832618Y-78809271D02*
X163772142Y-79414033D01*
X163772142Y-79414033D02*
X163832618Y-79353556D01*
X163832618Y-79353556D02*
X163953571Y-79293080D01*
X163953571Y-79293080D02*
X164255952Y-79293080D01*
X164255952Y-79293080D02*
X164376904Y-79353556D01*
X164376904Y-79353556D02*
X164437380Y-79414033D01*
X164437380Y-79414033D02*
X164497857Y-79534985D01*
X164497857Y-79534985D02*
X164497857Y-79837366D01*
X164497857Y-79837366D02*
X164437380Y-79958318D01*
X164437380Y-79958318D02*
X164376904Y-80018795D01*
X164376904Y-80018795D02*
X164255952Y-80079271D01*
X164255952Y-80079271D02*
X163953571Y-80079271D01*
X163953571Y-80079271D02*
X163832618Y-80018795D01*
X163832618Y-80018795D02*
X163772142Y-79958318D01*
D10*
X195458095Y-73804819D02*
X195458095Y-72804819D01*
X195458095Y-73281009D02*
X196029523Y-73281009D01*
X196029523Y-73804819D02*
X196029523Y-72804819D01*
X196458095Y-72900057D02*
X196505714Y-72852438D01*
X196505714Y-72852438D02*
X196600952Y-72804819D01*
X196600952Y-72804819D02*
X196839047Y-72804819D01*
X196839047Y-72804819D02*
X196934285Y-72852438D01*
X196934285Y-72852438D02*
X196981904Y-72900057D01*
X196981904Y-72900057D02*
X197029523Y-72995295D01*
X197029523Y-72995295D02*
X197029523Y-73090533D01*
X197029523Y-73090533D02*
X196981904Y-73233390D01*
X196981904Y-73233390D02*
X196410476Y-73804819D01*
X196410476Y-73804819D02*
X197029523Y-73804819D01*
X175238095Y-90454819D02*
X175238095Y-91264342D01*
X175238095Y-91264342D02*
X175285714Y-91359580D01*
X175285714Y-91359580D02*
X175333333Y-91407200D01*
X175333333Y-91407200D02*
X175428571Y-91454819D01*
X175428571Y-91454819D02*
X175619047Y-91454819D01*
X175619047Y-91454819D02*
X175714285Y-91407200D01*
X175714285Y-91407200D02*
X175761904Y-91359580D01*
X175761904Y-91359580D02*
X175809523Y-91264342D01*
X175809523Y-91264342D02*
X175809523Y-90454819D01*
X176190476Y-90454819D02*
X176809523Y-90454819D01*
X176809523Y-90454819D02*
X176476190Y-90835771D01*
X176476190Y-90835771D02*
X176619047Y-90835771D01*
X176619047Y-90835771D02*
X176714285Y-90883390D01*
X176714285Y-90883390D02*
X176761904Y-90931009D01*
X176761904Y-90931009D02*
X176809523Y-91026247D01*
X176809523Y-91026247D02*
X176809523Y-91264342D01*
X176809523Y-91264342D02*
X176761904Y-91359580D01*
X176761904Y-91359580D02*
X176714285Y-91407200D01*
X176714285Y-91407200D02*
X176619047Y-91454819D01*
X176619047Y-91454819D02*
X176333333Y-91454819D01*
X176333333Y-91454819D02*
X176238095Y-91407200D01*
X176238095Y-91407200D02*
X176190476Y-91359580D01*
M02*
