%TF.GenerationSoftware,KiCad,Pcbnew,10.0.5*%
%TF.CreationDate,2026-08-24T09:38:26+02:00*%
%TF.ProjectId,openmotorbridge_main,6f70656e-6d6f-4746-9f72-627269646765,v8.0*%
%TF.SameCoordinates,Original*%
%TF.FileFunction,AssemblyDrawing,Top*%
%FSLAX46Y46*%
G04 Gerber Fmt 4.6, Leading zero omitted, Abs format (unit mm)*
G04 Created by KiCad (PCBNEW 10.0.5) date 2026-08-24 09:38:26*
%MOMM*%
%LPD*%
G01*
G04 APERTURE LIST*
%ADD10C,0.150000*%
%ADD11C,0.120000*%
G04 APERTURE END LIST*
D10*
X135553571Y-116303069D02*
X136124999Y-116303069D01*
X135839285Y-117303069D02*
X135839285Y-116303069D01*
X137029761Y-117207830D02*
X136982142Y-117255450D01*
X136982142Y-117255450D02*
X136839285Y-117303069D01*
X136839285Y-117303069D02*
X136744047Y-117303069D01*
X136744047Y-117303069D02*
X136601190Y-117255450D01*
X136601190Y-117255450D02*
X136505952Y-117160211D01*
X136505952Y-117160211D02*
X136458333Y-117064973D01*
X136458333Y-117064973D02*
X136410714Y-116874497D01*
X136410714Y-116874497D02*
X136410714Y-116731640D01*
X136410714Y-116731640D02*
X136458333Y-116541164D01*
X136458333Y-116541164D02*
X136505952Y-116445926D01*
X136505952Y-116445926D02*
X136601190Y-116350688D01*
X136601190Y-116350688D02*
X136744047Y-116303069D01*
X136744047Y-116303069D02*
X136839285Y-116303069D01*
X136839285Y-116303069D02*
X136982142Y-116350688D01*
X136982142Y-116350688D02*
X137029761Y-116398307D01*
X137410714Y-117017354D02*
X137886904Y-117017354D01*
X137315476Y-117303069D02*
X137648809Y-116303069D01*
X137648809Y-116303069D02*
X137982142Y-117303069D01*
X138315476Y-117303069D02*
X138315476Y-116303069D01*
X138315476Y-116303069D02*
X138886904Y-117303069D01*
X138886904Y-117303069D02*
X138886904Y-116303069D01*
X139267857Y-116303069D02*
X139886904Y-116303069D01*
X139886904Y-116303069D02*
X139553571Y-116684021D01*
X139553571Y-116684021D02*
X139696428Y-116684021D01*
X139696428Y-116684021D02*
X139791666Y-116731640D01*
X139791666Y-116731640D02*
X139839285Y-116779259D01*
X139839285Y-116779259D02*
X139886904Y-116874497D01*
X139886904Y-116874497D02*
X139886904Y-117112592D01*
X139886904Y-117112592D02*
X139839285Y-117207830D01*
X139839285Y-117207830D02*
X139791666Y-117255450D01*
X139791666Y-117255450D02*
X139696428Y-117303069D01*
X139696428Y-117303069D02*
X139410714Y-117303069D01*
X139410714Y-117303069D02*
X139315476Y-117255450D01*
X139315476Y-117255450D02*
X139267857Y-117207830D01*
X140220238Y-116303069D02*
X140839285Y-116303069D01*
X140839285Y-116303069D02*
X140505952Y-116684021D01*
X140505952Y-116684021D02*
X140648809Y-116684021D01*
X140648809Y-116684021D02*
X140744047Y-116731640D01*
X140744047Y-116731640D02*
X140791666Y-116779259D01*
X140791666Y-116779259D02*
X140839285Y-116874497D01*
X140839285Y-116874497D02*
X140839285Y-117112592D01*
X140839285Y-117112592D02*
X140791666Y-117207830D01*
X140791666Y-117207830D02*
X140744047Y-117255450D01*
X140744047Y-117255450D02*
X140648809Y-117303069D01*
X140648809Y-117303069D02*
X140363095Y-117303069D01*
X140363095Y-117303069D02*
X140267857Y-117255450D01*
X140267857Y-117255450D02*
X140220238Y-117207830D01*
X141696428Y-116636402D02*
X141696428Y-117303069D01*
X141458333Y-116255450D02*
X141220238Y-116969735D01*
X141220238Y-116969735D02*
X141839285Y-116969735D01*
X142744047Y-116350688D02*
X142648809Y-116303069D01*
X142648809Y-116303069D02*
X142505952Y-116303069D01*
X142505952Y-116303069D02*
X142363095Y-116350688D01*
X142363095Y-116350688D02*
X142267857Y-116445926D01*
X142267857Y-116445926D02*
X142220238Y-116541164D01*
X142220238Y-116541164D02*
X142172619Y-116731640D01*
X142172619Y-116731640D02*
X142172619Y-116874497D01*
X142172619Y-116874497D02*
X142220238Y-117064973D01*
X142220238Y-117064973D02*
X142267857Y-117160211D01*
X142267857Y-117160211D02*
X142363095Y-117255450D01*
X142363095Y-117255450D02*
X142505952Y-117303069D01*
X142505952Y-117303069D02*
X142601190Y-117303069D01*
X142601190Y-117303069D02*
X142744047Y-117255450D01*
X142744047Y-117255450D02*
X142791666Y-117207830D01*
X142791666Y-117207830D02*
X142791666Y-116874497D01*
X142791666Y-116874497D02*
X142601190Y-116874497D01*
X162601191Y-99279259D02*
X162934524Y-99279259D01*
X163077381Y-99803069D02*
X162601191Y-99803069D01*
X162601191Y-99803069D02*
X162601191Y-98803069D01*
X162601191Y-98803069D02*
X163077381Y-98803069D01*
X163458334Y-99755450D02*
X163601191Y-99803069D01*
X163601191Y-99803069D02*
X163839286Y-99803069D01*
X163839286Y-99803069D02*
X163934524Y-99755450D01*
X163934524Y-99755450D02*
X163982143Y-99707830D01*
X163982143Y-99707830D02*
X164029762Y-99612592D01*
X164029762Y-99612592D02*
X164029762Y-99517354D01*
X164029762Y-99517354D02*
X163982143Y-99422116D01*
X163982143Y-99422116D02*
X163934524Y-99374497D01*
X163934524Y-99374497D02*
X163839286Y-99326878D01*
X163839286Y-99326878D02*
X163648810Y-99279259D01*
X163648810Y-99279259D02*
X163553572Y-99231640D01*
X163553572Y-99231640D02*
X163505953Y-99184021D01*
X163505953Y-99184021D02*
X163458334Y-99088783D01*
X163458334Y-99088783D02*
X163458334Y-98993545D01*
X163458334Y-98993545D02*
X163505953Y-98898307D01*
X163505953Y-98898307D02*
X163553572Y-98850688D01*
X163553572Y-98850688D02*
X163648810Y-98803069D01*
X163648810Y-98803069D02*
X163886905Y-98803069D01*
X163886905Y-98803069D02*
X164029762Y-98850688D01*
X164458334Y-99803069D02*
X164458334Y-98803069D01*
X164458334Y-98803069D02*
X164839286Y-98803069D01*
X164839286Y-98803069D02*
X164934524Y-98850688D01*
X164934524Y-98850688D02*
X164982143Y-98898307D01*
X164982143Y-98898307D02*
X165029762Y-98993545D01*
X165029762Y-98993545D02*
X165029762Y-99136402D01*
X165029762Y-99136402D02*
X164982143Y-99231640D01*
X164982143Y-99231640D02*
X164934524Y-99279259D01*
X164934524Y-99279259D02*
X164839286Y-99326878D01*
X164839286Y-99326878D02*
X164458334Y-99326878D01*
X165363096Y-98803069D02*
X165982143Y-98803069D01*
X165982143Y-98803069D02*
X165648810Y-99184021D01*
X165648810Y-99184021D02*
X165791667Y-99184021D01*
X165791667Y-99184021D02*
X165886905Y-99231640D01*
X165886905Y-99231640D02*
X165934524Y-99279259D01*
X165934524Y-99279259D02*
X165982143Y-99374497D01*
X165982143Y-99374497D02*
X165982143Y-99612592D01*
X165982143Y-99612592D02*
X165934524Y-99707830D01*
X165934524Y-99707830D02*
X165886905Y-99755450D01*
X165886905Y-99755450D02*
X165791667Y-99803069D01*
X165791667Y-99803069D02*
X165505953Y-99803069D01*
X165505953Y-99803069D02*
X165410715Y-99755450D01*
X165410715Y-99755450D02*
X165363096Y-99707830D01*
X166363096Y-98898307D02*
X166410715Y-98850688D01*
X166410715Y-98850688D02*
X166505953Y-98803069D01*
X166505953Y-98803069D02*
X166744048Y-98803069D01*
X166744048Y-98803069D02*
X166839286Y-98850688D01*
X166839286Y-98850688D02*
X166886905Y-98898307D01*
X166886905Y-98898307D02*
X166934524Y-98993545D01*
X166934524Y-98993545D02*
X166934524Y-99088783D01*
X166934524Y-99088783D02*
X166886905Y-99231640D01*
X166886905Y-99231640D02*
X166315477Y-99803069D01*
X166315477Y-99803069D02*
X166934524Y-99803069D01*
X167363096Y-99422116D02*
X168125001Y-99422116D01*
X168553572Y-99755450D02*
X168696429Y-99803069D01*
X168696429Y-99803069D02*
X168934524Y-99803069D01*
X168934524Y-99803069D02*
X169029762Y-99755450D01*
X169029762Y-99755450D02*
X169077381Y-99707830D01*
X169077381Y-99707830D02*
X169125000Y-99612592D01*
X169125000Y-99612592D02*
X169125000Y-99517354D01*
X169125000Y-99517354D02*
X169077381Y-99422116D01*
X169077381Y-99422116D02*
X169029762Y-99374497D01*
X169029762Y-99374497D02*
X168934524Y-99326878D01*
X168934524Y-99326878D02*
X168744048Y-99279259D01*
X168744048Y-99279259D02*
X168648810Y-99231640D01*
X168648810Y-99231640D02*
X168601191Y-99184021D01*
X168601191Y-99184021D02*
X168553572Y-99088783D01*
X168553572Y-99088783D02*
X168553572Y-98993545D01*
X168553572Y-98993545D02*
X168601191Y-98898307D01*
X168601191Y-98898307D02*
X168648810Y-98850688D01*
X168648810Y-98850688D02*
X168744048Y-98803069D01*
X168744048Y-98803069D02*
X168982143Y-98803069D01*
X168982143Y-98803069D02*
X169125000Y-98850688D01*
X169458334Y-98803069D02*
X170077381Y-98803069D01*
X170077381Y-98803069D02*
X169744048Y-99184021D01*
X169744048Y-99184021D02*
X169886905Y-99184021D01*
X169886905Y-99184021D02*
X169982143Y-99231640D01*
X169982143Y-99231640D02*
X170029762Y-99279259D01*
X170029762Y-99279259D02*
X170077381Y-99374497D01*
X170077381Y-99374497D02*
X170077381Y-99612592D01*
X170077381Y-99612592D02*
X170029762Y-99707830D01*
X170029762Y-99707830D02*
X169982143Y-99755450D01*
X169982143Y-99755450D02*
X169886905Y-99803069D01*
X169886905Y-99803069D02*
X169601191Y-99803069D01*
X169601191Y-99803069D02*
X169505953Y-99755450D01*
X169505953Y-99755450D02*
X169458334Y-99707830D01*
X170505953Y-99422116D02*
X171267858Y-99422116D01*
X171648810Y-98803069D02*
X171886905Y-99803069D01*
X171886905Y-99803069D02*
X172077381Y-99088783D01*
X172077381Y-99088783D02*
X172267857Y-99803069D01*
X172267857Y-99803069D02*
X172505953Y-98803069D01*
X173458333Y-99803069D02*
X173125000Y-99326878D01*
X172886905Y-99803069D02*
X172886905Y-98803069D01*
X172886905Y-98803069D02*
X173267857Y-98803069D01*
X173267857Y-98803069D02*
X173363095Y-98850688D01*
X173363095Y-98850688D02*
X173410714Y-98898307D01*
X173410714Y-98898307D02*
X173458333Y-98993545D01*
X173458333Y-98993545D02*
X173458333Y-99136402D01*
X173458333Y-99136402D02*
X173410714Y-99231640D01*
X173410714Y-99231640D02*
X173363095Y-99279259D01*
X173363095Y-99279259D02*
X173267857Y-99326878D01*
X173267857Y-99326878D02*
X172886905Y-99326878D01*
X174077381Y-98803069D02*
X174267857Y-98803069D01*
X174267857Y-98803069D02*
X174363095Y-98850688D01*
X174363095Y-98850688D02*
X174458333Y-98945926D01*
X174458333Y-98945926D02*
X174505952Y-99136402D01*
X174505952Y-99136402D02*
X174505952Y-99469735D01*
X174505952Y-99469735D02*
X174458333Y-99660211D01*
X174458333Y-99660211D02*
X174363095Y-99755450D01*
X174363095Y-99755450D02*
X174267857Y-99803069D01*
X174267857Y-99803069D02*
X174077381Y-99803069D01*
X174077381Y-99803069D02*
X173982143Y-99755450D01*
X173982143Y-99755450D02*
X173886905Y-99660211D01*
X173886905Y-99660211D02*
X173839286Y-99469735D01*
X173839286Y-99469735D02*
X173839286Y-99136402D01*
X173839286Y-99136402D02*
X173886905Y-98945926D01*
X173886905Y-98945926D02*
X173982143Y-98850688D01*
X173982143Y-98850688D02*
X174077381Y-98803069D01*
X175125000Y-98803069D02*
X175315476Y-98803069D01*
X175315476Y-98803069D02*
X175410714Y-98850688D01*
X175410714Y-98850688D02*
X175505952Y-98945926D01*
X175505952Y-98945926D02*
X175553571Y-99136402D01*
X175553571Y-99136402D02*
X175553571Y-99469735D01*
X175553571Y-99469735D02*
X175505952Y-99660211D01*
X175505952Y-99660211D02*
X175410714Y-99755450D01*
X175410714Y-99755450D02*
X175315476Y-99803069D01*
X175315476Y-99803069D02*
X175125000Y-99803069D01*
X175125000Y-99803069D02*
X175029762Y-99755450D01*
X175029762Y-99755450D02*
X174934524Y-99660211D01*
X174934524Y-99660211D02*
X174886905Y-99469735D01*
X174886905Y-99469735D02*
X174886905Y-99136402D01*
X174886905Y-99136402D02*
X174934524Y-98945926D01*
X174934524Y-98945926D02*
X175029762Y-98850688D01*
X175029762Y-98850688D02*
X175125000Y-98803069D01*
X175982143Y-99803069D02*
X175982143Y-98803069D01*
X175982143Y-98803069D02*
X176315476Y-99517354D01*
X176315476Y-99517354D02*
X176648809Y-98803069D01*
X176648809Y-98803069D02*
X176648809Y-99803069D01*
X177125000Y-99422116D02*
X177886905Y-99422116D01*
X178886904Y-99803069D02*
X178315476Y-99803069D01*
X178601190Y-99803069D02*
X178601190Y-98803069D01*
X178601190Y-98803069D02*
X178505952Y-98945926D01*
X178505952Y-98945926D02*
X178410714Y-99041164D01*
X178410714Y-99041164D02*
X178315476Y-99088783D01*
X156005952Y-77303069D02*
X156005952Y-78112592D01*
X156005952Y-78112592D02*
X156053571Y-78207830D01*
X156053571Y-78207830D02*
X156101190Y-78255450D01*
X156101190Y-78255450D02*
X156196428Y-78303069D01*
X156196428Y-78303069D02*
X156386904Y-78303069D01*
X156386904Y-78303069D02*
X156482142Y-78255450D01*
X156482142Y-78255450D02*
X156529761Y-78207830D01*
X156529761Y-78207830D02*
X156577380Y-78112592D01*
X156577380Y-78112592D02*
X156577380Y-77303069D01*
X157005952Y-78255450D02*
X157148809Y-78303069D01*
X157148809Y-78303069D02*
X157386904Y-78303069D01*
X157386904Y-78303069D02*
X157482142Y-78255450D01*
X157482142Y-78255450D02*
X157529761Y-78207830D01*
X157529761Y-78207830D02*
X157577380Y-78112592D01*
X157577380Y-78112592D02*
X157577380Y-78017354D01*
X157577380Y-78017354D02*
X157529761Y-77922116D01*
X157529761Y-77922116D02*
X157482142Y-77874497D01*
X157482142Y-77874497D02*
X157386904Y-77826878D01*
X157386904Y-77826878D02*
X157196428Y-77779259D01*
X157196428Y-77779259D02*
X157101190Y-77731640D01*
X157101190Y-77731640D02*
X157053571Y-77684021D01*
X157053571Y-77684021D02*
X157005952Y-77588783D01*
X157005952Y-77588783D02*
X157005952Y-77493545D01*
X157005952Y-77493545D02*
X157053571Y-77398307D01*
X157053571Y-77398307D02*
X157101190Y-77350688D01*
X157101190Y-77350688D02*
X157196428Y-77303069D01*
X157196428Y-77303069D02*
X157434523Y-77303069D01*
X157434523Y-77303069D02*
X157577380Y-77350688D01*
X158339285Y-77779259D02*
X158482142Y-77826878D01*
X158482142Y-77826878D02*
X158529761Y-77874497D01*
X158529761Y-77874497D02*
X158577380Y-77969735D01*
X158577380Y-77969735D02*
X158577380Y-78112592D01*
X158577380Y-78112592D02*
X158529761Y-78207830D01*
X158529761Y-78207830D02*
X158482142Y-78255450D01*
X158482142Y-78255450D02*
X158386904Y-78303069D01*
X158386904Y-78303069D02*
X158005952Y-78303069D01*
X158005952Y-78303069D02*
X158005952Y-77303069D01*
X158005952Y-77303069D02*
X158339285Y-77303069D01*
X158339285Y-77303069D02*
X158434523Y-77350688D01*
X158434523Y-77350688D02*
X158482142Y-77398307D01*
X158482142Y-77398307D02*
X158529761Y-77493545D01*
X158529761Y-77493545D02*
X158529761Y-77588783D01*
X158529761Y-77588783D02*
X158482142Y-77684021D01*
X158482142Y-77684021D02*
X158434523Y-77731640D01*
X158434523Y-77731640D02*
X158339285Y-77779259D01*
X158339285Y-77779259D02*
X158005952Y-77779259D01*
X158767857Y-78398307D02*
X159529761Y-78398307D01*
X160339285Y-78207830D02*
X160291666Y-78255450D01*
X160291666Y-78255450D02*
X160148809Y-78303069D01*
X160148809Y-78303069D02*
X160053571Y-78303069D01*
X160053571Y-78303069D02*
X159910714Y-78255450D01*
X159910714Y-78255450D02*
X159815476Y-78160211D01*
X159815476Y-78160211D02*
X159767857Y-78064973D01*
X159767857Y-78064973D02*
X159720238Y-77874497D01*
X159720238Y-77874497D02*
X159720238Y-77731640D01*
X159720238Y-77731640D02*
X159767857Y-77541164D01*
X159767857Y-77541164D02*
X159815476Y-77445926D01*
X159815476Y-77445926D02*
X159910714Y-77350688D01*
X159910714Y-77350688D02*
X160053571Y-77303069D01*
X160053571Y-77303069D02*
X160148809Y-77303069D01*
X160148809Y-77303069D02*
X160291666Y-77350688D01*
X160291666Y-77350688D02*
X160339285Y-77398307D01*
X160529762Y-78398307D02*
X161291666Y-78398307D01*
X161529762Y-78303069D02*
X161529762Y-77303069D01*
X162005952Y-78303069D02*
X162005952Y-77303069D01*
X162005952Y-77303069D02*
X162386904Y-77303069D01*
X162386904Y-77303069D02*
X162482142Y-77350688D01*
X162482142Y-77350688D02*
X162529761Y-77398307D01*
X162529761Y-77398307D02*
X162577380Y-77493545D01*
X162577380Y-77493545D02*
X162577380Y-77636402D01*
X162577380Y-77636402D02*
X162529761Y-77731640D01*
X162529761Y-77731640D02*
X162482142Y-77779259D01*
X162482142Y-77779259D02*
X162386904Y-77826878D01*
X162386904Y-77826878D02*
X162005952Y-77826878D01*
X163434523Y-77303069D02*
X163244047Y-77303069D01*
X163244047Y-77303069D02*
X163148809Y-77350688D01*
X163148809Y-77350688D02*
X163101190Y-77398307D01*
X163101190Y-77398307D02*
X163005952Y-77541164D01*
X163005952Y-77541164D02*
X162958333Y-77731640D01*
X162958333Y-77731640D02*
X162958333Y-78112592D01*
X162958333Y-78112592D02*
X163005952Y-78207830D01*
X163005952Y-78207830D02*
X163053571Y-78255450D01*
X163053571Y-78255450D02*
X163148809Y-78303069D01*
X163148809Y-78303069D02*
X163339285Y-78303069D01*
X163339285Y-78303069D02*
X163434523Y-78255450D01*
X163434523Y-78255450D02*
X163482142Y-78207830D01*
X163482142Y-78207830D02*
X163529761Y-78112592D01*
X163529761Y-78112592D02*
X163529761Y-77874497D01*
X163529761Y-77874497D02*
X163482142Y-77779259D01*
X163482142Y-77779259D02*
X163434523Y-77731640D01*
X163434523Y-77731640D02*
X163339285Y-77684021D01*
X163339285Y-77684021D02*
X163148809Y-77684021D01*
X163148809Y-77684021D02*
X163053571Y-77731640D01*
X163053571Y-77731640D02*
X163005952Y-77779259D01*
X163005952Y-77779259D02*
X162958333Y-77874497D01*
X163863095Y-77303069D02*
X164529761Y-77303069D01*
X164529761Y-77303069D02*
X164101190Y-78303069D01*
D11*
X158486904Y-116993057D02*
X158601190Y-117031152D01*
X158601190Y-117031152D02*
X158639285Y-117069248D01*
X158639285Y-117069248D02*
X158677381Y-117145438D01*
X158677381Y-117145438D02*
X158677381Y-117259724D01*
X158677381Y-117259724D02*
X158639285Y-117335914D01*
X158639285Y-117335914D02*
X158601190Y-117374010D01*
X158601190Y-117374010D02*
X158525000Y-117412105D01*
X158525000Y-117412105D02*
X158220238Y-117412105D01*
X158220238Y-117412105D02*
X158220238Y-116612105D01*
X158220238Y-116612105D02*
X158486904Y-116612105D01*
X158486904Y-116612105D02*
X158563095Y-116650200D01*
X158563095Y-116650200D02*
X158601190Y-116688295D01*
X158601190Y-116688295D02*
X158639285Y-116764486D01*
X158639285Y-116764486D02*
X158639285Y-116840676D01*
X158639285Y-116840676D02*
X158601190Y-116916867D01*
X158601190Y-116916867D02*
X158563095Y-116954962D01*
X158563095Y-116954962D02*
X158486904Y-116993057D01*
X158486904Y-116993057D02*
X158220238Y-116993057D01*
X159020238Y-117412105D02*
X159020238Y-116612105D01*
X159020238Y-116612105D02*
X159286904Y-117183533D01*
X159286904Y-117183533D02*
X159553571Y-116612105D01*
X159553571Y-116612105D02*
X159553571Y-117412105D01*
X159934524Y-117412105D02*
X159934524Y-116612105D01*
X160277380Y-116688295D02*
X160315476Y-116650200D01*
X160315476Y-116650200D02*
X160391666Y-116612105D01*
X160391666Y-116612105D02*
X160582142Y-116612105D01*
X160582142Y-116612105D02*
X160658333Y-116650200D01*
X160658333Y-116650200D02*
X160696428Y-116688295D01*
X160696428Y-116688295D02*
X160734523Y-116764486D01*
X160734523Y-116764486D02*
X160734523Y-116840676D01*
X160734523Y-116840676D02*
X160696428Y-116954962D01*
X160696428Y-116954962D02*
X160239285Y-117412105D01*
X160239285Y-117412105D02*
X160734523Y-117412105D01*
X161001190Y-116612105D02*
X161534524Y-116612105D01*
X161534524Y-116612105D02*
X161191666Y-117412105D01*
X161991667Y-116612105D02*
X162067857Y-116612105D01*
X162067857Y-116612105D02*
X162144048Y-116650200D01*
X162144048Y-116650200D02*
X162182143Y-116688295D01*
X162182143Y-116688295D02*
X162220238Y-116764486D01*
X162220238Y-116764486D02*
X162258333Y-116916867D01*
X162258333Y-116916867D02*
X162258333Y-117107343D01*
X162258333Y-117107343D02*
X162220238Y-117259724D01*
X162220238Y-117259724D02*
X162182143Y-117335914D01*
X162182143Y-117335914D02*
X162144048Y-117374010D01*
X162144048Y-117374010D02*
X162067857Y-117412105D01*
X162067857Y-117412105D02*
X161991667Y-117412105D01*
X161991667Y-117412105D02*
X161915476Y-117374010D01*
X161915476Y-117374010D02*
X161877381Y-117335914D01*
X161877381Y-117335914D02*
X161839286Y-117259724D01*
X161839286Y-117259724D02*
X161801190Y-117107343D01*
X161801190Y-117107343D02*
X161801190Y-116916867D01*
X161801190Y-116916867D02*
X161839286Y-116764486D01*
X161839286Y-116764486D02*
X161877381Y-116688295D01*
X161877381Y-116688295D02*
X161915476Y-116650200D01*
X161915476Y-116650200D02*
X161991667Y-116612105D01*
D10*
X160482143Y-115803069D02*
X160482143Y-114803069D01*
X160482143Y-114803069D02*
X160815476Y-115517354D01*
X160815476Y-115517354D02*
X161148809Y-114803069D01*
X161148809Y-114803069D02*
X161148809Y-115803069D01*
X161625000Y-115803069D02*
X161625000Y-115136402D01*
X161625000Y-114803069D02*
X161577381Y-114850688D01*
X161577381Y-114850688D02*
X161625000Y-114898307D01*
X161625000Y-114898307D02*
X161672619Y-114850688D01*
X161672619Y-114850688D02*
X161625000Y-114803069D01*
X161625000Y-114803069D02*
X161625000Y-114898307D01*
X162529761Y-115755450D02*
X162434523Y-115803069D01*
X162434523Y-115803069D02*
X162244047Y-115803069D01*
X162244047Y-115803069D02*
X162148809Y-115755450D01*
X162148809Y-115755450D02*
X162101190Y-115707830D01*
X162101190Y-115707830D02*
X162053571Y-115612592D01*
X162053571Y-115612592D02*
X162053571Y-115326878D01*
X162053571Y-115326878D02*
X162101190Y-115231640D01*
X162101190Y-115231640D02*
X162148809Y-115184021D01*
X162148809Y-115184021D02*
X162244047Y-115136402D01*
X162244047Y-115136402D02*
X162434523Y-115136402D01*
X162434523Y-115136402D02*
X162529761Y-115184021D01*
X162958333Y-115803069D02*
X162958333Y-115136402D01*
X162958333Y-115326878D02*
X163005952Y-115231640D01*
X163005952Y-115231640D02*
X163053571Y-115184021D01*
X163053571Y-115184021D02*
X163148809Y-115136402D01*
X163148809Y-115136402D02*
X163244047Y-115136402D01*
X163720238Y-115803069D02*
X163625000Y-115755450D01*
X163625000Y-115755450D02*
X163577381Y-115707830D01*
X163577381Y-115707830D02*
X163529762Y-115612592D01*
X163529762Y-115612592D02*
X163529762Y-115326878D01*
X163529762Y-115326878D02*
X163577381Y-115231640D01*
X163577381Y-115231640D02*
X163625000Y-115184021D01*
X163625000Y-115184021D02*
X163720238Y-115136402D01*
X163720238Y-115136402D02*
X163863095Y-115136402D01*
X163863095Y-115136402D02*
X163958333Y-115184021D01*
X163958333Y-115184021D02*
X164005952Y-115231640D01*
X164005952Y-115231640D02*
X164053571Y-115326878D01*
X164053571Y-115326878D02*
X164053571Y-115612592D01*
X164053571Y-115612592D02*
X164005952Y-115707830D01*
X164005952Y-115707830D02*
X163958333Y-115755450D01*
X163958333Y-115755450D02*
X163863095Y-115803069D01*
X163863095Y-115803069D02*
X163720238Y-115803069D01*
X164434524Y-115755450D02*
X164577381Y-115803069D01*
X164577381Y-115803069D02*
X164815476Y-115803069D01*
X164815476Y-115803069D02*
X164910714Y-115755450D01*
X164910714Y-115755450D02*
X164958333Y-115707830D01*
X164958333Y-115707830D02*
X165005952Y-115612592D01*
X165005952Y-115612592D02*
X165005952Y-115517354D01*
X165005952Y-115517354D02*
X164958333Y-115422116D01*
X164958333Y-115422116D02*
X164910714Y-115374497D01*
X164910714Y-115374497D02*
X164815476Y-115326878D01*
X164815476Y-115326878D02*
X164625000Y-115279259D01*
X164625000Y-115279259D02*
X164529762Y-115231640D01*
X164529762Y-115231640D02*
X164482143Y-115184021D01*
X164482143Y-115184021D02*
X164434524Y-115088783D01*
X164434524Y-115088783D02*
X164434524Y-114993545D01*
X164434524Y-114993545D02*
X164482143Y-114898307D01*
X164482143Y-114898307D02*
X164529762Y-114850688D01*
X164529762Y-114850688D02*
X164625000Y-114803069D01*
X164625000Y-114803069D02*
X164863095Y-114803069D01*
X164863095Y-114803069D02*
X165005952Y-114850688D01*
X165434524Y-115803069D02*
X165434524Y-114803069D01*
X165434524Y-114803069D02*
X165672619Y-114803069D01*
X165672619Y-114803069D02*
X165815476Y-114850688D01*
X165815476Y-114850688D02*
X165910714Y-114945926D01*
X165910714Y-114945926D02*
X165958333Y-115041164D01*
X165958333Y-115041164D02*
X166005952Y-115231640D01*
X166005952Y-115231640D02*
X166005952Y-115374497D01*
X166005952Y-115374497D02*
X165958333Y-115564973D01*
X165958333Y-115564973D02*
X165910714Y-115660211D01*
X165910714Y-115660211D02*
X165815476Y-115755450D01*
X165815476Y-115755450D02*
X165672619Y-115803069D01*
X165672619Y-115803069D02*
X165434524Y-115803069D01*
X166196429Y-115898307D02*
X166958333Y-115898307D01*
X167625000Y-115136402D02*
X167625000Y-115803069D01*
X167386905Y-114755450D02*
X167148810Y-115469735D01*
X167148810Y-115469735D02*
X167767857Y-115469735D01*
X168482143Y-115279259D02*
X168625000Y-115326878D01*
X168625000Y-115326878D02*
X168672619Y-115374497D01*
X168672619Y-115374497D02*
X168720238Y-115469735D01*
X168720238Y-115469735D02*
X168720238Y-115612592D01*
X168720238Y-115612592D02*
X168672619Y-115707830D01*
X168672619Y-115707830D02*
X168625000Y-115755450D01*
X168625000Y-115755450D02*
X168529762Y-115803069D01*
X168529762Y-115803069D02*
X168148810Y-115803069D01*
X168148810Y-115803069D02*
X168148810Y-114803069D01*
X168148810Y-114803069D02*
X168482143Y-114803069D01*
X168482143Y-114803069D02*
X168577381Y-114850688D01*
X168577381Y-114850688D02*
X168625000Y-114898307D01*
X168625000Y-114898307D02*
X168672619Y-114993545D01*
X168672619Y-114993545D02*
X168672619Y-115088783D01*
X168672619Y-115088783D02*
X168625000Y-115184021D01*
X168625000Y-115184021D02*
X168577381Y-115231640D01*
X168577381Y-115231640D02*
X168482143Y-115279259D01*
X168482143Y-115279259D02*
X168148810Y-115279259D01*
X169148810Y-115803069D02*
X169148810Y-115136402D01*
X169148810Y-114803069D02*
X169101191Y-114850688D01*
X169101191Y-114850688D02*
X169148810Y-114898307D01*
X169148810Y-114898307D02*
X169196429Y-114850688D01*
X169196429Y-114850688D02*
X169148810Y-114803069D01*
X169148810Y-114803069D02*
X169148810Y-114898307D01*
X169482143Y-115136402D02*
X169863095Y-115136402D01*
X169625000Y-114803069D02*
X169625000Y-115660211D01*
X169625000Y-115660211D02*
X169672619Y-115755450D01*
X169672619Y-115755450D02*
X169767857Y-115803069D01*
X169767857Y-115803069D02*
X169863095Y-115803069D01*
X169958334Y-115898307D02*
X170720238Y-115898307D01*
X170910715Y-115755450D02*
X171053572Y-115803069D01*
X171053572Y-115803069D02*
X171291667Y-115803069D01*
X171291667Y-115803069D02*
X171386905Y-115755450D01*
X171386905Y-115755450D02*
X171434524Y-115707830D01*
X171434524Y-115707830D02*
X171482143Y-115612592D01*
X171482143Y-115612592D02*
X171482143Y-115517354D01*
X171482143Y-115517354D02*
X171434524Y-115422116D01*
X171434524Y-115422116D02*
X171386905Y-115374497D01*
X171386905Y-115374497D02*
X171291667Y-115326878D01*
X171291667Y-115326878D02*
X171101191Y-115279259D01*
X171101191Y-115279259D02*
X171005953Y-115231640D01*
X171005953Y-115231640D02*
X170958334Y-115184021D01*
X170958334Y-115184021D02*
X170910715Y-115088783D01*
X170910715Y-115088783D02*
X170910715Y-114993545D01*
X170910715Y-114993545D02*
X170958334Y-114898307D01*
X170958334Y-114898307D02*
X171005953Y-114850688D01*
X171005953Y-114850688D02*
X171101191Y-114803069D01*
X171101191Y-114803069D02*
X171339286Y-114803069D01*
X171339286Y-114803069D02*
X171482143Y-114850688D01*
X171910715Y-115803069D02*
X171910715Y-114803069D01*
X171910715Y-114803069D02*
X172148810Y-114803069D01*
X172148810Y-114803069D02*
X172291667Y-114850688D01*
X172291667Y-114850688D02*
X172386905Y-114945926D01*
X172386905Y-114945926D02*
X172434524Y-115041164D01*
X172434524Y-115041164D02*
X172482143Y-115231640D01*
X172482143Y-115231640D02*
X172482143Y-115374497D01*
X172482143Y-115374497D02*
X172434524Y-115564973D01*
X172434524Y-115564973D02*
X172386905Y-115660211D01*
X172386905Y-115660211D02*
X172291667Y-115755450D01*
X172291667Y-115755450D02*
X172148810Y-115803069D01*
X172148810Y-115803069D02*
X171910715Y-115803069D01*
X172910715Y-115803069D02*
X172910715Y-114803069D01*
X173577381Y-114803069D02*
X173767857Y-114803069D01*
X173767857Y-114803069D02*
X173863095Y-114850688D01*
X173863095Y-114850688D02*
X173958333Y-114945926D01*
X173958333Y-114945926D02*
X174005952Y-115136402D01*
X174005952Y-115136402D02*
X174005952Y-115469735D01*
X174005952Y-115469735D02*
X173958333Y-115660211D01*
X173958333Y-115660211D02*
X173863095Y-115755450D01*
X173863095Y-115755450D02*
X173767857Y-115803069D01*
X173767857Y-115803069D02*
X173577381Y-115803069D01*
X173577381Y-115803069D02*
X173482143Y-115755450D01*
X173482143Y-115755450D02*
X173386905Y-115660211D01*
X173386905Y-115660211D02*
X173339286Y-115469735D01*
X173339286Y-115469735D02*
X173339286Y-115136402D01*
X173339286Y-115136402D02*
X173386905Y-114945926D01*
X173386905Y-114945926D02*
X173482143Y-114850688D01*
X173482143Y-114850688D02*
X173577381Y-114803069D01*
D11*
X157572618Y-89212105D02*
X157763094Y-90012105D01*
X157763094Y-90012105D02*
X157915475Y-89440676D01*
X157915475Y-89440676D02*
X158067856Y-90012105D01*
X158067856Y-90012105D02*
X158258333Y-89212105D01*
X158524999Y-89974010D02*
X158639285Y-90012105D01*
X158639285Y-90012105D02*
X158829761Y-90012105D01*
X158829761Y-90012105D02*
X158905952Y-89974010D01*
X158905952Y-89974010D02*
X158944047Y-89935914D01*
X158944047Y-89935914D02*
X158982142Y-89859724D01*
X158982142Y-89859724D02*
X158982142Y-89783533D01*
X158982142Y-89783533D02*
X158944047Y-89707343D01*
X158944047Y-89707343D02*
X158905952Y-89669248D01*
X158905952Y-89669248D02*
X158829761Y-89631152D01*
X158829761Y-89631152D02*
X158677380Y-89593057D01*
X158677380Y-89593057D02*
X158601190Y-89554962D01*
X158601190Y-89554962D02*
X158563095Y-89516867D01*
X158563095Y-89516867D02*
X158524999Y-89440676D01*
X158524999Y-89440676D02*
X158524999Y-89364486D01*
X158524999Y-89364486D02*
X158563095Y-89288295D01*
X158563095Y-89288295D02*
X158601190Y-89250200D01*
X158601190Y-89250200D02*
X158677380Y-89212105D01*
X158677380Y-89212105D02*
X158867857Y-89212105D01*
X158867857Y-89212105D02*
X158982142Y-89250200D01*
X159286904Y-89288295D02*
X159325000Y-89250200D01*
X159325000Y-89250200D02*
X159401190Y-89212105D01*
X159401190Y-89212105D02*
X159591666Y-89212105D01*
X159591666Y-89212105D02*
X159667857Y-89250200D01*
X159667857Y-89250200D02*
X159705952Y-89288295D01*
X159705952Y-89288295D02*
X159744047Y-89364486D01*
X159744047Y-89364486D02*
X159744047Y-89440676D01*
X159744047Y-89440676D02*
X159705952Y-89554962D01*
X159705952Y-89554962D02*
X159248809Y-90012105D01*
X159248809Y-90012105D02*
X159744047Y-90012105D01*
X160201190Y-89554962D02*
X160125000Y-89516867D01*
X160125000Y-89516867D02*
X160086905Y-89478771D01*
X160086905Y-89478771D02*
X160048809Y-89402581D01*
X160048809Y-89402581D02*
X160048809Y-89364486D01*
X160048809Y-89364486D02*
X160086905Y-89288295D01*
X160086905Y-89288295D02*
X160125000Y-89250200D01*
X160125000Y-89250200D02*
X160201190Y-89212105D01*
X160201190Y-89212105D02*
X160353571Y-89212105D01*
X160353571Y-89212105D02*
X160429762Y-89250200D01*
X160429762Y-89250200D02*
X160467857Y-89288295D01*
X160467857Y-89288295D02*
X160505952Y-89364486D01*
X160505952Y-89364486D02*
X160505952Y-89402581D01*
X160505952Y-89402581D02*
X160467857Y-89478771D01*
X160467857Y-89478771D02*
X160429762Y-89516867D01*
X160429762Y-89516867D02*
X160353571Y-89554962D01*
X160353571Y-89554962D02*
X160201190Y-89554962D01*
X160201190Y-89554962D02*
X160125000Y-89593057D01*
X160125000Y-89593057D02*
X160086905Y-89631152D01*
X160086905Y-89631152D02*
X160048809Y-89707343D01*
X160048809Y-89707343D02*
X160048809Y-89859724D01*
X160048809Y-89859724D02*
X160086905Y-89935914D01*
X160086905Y-89935914D02*
X160125000Y-89974010D01*
X160125000Y-89974010D02*
X160201190Y-90012105D01*
X160201190Y-90012105D02*
X160353571Y-90012105D01*
X160353571Y-90012105D02*
X160429762Y-89974010D01*
X160429762Y-89974010D02*
X160467857Y-89935914D01*
X160467857Y-89935914D02*
X160505952Y-89859724D01*
X160505952Y-89859724D02*
X160505952Y-89707343D01*
X160505952Y-89707343D02*
X160467857Y-89631152D01*
X160467857Y-89631152D02*
X160429762Y-89593057D01*
X160429762Y-89593057D02*
X160353571Y-89554962D01*
X161267857Y-90012105D02*
X160810714Y-90012105D01*
X161039286Y-90012105D02*
X161039286Y-89212105D01*
X161039286Y-89212105D02*
X160963095Y-89326390D01*
X160963095Y-89326390D02*
X160886905Y-89402581D01*
X160886905Y-89402581D02*
X160810714Y-89440676D01*
X161572619Y-89288295D02*
X161610715Y-89250200D01*
X161610715Y-89250200D02*
X161686905Y-89212105D01*
X161686905Y-89212105D02*
X161877381Y-89212105D01*
X161877381Y-89212105D02*
X161953572Y-89250200D01*
X161953572Y-89250200D02*
X161991667Y-89288295D01*
X161991667Y-89288295D02*
X162029762Y-89364486D01*
X162029762Y-89364486D02*
X162029762Y-89440676D01*
X162029762Y-89440676D02*
X161991667Y-89554962D01*
X161991667Y-89554962D02*
X161534524Y-90012105D01*
X161534524Y-90012105D02*
X162029762Y-90012105D01*
X162639286Y-89593057D02*
X162753572Y-89631152D01*
X162753572Y-89631152D02*
X162791667Y-89669248D01*
X162791667Y-89669248D02*
X162829763Y-89745438D01*
X162829763Y-89745438D02*
X162829763Y-89859724D01*
X162829763Y-89859724D02*
X162791667Y-89935914D01*
X162791667Y-89935914D02*
X162753572Y-89974010D01*
X162753572Y-89974010D02*
X162677382Y-90012105D01*
X162677382Y-90012105D02*
X162372620Y-90012105D01*
X162372620Y-90012105D02*
X162372620Y-89212105D01*
X162372620Y-89212105D02*
X162639286Y-89212105D01*
X162639286Y-89212105D02*
X162715477Y-89250200D01*
X162715477Y-89250200D02*
X162753572Y-89288295D01*
X162753572Y-89288295D02*
X162791667Y-89364486D01*
X162791667Y-89364486D02*
X162791667Y-89440676D01*
X162791667Y-89440676D02*
X162753572Y-89516867D01*
X162753572Y-89516867D02*
X162715477Y-89554962D01*
X162715477Y-89554962D02*
X162639286Y-89593057D01*
X162639286Y-89593057D02*
X162372620Y-89593057D01*
D10*
X100363095Y-99803069D02*
X100363095Y-98803069D01*
X100363095Y-99279259D02*
X100934523Y-99279259D01*
X100934523Y-99803069D02*
X100934523Y-98803069D01*
X101410714Y-99803069D02*
X101410714Y-98803069D01*
X101410714Y-98803069D02*
X101648809Y-98803069D01*
X101648809Y-98803069D02*
X101791666Y-98850688D01*
X101791666Y-98850688D02*
X101886904Y-98945926D01*
X101886904Y-98945926D02*
X101934523Y-99041164D01*
X101934523Y-99041164D02*
X101982142Y-99231640D01*
X101982142Y-99231640D02*
X101982142Y-99374497D01*
X101982142Y-99374497D02*
X101934523Y-99564973D01*
X101934523Y-99564973D02*
X101886904Y-99660211D01*
X101886904Y-99660211D02*
X101791666Y-99755450D01*
X101791666Y-99755450D02*
X101648809Y-99803069D01*
X101648809Y-99803069D02*
X101410714Y-99803069D01*
X102363095Y-98898307D02*
X102410714Y-98850688D01*
X102410714Y-98850688D02*
X102505952Y-98803069D01*
X102505952Y-98803069D02*
X102744047Y-98803069D01*
X102744047Y-98803069D02*
X102839285Y-98850688D01*
X102839285Y-98850688D02*
X102886904Y-98898307D01*
X102886904Y-98898307D02*
X102934523Y-98993545D01*
X102934523Y-98993545D02*
X102934523Y-99088783D01*
X102934523Y-99088783D02*
X102886904Y-99231640D01*
X102886904Y-99231640D02*
X102315476Y-99803069D01*
X102315476Y-99803069D02*
X102934523Y-99803069D01*
X103791666Y-98803069D02*
X103601190Y-98803069D01*
X103601190Y-98803069D02*
X103505952Y-98850688D01*
X103505952Y-98850688D02*
X103458333Y-98898307D01*
X103458333Y-98898307D02*
X103363095Y-99041164D01*
X103363095Y-99041164D02*
X103315476Y-99231640D01*
X103315476Y-99231640D02*
X103315476Y-99612592D01*
X103315476Y-99612592D02*
X103363095Y-99707830D01*
X103363095Y-99707830D02*
X103410714Y-99755450D01*
X103410714Y-99755450D02*
X103505952Y-99803069D01*
X103505952Y-99803069D02*
X103696428Y-99803069D01*
X103696428Y-99803069D02*
X103791666Y-99755450D01*
X103791666Y-99755450D02*
X103839285Y-99707830D01*
X103839285Y-99707830D02*
X103886904Y-99612592D01*
X103886904Y-99612592D02*
X103886904Y-99374497D01*
X103886904Y-99374497D02*
X103839285Y-99279259D01*
X103839285Y-99279259D02*
X103791666Y-99231640D01*
X103791666Y-99231640D02*
X103696428Y-99184021D01*
X103696428Y-99184021D02*
X103505952Y-99184021D01*
X103505952Y-99184021D02*
X103410714Y-99231640D01*
X103410714Y-99231640D02*
X103363095Y-99279259D01*
X103363095Y-99279259D02*
X103315476Y-99374497D01*
X104077381Y-99898307D02*
X104839285Y-99898307D01*
X105410714Y-99279259D02*
X105077381Y-99279259D01*
X105077381Y-99803069D02*
X105077381Y-98803069D01*
X105077381Y-98803069D02*
X105553571Y-98803069D01*
X105934524Y-99279259D02*
X106267857Y-99279259D01*
X106410714Y-99803069D02*
X105934524Y-99803069D01*
X105934524Y-99803069D02*
X105934524Y-98803069D01*
X105934524Y-98803069D02*
X106410714Y-98803069D01*
X106839286Y-99803069D02*
X106839286Y-98803069D01*
X106839286Y-98803069D02*
X107172619Y-99517354D01*
X107172619Y-99517354D02*
X107505952Y-98803069D01*
X107505952Y-98803069D02*
X107505952Y-99803069D01*
X107934524Y-99517354D02*
X108410714Y-99517354D01*
X107839286Y-99803069D02*
X108172619Y-98803069D01*
X108172619Y-98803069D02*
X108505952Y-99803069D01*
X109315476Y-99803069D02*
X108839286Y-99803069D01*
X108839286Y-99803069D02*
X108839286Y-98803069D01*
X109648810Y-99279259D02*
X109982143Y-99279259D01*
X110125000Y-99803069D02*
X109648810Y-99803069D01*
X109648810Y-99803069D02*
X109648810Y-98803069D01*
X109648810Y-98803069D02*
X110125000Y-98803069D01*
X129434523Y-91503069D02*
X128958333Y-91503069D01*
X128958333Y-91503069D02*
X128958333Y-90503069D01*
X129767857Y-91503069D02*
X129767857Y-90503069D01*
X129767857Y-90503069D02*
X130101190Y-91217354D01*
X130101190Y-91217354D02*
X130434523Y-90503069D01*
X130434523Y-90503069D02*
X130434523Y-91503069D01*
X131386904Y-90503069D02*
X130910714Y-90503069D01*
X130910714Y-90503069D02*
X130863095Y-90979259D01*
X130863095Y-90979259D02*
X130910714Y-90931640D01*
X130910714Y-90931640D02*
X131005952Y-90884021D01*
X131005952Y-90884021D02*
X131244047Y-90884021D01*
X131244047Y-90884021D02*
X131339285Y-90931640D01*
X131339285Y-90931640D02*
X131386904Y-90979259D01*
X131386904Y-90979259D02*
X131434523Y-91074497D01*
X131434523Y-91074497D02*
X131434523Y-91312592D01*
X131434523Y-91312592D02*
X131386904Y-91407830D01*
X131386904Y-91407830D02*
X131339285Y-91455450D01*
X131339285Y-91455450D02*
X131244047Y-91503069D01*
X131244047Y-91503069D02*
X131005952Y-91503069D01*
X131005952Y-91503069D02*
X130910714Y-91455450D01*
X130910714Y-91455450D02*
X130863095Y-91407830D01*
X132386904Y-91503069D02*
X131815476Y-91503069D01*
X132101190Y-91503069D02*
X132101190Y-90503069D01*
X132101190Y-90503069D02*
X132005952Y-90645926D01*
X132005952Y-90645926D02*
X131910714Y-90741164D01*
X131910714Y-90741164D02*
X131815476Y-90788783D01*
X133244047Y-90503069D02*
X133053571Y-90503069D01*
X133053571Y-90503069D02*
X132958333Y-90550688D01*
X132958333Y-90550688D02*
X132910714Y-90598307D01*
X132910714Y-90598307D02*
X132815476Y-90741164D01*
X132815476Y-90741164D02*
X132767857Y-90931640D01*
X132767857Y-90931640D02*
X132767857Y-91312592D01*
X132767857Y-91312592D02*
X132815476Y-91407830D01*
X132815476Y-91407830D02*
X132863095Y-91455450D01*
X132863095Y-91455450D02*
X132958333Y-91503069D01*
X132958333Y-91503069D02*
X133148809Y-91503069D01*
X133148809Y-91503069D02*
X133244047Y-91455450D01*
X133244047Y-91455450D02*
X133291666Y-91407830D01*
X133291666Y-91407830D02*
X133339285Y-91312592D01*
X133339285Y-91312592D02*
X133339285Y-91074497D01*
X133339285Y-91074497D02*
X133291666Y-90979259D01*
X133291666Y-90979259D02*
X133244047Y-90931640D01*
X133244047Y-90931640D02*
X133148809Y-90884021D01*
X133148809Y-90884021D02*
X132958333Y-90884021D01*
X132958333Y-90884021D02*
X132863095Y-90931640D01*
X132863095Y-90931640D02*
X132815476Y-90979259D01*
X132815476Y-90979259D02*
X132767857Y-91074497D01*
X134196428Y-90836402D02*
X134196428Y-91503069D01*
X133958333Y-90455450D02*
X133720238Y-91169735D01*
X133720238Y-91169735D02*
X134339285Y-91169735D01*
X134720238Y-91122116D02*
X135482143Y-91122116D01*
X136624999Y-91598307D02*
X136529761Y-91550688D01*
X136529761Y-91550688D02*
X136434523Y-91455450D01*
X136434523Y-91455450D02*
X136291666Y-91312592D01*
X136291666Y-91312592D02*
X136196428Y-91264973D01*
X136196428Y-91264973D02*
X136101190Y-91264973D01*
X136148809Y-91503069D02*
X136053571Y-91455450D01*
X136053571Y-91455450D02*
X135958333Y-91360211D01*
X135958333Y-91360211D02*
X135910714Y-91169735D01*
X135910714Y-91169735D02*
X135910714Y-90836402D01*
X135910714Y-90836402D02*
X135958333Y-90645926D01*
X135958333Y-90645926D02*
X136053571Y-90550688D01*
X136053571Y-90550688D02*
X136148809Y-90503069D01*
X136148809Y-90503069D02*
X136339285Y-90503069D01*
X136339285Y-90503069D02*
X136434523Y-90550688D01*
X136434523Y-90550688D02*
X136529761Y-90645926D01*
X136529761Y-90645926D02*
X136577380Y-90836402D01*
X136577380Y-90836402D02*
X136577380Y-91169735D01*
X136577380Y-91169735D02*
X136529761Y-91360211D01*
X136529761Y-91360211D02*
X136434523Y-91455450D01*
X136434523Y-91455450D02*
X136339285Y-91503069D01*
X136339285Y-91503069D02*
X136148809Y-91503069D01*
X137529761Y-91503069D02*
X136958333Y-91503069D01*
X137244047Y-91503069D02*
X137244047Y-90503069D01*
X137244047Y-90503069D02*
X137148809Y-90645926D01*
X137148809Y-90645926D02*
X137053571Y-90741164D01*
X137053571Y-90741164D02*
X136958333Y-90788783D01*
X178267857Y-91279259D02*
X178410714Y-91326878D01*
X178410714Y-91326878D02*
X178458333Y-91374497D01*
X178458333Y-91374497D02*
X178505952Y-91469735D01*
X178505952Y-91469735D02*
X178505952Y-91612592D01*
X178505952Y-91612592D02*
X178458333Y-91707830D01*
X178458333Y-91707830D02*
X178410714Y-91755450D01*
X178410714Y-91755450D02*
X178315476Y-91803069D01*
X178315476Y-91803069D02*
X177934524Y-91803069D01*
X177934524Y-91803069D02*
X177934524Y-90803069D01*
X177934524Y-90803069D02*
X178267857Y-90803069D01*
X178267857Y-90803069D02*
X178363095Y-90850688D01*
X178363095Y-90850688D02*
X178410714Y-90898307D01*
X178410714Y-90898307D02*
X178458333Y-90993545D01*
X178458333Y-90993545D02*
X178458333Y-91088783D01*
X178458333Y-91088783D02*
X178410714Y-91184021D01*
X178410714Y-91184021D02*
X178363095Y-91231640D01*
X178363095Y-91231640D02*
X178267857Y-91279259D01*
X178267857Y-91279259D02*
X177934524Y-91279259D01*
X179125000Y-90803069D02*
X179220238Y-90803069D01*
X179220238Y-90803069D02*
X179315476Y-90850688D01*
X179315476Y-90850688D02*
X179363095Y-90898307D01*
X179363095Y-90898307D02*
X179410714Y-90993545D01*
X179410714Y-90993545D02*
X179458333Y-91184021D01*
X179458333Y-91184021D02*
X179458333Y-91422116D01*
X179458333Y-91422116D02*
X179410714Y-91612592D01*
X179410714Y-91612592D02*
X179363095Y-91707830D01*
X179363095Y-91707830D02*
X179315476Y-91755450D01*
X179315476Y-91755450D02*
X179220238Y-91803069D01*
X179220238Y-91803069D02*
X179125000Y-91803069D01*
X179125000Y-91803069D02*
X179029762Y-91755450D01*
X179029762Y-91755450D02*
X178982143Y-91707830D01*
X178982143Y-91707830D02*
X178934524Y-91612592D01*
X178934524Y-91612592D02*
X178886905Y-91422116D01*
X178886905Y-91422116D02*
X178886905Y-91184021D01*
X178886905Y-91184021D02*
X178934524Y-90993545D01*
X178934524Y-90993545D02*
X178982143Y-90898307D01*
X178982143Y-90898307D02*
X179029762Y-90850688D01*
X179029762Y-90850688D02*
X179125000Y-90803069D01*
X180363095Y-90803069D02*
X179886905Y-90803069D01*
X179886905Y-90803069D02*
X179839286Y-91279259D01*
X179839286Y-91279259D02*
X179886905Y-91231640D01*
X179886905Y-91231640D02*
X179982143Y-91184021D01*
X179982143Y-91184021D02*
X180220238Y-91184021D01*
X180220238Y-91184021D02*
X180315476Y-91231640D01*
X180315476Y-91231640D02*
X180363095Y-91279259D01*
X180363095Y-91279259D02*
X180410714Y-91374497D01*
X180410714Y-91374497D02*
X180410714Y-91612592D01*
X180410714Y-91612592D02*
X180363095Y-91707830D01*
X180363095Y-91707830D02*
X180315476Y-91755450D01*
X180315476Y-91755450D02*
X180220238Y-91803069D01*
X180220238Y-91803069D02*
X179982143Y-91803069D01*
X179982143Y-91803069D02*
X179886905Y-91755450D01*
X179886905Y-91755450D02*
X179839286Y-91707830D01*
X181029762Y-90803069D02*
X181125000Y-90803069D01*
X181125000Y-90803069D02*
X181220238Y-90850688D01*
X181220238Y-90850688D02*
X181267857Y-90898307D01*
X181267857Y-90898307D02*
X181315476Y-90993545D01*
X181315476Y-90993545D02*
X181363095Y-91184021D01*
X181363095Y-91184021D02*
X181363095Y-91422116D01*
X181363095Y-91422116D02*
X181315476Y-91612592D01*
X181315476Y-91612592D02*
X181267857Y-91707830D01*
X181267857Y-91707830D02*
X181220238Y-91755450D01*
X181220238Y-91755450D02*
X181125000Y-91803069D01*
X181125000Y-91803069D02*
X181029762Y-91803069D01*
X181029762Y-91803069D02*
X180934524Y-91755450D01*
X180934524Y-91755450D02*
X180886905Y-91707830D01*
X180886905Y-91707830D02*
X180839286Y-91612592D01*
X180839286Y-91612592D02*
X180791667Y-91422116D01*
X180791667Y-91422116D02*
X180791667Y-91184021D01*
X180791667Y-91184021D02*
X180839286Y-90993545D01*
X180839286Y-90993545D02*
X180886905Y-90898307D01*
X180886905Y-90898307D02*
X180934524Y-90850688D01*
X180934524Y-90850688D02*
X181029762Y-90803069D01*
X182267857Y-90803069D02*
X181791667Y-90803069D01*
X181791667Y-90803069D02*
X181744048Y-91279259D01*
X181744048Y-91279259D02*
X181791667Y-91231640D01*
X181791667Y-91231640D02*
X181886905Y-91184021D01*
X181886905Y-91184021D02*
X182125000Y-91184021D01*
X182125000Y-91184021D02*
X182220238Y-91231640D01*
X182220238Y-91231640D02*
X182267857Y-91279259D01*
X182267857Y-91279259D02*
X182315476Y-91374497D01*
X182315476Y-91374497D02*
X182315476Y-91612592D01*
X182315476Y-91612592D02*
X182267857Y-91707830D01*
X182267857Y-91707830D02*
X182220238Y-91755450D01*
X182220238Y-91755450D02*
X182125000Y-91803069D01*
X182125000Y-91803069D02*
X181886905Y-91803069D01*
X181886905Y-91803069D02*
X181791667Y-91755450D01*
X181791667Y-91755450D02*
X181744048Y-91707830D01*
X182696429Y-91755450D02*
X182839286Y-91803069D01*
X182839286Y-91803069D02*
X183077381Y-91803069D01*
X183077381Y-91803069D02*
X183172619Y-91755450D01*
X183172619Y-91755450D02*
X183220238Y-91707830D01*
X183220238Y-91707830D02*
X183267857Y-91612592D01*
X183267857Y-91612592D02*
X183267857Y-91517354D01*
X183267857Y-91517354D02*
X183220238Y-91422116D01*
X183220238Y-91422116D02*
X183172619Y-91374497D01*
X183172619Y-91374497D02*
X183077381Y-91326878D01*
X183077381Y-91326878D02*
X182886905Y-91279259D01*
X182886905Y-91279259D02*
X182791667Y-91231640D01*
X182791667Y-91231640D02*
X182744048Y-91184021D01*
X182744048Y-91184021D02*
X182696429Y-91088783D01*
X182696429Y-91088783D02*
X182696429Y-90993545D01*
X182696429Y-90993545D02*
X182744048Y-90898307D01*
X182744048Y-90898307D02*
X182791667Y-90850688D01*
X182791667Y-90850688D02*
X182886905Y-90803069D01*
X182886905Y-90803069D02*
X183125000Y-90803069D01*
X183125000Y-90803069D02*
X183267857Y-90850688D01*
X183696429Y-91422116D02*
X184458334Y-91422116D01*
X185458333Y-91803069D02*
X184886905Y-91803069D01*
X185172619Y-91803069D02*
X185172619Y-90803069D01*
X185172619Y-90803069D02*
X185077381Y-90945926D01*
X185077381Y-90945926D02*
X184982143Y-91041164D01*
X184982143Y-91041164D02*
X184886905Y-91088783D01*
X185791667Y-90803069D02*
X186029762Y-91803069D01*
X186029762Y-91803069D02*
X186220238Y-91088783D01*
X186220238Y-91088783D02*
X186410714Y-91803069D01*
X186410714Y-91803069D02*
X186648810Y-90803069D01*
X187601190Y-91803069D02*
X187267857Y-91326878D01*
X187029762Y-91803069D02*
X187029762Y-90803069D01*
X187029762Y-90803069D02*
X187410714Y-90803069D01*
X187410714Y-90803069D02*
X187505952Y-90850688D01*
X187505952Y-90850688D02*
X187553571Y-90898307D01*
X187553571Y-90898307D02*
X187601190Y-90993545D01*
X187601190Y-90993545D02*
X187601190Y-91136402D01*
X187601190Y-91136402D02*
X187553571Y-91231640D01*
X187553571Y-91231640D02*
X187505952Y-91279259D01*
X187505952Y-91279259D02*
X187410714Y-91326878D01*
X187410714Y-91326878D02*
X187029762Y-91326878D01*
X187934524Y-90803069D02*
X188553571Y-90803069D01*
X188553571Y-90803069D02*
X188220238Y-91184021D01*
X188220238Y-91184021D02*
X188363095Y-91184021D01*
X188363095Y-91184021D02*
X188458333Y-91231640D01*
X188458333Y-91231640D02*
X188505952Y-91279259D01*
X188505952Y-91279259D02*
X188553571Y-91374497D01*
X188553571Y-91374497D02*
X188553571Y-91612592D01*
X188553571Y-91612592D02*
X188505952Y-91707830D01*
X188505952Y-91707830D02*
X188458333Y-91755450D01*
X188458333Y-91755450D02*
X188363095Y-91803069D01*
X188363095Y-91803069D02*
X188077381Y-91803069D01*
X188077381Y-91803069D02*
X187982143Y-91755450D01*
X187982143Y-91755450D02*
X187934524Y-91707830D01*
X180625000Y-110779259D02*
X180958333Y-110779259D01*
X181101190Y-111303069D02*
X180625000Y-111303069D01*
X180625000Y-111303069D02*
X180625000Y-110303069D01*
X180625000Y-110303069D02*
X181101190Y-110303069D01*
X181482143Y-111255450D02*
X181625000Y-111303069D01*
X181625000Y-111303069D02*
X181863095Y-111303069D01*
X181863095Y-111303069D02*
X181958333Y-111255450D01*
X181958333Y-111255450D02*
X182005952Y-111207830D01*
X182005952Y-111207830D02*
X182053571Y-111112592D01*
X182053571Y-111112592D02*
X182053571Y-111017354D01*
X182053571Y-111017354D02*
X182005952Y-110922116D01*
X182005952Y-110922116D02*
X181958333Y-110874497D01*
X181958333Y-110874497D02*
X181863095Y-110826878D01*
X181863095Y-110826878D02*
X181672619Y-110779259D01*
X181672619Y-110779259D02*
X181577381Y-110731640D01*
X181577381Y-110731640D02*
X181529762Y-110684021D01*
X181529762Y-110684021D02*
X181482143Y-110588783D01*
X181482143Y-110588783D02*
X181482143Y-110493545D01*
X181482143Y-110493545D02*
X181529762Y-110398307D01*
X181529762Y-110398307D02*
X181577381Y-110350688D01*
X181577381Y-110350688D02*
X181672619Y-110303069D01*
X181672619Y-110303069D02*
X181910714Y-110303069D01*
X181910714Y-110303069D02*
X182053571Y-110350688D01*
X182625000Y-110731640D02*
X182529762Y-110684021D01*
X182529762Y-110684021D02*
X182482143Y-110636402D01*
X182482143Y-110636402D02*
X182434524Y-110541164D01*
X182434524Y-110541164D02*
X182434524Y-110493545D01*
X182434524Y-110493545D02*
X182482143Y-110398307D01*
X182482143Y-110398307D02*
X182529762Y-110350688D01*
X182529762Y-110350688D02*
X182625000Y-110303069D01*
X182625000Y-110303069D02*
X182815476Y-110303069D01*
X182815476Y-110303069D02*
X182910714Y-110350688D01*
X182910714Y-110350688D02*
X182958333Y-110398307D01*
X182958333Y-110398307D02*
X183005952Y-110493545D01*
X183005952Y-110493545D02*
X183005952Y-110541164D01*
X183005952Y-110541164D02*
X182958333Y-110636402D01*
X182958333Y-110636402D02*
X182910714Y-110684021D01*
X182910714Y-110684021D02*
X182815476Y-110731640D01*
X182815476Y-110731640D02*
X182625000Y-110731640D01*
X182625000Y-110731640D02*
X182529762Y-110779259D01*
X182529762Y-110779259D02*
X182482143Y-110826878D01*
X182482143Y-110826878D02*
X182434524Y-110922116D01*
X182434524Y-110922116D02*
X182434524Y-111112592D01*
X182434524Y-111112592D02*
X182482143Y-111207830D01*
X182482143Y-111207830D02*
X182529762Y-111255450D01*
X182529762Y-111255450D02*
X182625000Y-111303069D01*
X182625000Y-111303069D02*
X182815476Y-111303069D01*
X182815476Y-111303069D02*
X182910714Y-111255450D01*
X182910714Y-111255450D02*
X182958333Y-111207830D01*
X182958333Y-111207830D02*
X183005952Y-111112592D01*
X183005952Y-111112592D02*
X183005952Y-110922116D01*
X183005952Y-110922116D02*
X182958333Y-110826878D01*
X182958333Y-110826878D02*
X182910714Y-110779259D01*
X182910714Y-110779259D02*
X182815476Y-110731640D01*
X183339286Y-110303069D02*
X183958333Y-110303069D01*
X183958333Y-110303069D02*
X183625000Y-110684021D01*
X183625000Y-110684021D02*
X183767857Y-110684021D01*
X183767857Y-110684021D02*
X183863095Y-110731640D01*
X183863095Y-110731640D02*
X183910714Y-110779259D01*
X183910714Y-110779259D02*
X183958333Y-110874497D01*
X183958333Y-110874497D02*
X183958333Y-111112592D01*
X183958333Y-111112592D02*
X183910714Y-111207830D01*
X183910714Y-111207830D02*
X183863095Y-111255450D01*
X183863095Y-111255450D02*
X183767857Y-111303069D01*
X183767857Y-111303069D02*
X183482143Y-111303069D01*
X183482143Y-111303069D02*
X183386905Y-111255450D01*
X183386905Y-111255450D02*
X183339286Y-111207830D01*
X184529762Y-110731640D02*
X184434524Y-110684021D01*
X184434524Y-110684021D02*
X184386905Y-110636402D01*
X184386905Y-110636402D02*
X184339286Y-110541164D01*
X184339286Y-110541164D02*
X184339286Y-110493545D01*
X184339286Y-110493545D02*
X184386905Y-110398307D01*
X184386905Y-110398307D02*
X184434524Y-110350688D01*
X184434524Y-110350688D02*
X184529762Y-110303069D01*
X184529762Y-110303069D02*
X184720238Y-110303069D01*
X184720238Y-110303069D02*
X184815476Y-110350688D01*
X184815476Y-110350688D02*
X184863095Y-110398307D01*
X184863095Y-110398307D02*
X184910714Y-110493545D01*
X184910714Y-110493545D02*
X184910714Y-110541164D01*
X184910714Y-110541164D02*
X184863095Y-110636402D01*
X184863095Y-110636402D02*
X184815476Y-110684021D01*
X184815476Y-110684021D02*
X184720238Y-110731640D01*
X184720238Y-110731640D02*
X184529762Y-110731640D01*
X184529762Y-110731640D02*
X184434524Y-110779259D01*
X184434524Y-110779259D02*
X184386905Y-110826878D01*
X184386905Y-110826878D02*
X184339286Y-110922116D01*
X184339286Y-110922116D02*
X184339286Y-111112592D01*
X184339286Y-111112592D02*
X184386905Y-111207830D01*
X184386905Y-111207830D02*
X184434524Y-111255450D01*
X184434524Y-111255450D02*
X184529762Y-111303069D01*
X184529762Y-111303069D02*
X184720238Y-111303069D01*
X184720238Y-111303069D02*
X184815476Y-111255450D01*
X184815476Y-111255450D02*
X184863095Y-111207830D01*
X184863095Y-111207830D02*
X184910714Y-111112592D01*
X184910714Y-111112592D02*
X184910714Y-110922116D01*
X184910714Y-110922116D02*
X184863095Y-110826878D01*
X184863095Y-110826878D02*
X184815476Y-110779259D01*
X184815476Y-110779259D02*
X184720238Y-110731640D01*
X185482143Y-110731640D02*
X185386905Y-110684021D01*
X185386905Y-110684021D02*
X185339286Y-110636402D01*
X185339286Y-110636402D02*
X185291667Y-110541164D01*
X185291667Y-110541164D02*
X185291667Y-110493545D01*
X185291667Y-110493545D02*
X185339286Y-110398307D01*
X185339286Y-110398307D02*
X185386905Y-110350688D01*
X185386905Y-110350688D02*
X185482143Y-110303069D01*
X185482143Y-110303069D02*
X185672619Y-110303069D01*
X185672619Y-110303069D02*
X185767857Y-110350688D01*
X185767857Y-110350688D02*
X185815476Y-110398307D01*
X185815476Y-110398307D02*
X185863095Y-110493545D01*
X185863095Y-110493545D02*
X185863095Y-110541164D01*
X185863095Y-110541164D02*
X185815476Y-110636402D01*
X185815476Y-110636402D02*
X185767857Y-110684021D01*
X185767857Y-110684021D02*
X185672619Y-110731640D01*
X185672619Y-110731640D02*
X185482143Y-110731640D01*
X185482143Y-110731640D02*
X185386905Y-110779259D01*
X185386905Y-110779259D02*
X185339286Y-110826878D01*
X185339286Y-110826878D02*
X185291667Y-110922116D01*
X185291667Y-110922116D02*
X185291667Y-111112592D01*
X185291667Y-111112592D02*
X185339286Y-111207830D01*
X185339286Y-111207830D02*
X185386905Y-111255450D01*
X185386905Y-111255450D02*
X185482143Y-111303069D01*
X185482143Y-111303069D02*
X185672619Y-111303069D01*
X185672619Y-111303069D02*
X185767857Y-111255450D01*
X185767857Y-111255450D02*
X185815476Y-111207830D01*
X185815476Y-111207830D02*
X185863095Y-111112592D01*
X185863095Y-111112592D02*
X185863095Y-110922116D01*
X185863095Y-110922116D02*
X185815476Y-110826878D01*
X185815476Y-110826878D02*
X185767857Y-110779259D01*
X185767857Y-110779259D02*
X185672619Y-110731640D01*
M02*
