%TF.GenerationSoftware,KiCad,Pcbnew,10.0.5*%
%TF.CreationDate,2026-08-24T09:31:31+02:00*%
%TF.ProjectId,openmotorbridge_rear_pod3,6f70656e-6d6f-4746-9f72-627269646765,v8.0*%
%TF.SameCoordinates,Original*%
%TF.FileFunction,Legend,Top*%
%TF.FilePolarity,Positive*%
%FSLAX46Y46*%
G04 Gerber Fmt 4.6, Leading zero omitted, Abs format (unit mm)*
G04 Created by KiCad (PCBNEW 10.0.5) date 2026-08-24 09:31:31*
%MOMM*%
%LPD*%
G01*
G04 APERTURE LIST*
%ADD10C,0.180000*%
%ADD11C,0.150000*%
%ADD12C,0.120000*%
G04 APERTURE END LIST*
D10*
X114989297Y-73420794D02*
X115217869Y-73420794D01*
X115217869Y-73420794D02*
X115332154Y-73477937D01*
X115332154Y-73477937D02*
X115446440Y-73592223D01*
X115446440Y-73592223D02*
X115503583Y-73820794D01*
X115503583Y-73820794D02*
X115503583Y-74220794D01*
X115503583Y-74220794D02*
X115446440Y-74449366D01*
X115446440Y-74449366D02*
X115332154Y-74563652D01*
X115332154Y-74563652D02*
X115217869Y-74620794D01*
X115217869Y-74620794D02*
X114989297Y-74620794D01*
X114989297Y-74620794D02*
X114875012Y-74563652D01*
X114875012Y-74563652D02*
X114760726Y-74449366D01*
X114760726Y-74449366D02*
X114703583Y-74220794D01*
X114703583Y-74220794D02*
X114703583Y-73820794D01*
X114703583Y-73820794D02*
X114760726Y-73592223D01*
X114760726Y-73592223D02*
X114875012Y-73477937D01*
X114875012Y-73477937D02*
X114989297Y-73420794D01*
X116017869Y-74620794D02*
X116017869Y-73420794D01*
X116017869Y-73420794D02*
X116417869Y-74277937D01*
X116417869Y-74277937D02*
X116817869Y-73420794D01*
X116817869Y-73420794D02*
X116817869Y-74620794D01*
X117789298Y-73992223D02*
X117960726Y-74049366D01*
X117960726Y-74049366D02*
X118017869Y-74106509D01*
X118017869Y-74106509D02*
X118075012Y-74220794D01*
X118075012Y-74220794D02*
X118075012Y-74392223D01*
X118075012Y-74392223D02*
X118017869Y-74506509D01*
X118017869Y-74506509D02*
X117960726Y-74563652D01*
X117960726Y-74563652D02*
X117846441Y-74620794D01*
X117846441Y-74620794D02*
X117389298Y-74620794D01*
X117389298Y-74620794D02*
X117389298Y-73420794D01*
X117389298Y-73420794D02*
X117789298Y-73420794D01*
X117789298Y-73420794D02*
X117903584Y-73477937D01*
X117903584Y-73477937D02*
X117960726Y-73535080D01*
X117960726Y-73535080D02*
X118017869Y-73649366D01*
X118017869Y-73649366D02*
X118017869Y-73763652D01*
X118017869Y-73763652D02*
X117960726Y-73877937D01*
X117960726Y-73877937D02*
X117903584Y-73935080D01*
X117903584Y-73935080D02*
X117789298Y-73992223D01*
X117789298Y-73992223D02*
X117389298Y-73992223D01*
X119503584Y-74620794D02*
X119503584Y-73420794D01*
X119503584Y-73420794D02*
X119960727Y-73420794D01*
X119960727Y-73420794D02*
X120075012Y-73477937D01*
X120075012Y-73477937D02*
X120132155Y-73535080D01*
X120132155Y-73535080D02*
X120189298Y-73649366D01*
X120189298Y-73649366D02*
X120189298Y-73820794D01*
X120189298Y-73820794D02*
X120132155Y-73935080D01*
X120132155Y-73935080D02*
X120075012Y-73992223D01*
X120075012Y-73992223D02*
X119960727Y-74049366D01*
X119960727Y-74049366D02*
X119503584Y-74049366D01*
X120875012Y-74620794D02*
X120760727Y-74563652D01*
X120760727Y-74563652D02*
X120703584Y-74506509D01*
X120703584Y-74506509D02*
X120646441Y-74392223D01*
X120646441Y-74392223D02*
X120646441Y-74049366D01*
X120646441Y-74049366D02*
X120703584Y-73935080D01*
X120703584Y-73935080D02*
X120760727Y-73877937D01*
X120760727Y-73877937D02*
X120875012Y-73820794D01*
X120875012Y-73820794D02*
X121046441Y-73820794D01*
X121046441Y-73820794D02*
X121160727Y-73877937D01*
X121160727Y-73877937D02*
X121217870Y-73935080D01*
X121217870Y-73935080D02*
X121275012Y-74049366D01*
X121275012Y-74049366D02*
X121275012Y-74392223D01*
X121275012Y-74392223D02*
X121217870Y-74506509D01*
X121217870Y-74506509D02*
X121160727Y-74563652D01*
X121160727Y-74563652D02*
X121046441Y-74620794D01*
X121046441Y-74620794D02*
X120875012Y-74620794D01*
X122303584Y-74620794D02*
X122303584Y-73420794D01*
X122303584Y-74563652D02*
X122189298Y-74620794D01*
X122189298Y-74620794D02*
X121960726Y-74620794D01*
X121960726Y-74620794D02*
X121846441Y-74563652D01*
X121846441Y-74563652D02*
X121789298Y-74506509D01*
X121789298Y-74506509D02*
X121732155Y-74392223D01*
X121732155Y-74392223D02*
X121732155Y-74049366D01*
X121732155Y-74049366D02*
X121789298Y-73935080D01*
X121789298Y-73935080D02*
X121846441Y-73877937D01*
X121846441Y-73877937D02*
X121960726Y-73820794D01*
X121960726Y-73820794D02*
X122189298Y-73820794D01*
X122189298Y-73820794D02*
X122303584Y-73877937D01*
X123675012Y-73420794D02*
X124417869Y-73420794D01*
X124417869Y-73420794D02*
X124017869Y-73877937D01*
X124017869Y-73877937D02*
X124189298Y-73877937D01*
X124189298Y-73877937D02*
X124303584Y-73935080D01*
X124303584Y-73935080D02*
X124360726Y-73992223D01*
X124360726Y-73992223D02*
X124417869Y-74106509D01*
X124417869Y-74106509D02*
X124417869Y-74392223D01*
X124417869Y-74392223D02*
X124360726Y-74506509D01*
X124360726Y-74506509D02*
X124303584Y-74563652D01*
X124303584Y-74563652D02*
X124189298Y-74620794D01*
X124189298Y-74620794D02*
X123846441Y-74620794D01*
X123846441Y-74620794D02*
X123732155Y-74563652D01*
X123732155Y-74563652D02*
X123675012Y-74506509D01*
X125675012Y-73420794D02*
X126360727Y-73420794D01*
X126017869Y-74620794D02*
X126017869Y-73420794D01*
X126760727Y-74620794D02*
X126760727Y-73820794D01*
X126760727Y-74049366D02*
X126817870Y-73935080D01*
X126817870Y-73935080D02*
X126875013Y-73877937D01*
X126875013Y-73877937D02*
X126989298Y-73820794D01*
X126989298Y-73820794D02*
X127103584Y-73820794D01*
X128017870Y-74620794D02*
X128017870Y-73992223D01*
X128017870Y-73992223D02*
X127960727Y-73877937D01*
X127960727Y-73877937D02*
X127846441Y-73820794D01*
X127846441Y-73820794D02*
X127617870Y-73820794D01*
X127617870Y-73820794D02*
X127503584Y-73877937D01*
X128017870Y-74563652D02*
X127903584Y-74620794D01*
X127903584Y-74620794D02*
X127617870Y-74620794D01*
X127617870Y-74620794D02*
X127503584Y-74563652D01*
X127503584Y-74563652D02*
X127446441Y-74449366D01*
X127446441Y-74449366D02*
X127446441Y-74335080D01*
X127446441Y-74335080D02*
X127503584Y-74220794D01*
X127503584Y-74220794D02*
X127617870Y-74163652D01*
X127617870Y-74163652D02*
X127903584Y-74163652D01*
X127903584Y-74163652D02*
X128017870Y-74106509D01*
X128589298Y-73820794D02*
X128589298Y-74620794D01*
X128589298Y-73935080D02*
X128646441Y-73877937D01*
X128646441Y-73877937D02*
X128760726Y-73820794D01*
X128760726Y-73820794D02*
X128932155Y-73820794D01*
X128932155Y-73820794D02*
X129046441Y-73877937D01*
X129046441Y-73877937D02*
X129103584Y-73992223D01*
X129103584Y-73992223D02*
X129103584Y-74620794D01*
X129617869Y-74563652D02*
X129732155Y-74620794D01*
X129732155Y-74620794D02*
X129960726Y-74620794D01*
X129960726Y-74620794D02*
X130075012Y-74563652D01*
X130075012Y-74563652D02*
X130132155Y-74449366D01*
X130132155Y-74449366D02*
X130132155Y-74392223D01*
X130132155Y-74392223D02*
X130075012Y-74277937D01*
X130075012Y-74277937D02*
X129960726Y-74220794D01*
X129960726Y-74220794D02*
X129789298Y-74220794D01*
X129789298Y-74220794D02*
X129675012Y-74163652D01*
X129675012Y-74163652D02*
X129617869Y-74049366D01*
X129617869Y-74049366D02*
X129617869Y-73992223D01*
X129617869Y-73992223D02*
X129675012Y-73877937D01*
X129675012Y-73877937D02*
X129789298Y-73820794D01*
X129789298Y-73820794D02*
X129960726Y-73820794D01*
X129960726Y-73820794D02*
X130075012Y-73877937D01*
X131160727Y-74563652D02*
X131046441Y-74620794D01*
X131046441Y-74620794D02*
X130817869Y-74620794D01*
X130817869Y-74620794D02*
X130703584Y-74563652D01*
X130703584Y-74563652D02*
X130646441Y-74506509D01*
X130646441Y-74506509D02*
X130589298Y-74392223D01*
X130589298Y-74392223D02*
X130589298Y-74049366D01*
X130589298Y-74049366D02*
X130646441Y-73935080D01*
X130646441Y-73935080D02*
X130703584Y-73877937D01*
X130703584Y-73877937D02*
X130817869Y-73820794D01*
X130817869Y-73820794D02*
X131046441Y-73820794D01*
X131046441Y-73820794D02*
X131160727Y-73877937D01*
X132132155Y-74563652D02*
X132017869Y-74620794D01*
X132017869Y-74620794D02*
X131789298Y-74620794D01*
X131789298Y-74620794D02*
X131675012Y-74563652D01*
X131675012Y-74563652D02*
X131617869Y-74449366D01*
X131617869Y-74449366D02*
X131617869Y-73992223D01*
X131617869Y-73992223D02*
X131675012Y-73877937D01*
X131675012Y-73877937D02*
X131789298Y-73820794D01*
X131789298Y-73820794D02*
X132017869Y-73820794D01*
X132017869Y-73820794D02*
X132132155Y-73877937D01*
X132132155Y-73877937D02*
X132189298Y-73992223D01*
X132189298Y-73992223D02*
X132189298Y-74106509D01*
X132189298Y-74106509D02*
X131617869Y-74220794D01*
X132703583Y-74620794D02*
X132703583Y-73820794D01*
X132703583Y-73420794D02*
X132646440Y-73477937D01*
X132646440Y-73477937D02*
X132703583Y-73535080D01*
X132703583Y-73535080D02*
X132760726Y-73477937D01*
X132760726Y-73477937D02*
X132703583Y-73420794D01*
X132703583Y-73420794D02*
X132703583Y-73535080D01*
X133160726Y-73820794D02*
X133446440Y-74620794D01*
X133446440Y-74620794D02*
X133732155Y-73820794D01*
X134646441Y-74563652D02*
X134532155Y-74620794D01*
X134532155Y-74620794D02*
X134303584Y-74620794D01*
X134303584Y-74620794D02*
X134189298Y-74563652D01*
X134189298Y-74563652D02*
X134132155Y-74449366D01*
X134132155Y-74449366D02*
X134132155Y-73992223D01*
X134132155Y-73992223D02*
X134189298Y-73877937D01*
X134189298Y-73877937D02*
X134303584Y-73820794D01*
X134303584Y-73820794D02*
X134532155Y-73820794D01*
X134532155Y-73820794D02*
X134646441Y-73877937D01*
X134646441Y-73877937D02*
X134703584Y-73992223D01*
X134703584Y-73992223D02*
X134703584Y-74106509D01*
X134703584Y-74106509D02*
X134132155Y-74220794D01*
X135217869Y-74620794D02*
X135217869Y-73820794D01*
X135217869Y-74049366D02*
X135275012Y-73935080D01*
X135275012Y-73935080D02*
X135332155Y-73877937D01*
X135332155Y-73877937D02*
X135446440Y-73820794D01*
X135446440Y-73820794D02*
X135560726Y-73820794D01*
D11*
X124313107Y-73529831D02*
X124313107Y-74339354D01*
X124313107Y-74339354D02*
X124360726Y-74434592D01*
X124360726Y-74434592D02*
X124408345Y-74482212D01*
X124408345Y-74482212D02*
X124503583Y-74529831D01*
X124503583Y-74529831D02*
X124694059Y-74529831D01*
X124694059Y-74529831D02*
X124789297Y-74482212D01*
X124789297Y-74482212D02*
X124836916Y-74434592D01*
X124836916Y-74434592D02*
X124884535Y-74339354D01*
X124884535Y-74339354D02*
X124884535Y-73529831D01*
X125884535Y-74529831D02*
X125313107Y-74529831D01*
X125598821Y-74529831D02*
X125598821Y-73529831D01*
X125598821Y-73529831D02*
X125503583Y-73672688D01*
X125503583Y-73672688D02*
X125408345Y-73767926D01*
X125408345Y-73767926D02*
X125313107Y-73815545D01*
X111313107Y-88529831D02*
X111313107Y-89339354D01*
X111313107Y-89339354D02*
X111360726Y-89434592D01*
X111360726Y-89434592D02*
X111408345Y-89482212D01*
X111408345Y-89482212D02*
X111503583Y-89529831D01*
X111503583Y-89529831D02*
X111694059Y-89529831D01*
X111694059Y-89529831D02*
X111789297Y-89482212D01*
X111789297Y-89482212D02*
X111836916Y-89434592D01*
X111836916Y-89434592D02*
X111884535Y-89339354D01*
X111884535Y-89339354D02*
X111884535Y-88529831D01*
X112313107Y-88625069D02*
X112360726Y-88577450D01*
X112360726Y-88577450D02*
X112455964Y-88529831D01*
X112455964Y-88529831D02*
X112694059Y-88529831D01*
X112694059Y-88529831D02*
X112789297Y-88577450D01*
X112789297Y-88577450D02*
X112836916Y-88625069D01*
X112836916Y-88625069D02*
X112884535Y-88720307D01*
X112884535Y-88720307D02*
X112884535Y-88815545D01*
X112884535Y-88815545D02*
X112836916Y-88958402D01*
X112836916Y-88958402D02*
X112265488Y-89529831D01*
X112265488Y-89529831D02*
X112884535Y-89529831D01*
X137313107Y-91329831D02*
X137313107Y-92139354D01*
X137313107Y-92139354D02*
X137360726Y-92234592D01*
X137360726Y-92234592D02*
X137408345Y-92282212D01*
X137408345Y-92282212D02*
X137503583Y-92329831D01*
X137503583Y-92329831D02*
X137694059Y-92329831D01*
X137694059Y-92329831D02*
X137789297Y-92282212D01*
X137789297Y-92282212D02*
X137836916Y-92234592D01*
X137836916Y-92234592D02*
X137884535Y-92139354D01*
X137884535Y-92139354D02*
X137884535Y-91329831D01*
X138265488Y-91329831D02*
X138884535Y-91329831D01*
X138884535Y-91329831D02*
X138551202Y-91710783D01*
X138551202Y-91710783D02*
X138694059Y-91710783D01*
X138694059Y-91710783D02*
X138789297Y-91758402D01*
X138789297Y-91758402D02*
X138836916Y-91806021D01*
X138836916Y-91806021D02*
X138884535Y-91901259D01*
X138884535Y-91901259D02*
X138884535Y-92139354D01*
X138884535Y-92139354D02*
X138836916Y-92234592D01*
X138836916Y-92234592D02*
X138789297Y-92282212D01*
X138789297Y-92282212D02*
X138694059Y-92329831D01*
X138694059Y-92329831D02*
X138408345Y-92329831D01*
X138408345Y-92329831D02*
X138313107Y-92282212D01*
X138313107Y-92282212D02*
X138265488Y-92234592D01*
D12*
X124808345Y-99138867D02*
X124808345Y-99710295D01*
X124808345Y-99710295D02*
X124770250Y-99824581D01*
X124770250Y-99824581D02*
X124694059Y-99900772D01*
X124694059Y-99900772D02*
X124579774Y-99938867D01*
X124579774Y-99938867D02*
X124503583Y-99938867D01*
X125608345Y-99938867D02*
X125151202Y-99938867D01*
X125379774Y-99938867D02*
X125379774Y-99138867D01*
X125379774Y-99138867D02*
X125303583Y-99253152D01*
X125303583Y-99253152D02*
X125227393Y-99329343D01*
X125227393Y-99329343D02*
X125151202Y-99367438D01*
M02*
