solid OpenSCAD_Model
  facet normal 0 0.0747899 -0.997199
    outer loop
      vertex -35.3 -61 5.7
      vertex -42.7 -41 7.2
      vertex -28.7 -61 5.7
    endloop
  endfacet
  facet normal 0 0.0747899 -0.997199
    outer loop
      vertex -42.7 -41 7.2
      vertex -35.3 -61 5.7
      vertex -49.3 -41 7.2
    endloop
  endfacet
  facet normal 0 1 -0
    outer loop
      vertex -42.7 -41 7.2
      vertex -49.3 -41 8.8
      vertex -42.7 -41 8.8
    endloop
  endfacet
  facet normal 0 1 0
    outer loop
      vertex -49.3 -41 8.8
      vertex -42.7 -41 7.2
      vertex -49.3 -41 7.2
    endloop
  endfacet
  facet normal 0.106533 -0 0.994309
    outer loop
      vertex -42.7 -43 8.8
      vertex -29.225 -60.25 7.35625
      vertex -42.7 -41 8.8
    endloop
  endfacet
  facet normal 0.106533 -2.37694e-16 0.994309
    outer loop
      vertex -29.225 -60.25 7.35625
      vertex -42.7 -43 8.8
      vertex -30.625 -60.25 7.50625
    endloop
  endfacet
  facet normal 0.819232 0.573462 0
    outer loop
      vertex -29.225 -60.25 7.35625
      vertex -42.7 -41 7.2
      vertex -42.7 -41 8.8
    endloop
  endfacet
  facet normal 0.819232 0.573462 -0
    outer loop
      vertex -29.225 -60.25 6.4
      vertex -42.7 -41 7.2
      vertex -29.225 -60.25 7.35625
    endloop
  endfacet
  facet normal 0.819232 0.573462 2.59967e-15
    outer loop
      vertex -29.225 -60.25 6.4
      vertex -28.7 -61 5.7
      vertex -42.7 -41 7.2
    endloop
  endfacet
  facet normal 0.819232 0.573462 -0
    outer loop
      vertex -28.7 -61 5.7
      vertex -29.225 -60.25 6.4
      vertex -28.7 -61 6.4
    endloop
  endfacet
  facet normal -1 0 0
    outer loop
      vertex -49.3 -43 7.2
      vertex -49.3 -41 8.8
      vertex -49.3 -41 7.2
    endloop
  endfacet
  facet normal -1 -0 0
    outer loop
      vertex -49.3 -41 8.8
      vertex -49.3 -43 7.2
      vertex -49.3 -43 8.8
    endloop
  endfacet
  facet normal -0.819232 -0.573462 -0
    outer loop
      vertex -35.7 -62.4286 7.34286
      vertex -49.3 -43 7.2
      vertex -35.7 -62.4286 6.4
    endloop
  endfacet
  facet normal -0.819233 -0.573461 -2.49331e-05
    outer loop
      vertex -35.3 -63 5.7
      vertex -35.7 -62.4286 6.4
      vertex -49.3 -43 7.2
    endloop
  endfacet
  facet normal -0.819218 -0.573482 0
    outer loop
      vertex -35.7 -62.4286 6.4
      vertex -35.3 -63 5.7
      vertex -35.3 -63 6.4
    endloop
  endfacet
  facet normal -0.819232 -0.573462 0
    outer loop
      vertex -49.3 -43 7.2
      vertex -35.7 -62.4286 7.34286
      vertex -49.3 -43 8.8
    endloop
  endfacet
  facet normal -0.106533 0 -0.994309
    outer loop
      vertex -49.3 -43 7.2
      vertex -35.3 -61 5.7
      vertex -35.3 -63 5.7
    endloop
  endfacet
  facet normal -0.106533 0 -0.994309
    outer loop
      vertex -35.3 -61 5.7
      vertex -49.3 -43 7.2
      vertex -49.3 -41 7.2
    endloop
  endfacet
  facet normal 0 -0.0747899 0.997199
    outer loop
      vertex -42.7 -43 8.8
      vertex -35.7 -60.25 7.50625
      vertex -30.625 -60.25 7.50625
    endloop
  endfacet
  facet normal 0 -0.0747899 0.997199
    outer loop
      vertex -49.3 -43 8.8
      vertex -35.7 -60.25 7.50625
      vertex -42.7 -43 8.8
    endloop
  endfacet
  facet normal 2.90285e-06 -0.0747877 0.997199
    outer loop
      vertex -35.7 -60.25 7.50625
      vertex -49.3 -43 8.8
      vertex -35.7 -62.4286 7.34286
    endloop
  endfacet
  facet normal -0 0 1
    outer loop
      vertex -49.3 -41 8.8
      vertex -42.7 -43 8.8
      vertex -42.7 -41 8.8
    endloop
  endfacet
  facet normal 0 0 1
    outer loop
      vertex -42.7 -43 8.8
      vertex -49.3 -41 8.8
      vertex -49.3 -43 8.8
    endloop
  endfacet
  facet normal -0.843648 -0.536897 0
    outer loop
      vertex -35.3 -63 5.7
      vertex -34.8227 -63.75 6.4
      vertex -35.3 -63 6.4
    endloop
  endfacet
  facet normal -0.843658 -0.536881 2.42488e-05
    outer loop
      vertex -21.3 -85 -1.6
      vertex -34.8227 -63.75 6.4
      vertex -35.3 -63 5.7
    endloop
  endfacet
  facet normal -0.843662 -0.536875 -0
    outer loop
      vertex -21.3 -85 0
      vertex -34.8227 -63.75 6.4
      vertex -21.3 -85 -1.6
    endloop
  endfacet
  facet normal -0.843662 -0.536875 0
    outer loop
      vertex -34.8227 -63.75 6.4
      vertex -21.3 -85 0
      vertex -34.8227 -63.75 7.05114
    endloop
  endfacet
  facet normal 0 0.314933 -0.949114
    outer loop
      vertex -21.3 -83 -1.6
      vertex -28.7 -61 5.7
      vertex -14.7 -83 -1.6
    endloop
  endfacet
  facet normal 0 0.314933 -0.949114
    outer loop
      vertex -28.7 -61 5.7
      vertex -21.3 -83 -1.6
      vertex -35.3 -61 5.7
    endloop
  endfacet
  facet normal 0.46235 -0 0.886698
    outer loop
      vertex -28.3 -63.6286 7.09143
      vertex -14.7 -83 0
      vertex -28.3 -61.6286 7.09143
    endloop
  endfacet
  facet normal 0.46235 0 0.886698
    outer loop
      vertex -14.7 -83 0
      vertex -28.3 -63.6286 7.09143
      vertex -14.7 -85 0
    endloop
  endfacet
  facet normal 0.843661 0.536876 0
    outer loop
      vertex -28.3 -61.6286 7.09143
      vertex -14.7 -83 0
      vertex -28.3 -61.6286 6.4
    endloop
  endfacet
  facet normal 0.843673 0.536858 0
    outer loop
      vertex -28.3 -61.6286 6.4
      vertex -28.7 -61 5.7
      vertex -28.7 -61 6.4
    endloop
  endfacet
  facet normal 0.843661 0.536876 -0
    outer loop
      vertex -14.7 -83 -1.6
      vertex -28.3 -61.6286 6.4
      vertex -14.7 -83 0
    endloop
  endfacet
  facet normal 0.843664 0.536872 1.68828e-05
    outer loop
      vertex -28.3 -61.6286 6.4
      vertex -14.7 -83 -1.6
      vertex -28.7 -61 5.7
    endloop
  endfacet
  facet normal -0.46235 0 -0.886698
    outer loop
      vertex -35.3 -63 5.7
      vertex -21.3 -83 -1.6
      vertex -21.3 -85 -1.6
    endloop
  endfacet
  facet normal -0.46235 0 -0.886698
    outer loop
      vertex -21.3 -83 -1.6
      vertex -35.3 -63 5.7
      vertex -35.3 -61 5.7
    endloop
  endfacet
  facet normal -8.85864e-05 -0.314984 0.949097
    outer loop
      vertex -28.3 -63.75 7.05114
      vertex -14.7 -85 0
      vertex -28.3 -63.6286 7.09143
    endloop
  endfacet
  facet normal 0 -0.314933 0.949114
    outer loop
      vertex -14.7 -85 0
      vertex -28.3 -63.75 7.05114
      vertex -21.3 -85 0
    endloop
  endfacet
  facet normal 0 -0.314933 0.949114
    outer loop
      vertex -21.3 -85 0
      vertex -28.3 -63.75 7.05114
      vertex -34.8227 -63.75 7.05114
    endloop
  endfacet
  facet normal -0.894441 -0.447186 -5.7437e-05
    outer loop
      vertex -11.7 -104.2 -13.152
      vertex -21.3 -85 -1.6
      vertex -11.9569 -103.686 -14.4
    endloop
  endfacet
  facet normal -0.894497 -0.447074 -0
    outer loop
      vertex -11.7 -104.2 -13.152
      vertex -11.9569 -103.686 -14.4
      vertex -11.7 -104.2 -14.4
    endloop
  endfacet
  facet normal -0.894427 -0.447214 0
    outer loop
      vertex -21.3 -85 -1.6
      vertex -11.7 -104.2 -13.152
      vertex -21.3 -85 0
    endloop
  endfacet
  facet normal 0 0.565126 -0.825005
    outer loop
      vertex -11.425 -102.75 -15.1287
      vertex -14.7 -83 -1.6
      vertex -4.825 -102.75 -15.1287
    endloop
  endfacet
  facet normal 0 0.565126 -0.825005
    outer loop
      vertex -14.7 -83 -1.6
      vertex -11.425 -102.75 -15.1287
      vertex -21.3 -83 -1.6
    endloop
  endfacet
  facet normal 0.807715 0 0.589573
    outer loop
      vertex -14.7 -85 0
      vertex -5.35693 -103.686 -12.8
      vertex -5.35693 -102.25 -12.8
    endloop
  endfacet
  facet normal 0.807683 -4.9752e-05 0.589617
    outer loop
      vertex -5.075 -102.25 -13.1862
      vertex -14.7 -85 0
      vertex -5.35693 -102.25 -12.8
    endloop
  endfacet
  facet normal 0.807714 -0 0.589574
    outer loop
      vertex -14.7 -85 0
      vertex -5.075 -102.25 -13.1862
      vertex -14.7 -83 0
    endloop
  endfacet
  facet normal 0.894427 0.447214 0
    outer loop
      vertex -5.075 -102.25 -13.1862
      vertex -14.7 -83 -1.6
      vertex -14.7 -83 0
    endloop
  endfacet
  facet normal 0.894427 0.447214 -0
    outer loop
      vertex -5.075 -102.25 -14.6
      vertex -14.7 -83 -1.6
      vertex -5.075 -102.25 -13.1862
    endloop
  endfacet
  facet normal 0.894427 0.447214 0
    outer loop
      vertex -5.075 -102.25 -14.6
      vertex -4.825 -102.75 -15.1287
      vertex -14.7 -83 -1.6
    endloop
  endfacet
  facet normal 0.894427 0.447214 -0
    outer loop
      vertex -4.825 -102.75 -15.1287
      vertex -5.075 -102.25 -14.6
      vertex -4.825 -102.75 -14.6
    endloop
  endfacet
  facet normal -0.807714 0 -0.589574
    outer loop
      vertex -11.425 -102.75 -15.1287
      vertex -21.3 -85 -1.6
      vertex -21.3 -83 -1.6
    endloop
  endfacet
  facet normal -0.807714 1.89214e-07 -0.589575
    outer loop
      vertex -11.9569 -102.75 -14.4
      vertex -21.3 -85 -1.6
      vertex -11.425 -102.75 -15.1287
    endloop
  endfacet
  facet normal -0.807714 0 -0.589574
    outer loop
      vertex -21.3 -85 -1.6
      vertex -11.9569 -102.75 -14.4
      vertex -11.9569 -103.686 -14.4
    endloop
  endfacet
  facet normal 0 -0.56513 0.825002
    outer loop
      vertex -14.7 -85 0
      vertex -11.7 -103.686 -12.8
      vertex -5.35693 -103.686 -12.8
    endloop
  endfacet
  facet normal 0 -0.56513 0.825002
    outer loop
      vertex -21.3 -85 0
      vertex -11.7 -103.686 -12.8
      vertex -14.7 -85 0
    endloop
  endfacet
  facet normal 0.000288935 -0.565029 0.825071
    outer loop
      vertex -11.7 -103.686 -12.8
      vertex -21.3 -85 0
      vertex -11.7 -104.2 -13.152
    endloop
  endfacet
  facet normal 0.948683 0.316228 -0
    outer loop
      vertex 1.3 -121 -28.8
      vertex -4 -105.1 -15.6
      vertex 1.3 -121 -27.2
    endloop
  endfacet
  facet normal 0.948683 0.316229 -2.24065e-06
    outer loop
      vertex -4 -105.1 -15.6
      vertex 1.3 -121 -28.8
      vertex -4.56667 -103.4 -15.6
    endloop
  endfacet
  facet normal 0.948683 0.316228 0
    outer loop
      vertex -4 -105.1 -15.275
      vertex 1.3 -121 -27.2
      vertex -4 -105.1 -15.6
    endloop
  endfacet
  facet normal 0 -1 0
    outer loop
      vertex -5.3 -123 -28.8
      vertex 1.3 -123 -27.2
      vertex -5.3 -123 -27.2
    endloop
  endfacet
  facet normal 0 -1 -0
    outer loop
      vertex 1.3 -123 -27.2
      vertex -5.3 -123 -28.8
      vertex 1.3 -123 -28.8
    endloop
  endfacet
  facet normal -0.948664 -0.316285 0
    outer loop
      vertex -11.2167 -105.25 -15.4875
      vertex -11.05 -105.75 -14.6
      vertex -11.2167 -105.25 -14.6
    endloop
  endfacet
  facet normal -0.948683 -0.316229 -0
    outer loop
      vertex -5.3 -123 -27.2
      vertex -11.2167 -105.25 -15.4875
      vertex -5.3 -123 -28.8
    endloop
  endfacet
  facet normal -0.948678 -0.316244 2.52432e-05
    outer loop
      vertex -11.2167 -105.25 -15.4875
      vertex -5.3 -123 -27.2
      vertex -11.05 -105.75 -14.6
    endloop
  endfacet
  facet normal -0.948683 -0.316228 0
    outer loop
      vertex -11.05 -105.75 -14.6
      vertex -5.3 -123 -27.2
      vertex -11.05 -105.75 -14.2625
    endloop
  endfacet
  facet normal 1 -0 0
    outer loop
      vertex 1.3 -123 -27.2
      vertex 1.3 -121 -28.8
      vertex 1.3 -121 -27.2
    endloop
  endfacet
  facet normal 1 0 0
    outer loop
      vertex 1.3 -121 -28.8
      vertex 1.3 -123 -27.2
      vertex 1.3 -123 -28.8
    endloop
  endfacet
  facet normal 0 0.6 -0.8
    outer loop
      vertex -5.3 -121 -28.8
      vertex -4.56667 -103.4 -15.6
      vertex 1.3 -121 -28.8
    endloop
  endfacet
  facet normal 0 0.6 -0.8
    outer loop
      vertex -4.56667 -103.4 -15.6
      vertex -5.3 -121 -28.8
      vertex -11.1667 -103.4 -15.6
    endloop
  endfacet
  facet normal 0.913812 0 0.406138
    outer loop
      vertex -4.3 -105.25 -14.6
      vertex -4.3 -105.75 -14.6
      vertex -4 -105.25 -15.275
    endloop
  endfacet
  facet normal 0.913812 -0 0.406138
    outer loop
      vertex -4 -105.25 -15.275
      vertex 1.3 -121 -27.2
      vertex -4 -105.1 -15.275
    endloop
  endfacet
  facet normal 0.913812 7.82586e-16 0.406138
    outer loop
      vertex 1.3 -121 -27.2
      vertex -4 -105.25 -15.275
      vertex -4.3 -105.75 -14.6
    endloop
  endfacet
  facet normal 0.913812 -4.7308e-16 0.406138
    outer loop
      vertex -4.45 -105.75 -14.2625
      vertex 1.3 -121 -27.2
      vertex -4.3 -105.75 -14.6
    endloop
  endfacet
  facet normal 0.913812 0 0.406138
    outer loop
      vertex 1.3 -121 -27.2
      vertex -4.45 -105.75 -14.2625
      vertex 1.3 -123 -27.2
    endloop
  endfacet
  facet normal 0 0 -1
    outer loop
      vertex -5.3 -123 -28.8
      vertex 1.3 -121 -28.8
      vertex 1.3 -123 -28.8
    endloop
  endfacet
  facet normal -0 0 -1
    outer loop
      vertex 1.3 -121 -28.8
      vertex -5.3 -123 -28.8
      vertex -5.3 -121 -28.8
    endloop
  endfacet
  facet normal 0 -0.6 0.8
    outer loop
      vertex -4.45 -105.75 -14.2625
      vertex -5.3 -123 -27.2
      vertex 1.3 -123 -27.2
    endloop
  endfacet
  facet normal 0 -0.6 0.8
    outer loop
      vertex -5.3 -123 -27.2
      vertex -4.45 -105.75 -14.2625
      vertex -11.05 -105.75 -14.2625
    endloop
  endfacet
  facet normal -0.913811 0 -0.40614
    outer loop
      vertex -5.3 -121 -28.8
      vertex -11.1667 -105.25 -15.6
      vertex -11.1667 -103.4 -15.6
    endloop
  endfacet
  facet normal -0.913812 -1.93399e-06 -0.406138
    outer loop
      vertex -5.3 -121 -28.8
      vertex -11.2167 -105.25 -15.4875
      vertex -11.1667 -105.25 -15.6
    endloop
  endfacet
  facet normal -0.913811 0 -0.40614
    outer loop
      vertex -11.2167 -105.25 -15.4875
      vertex -5.3 -121 -28.8
      vertex -5.3 -123 -28.8
    endloop
  endfacet
  facet normal 1 0 0
    outer loop
      vertex -28.3 -60.25 8.2
      vertex -28.3 -61.6286 7.09143
      vertex -28.3 -60.25 6.4
    endloop
  endfacet
  facet normal 1 -0 0
    outer loop
      vertex -28.3 -63.75 8.2
      vertex -28.3 -61.6286 7.09143
      vertex -28.3 -60.25 8.2
    endloop
  endfacet
  facet normal 1 0 0
    outer loop
      vertex -28.3 -61.6286 7.09143
      vertex -28.3 -63.75 8.2
      vertex -28.3 -63.6286 7.09143
    endloop
  endfacet
  facet normal 1 0 0
    outer loop
      vertex -28.3 -63.6286 7.09143
      vertex -28.3 -63.75 8.2
      vertex -28.3 -63.75 7.05114
    endloop
  endfacet
  facet normal 1 0 0
    outer loop
      vertex -28.3 -60.25 6.4
      vertex -28.3 -61.6286 7.09143
      vertex -28.3 -61.6286 6.4
    endloop
  endfacet
  facet normal -0 0 1
    outer loop
      vertex -35.7 -60.25 8.2
      vertex -28.3 -63.75 8.2
      vertex -28.3 -60.25 8.2
    endloop
  endfacet
  facet normal 0 0 1
    outer loop
      vertex -28.3 -63.75 8.2
      vertex -35.7 -60.25 8.2
      vertex -35.7 -63.75 8.2
    endloop
  endfacet
  facet normal 0 0 -1
    outer loop
      vertex -28.7 -61 6.4
      vertex -28.3 -60.25 6.4
      vertex -28.3 -61.6286 6.4
    endloop
  endfacet
  facet normal -0 0 -1
    outer loop
      vertex -28.3 -60.25 6.4
      vertex -28.7 -61 6.4
      vertex -29.225 -60.25 6.4
    endloop
  endfacet
  facet normal 0 0 -1
    outer loop
      vertex -35.7 -63.75 6.4
      vertex -35.3 -63 6.4
      vertex -34.8227 -63.75 6.4
    endloop
  endfacet
  facet normal -0 0 -1
    outer loop
      vertex -35.3 -63 6.4
      vertex -35.7 -63.75 6.4
      vertex -35.7 -62.4286 6.4
    endloop
  endfacet
  facet normal -1 0 0
    outer loop
      vertex -35.7 -62.4286 6.4
      vertex -35.7 -63.75 6.4
      vertex -35.7 -62.4286 7.34286
    endloop
  endfacet
  facet normal -1 0 0
    outer loop
      vertex -35.7 -62.4286 7.34286
      vertex -35.7 -60.25 8.2
      vertex -35.7 -60.25 7.50625
    endloop
  endfacet
  facet normal -1 0 0
    outer loop
      vertex -35.7 -62.4286 7.34286
      vertex -35.7 -63.75 8.2
      vertex -35.7 -60.25 8.2
    endloop
  endfacet
  facet normal -1 0 0
    outer loop
      vertex -35.7 -63.75 8.2
      vertex -35.7 -62.4286 7.34286
      vertex -35.7 -63.75 6.4
    endloop
  endfacet
  facet normal 0 -1 0
    outer loop
      vertex -35.7 -63.75 8.2
      vertex -34.8227 -63.75 7.05114
      vertex -28.3 -63.75 8.2
    endloop
  endfacet
  facet normal 0 -1 0
    outer loop
      vertex -35.7 -63.75 6.4
      vertex -34.8227 -63.75 7.05114
      vertex -35.7 -63.75 8.2
    endloop
  endfacet
  facet normal 0 -1 -0
    outer loop
      vertex -34.8227 -63.75 7.05114
      vertex -35.7 -63.75 6.4
      vertex -34.8227 -63.75 6.4
    endloop
  endfacet
  facet normal 0 -1 -0
    outer loop
      vertex -28.3 -63.75 8.2
      vertex -34.8227 -63.75 7.05114
      vertex -28.3 -63.75 7.05114
    endloop
  endfacet
  facet normal 0 1 0
    outer loop
      vertex -28.3 -60.25 8.2
      vertex -30.625 -60.25 7.50625
      vertex -35.7 -60.25 8.2
    endloop
  endfacet
  facet normal 0 1 0
    outer loop
      vertex -28.3 -60.25 8.2
      vertex -29.225 -60.25 7.35625
      vertex -30.625 -60.25 7.50625
    endloop
  endfacet
  facet normal 0 1 -0
    outer loop
      vertex -28.3 -60.25 6.4
      vertex -29.225 -60.25 7.35625
      vertex -28.3 -60.25 8.2
    endloop
  endfacet
  facet normal 0 1 0
    outer loop
      vertex -29.225 -60.25 7.35625
      vertex -28.3 -60.25 6.4
      vertex -29.225 -60.25 6.4
    endloop
  endfacet
  facet normal 0 1 0
    outer loop
      vertex -35.7 -60.25 8.2
      vertex -30.625 -60.25 7.50625
      vertex -35.7 -60.25 7.50625
    endloop
  endfacet
  facet normal 1 0 0
    outer loop
      vertex -4.3 -102.25 -12.8
      vertex -4.3 -102.75 -14.4
      vertex -4.3 -102.25 -14.6
    endloop
  endfacet
  facet normal 1 0 0
    outer loop
      vertex -4.3 -102.25 -12.8
      vertex -4.3 -105.25 -14.4
      vertex -4.3 -102.75 -14.4
    endloop
  endfacet
  facet normal 1 -0 0
    outer loop
      vertex -4.3 -105.75 -12.8
      vertex -4.3 -105.25 -14.4
      vertex -4.3 -102.25 -12.8
    endloop
  endfacet
  facet normal 1 0 0
    outer loop
      vertex -4.3 -105.75 -14.6
      vertex -4.3 -105.25 -14.4
      vertex -4.3 -105.75 -12.8
    endloop
  endfacet
  facet normal 1 0 0
    outer loop
      vertex -4.3 -105.25 -14.4
      vertex -4.3 -105.75 -14.6
      vertex -4.3 -105.25 -14.6
    endloop
  endfacet
  facet normal 1 0 0
    outer loop
      vertex -4.3 -102.25 -14.6
      vertex -4.3 -102.75 -14.4
      vertex -4.3 -102.75 -14.6
    endloop
  endfacet
  facet normal 0 0 1
    outer loop
      vertex -5.35693 -103.686 -12.8
      vertex -4.3 -102.25 -12.8
      vertex -5.35693 -102.25 -12.8
    endloop
  endfacet
  facet normal 0 0 1
    outer loop
      vertex -4.3 -102.25 -12.8
      vertex -5.35693 -103.686 -12.8
      vertex -4.3 -105.75 -12.8
    endloop
  endfacet
  facet normal 0 0 1
    outer loop
      vertex -11.7 -105.75 -12.8
      vertex -5.35693 -103.686 -12.8
      vertex -11.7 -103.686 -12.8
    endloop
  endfacet
  facet normal 0 0 1
    outer loop
      vertex -5.35693 -103.686 -12.8
      vertex -11.7 -105.75 -12.8
      vertex -4.3 -105.75 -12.8
    endloop
  endfacet
  facet normal 0 0 -1
    outer loop
      vertex -4.825 -102.75 -14.6
      vertex -4.3 -102.25 -14.6
      vertex -4.3 -102.75 -14.6
    endloop
  endfacet
  facet normal -0 0 -1
    outer loop
      vertex -4.3 -102.25 -14.6
      vertex -4.825 -102.75 -14.6
      vertex -5.075 -102.25 -14.6
    endloop
  endfacet
  facet normal 0 0 -1
    outer loop
      vertex -11.7 -105.75 -14.6
      vertex -11.2167 -105.25 -14.6
      vertex -11.05 -105.75 -14.6
    endloop
  endfacet
  facet normal -0 0 -1
    outer loop
      vertex -11.2167 -105.25 -14.6
      vertex -11.7 -105.75 -14.6
      vertex -11.7 -105.25 -14.6
    endloop
  endfacet
  facet normal -1 0 0
    outer loop
      vertex -11.7 -105.25 -14.6
      vertex -11.7 -105.75 -14.6
      vertex -11.7 -105.25 -14.4
    endloop
  endfacet
  facet normal -1 0 0
    outer loop
      vertex -11.7 -104.2 -14.4
      vertex -11.7 -105.25 -14.4
      vertex -11.7 -104.2 -13.152
    endloop
  endfacet
  facet normal -1 0 0
    outer loop
      vertex -11.7 -105.75 -12.8
      vertex -11.7 -105.25 -14.4
      vertex -11.7 -105.75 -14.6
    endloop
  endfacet
  facet normal -1 0 0
    outer loop
      vertex -11.7 -104.2 -13.152
      vertex -11.7 -105.75 -12.8
      vertex -11.7 -103.686 -12.8
    endloop
  endfacet
  facet normal -1 0 0
    outer loop
      vertex -11.7 -105.25 -14.4
      vertex -11.7 -105.75 -12.8
      vertex -11.7 -104.2 -13.152
    endloop
  endfacet
  facet normal 0 -1 0
    outer loop
      vertex -11.7 -105.75 -12.8
      vertex -11.05 -105.75 -14.2625
      vertex -4.3 -105.75 -12.8
    endloop
  endfacet
  facet normal 0 -1 0
    outer loop
      vertex -11.7 -105.75 -14.6
      vertex -11.05 -105.75 -14.2625
      vertex -11.7 -105.75 -12.8
    endloop
  endfacet
  facet normal 0 -1 -0
    outer loop
      vertex -11.05 -105.75 -14.2625
      vertex -11.7 -105.75 -14.6
      vertex -11.05 -105.75 -14.6
    endloop
  endfacet
  facet normal 0 -1 0
    outer loop
      vertex -4.45 -105.75 -14.2625
      vertex -4.3 -105.75 -12.8
      vertex -11.05 -105.75 -14.2625
    endloop
  endfacet
  facet normal 0 -1 0
    outer loop
      vertex -4.45 -105.75 -14.2625
      vertex -4.3 -105.75 -14.6
      vertex -4.3 -105.75 -12.8
    endloop
  endfacet
  facet normal 0 1 0
    outer loop
      vertex -4.3 -102.25 -12.8
      vertex -5.075 -102.25 -13.1862
      vertex -5.35693 -102.25 -12.8
    endloop
  endfacet
  facet normal 0 1 -0
    outer loop
      vertex -4.3 -102.25 -14.6
      vertex -5.075 -102.25 -13.1862
      vertex -4.3 -102.25 -12.8
    endloop
  endfacet
  facet normal 0 1 0
    outer loop
      vertex -5.075 -102.25 -13.1862
      vertex -4.3 -102.25 -14.6
      vertex -5.075 -102.25 -14.6
    endloop
  endfacet
  facet normal -1 0 0
    outer loop
      vertex -4 -105.25 -15.6
      vertex -4 -105.1 -15.275
      vertex -4 -105.1 -15.6
    endloop
  endfacet
  facet normal -1 -0 0
    outer loop
      vertex -4 -105.1 -15.275
      vertex -4 -105.25 -15.6
      vertex -4 -105.25 -15.275
    endloop
  endfacet
  facet normal 0 0 -1
    outer loop
      vertex -11.7 -104.2 -14.4
      vertex -4.3 -105.25 -14.4
      vertex -11.7 -105.25 -14.4
    endloop
  endfacet
  facet normal 0 0 -1
    outer loop
      vertex -4.3 -105.25 -14.4
      vertex -11.7 -104.2 -14.4
      vertex -4.3 -102.75 -14.4
    endloop
  endfacet
  facet normal 0 0 -1
    outer loop
      vertex -11.9569 -102.75 -14.4
      vertex -11.7 -104.2 -14.4
      vertex -11.9569 -103.686 -14.4
    endloop
  endfacet
  facet normal 0 0 -1
    outer loop
      vertex -11.7 -104.2 -14.4
      vertex -11.9569 -102.75 -14.4
      vertex -4.3 -102.75 -14.4
    endloop
  endfacet
  facet normal 0 0 1
    outer loop
      vertex -4.56667 -103.4 -15.6
      vertex -4 -105.25 -15.6
      vertex -4 -105.1 -15.6
    endloop
  endfacet
  facet normal 0 0 1
    outer loop
      vertex -11.1667 -105.25 -15.6
      vertex -4.56667 -103.4 -15.6
      vertex -11.1667 -103.4 -15.6
    endloop
  endfacet
  facet normal 0 0 1
    outer loop
      vertex -4.56667 -103.4 -15.6
      vertex -11.1667 -105.25 -15.6
      vertex -4 -105.25 -15.6
    endloop
  endfacet
  facet normal 0 1 -0
    outer loop
      vertex -4 -105.25 -15.6
      vertex -4.3 -105.25 -14.6
      vertex -4 -105.25 -15.275
    endloop
  endfacet
  facet normal 0 1 0
    outer loop
      vertex -4.3 -105.25 -14.6
      vertex -11.1667 -105.25 -15.6
      vertex -11.2167 -105.25 -14.6
    endloop
  endfacet
  facet normal 0 1 0
    outer loop
      vertex -4.3 -105.25 -14.6
      vertex -4 -105.25 -15.6
      vertex -11.1667 -105.25 -15.6
    endloop
  endfacet
  facet normal 0 1 0
    outer loop
      vertex -11.2167 -105.25 -14.6
      vertex -11.1667 -105.25 -15.6
      vertex -11.2167 -105.25 -15.4875
    endloop
  endfacet
  facet normal 0 1 0
    outer loop
      vertex -11.2167 -105.25 -14.6
      vertex -4.3 -105.25 -14.4
      vertex -4.3 -105.25 -14.6
    endloop
  endfacet
  facet normal 0 1 0
    outer loop
      vertex -4.3 -105.25 -14.4
      vertex -11.2167 -105.25 -14.6
      vertex -11.7 -105.25 -14.4
    endloop
  endfacet
  facet normal 0 1 0
    outer loop
      vertex -11.7 -105.25 -14.4
      vertex -11.2167 -105.25 -14.6
      vertex -11.7 -105.25 -14.6
    endloop
  endfacet
  facet normal 0 -1 0
    outer loop
      vertex -11.9569 -102.75 -14.4
      vertex -4.825 -102.75 -14.6
      vertex -4.3 -102.75 -14.4
    endloop
  endfacet
  facet normal 0 -1 0
    outer loop
      vertex -11.425 -102.75 -15.1287
      vertex -4.825 -102.75 -14.6
      vertex -11.9569 -102.75 -14.4
    endloop
  endfacet
  facet normal 0 -1 -0
    outer loop
      vertex -4.825 -102.75 -14.6
      vertex -11.425 -102.75 -15.1287
      vertex -4.825 -102.75 -15.1287
    endloop
  endfacet
  facet normal 0 -1 -0
    outer loop
      vertex -4.3 -102.75 -14.4
      vertex -4.825 -102.75 -14.6
      vertex -4.3 -102.75 -14.6
    endloop
  endfacet
  facet normal 0 -0.0747899 -0.997199
    outer loop
      vertex -42.7 41 7.2
      vertex -35.3 61 5.7
      vertex -28.7 61 5.7
    endloop
  endfacet
  facet normal 0 -0.0747899 -0.997199
    outer loop
      vertex -35.3 61 5.7
      vertex -42.7 41 7.2
      vertex -49.3 41 7.2
    endloop
  endfacet
  facet normal 0 -1 0
    outer loop
      vertex -49.3 41 7.2
      vertex -42.7 41 8.8
      vertex -49.3 41 8.8
    endloop
  endfacet
  facet normal 0 -1 -0
    outer loop
      vertex -42.7 41 8.8
      vertex -49.3 41 7.2
      vertex -42.7 41 7.2
    endloop
  endfacet
  facet normal 0.106533 1.46273e-16 0.994309
    outer loop
      vertex -42.7 43 8.8
      vertex -29.225 60.25 7.35625
      vertex -30.625 60.25 7.50625
    endloop
  endfacet
  facet normal 0.106533 0 0.994309
    outer loop
      vertex -29.225 60.25 7.35625
      vertex -42.7 43 8.8
      vertex -42.7 41 8.8
    endloop
  endfacet
  facet normal 0.819232 -0.573462 0
    outer loop
      vertex -42.7 41 7.2
      vertex -29.225 60.25 7.35625
      vertex -42.7 41 8.8
    endloop
  endfacet
  facet normal 0.819232 -0.573462 0
    outer loop
      vertex -29.225 60.25 6.4
      vertex -28.7 61 5.7
      vertex -28.7 61 6.4
    endloop
  endfacet
  facet normal 0.819232 -0.573462 0
    outer loop
      vertex -29.225 60.25 7.35625
      vertex -42.7 41 7.2
      vertex -29.225 60.25 6.4
    endloop
  endfacet
  facet normal 0.819232 -0.573462 2.59967e-15
    outer loop
      vertex -29.225 60.25 6.4
      vertex -42.7 41 7.2
      vertex -28.7 61 5.7
    endloop
  endfacet
  facet normal -1 0 0
    outer loop
      vertex -49.3 41 7.2
      vertex -49.3 43 8.8
      vertex -49.3 43 7.2
    endloop
  endfacet
  facet normal -1 -0 0
    outer loop
      vertex -49.3 43 8.8
      vertex -49.3 41 7.2
      vertex -49.3 41 8.8
    endloop
  endfacet
  facet normal -0.819218 0.573482 0
    outer loop
      vertex -35.3 63 5.7
      vertex -35.7 62.4286 6.4
      vertex -35.3 63 6.4
    endloop
  endfacet
  facet normal -0.819233 0.573461 -2.49331e-05
    outer loop
      vertex -49.3 43 7.2
      vertex -35.7 62.4286 6.4
      vertex -35.3 63 5.7
    endloop
  endfacet
  facet normal -0.819232 0.573462 0
    outer loop
      vertex -49.3 43 7.2
      vertex -35.7 62.4286 7.34286
      vertex -35.7 62.4286 6.4
    endloop
  endfacet
  facet normal -0.819232 0.573462 0
    outer loop
      vertex -35.7 62.4286 7.34286
      vertex -49.3 43 7.2
      vertex -49.3 43 8.8
    endloop
  endfacet
  facet normal -0.106533 -0 -0.994309
    outer loop
      vertex -49.3 43 7.2
      vertex -35.3 61 5.7
      vertex -49.3 41 7.2
    endloop
  endfacet
  facet normal -0.106533 0 -0.994309
    outer loop
      vertex -35.3 61 5.7
      vertex -49.3 43 7.2
      vertex -35.3 63 5.7
    endloop
  endfacet
  facet normal 2.90285e-06 0.0747877 0.997199
    outer loop
      vertex -49.3 43 8.8
      vertex -35.7 60.25 7.50625
      vertex -35.7 62.4286 7.34286
    endloop
  endfacet
  facet normal 0 0.0747899 0.997199
    outer loop
      vertex -35.7 60.25 7.50625
      vertex -49.3 43 8.8
      vertex -42.7 43 8.8
    endloop
  endfacet
  facet normal 0 0.0747899 0.997199
    outer loop
      vertex -30.625 60.25 7.50625
      vertex -35.7 60.25 7.50625
      vertex -42.7 43 8.8
    endloop
  endfacet
  facet normal -0 0 1
    outer loop
      vertex -49.3 43 8.8
      vertex -42.7 41 8.8
      vertex -42.7 43 8.8
    endloop
  endfacet
  facet normal 0 0 1
    outer loop
      vertex -42.7 41 8.8
      vertex -49.3 43 8.8
      vertex -49.3 41 8.8
    endloop
  endfacet
  facet normal -0.843662 0.536875 0
    outer loop
      vertex -21.3 85 -1.6
      vertex -34.8227 63.75 6.4
      vertex -21.3 85 0
    endloop
  endfacet
  facet normal -0.843658 0.536881 2.42488e-05
    outer loop
      vertex -35.3 63 5.7
      vertex -34.8227 63.75 6.4
      vertex -21.3 85 -1.6
    endloop
  endfacet
  facet normal -0.843648 0.536897 0
    outer loop
      vertex -34.8227 63.75 6.4
      vertex -35.3 63 5.7
      vertex -35.3 63 6.4
    endloop
  endfacet
  facet normal -0.843662 0.536875 0
    outer loop
      vertex -21.3 85 0
      vertex -34.8227 63.75 6.4
      vertex -34.8227 63.75 7.05114
    endloop
  endfacet
  facet normal 0 -0.314933 -0.949114
    outer loop
      vertex -28.7 61 5.7
      vertex -21.3 83 -1.6
      vertex -14.7 83 -1.6
    endloop
  endfacet
  facet normal 0 -0.314933 -0.949114
    outer loop
      vertex -21.3 83 -1.6
      vertex -28.7 61 5.7
      vertex -35.3 61 5.7
    endloop
  endfacet
  facet normal 0.46235 0 0.886698
    outer loop
      vertex -28.3 63.6286 7.09143
      vertex -14.7 83 0
      vertex -14.7 85 0
    endloop
  endfacet
  facet normal 0.46235 0 0.886698
    outer loop
      vertex -14.7 83 0
      vertex -28.3 63.6286 7.09143
      vertex -28.3 61.6286 7.09143
    endloop
  endfacet
  facet normal 0.843661 -0.536876 0
    outer loop
      vertex -28.3 61.6286 6.4
      vertex -14.7 83 0
      vertex -28.3 61.6286 7.09143
    endloop
  endfacet
  facet normal 0.843661 -0.536876 0
    outer loop
      vertex -14.7 83 0
      vertex -28.3 61.6286 6.4
      vertex -14.7 83 -1.6
    endloop
  endfacet
  facet normal 0.843673 -0.536858 0
    outer loop
      vertex -28.7 61 5.7
      vertex -28.3 61.6286 6.4
      vertex -28.7 61 6.4
    endloop
  endfacet
  facet normal 0.843664 -0.536872 1.68828e-05
    outer loop
      vertex -28.3 61.6286 6.4
      vertex -28.7 61 5.7
      vertex -14.7 83 -1.6
    endloop
  endfacet
  facet normal -0.46235 -0 -0.886698
    outer loop
      vertex -35.3 63 5.7
      vertex -21.3 83 -1.6
      vertex -35.3 61 5.7
    endloop
  endfacet
  facet normal -0.46235 0 -0.886698
    outer loop
      vertex -21.3 83 -1.6
      vertex -35.3 63 5.7
      vertex -21.3 85 -1.6
    endloop
  endfacet
  facet normal 0 0.314933 0.949114
    outer loop
      vertex -21.3 85 0
      vertex -34.8227 63.75 7.05114
      vertex -28.3 63.75 7.05114
    endloop
  endfacet
  facet normal 0 0.314933 0.949114
    outer loop
      vertex -28.3 63.75 7.05114
      vertex -14.7 85 0
      vertex -21.3 85 0
    endloop
  endfacet
  facet normal -8.85864e-05 0.314984 0.949097
    outer loop
      vertex -14.7 85 0
      vertex -28.3 63.75 7.05114
      vertex -28.3 63.6286 7.09143
    endloop
  endfacet
  facet normal -0.894497 0.447074 0
    outer loop
      vertex -11.9569 103.686 -14.4
      vertex -11.7 104.2 -13.152
      vertex -11.7 104.2 -14.4
    endloop
  endfacet
  facet normal -0.894441 0.447186 -5.7437e-05
    outer loop
      vertex -21.3 85 -1.6
      vertex -11.7 104.2 -13.152
      vertex -11.9569 103.686 -14.4
    endloop
  endfacet
  facet normal -0.894427 0.447214 0
    outer loop
      vertex -11.7 104.2 -13.152
      vertex -21.3 85 -1.6
      vertex -21.3 85 0
    endloop
  endfacet
  facet normal 0 -0.565126 -0.825005
    outer loop
      vertex -14.7 83 -1.6
      vertex -11.425 102.75 -15.1287
      vertex -4.825 102.75 -15.1287
    endloop
  endfacet
  facet normal 0 -0.565126 -0.825005
    outer loop
      vertex -11.425 102.75 -15.1287
      vertex -14.7 83 -1.6
      vertex -21.3 83 -1.6
    endloop
  endfacet
  facet normal 0.807715 0 0.589573
    outer loop
      vertex -14.7 85 0
      vertex -5.35693 102.25 -12.8
      vertex -5.35693 103.686 -12.8
    endloop
  endfacet
  facet normal 0.807683 4.9752e-05 0.589617
    outer loop
      vertex -14.7 85 0
      vertex -5.075 102.25 -13.1862
      vertex -5.35693 102.25 -12.8
    endloop
  endfacet
  facet normal 0.807714 0 0.589574
    outer loop
      vertex -5.075 102.25 -13.1862
      vertex -14.7 85 0
      vertex -14.7 83 0
    endloop
  endfacet
  facet normal 0.894427 -0.447214 0
    outer loop
      vertex -14.7 83 -1.6
      vertex -5.075 102.25 -13.1862
      vertex -14.7 83 0
    endloop
  endfacet
  facet normal 0.894427 -0.447214 0
    outer loop
      vertex -5.075 102.25 -14.6
      vertex -4.825 102.75 -15.1287
      vertex -4.825 102.75 -14.6
    endloop
  endfacet
  facet normal 0.894427 -0.447214 0
    outer loop
      vertex -5.075 102.25 -13.1862
      vertex -14.7 83 -1.6
      vertex -5.075 102.25 -14.6
    endloop
  endfacet
  facet normal 0.894427 -0.447214 0
    outer loop
      vertex -5.075 102.25 -14.6
      vertex -14.7 83 -1.6
      vertex -4.825 102.75 -15.1287
    endloop
  endfacet
  facet normal -0.807714 -1.89214e-07 -0.589575
    outer loop
      vertex -11.425 102.75 -15.1287
      vertex -21.3 85 -1.6
      vertex -11.9569 102.75 -14.4
    endloop
  endfacet
  facet normal -0.807714 -0 -0.589574
    outer loop
      vertex -21.3 85 -1.6
      vertex -11.425 102.75 -15.1287
      vertex -21.3 83 -1.6
    endloop
  endfacet
  facet normal -0.807714 -0 -0.589574
    outer loop
      vertex -11.9569 103.686 -14.4
      vertex -11.9569 102.75 -14.4
      vertex -21.3 85 -1.6
    endloop
  endfacet
  facet normal 0.000288935 0.565029 0.825071
    outer loop
      vertex -21.3 85 0
      vertex -11.7 103.686 -12.8
      vertex -11.7 104.2 -13.152
    endloop
  endfacet
  facet normal 0 0.56513 0.825002
    outer loop
      vertex -11.7 103.686 -12.8
      vertex -21.3 85 0
      vertex -14.7 85 0
    endloop
  endfacet
  facet normal 0 0.56513 0.825002
    outer loop
      vertex -5.35693 103.686 -12.8
      vertex -11.7 103.686 -12.8
      vertex -14.7 85 0
    endloop
  endfacet
  facet normal 0.948683 -0.316228 0
    outer loop
      vertex -4 105.1 -15.6
      vertex 1.3 121 -27.2
      vertex -4 105.1 -15.275
    endloop
  endfacet
  facet normal 0.948683 -0.316228 0
    outer loop
      vertex 1.3 121 -27.2
      vertex -4 105.1 -15.6
      vertex 1.3 121 -28.8
    endloop
  endfacet
  facet normal 0.948683 -0.316229 -2.24065e-06
    outer loop
      vertex 1.3 121 -28.8
      vertex -4 105.1 -15.6
      vertex -4.56667 103.4 -15.6
    endloop
  endfacet
  facet normal 0 1 -0
    outer loop
      vertex 1.3 123 -28.8
      vertex -5.3 123 -27.2
      vertex 1.3 123 -27.2
    endloop
  endfacet
  facet normal 0 1 0
    outer loop
      vertex -5.3 123 -27.2
      vertex 1.3 123 -28.8
      vertex -5.3 123 -28.8
    endloop
  endfacet
  facet normal -0.948683 0.316229 0
    outer loop
      vertex -11.2167 105.25 -15.4875
      vertex -5.3 123 -27.2
      vertex -5.3 123 -28.8
    endloop
  endfacet
  facet normal -0.948678 0.316244 2.52432e-05
    outer loop
      vertex -5.3 123 -27.2
      vertex -11.2167 105.25 -15.4875
      vertex -11.05 105.75 -14.6
    endloop
  endfacet
  facet normal -0.948664 0.316285 0
    outer loop
      vertex -11.05 105.75 -14.6
      vertex -11.2167 105.25 -15.4875
      vertex -11.2167 105.25 -14.6
    endloop
  endfacet
  facet normal -0.948683 0.316228 0
    outer loop
      vertex -5.3 123 -27.2
      vertex -11.05 105.75 -14.6
      vertex -11.05 105.75 -14.2625
    endloop
  endfacet
  facet normal 1 -0 0
    outer loop
      vertex 1.3 121 -27.2
      vertex 1.3 123 -28.8
      vertex 1.3 123 -27.2
    endloop
  endfacet
  facet normal 1 0 0
    outer loop
      vertex 1.3 123 -28.8
      vertex 1.3 121 -27.2
      vertex 1.3 121 -28.8
    endloop
  endfacet
  facet normal 0 -0.6 -0.8
    outer loop
      vertex -4.56667 103.4 -15.6
      vertex -5.3 121 -28.8
      vertex 1.3 121 -28.8
    endloop
  endfacet
  facet normal 0 -0.6 -0.8
    outer loop
      vertex -5.3 121 -28.8
      vertex -4.56667 103.4 -15.6
      vertex -11.1667 103.4 -15.6
    endloop
  endfacet
  facet normal 0.913812 0 0.406138
    outer loop
      vertex -4.45 105.75 -14.2625
      vertex 1.3 121 -27.2
      vertex 1.3 123 -27.2
    endloop
  endfacet
  facet normal 0.913812 4.33657e-16 0.406138
    outer loop
      vertex -4.3 105.75 -14.6
      vertex 1.3 121 -27.2
      vertex -4.45 105.75 -14.2625
    endloop
  endfacet
  facet normal 0.913812 0 0.406138
    outer loop
      vertex -4 105.25 -15.275
      vertex -4.3 105.75 -14.6
      vertex -4.3 105.25 -14.6
    endloop
  endfacet
  facet normal 0.913812 -3.42382e-16 0.406138
    outer loop
      vertex -4.3 105.75 -14.6
      vertex -4 105.25 -15.275
      vertex 1.3 121 -27.2
    endloop
  endfacet
  facet normal 0.913812 0 0.406138
    outer loop
      vertex 1.3 121 -27.2
      vertex -4 105.25 -15.275
      vertex -4 105.1 -15.275
    endloop
  endfacet
  facet normal 0 0 -1
    outer loop
      vertex -5.3 121 -28.8
      vertex 1.3 123 -28.8
      vertex 1.3 121 -28.8
    endloop
  endfacet
  facet normal -0 0 -1
    outer loop
      vertex 1.3 123 -28.8
      vertex -5.3 121 -28.8
      vertex -5.3 123 -28.8
    endloop
  endfacet
  facet normal -0 0.6 0.8
    outer loop
      vertex -5.3 123 -27.2
      vertex -4.45 105.75 -14.2625
      vertex 1.3 123 -27.2
    endloop
  endfacet
  facet normal 0 0.6 0.8
    outer loop
      vertex -4.45 105.75 -14.2625
      vertex -5.3 123 -27.2
      vertex -11.05 105.75 -14.2625
    endloop
  endfacet
  facet normal -0.913811 0 -0.40614
    outer loop
      vertex -5.3 121 -28.8
      vertex -11.1667 103.4 -15.6
      vertex -11.1667 105.25 -15.6
    endloop
  endfacet
  facet normal -0.913812 1.93399e-06 -0.406138
    outer loop
      vertex -11.2167 105.25 -15.4875
      vertex -5.3 121 -28.8
      vertex -11.1667 105.25 -15.6
    endloop
  endfacet
  facet normal -0.913811 0 -0.40614
    outer loop
      vertex -5.3 121 -28.8
      vertex -11.2167 105.25 -15.4875
      vertex -5.3 123 -28.8
    endloop
  endfacet
  facet normal 1 0 0
    outer loop
      vertex -28.3 63.75 8.2
      vertex -28.3 63.6286 7.09143
      vertex -28.3 63.75 7.05114
    endloop
  endfacet
  facet normal 1 0 0
    outer loop
      vertex -28.3 63.75 8.2
      vertex -28.3 61.6286 7.09143
      vertex -28.3 63.6286 7.09143
    endloop
  endfacet
  facet normal 1 -0 0
    outer loop
      vertex -28.3 60.25 8.2
      vertex -28.3 61.6286 7.09143
      vertex -28.3 63.75 8.2
    endloop
  endfacet
  facet normal 1 0 0
    outer loop
      vertex -28.3 60.25 6.4
      vertex -28.3 61.6286 7.09143
      vertex -28.3 60.25 8.2
    endloop
  endfacet
  facet normal 1 0 0
    outer loop
      vertex -28.3 61.6286 7.09143
      vertex -28.3 60.25 6.4
      vertex -28.3 61.6286 6.4
    endloop
  endfacet
  facet normal -0 0 1
    outer loop
      vertex -35.7 63.75 8.2
      vertex -28.3 60.25 8.2
      vertex -28.3 63.75 8.2
    endloop
  endfacet
  facet normal 0 0 1
    outer loop
      vertex -28.3 60.25 8.2
      vertex -35.7 63.75 8.2
      vertex -35.7 60.25 8.2
    endloop
  endfacet
  facet normal 0 0 -1
    outer loop
      vertex -28.3 60.25 6.4
      vertex -28.7 61 6.4
      vertex -28.3 61.6286 6.4
    endloop
  endfacet
  facet normal 0 -0 -1
    outer loop
      vertex -28.7 61 6.4
      vertex -28.3 60.25 6.4
      vertex -29.225 60.25 6.4
    endloop
  endfacet
  facet normal 0 0 -1
    outer loop
      vertex -35.7 63.75 6.4
      vertex -35.3 63 6.4
      vertex -35.7 62.4286 6.4
    endloop
  endfacet
  facet normal 0 0 -1
    outer loop
      vertex -35.3 63 6.4
      vertex -35.7 63.75 6.4
      vertex -34.8227 63.75 6.4
    endloop
  endfacet
  facet normal -1 0 0
    outer loop
      vertex -35.7 62.4286 7.34286
      vertex -35.7 63.75 6.4
      vertex -35.7 62.4286 6.4
    endloop
  endfacet
  facet normal -1 0 0
    outer loop
      vertex -35.7 63.75 6.4
      vertex -35.7 62.4286 7.34286
      vertex -35.7 63.75 8.2
    endloop
  endfacet
  facet normal -1 0 0
    outer loop
      vertex -35.7 60.25 8.2
      vertex -35.7 62.4286 7.34286
      vertex -35.7 60.25 7.50625
    endloop
  endfacet
  facet normal -1 0 0
    outer loop
      vertex -35.7 62.4286 7.34286
      vertex -35.7 60.25 8.2
      vertex -35.7 63.75 8.2
    endloop
  endfacet
  facet normal 0 1 0
    outer loop
      vertex -34.8227 63.75 7.05114
      vertex -28.3 63.75 8.2
      vertex -28.3 63.75 7.05114
    endloop
  endfacet
  facet normal 0 1 0
    outer loop
      vertex -28.3 63.75 8.2
      vertex -34.8227 63.75 7.05114
      vertex -35.7 63.75 8.2
    endloop
  endfacet
  facet normal 0 1 0
    outer loop
      vertex -35.7 63.75 6.4
      vertex -34.8227 63.75 7.05114
      vertex -34.8227 63.75 6.4
    endloop
  endfacet
  facet normal 0 1 0
    outer loop
      vertex -34.8227 63.75 7.05114
      vertex -35.7 63.75 6.4
      vertex -35.7 63.75 8.2
    endloop
  endfacet
  facet normal 0 -1 0
    outer loop
      vertex -30.625 60.25 7.50625
      vertex -35.7 60.25 8.2
      vertex -35.7 60.25 7.50625
    endloop
  endfacet
  facet normal 0 -1 0
    outer loop
      vertex -35.7 60.25 8.2
      vertex -30.625 60.25 7.50625
      vertex -28.3 60.25 8.2
    endloop
  endfacet
  facet normal 0 -1 0
    outer loop
      vertex -29.225 60.25 7.35625
      vertex -28.3 60.25 8.2
      vertex -30.625 60.25 7.50625
    endloop
  endfacet
  facet normal 0 -1 0
    outer loop
      vertex -28.3 60.25 6.4
      vertex -29.225 60.25 7.35625
      vertex -29.225 60.25 6.4
    endloop
  endfacet
  facet normal 0 -1 0
    outer loop
      vertex -29.225 60.25 7.35625
      vertex -28.3 60.25 6.4
      vertex -28.3 60.25 8.2
    endloop
  endfacet
  facet normal 1 0 0
    outer loop
      vertex -4.3 105.75 -12.8
      vertex -4.3 105.25 -14.4
      vertex -4.3 105.75 -14.6
    endloop
  endfacet
  facet normal 1 0 0
    outer loop
      vertex -4.3 105.75 -12.8
      vertex -4.3 102.75 -14.4
      vertex -4.3 105.25 -14.4
    endloop
  endfacet
  facet normal 1 -0 0
    outer loop
      vertex -4.3 102.25 -12.8
      vertex -4.3 102.75 -14.4
      vertex -4.3 105.75 -12.8
    endloop
  endfacet
  facet normal 1 0 0
    outer loop
      vertex -4.3 102.25 -14.6
      vertex -4.3 102.75 -14.4
      vertex -4.3 102.25 -12.8
    endloop
  endfacet
  facet normal 1 0 0
    outer loop
      vertex -4.3 102.75 -14.4
      vertex -4.3 102.25 -14.6
      vertex -4.3 102.75 -14.6
    endloop
  endfacet
  facet normal 1 0 0
    outer loop
      vertex -4.3 105.75 -14.6
      vertex -4.3 105.25 -14.4
      vertex -4.3 105.25 -14.6
    endloop
  endfacet
  facet normal 0 0 1
    outer loop
      vertex -4.3 105.75 -12.8
      vertex -5.35693 103.686 -12.8
      vertex -4.3 102.25 -12.8
    endloop
  endfacet
  facet normal -0 0 1
    outer loop
      vertex -11.7 105.75 -12.8
      vertex -5.35693 103.686 -12.8
      vertex -4.3 105.75 -12.8
    endloop
  endfacet
  facet normal 0 0 1
    outer loop
      vertex -5.35693 103.686 -12.8
      vertex -11.7 105.75 -12.8
      vertex -11.7 103.686 -12.8
    endloop
  endfacet
  facet normal 0 0 1
    outer loop
      vertex -4.3 102.25 -12.8
      vertex -5.35693 103.686 -12.8
      vertex -5.35693 102.25 -12.8
    endloop
  endfacet
  facet normal 0 0 -1
    outer loop
      vertex -4.3 102.25 -14.6
      vertex -4.825 102.75 -14.6
      vertex -4.3 102.75 -14.6
    endloop
  endfacet
  facet normal 0 -0 -1
    outer loop
      vertex -4.825 102.75 -14.6
      vertex -4.3 102.25 -14.6
      vertex -5.075 102.25 -14.6
    endloop
  endfacet
  facet normal 0 0 -1
    outer loop
      vertex -11.7 105.75 -14.6
      vertex -11.2167 105.25 -14.6
      vertex -11.7 105.25 -14.6
    endloop
  endfacet
  facet normal 0 0 -1
    outer loop
      vertex -11.2167 105.25 -14.6
      vertex -11.7 105.75 -14.6
      vertex -11.05 105.75 -14.6
    endloop
  endfacet
  facet normal -1 0 0
    outer loop
      vertex -11.7 105.25 -14.4
      vertex -11.7 105.75 -14.6
      vertex -11.7 105.25 -14.6
    endloop
  endfacet
  facet normal -1 0 0
    outer loop
      vertex -11.7 105.75 -14.6
      vertex -11.7 105.25 -14.4
      vertex -11.7 105.75 -12.8
    endloop
  endfacet
  facet normal -1 0 0
    outer loop
      vertex -11.7 104.2 -13.152
      vertex -11.7 105.25 -14.4
      vertex -11.7 104.2 -14.4
    endloop
  endfacet
  facet normal -1 0 0
    outer loop
      vertex -11.7 105.25 -14.4
      vertex -11.7 104.2 -13.152
      vertex -11.7 105.75 -12.8
    endloop
  endfacet
  facet normal -1 -0 0
    outer loop
      vertex -11.7 105.75 -12.8
      vertex -11.7 104.2 -13.152
      vertex -11.7 103.686 -12.8
    endloop
  endfacet
  facet normal 0 1 0
    outer loop
      vertex -11.05 105.75 -14.2625
      vertex -4.3 105.75 -12.8
      vertex -4.45 105.75 -14.2625
    endloop
  endfacet
  facet normal 0 1 -0
    outer loop
      vertex -4.3 105.75 -14.6
      vertex -4.45 105.75 -14.2625
      vertex -4.3 105.75 -12.8
    endloop
  endfacet
  facet normal 0 1 0
    outer loop
      vertex -4.3 105.75 -12.8
      vertex -11.05 105.75 -14.2625
      vertex -11.7 105.75 -12.8
    endloop
  endfacet
  facet normal 0 1 0
    outer loop
      vertex -11.7 105.75 -14.6
      vertex -11.05 105.75 -14.2625
      vertex -11.05 105.75 -14.6
    endloop
  endfacet
  facet normal 0 1 0
    outer loop
      vertex -11.05 105.75 -14.2625
      vertex -11.7 105.75 -14.6
      vertex -11.7 105.75 -12.8
    endloop
  endfacet
  facet normal 0 -1 0
    outer loop
      vertex -5.075 102.25 -13.1862
      vertex -4.3 102.25 -12.8
      vertex -5.35693 102.25 -12.8
    endloop
  endfacet
  facet normal 0 -1 0
    outer loop
      vertex -4.3 102.25 -14.6
      vertex -5.075 102.25 -13.1862
      vertex -5.075 102.25 -14.6
    endloop
  endfacet
  facet normal 0 -1 0
    outer loop
      vertex -5.075 102.25 -13.1862
      vertex -4.3 102.25 -14.6
      vertex -4.3 102.25 -12.8
    endloop
  endfacet
  facet normal -1 0 0
    outer loop
      vertex -4 105.1 -15.6
      vertex -4 105.25 -15.275
      vertex -4 105.25 -15.6
    endloop
  endfacet
  facet normal -1 -0 0
    outer loop
      vertex -4 105.25 -15.275
      vertex -4 105.1 -15.6
      vertex -4 105.1 -15.275
    endloop
  endfacet
  facet normal 0 0 -1
    outer loop
      vertex -4.3 102.75 -14.4
      vertex -11.7 104.2 -14.4
      vertex -4.3 105.25 -14.4
    endloop
  endfacet
  facet normal 0 0 -1
    outer loop
      vertex -11.9569 102.75 -14.4
      vertex -11.7 104.2 -14.4
      vertex -4.3 102.75 -14.4
    endloop
  endfacet
  facet normal 0 0 -1
    outer loop
      vertex -11.7 104.2 -14.4
      vertex -11.9569 102.75 -14.4
      vertex -11.9569 103.686 -14.4
    endloop
  endfacet
  facet normal -0 0 -1
    outer loop
      vertex -4.3 105.25 -14.4
      vertex -11.7 104.2 -14.4
      vertex -11.7 105.25 -14.4
    endloop
  endfacet
  facet normal 0 0 1
    outer loop
      vertex -4 105.25 -15.6
      vertex -4.56667 103.4 -15.6
      vertex -4 105.1 -15.6
    endloop
  endfacet
  facet normal -0 0 1
    outer loop
      vertex -11.1667 105.25 -15.6
      vertex -4.56667 103.4 -15.6
      vertex -4 105.25 -15.6
    endloop
  endfacet
  facet normal 0 0 1
    outer loop
      vertex -4.56667 103.4 -15.6
      vertex -11.1667 105.25 -15.6
      vertex -11.1667 103.4 -15.6
    endloop
  endfacet
  facet normal 0 -1 0
    outer loop
      vertex -11.1667 105.25 -15.6
      vertex -4.3 105.25 -14.6
      vertex -11.2167 105.25 -14.6
    endloop
  endfacet
  facet normal 0 -1 0
    outer loop
      vertex -11.1667 105.25 -15.6
      vertex -11.2167 105.25 -14.6
      vertex -11.2167 105.25 -15.4875
    endloop
  endfacet
  facet normal 0 -1 0
    outer loop
      vertex -4 105.25 -15.6
      vertex -4.3 105.25 -14.6
      vertex -11.1667 105.25 -15.6
    endloop
  endfacet
  facet normal 0 -1 0
    outer loop
      vertex -4.3 105.25 -14.6
      vertex -4 105.25 -15.6
      vertex -4 105.25 -15.275
    endloop
  endfacet
  facet normal 0 -1 0
    outer loop
      vertex -11.2167 105.25 -14.6
      vertex -11.7 105.25 -14.4
      vertex -11.7 105.25 -14.6
    endloop
  endfacet
  facet normal 0 -1 0
    outer loop
      vertex -11.7 105.25 -14.4
      vertex -11.2167 105.25 -14.6
      vertex -4.3 105.25 -14.4
    endloop
  endfacet
  facet normal 0 -1 0
    outer loop
      vertex -4.3 105.25 -14.6
      vertex -4.3 105.25 -14.4
      vertex -11.2167 105.25 -14.6
    endloop
  endfacet
  facet normal 0 1 0
    outer loop
      vertex -4.825 102.75 -14.6
      vertex -4.3 102.75 -14.4
      vertex -4.3 102.75 -14.6
    endloop
  endfacet
  facet normal 0 1 0
    outer loop
      vertex -4.3 102.75 -14.4
      vertex -4.825 102.75 -14.6
      vertex -11.9569 102.75 -14.4
    endloop
  endfacet
  facet normal 0 1 0
    outer loop
      vertex -11.425 102.75 -15.1287
      vertex -4.825 102.75 -14.6
      vertex -4.825 102.75 -15.1287
    endloop
  endfacet
  facet normal 0 1 0
    outer loop
      vertex -4.825 102.75 -14.6
      vertex -11.425 102.75 -15.1287
      vertex -11.9569 102.75 -14.4
    endloop
  endfacet
endsolid OpenSCAD_Model
