%TF.GenerationSoftware,KiCad,Pcbnew,10.0.5*%
%TF.CreationDate,2026-08-24T09:38:26+02:00*%
%TF.ProjectId,openmotorbridge_pod_cartridge,6f70656e-6d6f-4746-9f72-627269646765,v8.0*%
%TF.SameCoordinates,Original*%
%TF.FileFunction,Legend,Top*%
%TF.FilePolarity,Positive*%
%FSLAX46Y46*%
G04 Gerber Fmt 4.6, Leading zero omitted, Abs format (unit mm)*
G04 Created by KiCad (PCBNEW 10.0.5) date 2026-08-24 09:38:26*
%MOMM*%
%LPD*%
G01*
G04 APERTURE LIST*
%ADD10C,0.150000*%
%ADD11C,0.120000*%
G04 APERTURE END LIST*
D10*
X110646428Y-72029819D02*
X110836904Y-72029819D01*
X110836904Y-72029819D02*
X110932142Y-72077438D01*
X110932142Y-72077438D02*
X111027380Y-72172676D01*
X111027380Y-72172676D02*
X111074999Y-72363152D01*
X111074999Y-72363152D02*
X111074999Y-72696485D01*
X111074999Y-72696485D02*
X111027380Y-72886961D01*
X111027380Y-72886961D02*
X110932142Y-72982200D01*
X110932142Y-72982200D02*
X110836904Y-73029819D01*
X110836904Y-73029819D02*
X110646428Y-73029819D01*
X110646428Y-73029819D02*
X110551190Y-72982200D01*
X110551190Y-72982200D02*
X110455952Y-72886961D01*
X110455952Y-72886961D02*
X110408333Y-72696485D01*
X110408333Y-72696485D02*
X110408333Y-72363152D01*
X110408333Y-72363152D02*
X110455952Y-72172676D01*
X110455952Y-72172676D02*
X110551190Y-72077438D01*
X110551190Y-72077438D02*
X110646428Y-72029819D01*
X111503571Y-73029819D02*
X111503571Y-72029819D01*
X111503571Y-72029819D02*
X111836904Y-72744104D01*
X111836904Y-72744104D02*
X112170237Y-72029819D01*
X112170237Y-72029819D02*
X112170237Y-73029819D01*
X112979761Y-72506009D02*
X113122618Y-72553628D01*
X113122618Y-72553628D02*
X113170237Y-72601247D01*
X113170237Y-72601247D02*
X113217856Y-72696485D01*
X113217856Y-72696485D02*
X113217856Y-72839342D01*
X113217856Y-72839342D02*
X113170237Y-72934580D01*
X113170237Y-72934580D02*
X113122618Y-72982200D01*
X113122618Y-72982200D02*
X113027380Y-73029819D01*
X113027380Y-73029819D02*
X112646428Y-73029819D01*
X112646428Y-73029819D02*
X112646428Y-72029819D01*
X112646428Y-72029819D02*
X112979761Y-72029819D01*
X112979761Y-72029819D02*
X113074999Y-72077438D01*
X113074999Y-72077438D02*
X113122618Y-72125057D01*
X113122618Y-72125057D02*
X113170237Y-72220295D01*
X113170237Y-72220295D02*
X113170237Y-72315533D01*
X113170237Y-72315533D02*
X113122618Y-72410771D01*
X113122618Y-72410771D02*
X113074999Y-72458390D01*
X113074999Y-72458390D02*
X112979761Y-72506009D01*
X112979761Y-72506009D02*
X112646428Y-72506009D01*
X114979761Y-72934580D02*
X114932142Y-72982200D01*
X114932142Y-72982200D02*
X114789285Y-73029819D01*
X114789285Y-73029819D02*
X114694047Y-73029819D01*
X114694047Y-73029819D02*
X114551190Y-72982200D01*
X114551190Y-72982200D02*
X114455952Y-72886961D01*
X114455952Y-72886961D02*
X114408333Y-72791723D01*
X114408333Y-72791723D02*
X114360714Y-72601247D01*
X114360714Y-72601247D02*
X114360714Y-72458390D01*
X114360714Y-72458390D02*
X114408333Y-72267914D01*
X114408333Y-72267914D02*
X114455952Y-72172676D01*
X114455952Y-72172676D02*
X114551190Y-72077438D01*
X114551190Y-72077438D02*
X114694047Y-72029819D01*
X114694047Y-72029819D02*
X114789285Y-72029819D01*
X114789285Y-72029819D02*
X114932142Y-72077438D01*
X114932142Y-72077438D02*
X114979761Y-72125057D01*
X115836904Y-73029819D02*
X115836904Y-72506009D01*
X115836904Y-72506009D02*
X115789285Y-72410771D01*
X115789285Y-72410771D02*
X115694047Y-72363152D01*
X115694047Y-72363152D02*
X115503571Y-72363152D01*
X115503571Y-72363152D02*
X115408333Y-72410771D01*
X115836904Y-72982200D02*
X115741666Y-73029819D01*
X115741666Y-73029819D02*
X115503571Y-73029819D01*
X115503571Y-73029819D02*
X115408333Y-72982200D01*
X115408333Y-72982200D02*
X115360714Y-72886961D01*
X115360714Y-72886961D02*
X115360714Y-72791723D01*
X115360714Y-72791723D02*
X115408333Y-72696485D01*
X115408333Y-72696485D02*
X115503571Y-72648866D01*
X115503571Y-72648866D02*
X115741666Y-72648866D01*
X115741666Y-72648866D02*
X115836904Y-72601247D01*
X116313095Y-73029819D02*
X116313095Y-72363152D01*
X116313095Y-72553628D02*
X116360714Y-72458390D01*
X116360714Y-72458390D02*
X116408333Y-72410771D01*
X116408333Y-72410771D02*
X116503571Y-72363152D01*
X116503571Y-72363152D02*
X116598809Y-72363152D01*
X116789286Y-72363152D02*
X117170238Y-72363152D01*
X116932143Y-72029819D02*
X116932143Y-72886961D01*
X116932143Y-72886961D02*
X116979762Y-72982200D01*
X116979762Y-72982200D02*
X117075000Y-73029819D01*
X117075000Y-73029819D02*
X117170238Y-73029819D01*
X117503572Y-73029819D02*
X117503572Y-72363152D01*
X117503572Y-72553628D02*
X117551191Y-72458390D01*
X117551191Y-72458390D02*
X117598810Y-72410771D01*
X117598810Y-72410771D02*
X117694048Y-72363152D01*
X117694048Y-72363152D02*
X117789286Y-72363152D01*
X118122620Y-73029819D02*
X118122620Y-72363152D01*
X118122620Y-72029819D02*
X118075001Y-72077438D01*
X118075001Y-72077438D02*
X118122620Y-72125057D01*
X118122620Y-72125057D02*
X118170239Y-72077438D01*
X118170239Y-72077438D02*
X118122620Y-72029819D01*
X118122620Y-72029819D02*
X118122620Y-72125057D01*
X119027381Y-73029819D02*
X119027381Y-72029819D01*
X119027381Y-72982200D02*
X118932143Y-73029819D01*
X118932143Y-73029819D02*
X118741667Y-73029819D01*
X118741667Y-73029819D02*
X118646429Y-72982200D01*
X118646429Y-72982200D02*
X118598810Y-72934580D01*
X118598810Y-72934580D02*
X118551191Y-72839342D01*
X118551191Y-72839342D02*
X118551191Y-72553628D01*
X118551191Y-72553628D02*
X118598810Y-72458390D01*
X118598810Y-72458390D02*
X118646429Y-72410771D01*
X118646429Y-72410771D02*
X118741667Y-72363152D01*
X118741667Y-72363152D02*
X118932143Y-72363152D01*
X118932143Y-72363152D02*
X119027381Y-72410771D01*
X119932143Y-72363152D02*
X119932143Y-73172676D01*
X119932143Y-73172676D02*
X119884524Y-73267914D01*
X119884524Y-73267914D02*
X119836905Y-73315533D01*
X119836905Y-73315533D02*
X119741667Y-73363152D01*
X119741667Y-73363152D02*
X119598810Y-73363152D01*
X119598810Y-73363152D02*
X119503572Y-73315533D01*
X119932143Y-72982200D02*
X119836905Y-73029819D01*
X119836905Y-73029819D02*
X119646429Y-73029819D01*
X119646429Y-73029819D02*
X119551191Y-72982200D01*
X119551191Y-72982200D02*
X119503572Y-72934580D01*
X119503572Y-72934580D02*
X119455953Y-72839342D01*
X119455953Y-72839342D02*
X119455953Y-72553628D01*
X119455953Y-72553628D02*
X119503572Y-72458390D01*
X119503572Y-72458390D02*
X119551191Y-72410771D01*
X119551191Y-72410771D02*
X119646429Y-72363152D01*
X119646429Y-72363152D02*
X119836905Y-72363152D01*
X119836905Y-72363152D02*
X119932143Y-72410771D01*
X120789286Y-72982200D02*
X120694048Y-73029819D01*
X120694048Y-73029819D02*
X120503572Y-73029819D01*
X120503572Y-73029819D02*
X120408334Y-72982200D01*
X120408334Y-72982200D02*
X120360715Y-72886961D01*
X120360715Y-72886961D02*
X120360715Y-72506009D01*
X120360715Y-72506009D02*
X120408334Y-72410771D01*
X120408334Y-72410771D02*
X120503572Y-72363152D01*
X120503572Y-72363152D02*
X120694048Y-72363152D01*
X120694048Y-72363152D02*
X120789286Y-72410771D01*
X120789286Y-72410771D02*
X120836905Y-72506009D01*
X120836905Y-72506009D02*
X120836905Y-72601247D01*
X120836905Y-72601247D02*
X120360715Y-72696485D01*
X121932144Y-72363152D02*
X122170239Y-73029819D01*
X122170239Y-73029819D02*
X122408334Y-72363152D01*
X122932144Y-72458390D02*
X122836906Y-72410771D01*
X122836906Y-72410771D02*
X122789287Y-72363152D01*
X122789287Y-72363152D02*
X122741668Y-72267914D01*
X122741668Y-72267914D02*
X122741668Y-72220295D01*
X122741668Y-72220295D02*
X122789287Y-72125057D01*
X122789287Y-72125057D02*
X122836906Y-72077438D01*
X122836906Y-72077438D02*
X122932144Y-72029819D01*
X122932144Y-72029819D02*
X123122620Y-72029819D01*
X123122620Y-72029819D02*
X123217858Y-72077438D01*
X123217858Y-72077438D02*
X123265477Y-72125057D01*
X123265477Y-72125057D02*
X123313096Y-72220295D01*
X123313096Y-72220295D02*
X123313096Y-72267914D01*
X123313096Y-72267914D02*
X123265477Y-72363152D01*
X123265477Y-72363152D02*
X123217858Y-72410771D01*
X123217858Y-72410771D02*
X123122620Y-72458390D01*
X123122620Y-72458390D02*
X122932144Y-72458390D01*
X122932144Y-72458390D02*
X122836906Y-72506009D01*
X122836906Y-72506009D02*
X122789287Y-72553628D01*
X122789287Y-72553628D02*
X122741668Y-72648866D01*
X122741668Y-72648866D02*
X122741668Y-72839342D01*
X122741668Y-72839342D02*
X122789287Y-72934580D01*
X122789287Y-72934580D02*
X122836906Y-72982200D01*
X122836906Y-72982200D02*
X122932144Y-73029819D01*
X122932144Y-73029819D02*
X123122620Y-73029819D01*
X123122620Y-73029819D02*
X123217858Y-72982200D01*
X123217858Y-72982200D02*
X123265477Y-72934580D01*
X123265477Y-72934580D02*
X123313096Y-72839342D01*
X123313096Y-72839342D02*
X123313096Y-72648866D01*
X123313096Y-72648866D02*
X123265477Y-72553628D01*
X123265477Y-72553628D02*
X123217858Y-72506009D01*
X123217858Y-72506009D02*
X123122620Y-72458390D01*
X123741668Y-72934580D02*
X123789287Y-72982200D01*
X123789287Y-72982200D02*
X123741668Y-73029819D01*
X123741668Y-73029819D02*
X123694049Y-72982200D01*
X123694049Y-72982200D02*
X123741668Y-72934580D01*
X123741668Y-72934580D02*
X123741668Y-73029819D01*
X124408334Y-72029819D02*
X124503572Y-72029819D01*
X124503572Y-72029819D02*
X124598810Y-72077438D01*
X124598810Y-72077438D02*
X124646429Y-72125057D01*
X124646429Y-72125057D02*
X124694048Y-72220295D01*
X124694048Y-72220295D02*
X124741667Y-72410771D01*
X124741667Y-72410771D02*
X124741667Y-72648866D01*
X124741667Y-72648866D02*
X124694048Y-72839342D01*
X124694048Y-72839342D02*
X124646429Y-72934580D01*
X124646429Y-72934580D02*
X124598810Y-72982200D01*
X124598810Y-72982200D02*
X124503572Y-73029819D01*
X124503572Y-73029819D02*
X124408334Y-73029819D01*
X124408334Y-73029819D02*
X124313096Y-72982200D01*
X124313096Y-72982200D02*
X124265477Y-72934580D01*
X124265477Y-72934580D02*
X124217858Y-72839342D01*
X124217858Y-72839342D02*
X124170239Y-72648866D01*
X124170239Y-72648866D02*
X124170239Y-72410771D01*
X124170239Y-72410771D02*
X124217858Y-72220295D01*
X124217858Y-72220295D02*
X124265477Y-72125057D01*
X124265477Y-72125057D02*
X124313096Y-72077438D01*
X124313096Y-72077438D02*
X124408334Y-72029819D01*
D11*
X117308333Y-86138855D02*
X117308333Y-86710283D01*
X117308333Y-86710283D02*
X117270238Y-86824569D01*
X117270238Y-86824569D02*
X117194047Y-86900760D01*
X117194047Y-86900760D02*
X117079762Y-86938855D01*
X117079762Y-86938855D02*
X117003571Y-86938855D01*
X118108333Y-86938855D02*
X117651190Y-86938855D01*
X117879762Y-86938855D02*
X117879762Y-86138855D01*
X117879762Y-86138855D02*
X117803571Y-86253140D01*
X117803571Y-86253140D02*
X117727381Y-86329331D01*
X117727381Y-86329331D02*
X117651190Y-86367426D01*
X116965476Y-74138855D02*
X116965476Y-74786474D01*
X116965476Y-74786474D02*
X117003571Y-74862664D01*
X117003571Y-74862664D02*
X117041666Y-74900760D01*
X117041666Y-74900760D02*
X117117857Y-74938855D01*
X117117857Y-74938855D02*
X117270238Y-74938855D01*
X117270238Y-74938855D02*
X117346428Y-74900760D01*
X117346428Y-74900760D02*
X117384523Y-74862664D01*
X117384523Y-74862664D02*
X117422619Y-74786474D01*
X117422619Y-74786474D02*
X117422619Y-74138855D01*
X118222618Y-74938855D02*
X117765475Y-74938855D01*
X117994047Y-74938855D02*
X117994047Y-74138855D01*
X117994047Y-74138855D02*
X117917856Y-74253140D01*
X117917856Y-74253140D02*
X117841666Y-74329331D01*
X117841666Y-74329331D02*
X117765475Y-74367426D01*
M02*
