%TF.GenerationSoftware,KiCad,Pcbnew,10.0.5*%
%TF.CreationDate,2026-08-24T11:56:10+02:00*%
%TF.ProjectId,openmotorbridge_pod_cartridge,6f70656e-6d6f-4746-9f72-627269646765,v8.0*%
%TF.SameCoordinates,Original*%
%TF.FileFunction,Legend,Top*%
%TF.FilePolarity,Positive*%
%FSLAX46Y46*%
G04 Gerber Fmt 4.6, Leading zero omitted, Abs format (unit mm)*
G04 Created by KiCad (PCBNEW 10.0.5) date 2026-08-24 11:56:10*
%MOMM*%
%LPD*%
G01*
G04 APERTURE LIST*
%ADD10C,0.130000*%
%ADD11C,0.140000*%
%ADD12C,0.158750*%
%ADD13C,0.120000*%
G04 APERTURE END LIST*
D10*
X110416668Y-89317073D02*
X110416668Y-88617073D01*
X110416668Y-88617073D02*
X110683335Y-88617073D01*
X110683335Y-88617073D02*
X110750002Y-88650406D01*
X110750002Y-88650406D02*
X110783335Y-88683740D01*
X110783335Y-88683740D02*
X110816668Y-88750406D01*
X110816668Y-88750406D02*
X110816668Y-88850406D01*
X110816668Y-88850406D02*
X110783335Y-88917073D01*
X110783335Y-88917073D02*
X110750002Y-88950406D01*
X110750002Y-88950406D02*
X110683335Y-88983740D01*
X110683335Y-88983740D02*
X110416668Y-88983740D01*
X111250002Y-88617073D02*
X111383335Y-88617073D01*
X111383335Y-88617073D02*
X111450002Y-88650406D01*
X111450002Y-88650406D02*
X111516668Y-88717073D01*
X111516668Y-88717073D02*
X111550002Y-88850406D01*
X111550002Y-88850406D02*
X111550002Y-89083740D01*
X111550002Y-89083740D02*
X111516668Y-89217073D01*
X111516668Y-89217073D02*
X111450002Y-89283740D01*
X111450002Y-89283740D02*
X111383335Y-89317073D01*
X111383335Y-89317073D02*
X111250002Y-89317073D01*
X111250002Y-89317073D02*
X111183335Y-89283740D01*
X111183335Y-89283740D02*
X111116668Y-89217073D01*
X111116668Y-89217073D02*
X111083335Y-89083740D01*
X111083335Y-89083740D02*
X111083335Y-88850406D01*
X111083335Y-88850406D02*
X111116668Y-88717073D01*
X111116668Y-88717073D02*
X111183335Y-88650406D01*
X111183335Y-88650406D02*
X111250002Y-88617073D01*
X112216668Y-88650406D02*
X112150001Y-88617073D01*
X112150001Y-88617073D02*
X112050001Y-88617073D01*
X112050001Y-88617073D02*
X111950001Y-88650406D01*
X111950001Y-88650406D02*
X111883335Y-88717073D01*
X111883335Y-88717073D02*
X111850001Y-88783740D01*
X111850001Y-88783740D02*
X111816668Y-88917073D01*
X111816668Y-88917073D02*
X111816668Y-89017073D01*
X111816668Y-89017073D02*
X111850001Y-89150406D01*
X111850001Y-89150406D02*
X111883335Y-89217073D01*
X111883335Y-89217073D02*
X111950001Y-89283740D01*
X111950001Y-89283740D02*
X112050001Y-89317073D01*
X112050001Y-89317073D02*
X112116668Y-89317073D01*
X112116668Y-89317073D02*
X112216668Y-89283740D01*
X112216668Y-89283740D02*
X112250001Y-89250406D01*
X112250001Y-89250406D02*
X112250001Y-89017073D01*
X112250001Y-89017073D02*
X112116668Y-89017073D01*
X112683335Y-88617073D02*
X112816668Y-88617073D01*
X112816668Y-88617073D02*
X112883335Y-88650406D01*
X112883335Y-88650406D02*
X112950001Y-88717073D01*
X112950001Y-88717073D02*
X112983335Y-88850406D01*
X112983335Y-88850406D02*
X112983335Y-89083740D01*
X112983335Y-89083740D02*
X112950001Y-89217073D01*
X112950001Y-89217073D02*
X112883335Y-89283740D01*
X112883335Y-89283740D02*
X112816668Y-89317073D01*
X112816668Y-89317073D02*
X112683335Y-89317073D01*
X112683335Y-89317073D02*
X112616668Y-89283740D01*
X112616668Y-89283740D02*
X112550001Y-89217073D01*
X112550001Y-89217073D02*
X112516668Y-89083740D01*
X112516668Y-89083740D02*
X112516668Y-88850406D01*
X112516668Y-88850406D02*
X112550001Y-88717073D01*
X112550001Y-88717073D02*
X112616668Y-88650406D01*
X112616668Y-88650406D02*
X112683335Y-88617073D01*
X113716667Y-88617073D02*
X114116667Y-88617073D01*
X113916667Y-89317073D02*
X113916667Y-88617073D01*
X114316667Y-89117073D02*
X114650000Y-89117073D01*
X114250000Y-89317073D02*
X114483334Y-88617073D01*
X114483334Y-88617073D02*
X114716667Y-89317073D01*
X115350000Y-89317073D02*
X115116667Y-88983740D01*
X114950000Y-89317073D02*
X114950000Y-88617073D01*
X114950000Y-88617073D02*
X115216667Y-88617073D01*
X115216667Y-88617073D02*
X115283334Y-88650406D01*
X115283334Y-88650406D02*
X115316667Y-88683740D01*
X115316667Y-88683740D02*
X115350000Y-88750406D01*
X115350000Y-88750406D02*
X115350000Y-88850406D01*
X115350000Y-88850406D02*
X115316667Y-88917073D01*
X115316667Y-88917073D02*
X115283334Y-88950406D01*
X115283334Y-88950406D02*
X115216667Y-88983740D01*
X115216667Y-88983740D02*
X114950000Y-88983740D01*
X116016667Y-88650406D02*
X115950000Y-88617073D01*
X115950000Y-88617073D02*
X115850000Y-88617073D01*
X115850000Y-88617073D02*
X115750000Y-88650406D01*
X115750000Y-88650406D02*
X115683334Y-88717073D01*
X115683334Y-88717073D02*
X115650000Y-88783740D01*
X115650000Y-88783740D02*
X115616667Y-88917073D01*
X115616667Y-88917073D02*
X115616667Y-89017073D01*
X115616667Y-89017073D02*
X115650000Y-89150406D01*
X115650000Y-89150406D02*
X115683334Y-89217073D01*
X115683334Y-89217073D02*
X115750000Y-89283740D01*
X115750000Y-89283740D02*
X115850000Y-89317073D01*
X115850000Y-89317073D02*
X115916667Y-89317073D01*
X115916667Y-89317073D02*
X116016667Y-89283740D01*
X116016667Y-89283740D02*
X116050000Y-89250406D01*
X116050000Y-89250406D02*
X116050000Y-89017073D01*
X116050000Y-89017073D02*
X115916667Y-89017073D01*
X116350000Y-88950406D02*
X116583334Y-88950406D01*
X116683334Y-89317073D02*
X116350000Y-89317073D01*
X116350000Y-89317073D02*
X116350000Y-88617073D01*
X116350000Y-88617073D02*
X116683334Y-88617073D01*
X116883333Y-88617073D02*
X117283333Y-88617073D01*
X117083333Y-89317073D02*
X117083333Y-88617073D01*
X118349999Y-88617073D02*
X118216666Y-88617073D01*
X118216666Y-88617073D02*
X118149999Y-88650406D01*
X118149999Y-88650406D02*
X118116666Y-88683740D01*
X118116666Y-88683740D02*
X118049999Y-88783740D01*
X118049999Y-88783740D02*
X118016666Y-88917073D01*
X118016666Y-88917073D02*
X118016666Y-89183740D01*
X118016666Y-89183740D02*
X118049999Y-89250406D01*
X118049999Y-89250406D02*
X118083333Y-89283740D01*
X118083333Y-89283740D02*
X118149999Y-89317073D01*
X118149999Y-89317073D02*
X118283333Y-89317073D01*
X118283333Y-89317073D02*
X118349999Y-89283740D01*
X118349999Y-89283740D02*
X118383333Y-89250406D01*
X118383333Y-89250406D02*
X118416666Y-89183740D01*
X118416666Y-89183740D02*
X118416666Y-89017073D01*
X118416666Y-89017073D02*
X118383333Y-88950406D01*
X118383333Y-88950406D02*
X118349999Y-88917073D01*
X118349999Y-88917073D02*
X118283333Y-88883740D01*
X118283333Y-88883740D02*
X118149999Y-88883740D01*
X118149999Y-88883740D02*
X118083333Y-88917073D01*
X118083333Y-88917073D02*
X118049999Y-88950406D01*
X118049999Y-88950406D02*
X118016666Y-89017073D01*
X118716666Y-89317073D02*
X118716666Y-88617073D01*
X118716666Y-88617073D02*
X118983333Y-88617073D01*
X118983333Y-88617073D02*
X119050000Y-88650406D01*
X119050000Y-88650406D02*
X119083333Y-88683740D01*
X119083333Y-88683740D02*
X119116666Y-88750406D01*
X119116666Y-88750406D02*
X119116666Y-88850406D01*
X119116666Y-88850406D02*
X119083333Y-88917073D01*
X119083333Y-88917073D02*
X119050000Y-88950406D01*
X119050000Y-88950406D02*
X118983333Y-88983740D01*
X118983333Y-88983740D02*
X118716666Y-88983740D01*
X120149999Y-89583740D02*
X120116666Y-89550406D01*
X120116666Y-89550406D02*
X120049999Y-89450406D01*
X120049999Y-89450406D02*
X120016666Y-89383740D01*
X120016666Y-89383740D02*
X119983333Y-89283740D01*
X119983333Y-89283740D02*
X119949999Y-89117073D01*
X119949999Y-89117073D02*
X119949999Y-88983740D01*
X119949999Y-88983740D02*
X119983333Y-88817073D01*
X119983333Y-88817073D02*
X120016666Y-88717073D01*
X120016666Y-88717073D02*
X120049999Y-88650406D01*
X120049999Y-88650406D02*
X120116666Y-88550406D01*
X120116666Y-88550406D02*
X120149999Y-88517073D01*
X120650000Y-88950406D02*
X120750000Y-88983740D01*
X120750000Y-88983740D02*
X120783333Y-89017073D01*
X120783333Y-89017073D02*
X120816666Y-89083740D01*
X120816666Y-89083740D02*
X120816666Y-89183740D01*
X120816666Y-89183740D02*
X120783333Y-89250406D01*
X120783333Y-89250406D02*
X120750000Y-89283740D01*
X120750000Y-89283740D02*
X120683333Y-89317073D01*
X120683333Y-89317073D02*
X120416666Y-89317073D01*
X120416666Y-89317073D02*
X120416666Y-88617073D01*
X120416666Y-88617073D02*
X120650000Y-88617073D01*
X120650000Y-88617073D02*
X120716666Y-88650406D01*
X120716666Y-88650406D02*
X120750000Y-88683740D01*
X120750000Y-88683740D02*
X120783333Y-88750406D01*
X120783333Y-88750406D02*
X120783333Y-88817073D01*
X120783333Y-88817073D02*
X120750000Y-88883740D01*
X120750000Y-88883740D02*
X120716666Y-88917073D01*
X120716666Y-88917073D02*
X120650000Y-88950406D01*
X120650000Y-88950406D02*
X120416666Y-88950406D01*
X121250000Y-88617073D02*
X121383333Y-88617073D01*
X121383333Y-88617073D02*
X121450000Y-88650406D01*
X121450000Y-88650406D02*
X121516666Y-88717073D01*
X121516666Y-88717073D02*
X121550000Y-88850406D01*
X121550000Y-88850406D02*
X121550000Y-89083740D01*
X121550000Y-89083740D02*
X121516666Y-89217073D01*
X121516666Y-89217073D02*
X121450000Y-89283740D01*
X121450000Y-89283740D02*
X121383333Y-89317073D01*
X121383333Y-89317073D02*
X121250000Y-89317073D01*
X121250000Y-89317073D02*
X121183333Y-89283740D01*
X121183333Y-89283740D02*
X121116666Y-89217073D01*
X121116666Y-89217073D02*
X121083333Y-89083740D01*
X121083333Y-89083740D02*
X121083333Y-88850406D01*
X121083333Y-88850406D02*
X121116666Y-88717073D01*
X121116666Y-88717073D02*
X121183333Y-88650406D01*
X121183333Y-88650406D02*
X121250000Y-88617073D01*
X121749999Y-88617073D02*
X122149999Y-88617073D01*
X121949999Y-89317073D02*
X121949999Y-88617073D01*
X122283332Y-88617073D02*
X122683332Y-88617073D01*
X122483332Y-89317073D02*
X122483332Y-88617073D01*
X123049999Y-88617073D02*
X123183332Y-88617073D01*
X123183332Y-88617073D02*
X123249999Y-88650406D01*
X123249999Y-88650406D02*
X123316665Y-88717073D01*
X123316665Y-88717073D02*
X123349999Y-88850406D01*
X123349999Y-88850406D02*
X123349999Y-89083740D01*
X123349999Y-89083740D02*
X123316665Y-89217073D01*
X123316665Y-89217073D02*
X123249999Y-89283740D01*
X123249999Y-89283740D02*
X123183332Y-89317073D01*
X123183332Y-89317073D02*
X123049999Y-89317073D01*
X123049999Y-89317073D02*
X122983332Y-89283740D01*
X122983332Y-89283740D02*
X122916665Y-89217073D01*
X122916665Y-89217073D02*
X122883332Y-89083740D01*
X122883332Y-89083740D02*
X122883332Y-88850406D01*
X122883332Y-88850406D02*
X122916665Y-88717073D01*
X122916665Y-88717073D02*
X122983332Y-88650406D01*
X122983332Y-88650406D02*
X123049999Y-88617073D01*
X123649998Y-89317073D02*
X123649998Y-88617073D01*
X123649998Y-88617073D02*
X123883332Y-89117073D01*
X123883332Y-89117073D02*
X124116665Y-88617073D01*
X124116665Y-88617073D02*
X124116665Y-89317073D01*
X124383332Y-89583740D02*
X124416665Y-89550406D01*
X124416665Y-89550406D02*
X124483332Y-89450406D01*
X124483332Y-89450406D02*
X124516665Y-89383740D01*
X124516665Y-89383740D02*
X124549998Y-89283740D01*
X124549998Y-89283740D02*
X124583332Y-89117073D01*
X124583332Y-89117073D02*
X124583332Y-88983740D01*
X124583332Y-88983740D02*
X124549998Y-88817073D01*
X124549998Y-88817073D02*
X124516665Y-88717073D01*
X124516665Y-88717073D02*
X124483332Y-88650406D01*
X124483332Y-88650406D02*
X124416665Y-88550406D01*
X124416665Y-88550406D02*
X124383332Y-88517073D01*
D11*
X110910713Y-78089684D02*
X111053570Y-78089684D01*
X111053570Y-78089684D02*
X111124999Y-78125398D01*
X111124999Y-78125398D02*
X111196427Y-78196827D01*
X111196427Y-78196827D02*
X111232142Y-78339684D01*
X111232142Y-78339684D02*
X111232142Y-78589684D01*
X111232142Y-78589684D02*
X111196427Y-78732541D01*
X111196427Y-78732541D02*
X111124999Y-78803970D01*
X111124999Y-78803970D02*
X111053570Y-78839684D01*
X111053570Y-78839684D02*
X110910713Y-78839684D01*
X110910713Y-78839684D02*
X110839285Y-78803970D01*
X110839285Y-78803970D02*
X110767856Y-78732541D01*
X110767856Y-78732541D02*
X110732142Y-78589684D01*
X110732142Y-78589684D02*
X110732142Y-78339684D01*
X110732142Y-78339684D02*
X110767856Y-78196827D01*
X110767856Y-78196827D02*
X110839285Y-78125398D01*
X110839285Y-78125398D02*
X110910713Y-78089684D01*
X111553570Y-78446827D02*
X111803570Y-78446827D01*
X111910713Y-78839684D02*
X111553570Y-78839684D01*
X111553570Y-78839684D02*
X111553570Y-78089684D01*
X111553570Y-78089684D02*
X111910713Y-78089684D01*
X112232141Y-78839684D02*
X112232141Y-78089684D01*
X112232141Y-78089684D02*
X112482141Y-78625398D01*
X112482141Y-78625398D02*
X112732141Y-78089684D01*
X112732141Y-78089684D02*
X112732141Y-78839684D01*
X113660713Y-78839684D02*
X113660713Y-78089684D01*
X114017856Y-78839684D02*
X114017856Y-78089684D01*
X114017856Y-78089684D02*
X114446427Y-78839684D01*
X114446427Y-78839684D02*
X114446427Y-78089684D01*
X115160713Y-78839684D02*
X114803570Y-78839684D01*
X114803570Y-78839684D02*
X114803570Y-78089684D01*
X115374999Y-78625398D02*
X115732142Y-78625398D01*
X115303570Y-78839684D02*
X115553570Y-78089684D01*
X115553570Y-78089684D02*
X115803570Y-78839684D01*
X116196427Y-78482541D02*
X116196427Y-78839684D01*
X115946427Y-78089684D02*
X116196427Y-78482541D01*
X116196427Y-78482541D02*
X116446427Y-78089684D01*
X117482142Y-79125398D02*
X117446427Y-79089684D01*
X117446427Y-79089684D02*
X117374999Y-78982541D01*
X117374999Y-78982541D02*
X117339285Y-78911112D01*
X117339285Y-78911112D02*
X117303570Y-78803970D01*
X117303570Y-78803970D02*
X117267856Y-78625398D01*
X117267856Y-78625398D02*
X117267856Y-78482541D01*
X117267856Y-78482541D02*
X117303570Y-78303970D01*
X117303570Y-78303970D02*
X117339285Y-78196827D01*
X117339285Y-78196827D02*
X117374999Y-78125398D01*
X117374999Y-78125398D02*
X117446427Y-78018255D01*
X117446427Y-78018255D02*
X117482142Y-77982541D01*
X117982142Y-78089684D02*
X117982142Y-78625398D01*
X117982142Y-78625398D02*
X117946427Y-78732541D01*
X117946427Y-78732541D02*
X117874999Y-78803970D01*
X117874999Y-78803970D02*
X117767856Y-78839684D01*
X117767856Y-78839684D02*
X117696427Y-78839684D01*
X118303571Y-78803970D02*
X118410714Y-78839684D01*
X118410714Y-78839684D02*
X118589285Y-78839684D01*
X118589285Y-78839684D02*
X118660714Y-78803970D01*
X118660714Y-78803970D02*
X118696428Y-78768255D01*
X118696428Y-78768255D02*
X118732142Y-78696827D01*
X118732142Y-78696827D02*
X118732142Y-78625398D01*
X118732142Y-78625398D02*
X118696428Y-78553970D01*
X118696428Y-78553970D02*
X118660714Y-78518255D01*
X118660714Y-78518255D02*
X118589285Y-78482541D01*
X118589285Y-78482541D02*
X118446428Y-78446827D01*
X118446428Y-78446827D02*
X118374999Y-78411112D01*
X118374999Y-78411112D02*
X118339285Y-78375398D01*
X118339285Y-78375398D02*
X118303571Y-78303970D01*
X118303571Y-78303970D02*
X118303571Y-78232541D01*
X118303571Y-78232541D02*
X118339285Y-78161112D01*
X118339285Y-78161112D02*
X118374999Y-78125398D01*
X118374999Y-78125398D02*
X118446428Y-78089684D01*
X118446428Y-78089684D02*
X118624999Y-78089684D01*
X118624999Y-78089684D02*
X118732142Y-78125398D01*
X118946428Y-78089684D02*
X119375000Y-78089684D01*
X119160714Y-78839684D02*
X119160714Y-78089684D01*
X119625000Y-78553970D02*
X120196429Y-78553970D01*
X120517857Y-78803970D02*
X120625000Y-78839684D01*
X120625000Y-78839684D02*
X120803571Y-78839684D01*
X120803571Y-78839684D02*
X120875000Y-78803970D01*
X120875000Y-78803970D02*
X120910714Y-78768255D01*
X120910714Y-78768255D02*
X120946428Y-78696827D01*
X120946428Y-78696827D02*
X120946428Y-78625398D01*
X120946428Y-78625398D02*
X120910714Y-78553970D01*
X120910714Y-78553970D02*
X120875000Y-78518255D01*
X120875000Y-78518255D02*
X120803571Y-78482541D01*
X120803571Y-78482541D02*
X120660714Y-78446827D01*
X120660714Y-78446827D02*
X120589285Y-78411112D01*
X120589285Y-78411112D02*
X120553571Y-78375398D01*
X120553571Y-78375398D02*
X120517857Y-78303970D01*
X120517857Y-78303970D02*
X120517857Y-78232541D01*
X120517857Y-78232541D02*
X120553571Y-78161112D01*
X120553571Y-78161112D02*
X120589285Y-78125398D01*
X120589285Y-78125398D02*
X120660714Y-78089684D01*
X120660714Y-78089684D02*
X120839285Y-78089684D01*
X120839285Y-78089684D02*
X120946428Y-78125398D01*
X121267857Y-78839684D02*
X121267857Y-78089684D01*
X121267857Y-78446827D02*
X121696428Y-78446827D01*
X121696428Y-78839684D02*
X121696428Y-78089684D01*
X122946429Y-78089684D02*
X122803571Y-78089684D01*
X122803571Y-78089684D02*
X122732143Y-78125398D01*
X122732143Y-78125398D02*
X122696429Y-78161112D01*
X122696429Y-78161112D02*
X122625000Y-78268255D01*
X122625000Y-78268255D02*
X122589286Y-78411112D01*
X122589286Y-78411112D02*
X122589286Y-78696827D01*
X122589286Y-78696827D02*
X122625000Y-78768255D01*
X122625000Y-78768255D02*
X122660714Y-78803970D01*
X122660714Y-78803970D02*
X122732143Y-78839684D01*
X122732143Y-78839684D02*
X122875000Y-78839684D01*
X122875000Y-78839684D02*
X122946429Y-78803970D01*
X122946429Y-78803970D02*
X122982143Y-78768255D01*
X122982143Y-78768255D02*
X123017857Y-78696827D01*
X123017857Y-78696827D02*
X123017857Y-78518255D01*
X123017857Y-78518255D02*
X122982143Y-78446827D01*
X122982143Y-78446827D02*
X122946429Y-78411112D01*
X122946429Y-78411112D02*
X122875000Y-78375398D01*
X122875000Y-78375398D02*
X122732143Y-78375398D01*
X122732143Y-78375398D02*
X122660714Y-78411112D01*
X122660714Y-78411112D02*
X122625000Y-78446827D01*
X122625000Y-78446827D02*
X122589286Y-78518255D01*
X123339286Y-78839684D02*
X123339286Y-78089684D01*
X123339286Y-78089684D02*
X123625000Y-78089684D01*
X123625000Y-78089684D02*
X123696429Y-78125398D01*
X123696429Y-78125398D02*
X123732143Y-78161112D01*
X123732143Y-78161112D02*
X123767857Y-78232541D01*
X123767857Y-78232541D02*
X123767857Y-78339684D01*
X123767857Y-78339684D02*
X123732143Y-78411112D01*
X123732143Y-78411112D02*
X123696429Y-78446827D01*
X123696429Y-78446827D02*
X123625000Y-78482541D01*
X123625000Y-78482541D02*
X123339286Y-78482541D01*
X124017857Y-79125398D02*
X124053572Y-79089684D01*
X124053572Y-79089684D02*
X124125000Y-78982541D01*
X124125000Y-78982541D02*
X124160715Y-78911112D01*
X124160715Y-78911112D02*
X124196429Y-78803970D01*
X124196429Y-78803970D02*
X124232143Y-78625398D01*
X124232143Y-78625398D02*
X124232143Y-78482541D01*
X124232143Y-78482541D02*
X124196429Y-78303970D01*
X124196429Y-78303970D02*
X124160715Y-78196827D01*
X124160715Y-78196827D02*
X124125000Y-78125398D01*
X124125000Y-78125398D02*
X124053572Y-78018255D01*
X124053572Y-78018255D02*
X124017857Y-77982541D01*
X114678570Y-85839684D02*
X114678570Y-85089684D01*
X114678570Y-85089684D02*
X114857141Y-85089684D01*
X114857141Y-85089684D02*
X114964284Y-85125398D01*
X114964284Y-85125398D02*
X115035713Y-85196827D01*
X115035713Y-85196827D02*
X115071427Y-85268255D01*
X115071427Y-85268255D02*
X115107141Y-85411112D01*
X115107141Y-85411112D02*
X115107141Y-85518255D01*
X115107141Y-85518255D02*
X115071427Y-85661112D01*
X115071427Y-85661112D02*
X115035713Y-85732541D01*
X115035713Y-85732541D02*
X114964284Y-85803970D01*
X114964284Y-85803970D02*
X114857141Y-85839684D01*
X114857141Y-85839684D02*
X114678570Y-85839684D01*
X115392856Y-85803970D02*
X115499999Y-85839684D01*
X115499999Y-85839684D02*
X115678570Y-85839684D01*
X115678570Y-85839684D02*
X115749999Y-85803970D01*
X115749999Y-85803970D02*
X115785713Y-85768255D01*
X115785713Y-85768255D02*
X115821427Y-85696827D01*
X115821427Y-85696827D02*
X115821427Y-85625398D01*
X115821427Y-85625398D02*
X115785713Y-85553970D01*
X115785713Y-85553970D02*
X115749999Y-85518255D01*
X115749999Y-85518255D02*
X115678570Y-85482541D01*
X115678570Y-85482541D02*
X115535713Y-85446827D01*
X115535713Y-85446827D02*
X115464284Y-85411112D01*
X115464284Y-85411112D02*
X115428570Y-85375398D01*
X115428570Y-85375398D02*
X115392856Y-85303970D01*
X115392856Y-85303970D02*
X115392856Y-85232541D01*
X115392856Y-85232541D02*
X115428570Y-85161112D01*
X115428570Y-85161112D02*
X115464284Y-85125398D01*
X115464284Y-85125398D02*
X115535713Y-85089684D01*
X115535713Y-85089684D02*
X115714284Y-85089684D01*
X115714284Y-85089684D02*
X115821427Y-85125398D01*
X116107142Y-85161112D02*
X116142856Y-85125398D01*
X116142856Y-85125398D02*
X116214285Y-85089684D01*
X116214285Y-85089684D02*
X116392856Y-85089684D01*
X116392856Y-85089684D02*
X116464285Y-85125398D01*
X116464285Y-85125398D02*
X116499999Y-85161112D01*
X116499999Y-85161112D02*
X116535713Y-85232541D01*
X116535713Y-85232541D02*
X116535713Y-85303970D01*
X116535713Y-85303970D02*
X116499999Y-85411112D01*
X116499999Y-85411112D02*
X116071427Y-85839684D01*
X116071427Y-85839684D02*
X116535713Y-85839684D01*
X117178571Y-85339684D02*
X117178571Y-85839684D01*
X116999999Y-85053970D02*
X116821428Y-85589684D01*
X116821428Y-85589684D02*
X117285713Y-85589684D01*
X117714285Y-85089684D02*
X117785714Y-85089684D01*
X117785714Y-85089684D02*
X117857142Y-85125398D01*
X117857142Y-85125398D02*
X117892857Y-85161112D01*
X117892857Y-85161112D02*
X117928571Y-85232541D01*
X117928571Y-85232541D02*
X117964285Y-85375398D01*
X117964285Y-85375398D02*
X117964285Y-85553970D01*
X117964285Y-85553970D02*
X117928571Y-85696827D01*
X117928571Y-85696827D02*
X117892857Y-85768255D01*
X117892857Y-85768255D02*
X117857142Y-85803970D01*
X117857142Y-85803970D02*
X117785714Y-85839684D01*
X117785714Y-85839684D02*
X117714285Y-85839684D01*
X117714285Y-85839684D02*
X117642857Y-85803970D01*
X117642857Y-85803970D02*
X117607142Y-85768255D01*
X117607142Y-85768255D02*
X117571428Y-85696827D01*
X117571428Y-85696827D02*
X117535714Y-85553970D01*
X117535714Y-85553970D02*
X117535714Y-85375398D01*
X117535714Y-85375398D02*
X117571428Y-85232541D01*
X117571428Y-85232541D02*
X117607142Y-85161112D01*
X117607142Y-85161112D02*
X117642857Y-85125398D01*
X117642857Y-85125398D02*
X117714285Y-85089684D01*
X118678571Y-85839684D02*
X118250000Y-85839684D01*
X118464285Y-85839684D02*
X118464285Y-85089684D01*
X118464285Y-85089684D02*
X118392857Y-85196827D01*
X118392857Y-85196827D02*
X118321428Y-85268255D01*
X118321428Y-85268255D02*
X118250000Y-85303970D01*
X119571429Y-85839684D02*
X119571429Y-85089684D01*
X119928572Y-85839684D02*
X119928572Y-85089684D01*
X119928572Y-85089684D02*
X120107143Y-85089684D01*
X120107143Y-85089684D02*
X120214286Y-85125398D01*
X120214286Y-85125398D02*
X120285715Y-85196827D01*
X120285715Y-85196827D02*
X120321429Y-85268255D01*
X120321429Y-85268255D02*
X120357143Y-85411112D01*
X120357143Y-85411112D02*
X120357143Y-85518255D01*
X120357143Y-85518255D02*
X120321429Y-85661112D01*
X120321429Y-85661112D02*
X120285715Y-85732541D01*
X120285715Y-85732541D02*
X120214286Y-85803970D01*
X120214286Y-85803970D02*
X120107143Y-85839684D01*
X120107143Y-85839684D02*
X119928572Y-85839684D01*
D12*
X130532380Y-83079271D02*
X130532380Y-81809271D01*
X130532380Y-82414033D02*
X131258095Y-82414033D01*
X131258095Y-83079271D02*
X131258095Y-81809271D01*
X131802380Y-81930223D02*
X131862856Y-81869747D01*
X131862856Y-81869747D02*
X131983809Y-81809271D01*
X131983809Y-81809271D02*
X132286190Y-81809271D01*
X132286190Y-81809271D02*
X132407142Y-81869747D01*
X132407142Y-81869747D02*
X132467618Y-81930223D01*
X132467618Y-81930223D02*
X132528095Y-82051175D01*
X132528095Y-82051175D02*
X132528095Y-82172128D01*
X132528095Y-82172128D02*
X132467618Y-82353556D01*
X132467618Y-82353556D02*
X131741904Y-83079271D01*
X131741904Y-83079271D02*
X132528095Y-83079271D01*
X121788333Y-82958318D02*
X121727857Y-83018795D01*
X121727857Y-83018795D02*
X121546428Y-83079271D01*
X121546428Y-83079271D02*
X121425476Y-83079271D01*
X121425476Y-83079271D02*
X121244047Y-83018795D01*
X121244047Y-83018795D02*
X121123095Y-82897842D01*
X121123095Y-82897842D02*
X121062618Y-82776890D01*
X121062618Y-82776890D02*
X121002142Y-82534985D01*
X121002142Y-82534985D02*
X121002142Y-82353556D01*
X121002142Y-82353556D02*
X121062618Y-82111652D01*
X121062618Y-82111652D02*
X121123095Y-81990699D01*
X121123095Y-81990699D02*
X121244047Y-81869747D01*
X121244047Y-81869747D02*
X121425476Y-81809271D01*
X121425476Y-81809271D02*
X121546428Y-81809271D01*
X121546428Y-81809271D02*
X121727857Y-81869747D01*
X121727857Y-81869747D02*
X121788333Y-81930223D01*
X122997857Y-83079271D02*
X122272142Y-83079271D01*
X122634999Y-83079271D02*
X122634999Y-81809271D01*
X122634999Y-81809271D02*
X122514047Y-81990699D01*
X122514047Y-81990699D02*
X122393095Y-82111652D01*
X122393095Y-82111652D02*
X122272142Y-82172128D01*
D13*
X117233333Y-88563855D02*
X117233333Y-89135283D01*
X117233333Y-89135283D02*
X117195238Y-89249569D01*
X117195238Y-89249569D02*
X117119047Y-89325760D01*
X117119047Y-89325760D02*
X117004762Y-89363855D01*
X117004762Y-89363855D02*
X116928571Y-89363855D01*
X118033333Y-89363855D02*
X117576190Y-89363855D01*
X117804762Y-89363855D02*
X117804762Y-88563855D01*
X117804762Y-88563855D02*
X117728571Y-88678140D01*
X117728571Y-88678140D02*
X117652381Y-88754331D01*
X117652381Y-88754331D02*
X117576190Y-88792426D01*
D12*
X117076667Y-73809271D02*
X117076667Y-74716414D01*
X117076667Y-74716414D02*
X117016190Y-74897842D01*
X117016190Y-74897842D02*
X116895238Y-75018795D01*
X116895238Y-75018795D02*
X116713809Y-75079271D01*
X116713809Y-75079271D02*
X116592857Y-75079271D01*
X117620952Y-73930223D02*
X117681428Y-73869747D01*
X117681428Y-73869747D02*
X117802381Y-73809271D01*
X117802381Y-73809271D02*
X118104762Y-73809271D01*
X118104762Y-73809271D02*
X118225714Y-73869747D01*
X118225714Y-73869747D02*
X118286190Y-73930223D01*
X118286190Y-73930223D02*
X118346667Y-74051175D01*
X118346667Y-74051175D02*
X118346667Y-74172128D01*
X118346667Y-74172128D02*
X118286190Y-74353556D01*
X118286190Y-74353556D02*
X117560476Y-75079271D01*
X117560476Y-75079271D02*
X118346667Y-75079271D01*
X102532380Y-83079271D02*
X102532380Y-81809271D01*
X102532380Y-82414033D02*
X103258095Y-82414033D01*
X103258095Y-83079271D02*
X103258095Y-81809271D01*
X104528095Y-83079271D02*
X103802380Y-83079271D01*
X104165237Y-83079271D02*
X104165237Y-81809271D01*
X104165237Y-81809271D02*
X104044285Y-81990699D01*
X104044285Y-81990699D02*
X103923333Y-82111652D01*
X103923333Y-82111652D02*
X103802380Y-82172128D01*
D13*
X116890476Y-79563855D02*
X116890476Y-80211474D01*
X116890476Y-80211474D02*
X116928571Y-80287664D01*
X116928571Y-80287664D02*
X116966666Y-80325760D01*
X116966666Y-80325760D02*
X117042857Y-80363855D01*
X117042857Y-80363855D02*
X117195238Y-80363855D01*
X117195238Y-80363855D02*
X117271428Y-80325760D01*
X117271428Y-80325760D02*
X117309523Y-80287664D01*
X117309523Y-80287664D02*
X117347619Y-80211474D01*
X117347619Y-80211474D02*
X117347619Y-79563855D01*
X118147618Y-80363855D02*
X117690475Y-80363855D01*
X117919047Y-80363855D02*
X117919047Y-79563855D01*
X117919047Y-79563855D02*
X117842856Y-79678140D01*
X117842856Y-79678140D02*
X117766666Y-79754331D01*
X117766666Y-79754331D02*
X117690475Y-79792426D01*
M02*
