#VRML V2.0 utf8
# M8 6-Pin A-Coded IP67 Shielded PCB Receptacle (IEC 61076-2-104)
# Generated for OpenMotorBridge KiCad 3D Raytracing Engine

Group {
  children [
    # 1. PCB Mounting Base Flange (10x10x2.5mm, Nickel-Plated Brass)
    Transform {
      translation 0.0 0.0 0.00125
      children [
        Shape {
          appearance Appearance {
            material Material {
              diffuseColor 0.78 0.78 0.82
              specularColor 0.95 0.95 0.95
              shininess 0.92
            }
          }
          geometry Box { size 0.010 0.010 0.0025 }
        }
      ]
    }

    # 2. Hexagonal Wrench Nut / Lock Collar (Diameter 9.2mm, Height 2.0mm)
    Transform {
      translation 0.0 0.0 0.0035
      children [
        Shape {
          appearance Appearance {
            material Material {
              diffuseColor 0.82 0.75 0.35
              specularColor 0.95 0.90 0.60
              shininess 0.88
            }
          }
          geometry Cylinder {
            radius 0.0048
            height 0.0020
          }
        }
      ]
    }

    # 3. EPDM Rubber Sealing O-Ring (Black, OD 8.6mm, Height 1.2mm)
    Transform {
      translation 0.0 0.0 0.0051
      children [
        Shape {
          appearance Appearance {
            material Material {
              diffuseColor 0.10 0.10 0.12
              specularColor 0.15 0.15 0.15
              shininess 0.15
            }
          }
          geometry Cylinder {
            radius 0.0044
            height 0.0012
          }
        }
      ]
    }

    # 4. M8 Threaded Outer Metal Barrel (OD 8.0mm, ID 6.0mm, Height 8.5mm, Nickel-Plated Brass)
    Transform {
      translation 0.0 0.0 0.0095
      children [
        Shape {
          appearance Appearance {
            material Material {
              diffuseColor 0.85 0.85 0.88
              specularColor 0.98 0.98 0.98
              shininess 0.95
            }
          }
          geometry Cylinder {
            radius 0.0040
            height 0.0085
          }
        }
      ]
    }

    # 5. Black Insulating Insert / Core (PA66 Plastic, OD 5.8mm, Height 7.5mm)
    Transform {
      translation 0.0 0.0 0.0100
      children [
        Shape {
          appearance Appearance {
            material Material {
              diffuseColor 0.12 0.14 0.18
              specularColor 0.25 0.25 0.30
              shininess 0.35
            }
          }
          geometry Cylinder {
            radius 0.0029
            height 0.0076
          }
        }
      ]
    }

    # 6. Poka-Yoke Indexing / Polarizing Keyway Notch (Height 6.0mm)
    Transform {
      translation 0.0 0.0024 0.0105
      children [
        Shape {
          appearance Appearance {
            material Material {
              diffuseColor 0.85 0.85 0.88
              specularColor 0.95 0.95 0.95
              shininess 0.90
            }
          }
          geometry Box { size 0.0008 0.0012 0.0065 }
        }
      ]
    }

    # Contact 1 (Gold, Angle = 0 deg)
    Transform {
      translation 0.001650 0.000000 0.0102
      children [
        Shape {
          appearance Appearance {
            material Material {
              diffuseColor 0.95 0.78 0.15
              specularColor 0.98 0.90 0.50
              shininess 0.95
            }
          }
          geometry Cylinder {
            radius 0.00035
            height 0.0070
          }
        }
      ]
    }

    # Contact 2 (Gold, Angle = 60 deg)
    Transform {
      translation 0.000825 0.001429 0.0102
      children [
        Shape {
          appearance Appearance {
            material Material {
              diffuseColor 0.95 0.78 0.15
              specularColor 0.98 0.90 0.50
              shininess 0.95
            }
          }
          geometry Cylinder {
            radius 0.00035
            height 0.0070
          }
        }
      ]
    }

    # Contact 3 (Gold, Angle = 120 deg)
    Transform {
      translation -0.000825 0.001429 0.0102
      children [
        Shape {
          appearance Appearance {
            material Material {
              diffuseColor 0.95 0.78 0.15
              specularColor 0.98 0.90 0.50
              shininess 0.95
            }
          }
          geometry Cylinder {
            radius 0.00035
            height 0.0070
          }
        }
      ]
    }

    # Contact 4 (Gold, Angle = 180 deg)
    Transform {
      translation -0.001650 0.000000 0.0102
      children [
        Shape {
          appearance Appearance {
            material Material {
              diffuseColor 0.95 0.78 0.15
              specularColor 0.98 0.90 0.50
              shininess 0.95
            }
          }
          geometry Cylinder {
            radius 0.00035
            height 0.0070
          }
        }
      ]
    }

    # Contact 5 (Gold, Angle = 240 deg)
    Transform {
      translation -0.000825 -0.001429 0.0102
      children [
        Shape {
          appearance Appearance {
            material Material {
              diffuseColor 0.95 0.78 0.15
              specularColor 0.98 0.90 0.50
              shininess 0.95
            }
          }
          geometry Cylinder {
            radius 0.00035
            height 0.0070
          }
        }
      ]
    }

    # Contact 6 (Gold, Angle = 300 deg)
    Transform {
      translation 0.000825 -0.001429 0.0102
      children [
        Shape {
          appearance Appearance {
            material Material {
              diffuseColor 0.95 0.78 0.15
              specularColor 0.98 0.90 0.50
              shininess 0.95
            }
          }
          geometry Cylinder {
            radius 0.00035
            height 0.0070
          }
        }
      ]
    }
  ]
}
