solid OpenSCAD_Model
  facet normal 1 -0 0
    outer loop
      vertex 99.9424 3 2.5
      vertex 99.9424 57 2.41473
      vertex 99.9424 57 2.5
    endloop
  endfacet
  facet normal 1 0 0
    outer loop
      vertex 99.9424 57 2.41473
      vertex 99.9424 3 2.5
      vertex 99.9424 3 2.41473
    endloop
  endfacet
  facet normal 1 -0 0
    outer loop
      vertex 99.9424 3 25.5853
      vertex 99.9424 57 25.5
      vertex 99.9424 57 25.5853
    endloop
  endfacet
  facet normal 1 0 0
    outer loop
      vertex 99.9424 57 25.5
      vertex 99.9424 3 25.5853
      vertex 99.9424 3 25.5
    endloop
  endfacet
  facet normal 0.216259 0.323451 -0.921201
    outer loop
      vertex 97.4138 57.4138 0.0576439
      vertex 97.224 57.5407 0.0576439
      vertex 97.6378 58.5398 0.50559
    endloop
  endfacet
  facet normal 0.908646 0.180758 -0.376415
    outer loop
      vertex 99.4944 57 1.33329
      vertex 99.3045 57.9546 1.33329
      vertex 99.7184 58.126 2.41473
    endloop
  endfacet
  facet normal 0 -0.92388 -0.382683
    outer loop
      vertex 82.5 0.50559 1.33329
      vertex 97 0.0576439 2.41473
      vertex 82.5 0.0576439 2.41473
    endloop
  endfacet
  facet normal 0 -0.92388 -0.382683
    outer loop
      vertex 97 0.0576439 2.41473
      vertex 82.5 0.50559 1.33329
      vertex 97 0.50559 1.33329
    endloop
  endfacet
  facet normal 0 -0.92388 -0.382683
    outer loop
      vertex 3 0.50559 1.33329
      vertex 17.5 0.0576439 2.41473
      vertex 3 0.0576439 2.41473
    endloop
  endfacet
  facet normal 0 -0.92388 -0.382683
    outer loop
      vertex 17.5 0.0576439 2.41473
      vertex 3 0.50559 1.33329
      vertex 17.5 0.50559 1.33329
    endloop
  endfacet
  facet normal 0 -0.92388 -0.382683
    outer loop
      vertex 22.5 0.50559 1.33329
      vertex 77.5 0.0576439 2.41473
      vertex 22.5 0.0576439 2.41473
    endloop
  endfacet
  facet normal 0 -0.92388 -0.382683
    outer loop
      vertex 77.5 0.0576439 2.41473
      vertex 22.5 0.50559 1.33329
      vertex 77.5 0.50559 1.33329
    endloop
  endfacet
  facet normal 0.593596 0.396635 -0.700232
    outer loop
      vertex 99.3045 57.9546 1.33329
      vertex 98.1785 58.1785 0.50559
      vertex 98.7638 58.7638 1.33329
    endloop
  endfacet
  facet normal 0 1 -0
    outer loop
      vertex 77.5 59.9424 2.41473
      vertex 22.5 59.9424 3.8
      vertex 77.5 59.9424 3.8
    endloop
  endfacet
  facet normal 0 1 0
    outer loop
      vertex 22.5 59.9424 3.8
      vertex 77.5 59.9424 2.41473
      vertex 22.5 59.9424 2.41473
    endloop
  endfacet
  facet normal 0 1 0
    outer loop
      vertex 77.5 59.9424 3.8
      vertex 97 59.9424 25.5853
      vertex 82.5 59.9424 3.8
    endloop
  endfacet
  facet normal 0 1 -0
    outer loop
      vertex 97 59.9424 2.41473
      vertex 82.5 59.9424 3.8
      vertex 97 59.9424 25.5853
    endloop
  endfacet
  facet normal 0 1 0
    outer loop
      vertex 82.5 59.9424 3.8
      vertex 97 59.9424 2.41473
      vertex 82.5 59.9424 2.41473
    endloop
  endfacet
  facet normal 0 1 0
    outer loop
      vertex 97 59.9424 25.5853
      vertex 77.5 59.9424 3.8
      vertex 3 59.9424 25.5853
    endloop
  endfacet
  facet normal 0 1 -0
    outer loop
      vertex 22.5 59.9424 3.8
      vertex 3 59.9424 25.5853
      vertex 77.5 59.9424 3.8
    endloop
  endfacet
  facet normal 0 1 -0
    outer loop
      vertex 17.5 59.9424 3.8
      vertex 3 59.9424 25.5853
      vertex 22.5 59.9424 3.8
    endloop
  endfacet
  facet normal 0 1 0
    outer loop
      vertex 3 59.9424 2.41473
      vertex 17.5 59.9424 3.8
      vertex 17.5 59.9424 2.41473
    endloop
  endfacet
  facet normal 0 1 0
    outer loop
      vertex 17.5 59.9424 3.8
      vertex 3 59.9424 2.41473
      vertex 3 59.9424 25.5853
    endloop
  endfacet
  facet normal -0.514713 -0.770325 0.376392
    outer loop
      vertex 2.04543 0.695466 26.6667
      vertex 0.919439 0.919439 25.5853
      vertex 1.87401 0.281617 25.5853
    endloop
  endfacet
  facet normal -0.180744 -0.908659 0.376392
    outer loop
      vertex 2.04543 0.695466 26.6667
      vertex 1.87401 0.281617 25.5853
      vertex 3 0.50559 26.6667
    endloop
  endfacet
  facet normal -0.700212 0.139277 -0.700218
    outer loop
      vertex 1.46016 57.6378 0.50559
      vertex 0.50559 57 1.33329
      vertex 0.695466 57.9546 1.33329
    endloop
  endfacet
  facet normal 0.195111 0.980781 -0
    outer loop
      vertex 98.126 59.7184 2.41473
      vertex 97 59.9424 25.5853
      vertex 98.126 59.7184 25.5853
    endloop
  endfacet
  facet normal 0.195111 0.980781 0
    outer loop
      vertex 97 59.9424 25.5853
      vertex 98.126 59.7184 2.41473
      vertex 97 59.9424 2.41473
    endloop
  endfacet
  facet normal 0.216281 0.323484 0.921184
    outer loop
      vertex 97.6378 58.5398 27.4944
      vertex 97.224 57.5407 27.9424
      vertex 97.4138 57.4138 27.9424
    endloop
  endfacet
  facet normal -0.0759208 0.38159 -0.921208
    outer loop
      vertex 3 57.5853 0.0576439
      vertex 2.36218 58.5398 0.50559
      vertex 3 58.6667 0.50559
    endloop
  endfacet
  facet normal 0.075899 -0.381625 0.921196
    outer loop
      vertex 97.224 2.45928 27.9424
      vertex 97 2.41473 27.9424
      vertex 97.6378 1.46016 27.4944
    endloop
  endfacet
  facet normal 0.396635 0.593596 -0.700232
    outer loop
      vertex 98.1785 58.1785 0.50559
      vertex 97.9546 59.3045 1.33329
      vertex 98.7638 58.7638 1.33329
    endloop
  endfacet
  facet normal 0.323518 -0.216169 0.921199
    outer loop
      vertex 98.5398 2.36218 27.4944
      vertex 97.4138 2.58615 27.9424
      vertex 98.1785 1.82146 27.4944
    endloop
  endfacet
  facet normal 0.18076 0.90864 0.376429
    outer loop
      vertex 97 59.9424 25.5853
      vertex 97 59.4944 26.6667
      vertex 98.126 59.7184 25.5853
    endloop
  endfacet
  facet normal -0.593612 -0.396644 0.700214
    outer loop
      vertex 1.82146 1.82146 27.4944
      vertex 0.695466 2.04543 26.6667
      vertex 1.23619 1.23619 26.6667
    endloop
  endfacet
  facet normal 0.216151 0.323479 -0.921217
    outer loop
      vertex 98.1785 58.1785 0.50559
      vertex 97.4138 57.4138 0.0576439
      vertex 97.6378 58.5398 0.50559
    endloop
  endfacet
  facet normal 0.514684 0.770332 0.376417
    outer loop
      vertex 98.126 59.7184 25.5853
      vertex 97.9546 59.3045 26.6667
      vertex 99.0806 59.0806 25.5853
    endloop
  endfacet
  facet normal 0.700207 -0.139298 -0.700219
    outer loop
      vertex 99.3045 2.04543 1.33329
      vertex 98.5398 2.36218 0.50559
      vertex 99.4944 3 1.33329
    endloop
  endfacet
  facet normal -0.381618 -0.0759083 0.921198
    outer loop
      vertex 2.41473 3 27.9424
      vertex 1.33329 3 27.4944
      vertex 1.46016 2.36218 27.4944
    endloop
  endfacet
  facet normal -0.180743 -0.908659 0.376392
    outer loop
      vertex 3 0.50559 26.6667
      vertex 1.87401 0.281617 25.5853
      vertex 3 0.0576439 25.5853
    endloop
  endfacet
  facet normal 0.700211 0.139318 -0.700211
    outer loop
      vertex 98.6667 57 0.50559
      vertex 98.5398 57.6378 0.50559
      vertex 99.4944 57 1.33329
    endloop
  endfacet
  facet normal 0.51473 -0.7703 0.376419
    outer loop
      vertex 98.7638 1.23619 26.6667
      vertex 97.9546 0.695466 26.6667
      vertex 99.0806 0.919439 25.5853
    endloop
  endfacet
  facet normal -0.593595 0.396652 -0.700222
    outer loop
      vertex 1.82146 58.1785 0.50559
      vertex 0.695466 57.9546 1.33329
      vertex 1.23619 58.7638 1.33329
    endloop
  endfacet
  facet normal -0.139281 -0.700215 0.700215
    outer loop
      vertex 3 1.33329 27.4944
      vertex 2.36218 1.46016 27.4944
      vertex 3 0.50559 26.6667
    endloop
  endfacet
  facet normal -0.700215 -0.139281 0.700215
    outer loop
      vertex 1.33329 3 27.4944
      vertex 0.50559 3 26.6667
      vertex 1.46016 2.36218 27.4944
    endloop
  endfacet
  facet normal 0.700211 -0.139313 0.700211
    outer loop
      vertex 98.6667 3 27.4944
      vertex 98.5398 2.36218 27.4944
      vertex 99.4944 3 26.6667
    endloop
  endfacet
  facet normal -0.700215 -0.139282 -0.700214
    outer loop
      vertex 0.695466 2.04543 1.33329
      vertex 0.50559 3 1.33329
      vertex 1.46016 2.36218 0.50559
    endloop
  endfacet
  facet normal 0.923864 0 -0.382722
    outer loop
      vertex 99.9424 3 2.41473
      vertex 99.4944 57 1.33329
      vertex 99.9424 57 2.41473
    endloop
  endfacet
  facet normal 0.923864 0 -0.382722
    outer loop
      vertex 99.4944 57 1.33329
      vertex 99.9424 3 2.41473
      vertex 99.4944 3 1.33329
    endloop
  endfacet
  facet normal 0.216153 -0.323481 -0.921215
    outer loop
      vertex 97.6378 1.46016 0.50559
      vertex 97.4138 2.58615 0.0576439
      vertex 98.1785 1.82146 0.50559
    endloop
  endfacet
  facet normal 0.381594 -0.0759882 0.921201
    outer loop
      vertex 97.5853 3 27.9424
      vertex 97.5407 2.77603 27.9424
      vertex 98.5398 2.36218 27.4944
    endloop
  endfacet
  facet normal 0.51471 0.770305 -0.376436
    outer loop
      vertex 98.7638 58.7638 1.33329
      vertex 97.9546 59.3045 1.33329
      vertex 99.0806 59.0806 2.41473
    endloop
  endfacet
  facet normal -0.323487 -0.216149 -0.921214
    outer loop
      vertex 1.82146 1.82146 0.50559
      vertex 1.46016 2.36218 0.50559
      vertex 2.58615 2.58615 0.0576439
    endloop
  endfacet
  facet normal 0.396644 0.593594 -0.700228
    outer loop
      vertex 98.1785 58.1785 0.50559
      vertex 97.6378 58.5398 0.50559
      vertex 97.9546 59.3045 1.33329
    endloop
  endfacet
  facet normal 0.381629 -0.0759286 0.921192
    outer loop
      vertex 98.6667 3 27.4944
      vertex 97.5853 3 27.9424
      vertex 98.5398 2.36218 27.4944
    endloop
  endfacet
  facet normal 0.90864 -0.180761 0.376429
    outer loop
      vertex 99.9424 3 25.5853
      vertex 99.4944 3 26.6667
      vertex 99.7184 1.87401 25.5853
    endloop
  endfacet
  facet normal 0.0759309 0.381629 0.921191
    outer loop
      vertex 97 58.6667 27.4944
      vertex 97 57.5853 27.9424
      vertex 97.6378 58.5398 27.4944
    endloop
  endfacet
  facet normal 0.382734 0 0.923859
    outer loop
      vertex 97.5853 57 27.9424
      vertex 98.6667 3 27.4944
      vertex 98.6667 57 27.4944
    endloop
  endfacet
  facet normal 0.382734 0 0.923859
    outer loop
      vertex 98.6667 3 27.4944
      vertex 97.5853 57 27.9424
      vertex 97.5853 3 27.9424
    endloop
  endfacet
  facet normal 0.396644 0.593594 0.700228
    outer loop
      vertex 97.9546 59.3045 26.6667
      vertex 97.6378 58.5398 27.4944
      vertex 98.1785 58.1785 27.4944
    endloop
  endfacet
  facet normal 0.0759107 -0.381618 0.921198
    outer loop
      vertex 97 2.41473 27.9424
      vertex 97 1.33329 27.4944
      vertex 97.6378 1.46016 27.4944
    endloop
  endfacet
  facet normal -0.707107 0 0.707107
    outer loop
      vertex 0.50559 57 26.6667
      vertex 1.33329 3 27.4944
      vertex 1.33329 57 27.4944
    endloop
  endfacet
  facet normal -0.707107 0 0.707107
    outer loop
      vertex 1.33329 3 27.4944
      vertex 0.50559 57 26.6667
      vertex 0.50559 3 26.6667
    endloop
  endfacet
  facet normal 0.216173 0.323512 0.9212
    outer loop
      vertex 97.6378 58.5398 27.4944
      vertex 97.4138 57.4138 27.9424
      vertex 98.1785 58.1785 27.4944
    endloop
  endfacet
  facet normal -0.180745 -0.908663 -0.37638
    outer loop
      vertex 3 0.50559 1.33329
      vertex 1.87401 0.281617 2.41473
      vertex 2.04543 0.695466 1.33329
    endloop
  endfacet
  facet normal -0.593612 -0.396644 -0.700214
    outer loop
      vertex 1.23619 1.23619 1.33329
      vertex 0.695466 2.04543 1.33329
      vertex 1.82146 1.82146 0.50559
    endloop
  endfacet
  facet normal -0.139281 -0.700215 -0.700215
    outer loop
      vertex 3 0.50559 1.33329
      vertex 2.36218 1.46016 0.50559
      vertex 3 1.33329 0.50559
    endloop
  endfacet
  facet normal -0.0759805 0.381555 -0.921218
    outer loop
      vertex 2.77603 57.5407 0.0576439
      vertex 2.36218 58.5398 0.50559
      vertex 3 57.5853 0.0576439
    endloop
  endfacet
  facet normal -0.382683 -0 -0.92388
    outer loop
      vertex 1.33329 57 0.50559
      vertex 2.41473 35.0827 0.0576439
      vertex 1.33329 33.6061 0.50559
    endloop
  endfacet
  facet normal -0.382683 0 -0.92388
    outer loop
      vertex 2.41473 35.0827 0.0576439
      vertex 1.33329 57 0.50559
      vertex 2.41473 57 0.0576439
    endloop
  endfacet
  facet normal -0.382683 0 -0.92388
    outer loop
      vertex 1.33329 3 0.50559
      vertex 2.41473 24.9172 0.0576439
      vertex 2.41473 3 0.0576439
    endloop
  endfacet
  facet normal -0.382683 0 -0.92388
    outer loop
      vertex 2.41473 24.9172 0.0576439
      vertex 1.33329 3 0.50559
      vertex 1.33329 26.3939 0.50559
    endloop
  endfacet
  facet normal -0.0759286 0.381629 0.921192
    outer loop
      vertex 3 58.6667 27.4944
      vertex 2.36218 58.5398 27.4944
      vertex 3 57.5853 27.9424
    endloop
  endfacet
  facet normal 0.0759794 0.3816 0.921199
    outer loop
      vertex 97.6378 58.5398 27.4944
      vertex 97 57.5853 27.9424
      vertex 97.224 57.5407 27.9424
    endloop
  endfacet
  facet normal 0.180757 0.908641 0.376427
    outer loop
      vertex 98.126 59.7184 25.5853
      vertex 97 59.4944 26.6667
      vertex 97.9546 59.3045 26.6667
    endloop
  endfacet
  facet normal -0.700214 0.139285 0.700214
    outer loop
      vertex 1.46016 57.6378 27.4944
      vertex 0.50559 57 26.6667
      vertex 1.33329 57 27.4944
    endloop
  endfacet
  facet normal 0.38159 0.0759232 -0.921208
    outer loop
      vertex 98.6667 57 0.50559
      vertex 97.5853 57 0.0576439
      vertex 98.5398 57.6378 0.50559
    endloop
  endfacet
  facet normal 0.323451 0.216259 -0.921201
    outer loop
      vertex 97.5407 57.224 0.0576439
      vertex 97.4138 57.4138 0.0576439
      vertex 98.5398 57.6378 0.50559
    endloop
  endfacet
  facet normal 0.0759232 0.38159 -0.921208
    outer loop
      vertex 97.6378 58.5398 0.50559
      vertex 97 57.5853 0.0576439
      vertex 97 58.6667 0.50559
    endloop
  endfacet
  facet normal 0.514708 0.770301 0.376448
    outer loop
      vertex 99.0806 59.0806 25.5853
      vertex 97.9546 59.3045 26.6667
      vertex 98.7638 58.7638 26.6667
    endloop
  endfacet
  facet normal 0.396635 0.593596 0.700232
    outer loop
      vertex 98.7638 58.7638 26.6667
      vertex 97.9546 59.3045 26.6667
      vertex 98.1785 58.1785 27.4944
    endloop
  endfacet
  facet normal 0.593612 -0.396626 0.700223
    outer loop
      vertex 99.3045 2.04543 26.6667
      vertex 98.1785 1.82146 27.4944
      vertex 98.7638 1.23619 26.6667
    endloop
  endfacet
  facet normal 0.908645 -0.180762 -0.376417
    outer loop
      vertex 99.7184 1.87401 2.41473
      vertex 99.4944 3 1.33329
      vertex 99.9424 3 2.41473
    endloop
  endfacet
  facet normal 0.770322 -0.514693 0.376424
    outer loop
      vertex 99.3045 2.04543 26.6667
      vertex 99.0806 0.919439 25.5853
      vertex 99.7184 1.87401 25.5853
    endloop
  endfacet
  facet normal 0.59361 -0.39664 0.700217
    outer loop
      vertex 98.5398 2.36218 27.4944
      vertex 98.1785 1.82146 27.4944
      vertex 99.3045 2.04543 26.6667
    endloop
  endfacet
  facet normal 0.139293 0.700204 0.700222
    outer loop
      vertex 97.9546 59.3045 26.6667
      vertex 97 59.4944 26.6667
      vertex 97.6378 58.5398 27.4944
    endloop
  endfacet
  facet normal 0.139318 0.700211 0.700211
    outer loop
      vertex 97 59.4944 26.6667
      vertex 97 58.6667 27.4944
      vertex 97.6378 58.5398 27.4944
    endloop
  endfacet
  facet normal 0.923859 -0 0.382734
    outer loop
      vertex 99.4944 3 26.6667
      vertex 99.9424 57 25.5853
      vertex 99.4944 57 26.6667
    endloop
  endfacet
  facet normal 0.923859 0 0.382734
    outer loop
      vertex 99.9424 57 25.5853
      vertex 99.4944 3 26.6667
      vertex 99.9424 3 25.5853
    endloop
  endfacet
  facet normal 0.180743 -0.908664 -0.37638
    outer loop
      vertex 98.126 0.281617 2.41473
      vertex 97 0.0576439 2.41473
      vertex 97 0.50559 1.33329
    endloop
  endfacet
  facet normal 0 -0.923875 0.382695
    outer loop
      vertex 3 0.0576439 25.5853
      vertex 97 0.50559 26.6667
      vertex 3 0.50559 26.6667
    endloop
  endfacet
  facet normal 0 -0.923875 0.382695
    outer loop
      vertex 97 0.50559 26.6667
      vertex 3 0.0576439 25.5853
      vertex 97 0.0576439 25.5853
    endloop
  endfacet
  facet normal 0 -0.382722 0.923864
    outer loop
      vertex 3 2.41473 27.9424
      vertex 97 1.33329 27.4944
      vertex 97 2.41473 27.9424
    endloop
  endfacet
  facet normal 0 -0.382722 0.923864
    outer loop
      vertex 97 1.33329 27.4944
      vertex 3 2.41473 27.9424
      vertex 3 1.33329 27.4944
    endloop
  endfacet
  facet normal 0.323512 0.216173 0.9212
    outer loop
      vertex 98.1785 58.1785 27.4944
      vertex 97.4138 57.4138 27.9424
      vertex 98.5398 57.6378 27.4944
    endloop
  endfacet
  facet normal 0.593594 0.396644 0.700228
    outer loop
      vertex 99.3045 57.9546 26.6667
      vertex 98.1785 58.1785 27.4944
      vertex 98.5398 57.6378 27.4944
    endloop
  endfacet
  facet normal -0.323481 0.216153 -0.921215
    outer loop
      vertex 2.58615 57.4138 0.0576439
      vertex 1.46016 57.6378 0.50559
      vertex 1.82146 58.1785 0.50559
    endloop
  endfacet
  facet normal -0.555569 -0.83147 0
    outer loop
      vertex 0.919439 0.919439 2.41473
      vertex 1.87401 0.281617 25.5853
      vertex 0.919439 0.919439 25.5853
    endloop
  endfacet
  facet normal -0.555569 -0.83147 -0
    outer loop
      vertex 1.87401 0.281617 25.5853
      vertex 0.919439 0.919439 2.41473
      vertex 1.87401 0.281617 2.41473
    endloop
  endfacet
  facet normal -0.908664 -0.180744 -0.37638
    outer loop
      vertex 0.281617 1.87401 2.41473
      vertex 0.0576439 3 2.41473
      vertex 0.50559 3 1.33329
    endloop
  endfacet
  facet normal 0 -1 0
    outer loop
      vertex 22.5 0.0576439 2.41473
      vertex 77.5 0.0576439 3.8
      vertex 22.5 0.0576439 3.8
    endloop
  endfacet
  facet normal 0 -1 -0
    outer loop
      vertex 77.5 0.0576439 3.8
      vertex 22.5 0.0576439 2.41473
      vertex 77.5 0.0576439 2.41473
    endloop
  endfacet
  facet normal 0 -1 0
    outer loop
      vertex 22.5 0.0576439 3.8
      vertex 3 0.0576439 25.5853
      vertex 17.5 0.0576439 3.8
    endloop
  endfacet
  facet normal 0 -1 0
    outer loop
      vertex 3 0.0576439 2.41473
      vertex 17.5 0.0576439 3.8
      vertex 3 0.0576439 25.5853
    endloop
  endfacet
  facet normal 0 -1 -0
    outer loop
      vertex 17.5 0.0576439 3.8
      vertex 3 0.0576439 2.41473
      vertex 17.5 0.0576439 2.41473
    endloop
  endfacet
  facet normal 0 -1 0
    outer loop
      vertex 3 0.0576439 25.5853
      vertex 22.5 0.0576439 3.8
      vertex 97 0.0576439 25.5853
    endloop
  endfacet
  facet normal 0 -1 0
    outer loop
      vertex 77.5 0.0576439 3.8
      vertex 97 0.0576439 25.5853
      vertex 22.5 0.0576439 3.8
    endloop
  endfacet
  facet normal 0 -1 0
    outer loop
      vertex 82.5 0.0576439 3.8
      vertex 97 0.0576439 25.5853
      vertex 77.5 0.0576439 3.8
    endloop
  endfacet
  facet normal 0 -1 0
    outer loop
      vertex 97 0.0576439 2.41473
      vertex 82.5 0.0576439 3.8
      vertex 82.5 0.0576439 2.41473
    endloop
  endfacet
  facet normal 0 -1 0
    outer loop
      vertex 82.5 0.0576439 3.8
      vertex 97 0.0576439 2.41473
      vertex 97 0.0576439 25.5853
    endloop
  endfacet
  facet normal 0.0759716 0.381562 -0.921216
    outer loop
      vertex 97.224 57.5407 0.0576439
      vertex 97 57.5853 0.0576439
      vertex 97.6378 58.5398 0.50559
    endloop
  endfacet
  facet normal -0.381618 0.0759107 0.921198
    outer loop
      vertex 1.46016 57.6378 27.4944
      vertex 1.33329 57 27.4944
      vertex 2.41473 57 27.9424
    endloop
  endfacet
  facet normal -0.700212 0.139277 0.700218
    outer loop
      vertex 0.695466 57.9546 26.6667
      vertex 0.50559 57 26.6667
      vertex 1.46016 57.6378 27.4944
    endloop
  endfacet
  facet normal 0.381562 0.0759716 -0.921216
    outer loop
      vertex 97.5853 57 0.0576439
      vertex 97.5407 57.224 0.0576439
      vertex 98.5398 57.6378 0.50559
    endloop
  endfacet
  facet normal -0.514716 -0.770329 -0.37638
    outer loop
      vertex 1.87401 0.281617 2.41473
      vertex 0.919439 0.919439 2.41473
      vertex 2.04543 0.695466 1.33329
    endloop
  endfacet
  facet normal -0.980785 -0.19509 0
    outer loop
      vertex 0.281617 1.87401 2.41473
      vertex 0.0576439 3 25.5853
      vertex 0.0576439 3 2.41473
    endloop
  endfacet
  facet normal -0.980785 -0.19509 0
    outer loop
      vertex 0.0576439 3 25.5853
      vertex 0.281617 1.87401 2.41473
      vertex 0.281617 1.87401 25.5853
    endloop
  endfacet
  facet normal -0.908659 -0.180743 0.376392
    outer loop
      vertex 0.50559 3 26.6667
      vertex 0.0576439 3 25.5853
      vertex 0.281617 1.87401 25.5853
    endloop
  endfacet
  facet normal 0 0.382695 -0.923875
    outer loop
      vertex 3 57.5853 0.0576439
      vertex 97 58.6667 0.50559
      vertex 97 57.5853 0.0576439
    endloop
  endfacet
  facet normal 0 0.382695 -0.923875
    outer loop
      vertex 97 58.6667 0.50559
      vertex 3 57.5853 0.0576439
      vertex 3 58.6667 0.50559
    endloop
  endfacet
  facet normal 0.180761 0.908645 -0.376417
    outer loop
      vertex 98.126 59.7184 2.41473
      vertex 97 59.4944 1.33329
      vertex 97 59.9424 2.41473
    endloop
  endfacet
  facet normal 0.593594 0.396644 -0.700228
    outer loop
      vertex 98.5398 57.6378 0.50559
      vertex 98.1785 58.1785 0.50559
      vertex 99.3045 57.9546 1.33329
    endloop
  endfacet
  facet normal 0.323479 0.216151 -0.921217
    outer loop
      vertex 98.5398 57.6378 0.50559
      vertex 97.4138 57.4138 0.0576439
      vertex 98.1785 58.1785 0.50559
    endloop
  endfacet
  facet normal -0.139313 0.700211 -0.700211
    outer loop
      vertex 3 58.6667 0.50559
      vertex 2.36218 58.5398 0.50559
      vertex 3 59.4944 1.33329
    endloop
  endfacet
  facet normal 0.770336 0.514687 -0.376405
    outer loop
      vertex 99.3045 57.9546 1.33329
      vertex 99.0806 59.0806 2.41473
      vertex 99.7184 58.126 2.41473
    endloop
  endfacet
  facet normal 0.770301 0.514708 0.376448
    outer loop
      vertex 99.0806 59.0806 25.5853
      vertex 98.7638 58.7638 26.6667
      vertex 99.3045 57.9546 26.6667
    endloop
  endfacet
  facet normal 0.216217 -0.323465 -0.921206
    outer loop
      vertex 97.6378 1.46016 0.50559
      vertex 97.224 2.45928 0.0576439
      vertex 97.4138 2.58615 0.0576439
    endloop
  endfacet
  facet normal 0.908645 0.180761 -0.376417
    outer loop
      vertex 99.9424 57 2.41473
      vertex 99.4944 57 1.33329
      vertex 99.7184 58.126 2.41473
    endloop
  endfacet
  facet normal 0.90864 0.18076 0.376429
    outer loop
      vertex 99.7184 58.126 25.5853
      vertex 99.4944 57 26.6667
      vertex 99.9424 57 25.5853
    endloop
  endfacet
  facet normal 0.195088 -0.980786 0
    outer loop
      vertex 97 0.0576439 2.41473
      vertex 98.126 0.281617 25.5853
      vertex 97 0.0576439 25.5853
    endloop
  endfacet
  facet normal 0.195088 -0.980786 0
    outer loop
      vertex 98.126 0.281617 25.5853
      vertex 97 0.0576439 2.41473
      vertex 98.126 0.281617 2.41473
    endloop
  endfacet
  facet normal 0.770326 -0.514696 -0.376412
    outer loop
      vertex 99.7184 1.87401 2.41473
      vertex 99.0806 0.919439 2.41473
      vertex 99.3045 2.04543 1.33329
    endloop
  endfacet
  facet normal -0.0759079 -0.381618 0.921198
    outer loop
      vertex 2.77603 2.45928 27.9424
      vertex 2.36218 1.46016 27.4944
      vertex 3 2.41473 27.9424
    endloop
  endfacet
  facet normal 0.908639 -0.180763 0.376431
    outer loop
      vertex 99.4944 3 26.6667
      vertex 99.3045 2.04543 26.6667
      vertex 99.7184 1.87401 25.5853
    endloop
  endfacet
  facet normal 0.700207 -0.139298 0.700219
    outer loop
      vertex 99.4944 3 26.6667
      vertex 98.5398 2.36218 27.4944
      vertex 99.3045 2.04543 26.6667
    endloop
  endfacet
  facet normal -0.216164 -0.323522 0.921198
    outer loop
      vertex 2.58615 2.58615 27.9424
      vertex 2.36218 1.46016 27.4944
      vertex 2.77603 2.45928 27.9424
    endloop
  endfacet
  facet normal -0.139298 0.700207 0.700219
    outer loop
      vertex 3 59.4944 26.6667
      vertex 2.04543 59.3045 26.6667
      vertex 2.36218 58.5398 27.4944
    endloop
  endfacet
  facet normal -0.216149 -0.323487 -0.921214
    outer loop
      vertex 2.36218 1.46016 0.50559
      vertex 1.82146 1.82146 0.50559
      vertex 2.58615 2.58615 0.0576439
    endloop
  endfacet
  facet normal 0 0 -1
    outer loop
      vertex 97 57.5853 0.0576439
      vertex 97.5853 57 0.0576439
      vertex 97.5853 35.0827 0.0576439
    endloop
  endfacet
  facet normal 0 0 -1
    outer loop
      vertex 97.5853 57 0.0576439
      vertex 97 57.5853 0.0576439
      vertex 97.5407 57.224 0.0576439
    endloop
  endfacet
  facet normal 0 0 -1
    outer loop
      vertex 97.5407 57.224 0.0576439
      vertex 97 57.5853 0.0576439
      vertex 97.4138 57.4138 0.0576439
    endloop
  endfacet
  facet normal 0 0 -1
    outer loop
      vertex 97.4138 57.4138 0.0576439
      vertex 97 57.5853 0.0576439
      vertex 97.224 57.5407 0.0576439
    endloop
  endfacet
  facet normal 0 0 -1
    outer loop
      vertex 97.5853 35.0827 0.0576439
      vertex 3 57.5853 0.0576439
      vertex 97 57.5853 0.0576439
    endloop
  endfacet
  facet normal 0 0 -1
    outer loop
      vertex 2.41473 35.0827 0.0576439
      vertex 3 57.5853 0.0576439
      vertex 97.5853 35.0827 0.0576439
    endloop
  endfacet
  facet normal 0 0 -1
    outer loop
      vertex 2.41473 57 0.0576439
      vertex 3 57.5853 0.0576439
      vertex 2.41473 35.0827 0.0576439
    endloop
  endfacet
  facet normal 0 0 -1
    outer loop
      vertex 3 57.5853 0.0576439
      vertex 2.41473 57 0.0576439
      vertex 2.77603 57.5407 0.0576439
    endloop
  endfacet
  facet normal 0 0 -1
    outer loop
      vertex 2.77603 57.5407 0.0576439
      vertex 2.41473 57 0.0576439
      vertex 2.58615 57.4138 0.0576439
    endloop
  endfacet
  facet normal 0 0 -1
    outer loop
      vertex 2.58615 57.4138 0.0576439
      vertex 2.41473 57 0.0576439
      vertex 2.45928 57.224 0.0576439
    endloop
  endfacet
  facet normal 0 0 -1
    outer loop
      vertex 97 2.41473 0.0576439
      vertex 97.5853 3 0.0576439
      vertex 97.5407 2.77603 0.0576439
    endloop
  endfacet
  facet normal 0 0 -1
    outer loop
      vertex 97 2.41473 0.0576439
      vertex 97.5407 2.77603 0.0576439
      vertex 97.4138 2.58615 0.0576439
    endloop
  endfacet
  facet normal 0 0 -1
    outer loop
      vertex 97 2.41473 0.0576439
      vertex 97.4138 2.58615 0.0576439
      vertex 97.224 2.45928 0.0576439
    endloop
  endfacet
  facet normal -0 0 -1
    outer loop
      vertex 97.5853 3 0.0576439
      vertex 97 2.41473 0.0576439
      vertex 97.5853 24.9172 0.0576439
    endloop
  endfacet
  facet normal 0 0 -1
    outer loop
      vertex 3 2.41473 0.0576439
      vertex 97.5853 24.9172 0.0576439
      vertex 97 2.41473 0.0576439
    endloop
  endfacet
  facet normal 0 0 -1
    outer loop
      vertex 2.41473 3 0.0576439
      vertex 3 2.41473 0.0576439
      vertex 2.77603 2.45928 0.0576439
    endloop
  endfacet
  facet normal 0 0 -1
    outer loop
      vertex 2.41473 3 0.0576439
      vertex 2.77603 2.45928 0.0576439
      vertex 2.58615 2.58615 0.0576439
    endloop
  endfacet
  facet normal 0 0 -1
    outer loop
      vertex 2.41473 3 0.0576439
      vertex 2.58615 2.58615 0.0576439
      vertex 2.45928 2.77603 0.0576439
    endloop
  endfacet
  facet normal 0 0 -1
    outer loop
      vertex 3 2.41473 0.0576439
      vertex 2.41473 3 0.0576439
      vertex 2.41473 24.9172 0.0576439
    endloop
  endfacet
  facet normal 0 0 -1
    outer loop
      vertex 3 2.41473 0.0576439
      vertex 2.41473 24.9172 0.0576439
      vertex 97.5853 24.9172 0.0576439
    endloop
  endfacet
  facet normal -0.514717 -0.770319 0.376398
    outer loop
      vertex 1.23619 1.23619 26.6667
      vertex 0.919439 0.919439 25.5853
      vertex 2.04543 0.695466 26.6667
    endloop
  endfacet
  facet normal 0 -0.707107 0.707107
    outer loop
      vertex 3 1.33329 27.4944
      vertex 97 0.50559 26.6667
      vertex 97 1.33329 27.4944
    endloop
  endfacet
  facet normal 0 -0.707107 0.707107
    outer loop
      vertex 97 0.50559 26.6667
      vertex 3 1.33329 27.4944
      vertex 3 0.50559 26.6667
    endloop
  endfacet
  facet normal 0.180742 -0.908659 0.376392
    outer loop
      vertex 97 0.50559 26.6667
      vertex 97 0.0576439 25.5853
      vertex 98.126 0.281617 25.5853
    endloop
  endfacet
  facet normal 0.514704 -0.770334 0.376385
    outer loop
      vertex 99.0806 0.919439 25.5853
      vertex 97.9546 0.695466 26.6667
      vertex 98.126 0.281617 25.5853
    endloop
  endfacet
  facet normal 0 0.707107 0.707107
    outer loop
      vertex 97 59.4944 26.6667
      vertex 3 58.6667 27.4944
      vertex 97 58.6667 27.4944
    endloop
  endfacet
  facet normal 0 0.707107 0.707107
    outer loop
      vertex 3 58.6667 27.4944
      vertex 97 59.4944 26.6667
      vertex 3 59.4944 26.6667
    endloop
  endfacet
  facet normal 0.216175 -0.323514 0.921199
    outer loop
      vertex 98.1785 1.82146 27.4944
      vertex 97.4138 2.58615 27.9424
      vertex 97.6378 1.46016 27.4944
    endloop
  endfacet
  facet normal 0 -0.382683 -0.92388
    outer loop
      vertex 3 1.33329 0.50559
      vertex 97 2.41473 0.0576439
      vertex 97 1.33329 0.50559
    endloop
  endfacet
  facet normal -0 -0.382683 -0.92388
    outer loop
      vertex 97 2.41473 0.0576439
      vertex 3 1.33329 0.50559
      vertex 3 2.41473 0.0576439
    endloop
  endfacet
  facet normal -0.381579 -0.0759001 -0.921215
    outer loop
      vertex 2.45928 2.77603 0.0576439
      vertex 1.46016 2.36218 0.50559
      vertex 2.41473 3 0.0576439
    endloop
  endfacet
  facet normal 0.139277 -0.700212 -0.700218
    outer loop
      vertex 97.9546 0.695466 1.33329
      vertex 97 0.50559 1.33329
      vertex 97.6378 1.46016 0.50559
    endloop
  endfacet
  facet normal -0.216147 0.323485 -0.921215
    outer loop
      vertex 2.58615 57.4138 0.0576439
      vertex 1.82146 58.1785 0.50559
      vertex 2.36218 58.5398 0.50559
    endloop
  endfacet
  facet normal -0.216184 0.323476 -0.92121
    outer loop
      vertex 2.58615 57.4138 0.0576439
      vertex 2.36218 58.5398 0.50559
      vertex 2.77603 57.5407 0.0576439
    endloop
  endfacet
  facet normal 0.514733 -0.770304 -0.376407
    outer loop
      vertex 99.0806 0.919439 2.41473
      vertex 97.9546 0.695466 1.33329
      vertex 98.7638 1.23619 1.33329
    endloop
  endfacet
  facet normal -0.323514 0.216175 0.921199
    outer loop
      vertex 1.82146 58.1785 27.4944
      vertex 1.46016 57.6378 27.4944
      vertex 2.58615 57.4138 27.9424
    endloop
  endfacet
  facet normal -0.216169 0.323518 0.921199
    outer loop
      vertex 2.36218 58.5398 27.4944
      vertex 1.82146 58.1785 27.4944
      vertex 2.58615 57.4138 27.9424
    endloop
  endfacet
  facet normal -0.514696 0.770326 -0.376412
    outer loop
      vertex 2.04543 59.3045 1.33329
      vertex 0.919439 59.0806 2.41473
      vertex 1.87401 59.7184 2.41473
    endloop
  endfacet
  facet normal -0.139313 0.700211 0.700211
    outer loop
      vertex 3 59.4944 26.6667
      vertex 2.36218 58.5398 27.4944
      vertex 3 58.6667 27.4944
    endloop
  endfacet
  facet normal -0.216142 -0.323489 -0.921215
    outer loop
      vertex 2.77603 2.45928 0.0576439
      vertex 2.36218 1.46016 0.50559
      vertex 2.58615 2.58615 0.0576439
    endloop
  endfacet
  facet normal 0.700204 0.139293 -0.700222
    outer loop
      vertex 99.4944 57 1.33329
      vertex 98.5398 57.6378 0.50559
      vertex 99.3045 57.9546 1.33329
    endloop
  endfacet
  facet normal -0.707107 0 -0.707107
    outer loop
      vertex 1.33329 33.6061 0.50559
      vertex 0.50559 57 1.33329
      vertex 1.33329 57 0.50559
    endloop
  endfacet
  facet normal -0.707105 1.08662e-07 -0.707108
    outer loop
      vertex 1.1271 32.9264 0.711779
      vertex 0.50559 57 1.33329
      vertex 1.33329 33.6061 0.50559
    endloop
  endfacet
  facet normal -0.707108 -2.69115e-08 -0.707106
    outer loop
      vertex 0.83888 30 1
      vertex 0.50559 57 1.33329
      vertex 1.1271 32.9264 0.711779
    endloop
  endfacet
  facet normal -0.707107 0 -0.707107
    outer loop
      vertex 0.50559 3 1.33329
      vertex 1.33329 26.3939 0.50559
      vertex 1.33329 3 0.50559
    endloop
  endfacet
  facet normal -0.707105 -1.08662e-07 -0.707108
    outer loop
      vertex 1.33329 26.3939 0.50559
      vertex 0.50559 3 1.33329
      vertex 1.1271 27.0736 0.711779
    endloop
  endfacet
  facet normal -0.707107 0 -0.707107
    outer loop
      vertex 0.83888 30 1
      vertex 0.50559 3 1.33329
      vertex 0.50559 57 1.33329
    endloop
  endfacet
  facet normal -0.707108 2.69115e-08 -0.707106
    outer loop
      vertex 1.1271 27.0736 0.711779
      vertex 0.50559 3 1.33329
      vertex 0.83888 30 1
    endloop
  endfacet
  facet normal -0.700214 0.139285 -0.700214
    outer loop
      vertex 1.33329 57 0.50559
      vertex 0.50559 57 1.33329
      vertex 1.46016 57.6378 0.50559
    endloop
  endfacet
  facet normal -1 0 0
    outer loop
      vertex 0.0576439 3 2.41473
      vertex 0.0576439 57 25.5853
      vertex 0.0576439 57 2.41473
    endloop
  endfacet
  facet normal -1 -0 0
    outer loop
      vertex 0.0576439 57 25.5853
      vertex 0.0576439 3 2.41473
      vertex 0.0576439 3 25.5853
    endloop
  endfacet
  facet normal -0.396626 0.593612 0.700223
    outer loop
      vertex 2.04543 59.3045 26.6667
      vertex 1.23619 58.7638 26.6667
      vertex 1.82146 58.1785 27.4944
    endloop
  endfacet
  facet normal -0.770325 -0.514713 0.376392
    outer loop
      vertex 0.695466 2.04543 26.6667
      vertex 0.281617 1.87401 25.5853
      vertex 0.919439 0.919439 25.5853
    endloop
  endfacet
  facet normal 0.139293 0.700204 -0.700222
    outer loop
      vertex 97.6378 58.5398 0.50559
      vertex 97 59.4944 1.33329
      vertex 97.9546 59.3045 1.33329
    endloop
  endfacet
  facet normal 0.180758 0.908646 -0.376415
    outer loop
      vertex 97.9546 59.3045 1.33329
      vertex 97 59.4944 1.33329
      vertex 98.126 59.7184 2.41473
    endloop
  endfacet
  facet normal -0.770338 0.514706 -0.376373
    outer loop
      vertex 0.695466 57.9546 1.33329
      vertex 0.281617 58.126 2.41473
      vertex 0.919439 59.0806 2.41473
    endloop
  endfacet
  facet normal 0.139318 0.700211 -0.700211
    outer loop
      vertex 97.6378 58.5398 0.50559
      vertex 97 58.6667 0.50559
      vertex 97 59.4944 1.33329
    endloop
  endfacet
  facet normal -0.323465 0.216217 -0.921206
    outer loop
      vertex 2.45928 57.224 0.0576439
      vertex 1.46016 57.6378 0.50559
      vertex 2.58615 57.4138 0.0576439
    endloop
  endfacet
  facet normal 0.593596 0.396635 0.700232
    outer loop
      vertex 98.7638 58.7638 26.6667
      vertex 98.1785 58.1785 27.4944
      vertex 99.3045 57.9546 26.6667
    endloop
  endfacet
  facet normal 0.381629 0.0759309 0.921191
    outer loop
      vertex 98.5398 57.6378 27.4944
      vertex 97.5853 57 27.9424
      vertex 98.6667 57 27.4944
    endloop
  endfacet
  facet normal -0.593612 -0.396641 -0.700215
    outer loop
      vertex 1.82146 1.82146 0.50559
      vertex 0.695466 2.04543 1.33329
      vertex 1.46016 2.36218 0.50559
    endloop
  endfacet
  facet normal 0.382695 0 -0.923875
    outer loop
      vertex 97.5853 35.0827 0.0576439
      vertex 98.6667 57 0.50559
      vertex 98.6667 33.6061 0.50559
    endloop
  endfacet
  facet normal 0.382695 0 -0.923875
    outer loop
      vertex 98.6667 57 0.50559
      vertex 97.5853 35.0827 0.0576439
      vertex 97.5853 57 0.0576439
    endloop
  endfacet
  facet normal 0.382695 0 -0.923875
    outer loop
      vertex 97.5853 24.9172 0.0576439
      vertex 98.6667 3 0.50559
      vertex 97.5853 3 0.0576439
    endloop
  endfacet
  facet normal 0.382695 0 -0.923875
    outer loop
      vertex 98.6667 3 0.50559
      vertex 97.5853 24.9172 0.0576439
      vertex 98.6667 26.3939 0.50559
    endloop
  endfacet
  facet normal 0.381555 -0.0759805 -0.921218
    outer loop
      vertex 98.5398 2.36218 0.50559
      vertex 97.5407 2.77603 0.0576439
      vertex 97.5853 3 0.0576439
    endloop
  endfacet
  facet normal 0.0758913 -0.381586 -0.921213
    outer loop
      vertex 97.6378 1.46016 0.50559
      vertex 97 2.41473 0.0576439
      vertex 97.224 2.45928 0.0576439
    endloop
  endfacet
  facet normal 0.770305 0.51471 -0.376436
    outer loop
      vertex 99.3045 57.9546 1.33329
      vertex 98.7638 58.7638 1.33329
      vertex 99.0806 59.0806 2.41473
    endloop
  endfacet
  facet normal 0.980791 0.195061 0
    outer loop
      vertex 99.7184 58.126 25.5853
      vertex 99.8429 57.5 25.5
      vertex 99.7184 58.126 2.41473
    endloop
  endfacet
  facet normal 0.980781 0.195111 -0.000377821
    outer loop
      vertex 99.9424 57 25.5853
      vertex 99.8429 57.5 25.5
      vertex 99.7184 58.126 25.5853
    endloop
  endfacet
  facet normal 0.980769 0.195173 0
    outer loop
      vertex 99.8429 57.5 25.5
      vertex 99.9424 57 25.5853
      vertex 99.9424 57 25.5
    endloop
  endfacet
  facet normal 0.980791 0.195061 -0
    outer loop
      vertex 99.8429 57.5 2.5
      vertex 99.7184 58.126 2.41473
      vertex 99.8429 57.5 25.5
    endloop
  endfacet
  facet normal 0.980769 0.195173 -0
    outer loop
      vertex 99.9424 57 2.41473
      vertex 99.8429 57.5 2.5
      vertex 99.9424 57 2.5
    endloop
  endfacet
  facet normal 0.980781 0.195111 0.000377954
    outer loop
      vertex 99.8429 57.5 2.5
      vertex 99.9424 57 2.41473
      vertex 99.7184 58.126 2.41473
    endloop
  endfacet
  facet normal 0.831479 -0.555556 0
    outer loop
      vertex 99.0806 0.919439 25.5853
      vertex 99.7184 1.87401 2.41473
      vertex 99.7184 1.87401 25.5853
    endloop
  endfacet
  facet normal 0.831479 -0.555556 0
    outer loop
      vertex 99.7184 1.87401 2.41473
      vertex 99.0806 0.919439 25.5853
      vertex 99.0806 0.919439 2.41473
    endloop
  endfacet
  facet normal 0.139277 -0.700212 0.700218
    outer loop
      vertex 97.6378 1.46016 27.4944
      vertex 97 0.50559 26.6667
      vertex 97.9546 0.695466 26.6667
    endloop
  endfacet
  facet normal 0.38159 -0.0759208 -0.921208
    outer loop
      vertex 98.5398 2.36218 0.50559
      vertex 97.5853 3 0.0576439
      vertex 98.6667 3 0.50559
    endloop
  endfacet
  facet normal 0.396652 -0.593595 -0.700222
    outer loop
      vertex 98.7638 1.23619 1.33329
      vertex 97.9546 0.695466 1.33329
      vertex 98.1785 1.82146 0.50559
    endloop
  endfacet
  facet normal 0.216239 -0.323498 0.921189
    outer loop
      vertex 97.4138 2.58615 27.9424
      vertex 97.224 2.45928 27.9424
      vertex 97.6378 1.46016 27.4944
    endloop
  endfacet
  facet normal 0.908641 0.180757 0.376427
    outer loop
      vertex 99.7184 58.126 25.5853
      vertex 99.3045 57.9546 26.6667
      vertex 99.4944 57 26.6667
    endloop
  endfacet
  facet normal -0.770323 -0.51472 -0.376386
    outer loop
      vertex 0.919439 0.919439 2.41473
      vertex 0.695466 2.04543 1.33329
      vertex 1.23619 1.23619 1.33329
    endloop
  endfacet
  facet normal -0.381586 0.0758913 -0.921213
    outer loop
      vertex 2.41473 57 0.0576439
      vertex 1.46016 57.6378 0.50559
      vertex 2.45928 57.224 0.0576439
    endloop
  endfacet
  facet normal -0.180744 -0.908664 -0.37638
    outer loop
      vertex 3 0.0576439 2.41473
      vertex 1.87401 0.281617 2.41473
      vertex 3 0.50559 1.33329
    endloop
  endfacet
  facet normal -0.19509 -0.980785 0
    outer loop
      vertex 1.87401 0.281617 2.41473
      vertex 3 0.0576439 25.5853
      vertex 1.87401 0.281617 25.5853
    endloop
  endfacet
  facet normal -0.19509 -0.980785 -0
    outer loop
      vertex 3 0.0576439 25.5853
      vertex 1.87401 0.281617 2.41473
      vertex 3 0.0576439 2.41473
    endloop
  endfacet
  facet normal 0.139285 -0.700214 0.700214
    outer loop
      vertex 97 1.33329 27.4944
      vertex 97 0.50559 26.6667
      vertex 97.6378 1.46016 27.4944
    endloop
  endfacet
  facet normal -0.0759083 -0.381618 0.921198
    outer loop
      vertex 3 2.41473 27.9424
      vertex 2.36218 1.46016 27.4944
      vertex 3 1.33329 27.4944
    endloop
  endfacet
  facet normal -0.323498 0.216239 0.921189
    outer loop
      vertex 2.58615 57.4138 27.9424
      vertex 1.46016 57.6378 27.4944
      vertex 2.45928 57.224 27.9424
    endloop
  endfacet
  facet normal -0.0759882 0.381594 0.921201
    outer loop
      vertex 3 57.5853 27.9424
      vertex 2.36218 58.5398 27.4944
      vertex 2.77603 57.5407 27.9424
    endloop
  endfacet
  facet normal 0.323509 -0.216206 0.921193
    outer loop
      vertex 97.5407 2.77603 27.9424
      vertex 97.4138 2.58615 27.9424
      vertex 98.5398 2.36218 27.4944
    endloop
  endfacet
  facet normal -0.908666 0.180739 -0.376377
    outer loop
      vertex 0.50559 57 1.33329
      vertex 0.281617 58.126 2.41473
      vertex 0.695466 57.9546 1.33329
    endloop
  endfacet
  facet normal -0.180764 0.908644 -0.376419
    outer loop
      vertex 2.04543 59.3045 1.33329
      vertex 1.87401 59.7184 2.41473
      vertex 3 59.4944 1.33329
    endloop
  endfacet
  facet normal 0 0.923859 0.382734
    outer loop
      vertex 97 59.9424 25.5853
      vertex 3 59.4944 26.6667
      vertex 97 59.4944 26.6667
    endloop
  endfacet
  facet normal 0 0.923859 0.382734
    outer loop
      vertex 3 59.4944 26.6667
      vertex 97 59.9424 25.5853
      vertex 3 59.9424 25.5853
    endloop
  endfacet
  facet normal -0.593596 0.396646 0.700226
    outer loop
      vertex 1.82146 58.1785 27.4944
      vertex 0.695466 57.9546 26.6667
      vertex 1.46016 57.6378 27.4944
    endloop
  endfacet
  facet normal -0.593596 0.396646 -0.700226
    outer loop
      vertex 1.46016 57.6378 0.50559
      vertex 0.695466 57.9546 1.33329
      vertex 1.82146 58.1785 0.50559
    endloop
  endfacet
  facet normal -0.323489 -0.216142 -0.921215
    outer loop
      vertex 2.58615 2.58615 0.0576439
      vertex 1.46016 2.36218 0.50559
      vertex 2.45928 2.77603 0.0576439
    endloop
  endfacet
  facet normal -0.381579 0.0759029 -0.921215
    outer loop
      vertex 2.41473 57 0.0576439
      vertex 1.33329 57 0.50559
      vertex 1.46016 57.6378 0.50559
    endloop
  endfacet
  facet normal -0.83147 -0.555569 0
    outer loop
      vertex 0.919439 0.919439 2.41473
      vertex 0.281617 1.87401 25.5853
      vertex 0.281617 1.87401 2.41473
    endloop
  endfacet
  facet normal -0.83147 -0.555569 0
    outer loop
      vertex 0.281617 1.87401 25.5853
      vertex 0.919439 0.919439 2.41473
      vertex 0.919439 0.919439 25.5853
    endloop
  endfacet
  facet normal 0.707107 -0 0.707107
    outer loop
      vertex 98.6667 3 27.4944
      vertex 99.4944 57 26.6667
      vertex 98.6667 57 27.4944
    endloop
  endfacet
  facet normal 0.707107 0 0.707107
    outer loop
      vertex 99.4944 57 26.6667
      vertex 98.6667 3 27.4944
      vertex 99.4944 3 26.6667
    endloop
  endfacet
  facet normal 0.770332 0.514684 0.376417
    outer loop
      vertex 99.7184 58.126 25.5853
      vertex 99.0806 59.0806 25.5853
      vertex 99.3045 57.9546 26.6667
    endloop
  endfacet
  facet normal 0.707107 0 -0.707107
    outer loop
      vertex 99.4944 57 1.33329
      vertex 98.6667 33.6061 0.50559
      vertex 98.6667 57 0.50559
    endloop
  endfacet
  facet normal 0.70709 1.19526e-06 -0.707124
    outer loop
      vertex 99.4944 57 1.33329
      vertex 98.8729 32.9264 0.711779
      vertex 98.6667 33.6061 0.50559
    endloop
  endfacet
  facet normal 0.707128 -7.97888e-07 -0.707085
    outer loop
      vertex 99.4944 57 1.33329
      vertex 99.1611 30 1
      vertex 98.8729 32.9264 0.711779
    endloop
  endfacet
  facet normal 0.707096 0 -0.707117
    outer loop
      vertex 99.4944 3 1.33329
      vertex 99.1611 30 1
      vertex 99.4944 57 1.33329
    endloop
  endfacet
  facet normal 0.707128 7.97888e-07 -0.707085
    outer loop
      vertex 99.4944 3 1.33329
      vertex 98.8729 27.0736 0.711779
      vertex 99.1611 30 1
    endloop
  endfacet
  facet normal 0.70709 -1.19526e-06 -0.707124
    outer loop
      vertex 99.4944 3 1.33329
      vertex 98.6667 26.3939 0.50559
      vertex 98.8729 27.0736 0.711779
    endloop
  endfacet
  facet normal 0.707107 0 -0.707107
    outer loop
      vertex 98.6667 26.3939 0.50559
      vertex 99.4944 3 1.33329
      vertex 98.6667 3 0.50559
    endloop
  endfacet
  facet normal 0.980769 -0.195173 0
    outer loop
      vertex 99.9424 3 25.5853
      vertex 99.8429 2.5 25.5
      vertex 99.9424 3 25.5
    endloop
  endfacet
  facet normal 0.98079 -0.195064 0
    outer loop
      vertex 99.8429 2.5 25.5
      vertex 99.7184 1.87401 25.5853
      vertex 99.8429 2.5 2.5
    endloop
  endfacet
  facet normal 0.980781 -0.195113 -0.000367664
    outer loop
      vertex 99.7184 1.87401 25.5853
      vertex 99.8429 2.5 25.5
      vertex 99.9424 3 25.5853
    endloop
  endfacet
  facet normal 0.980769 -0.195173 0
    outer loop
      vertex 99.8429 2.5 2.5
      vertex 99.9424 3 2.41473
      vertex 99.9424 3 2.5
    endloop
  endfacet
  facet normal 0.980781 -0.195113 0.000367793
    outer loop
      vertex 99.8429 2.5 2.5
      vertex 99.7184 1.87401 2.41473
      vertex 99.9424 3 2.41473
    endloop
  endfacet
  facet normal 0.98079 -0.195064 0
    outer loop
      vertex 99.7184 1.87401 2.41473
      vertex 99.8429 2.5 2.5
      vertex 99.7184 1.87401 25.5853
    endloop
  endfacet
  facet normal 0.77032 -0.514695 0.376426
    outer loop
      vertex 99.3045 2.04543 26.6667
      vertex 98.7638 1.23619 26.6667
      vertex 99.0806 0.919439 25.5853
    endloop
  endfacet
  facet normal 0.514687 0.770336 -0.376405
    outer loop
      vertex 99.0806 59.0806 2.41473
      vertex 97.9546 59.3045 1.33329
      vertex 98.126 59.7184 2.41473
    endloop
  endfacet
  facet normal 0.555544 0.831487 -0
    outer loop
      vertex 99.0806 59.0806 2.41473
      vertex 98.126 59.7184 25.5853
      vertex 99.0806 59.0806 25.5853
    endloop
  endfacet
  facet normal 0.555544 0.831487 0
    outer loop
      vertex 98.126 59.7184 25.5853
      vertex 99.0806 59.0806 2.41473
      vertex 98.126 59.7184 2.41473
    endloop
  endfacet
  facet normal 0.180738 -0.908661 0.376389
    outer loop
      vertex 97.9546 0.695466 26.6667
      vertex 97 0.50559 26.6667
      vertex 98.126 0.281617 25.5853
    endloop
  endfacet
  facet normal 0.555557 -0.831478 0
    outer loop
      vertex 98.126 0.281617 2.41473
      vertex 99.0806 0.919439 25.5853
      vertex 98.126 0.281617 25.5853
    endloop
  endfacet
  facet normal 0.555557 -0.831478 0
    outer loop
      vertex 99.0806 0.919439 25.5853
      vertex 98.126 0.281617 2.41473
      vertex 99.0806 0.919439 2.41473
    endloop
  endfacet
  facet normal 0.396652 -0.593595 0.700222
    outer loop
      vertex 98.1785 1.82146 27.4944
      vertex 97.9546 0.695466 26.6667
      vertex 98.7638 1.23619 26.6667
    endloop
  endfacet
  facet normal 0.396646 -0.593596 0.700226
    outer loop
      vertex 98.1785 1.82146 27.4944
      vertex 97.6378 1.46016 27.4944
      vertex 97.9546 0.695466 26.6667
    endloop
  endfacet
  facet normal 0.180739 -0.908666 -0.376377
    outer loop
      vertex 98.126 0.281617 2.41473
      vertex 97 0.50559 1.33329
      vertex 97.9546 0.695466 1.33329
    endloop
  endfacet
  facet normal 0.514706 -0.770338 -0.376373
    outer loop
      vertex 98.126 0.281617 2.41473
      vertex 97.9546 0.695466 1.33329
      vertex 99.0806 0.919439 2.41473
    endloop
  endfacet
  facet normal 0 -0.707107 -0.707107
    outer loop
      vertex 3 0.50559 1.33329
      vertex 17.5 0.53888 1.3
      vertex 17.5 0.50559 1.33329
    endloop
  endfacet
  facet normal 0 -0.707107 -0.707107
    outer loop
      vertex 3 1.33329 0.50559
      vertex 22.5 0.53888 1.3
      vertex 17.5 0.53888 1.3
    endloop
  endfacet
  facet normal 0 -0.707107 -0.707107
    outer loop
      vertex 22.5 0.53888 1.3
      vertex 3 1.33329 0.50559
      vertex 77.5 0.53888 1.3
    endloop
  endfacet
  facet normal -0 -0.707107 -0.707107
    outer loop
      vertex 97 1.33329 0.50559
      vertex 77.5 0.53888 1.3
      vertex 3 1.33329 0.50559
    endloop
  endfacet
  facet normal 0 -0.707107 -0.707107
    outer loop
      vertex 3 1.33329 0.50559
      vertex 17.5 0.53888 1.3
      vertex 3 0.50559 1.33329
    endloop
  endfacet
  facet normal 0 -0.707107 -0.707107
    outer loop
      vertex 22.5 0.53888 1.3
      vertex 77.5 0.50559 1.33329
      vertex 22.5 0.50559 1.33329
    endloop
  endfacet
  facet normal 0 -0.707107 -0.707107
    outer loop
      vertex 77.5 0.50559 1.33329
      vertex 22.5 0.53888 1.3
      vertex 77.5 0.53888 1.3
    endloop
  endfacet
  facet normal 0 -0.707107 -0.707107
    outer loop
      vertex 82.5 0.53888 1.3
      vertex 97 0.50559 1.33329
      vertex 82.5 0.50559 1.33329
    endloop
  endfacet
  facet normal 0 -0.707107 -0.707107
    outer loop
      vertex 77.5 0.53888 1.3
      vertex 97 1.33329 0.50559
      vertex 82.5 0.53888 1.3
    endloop
  endfacet
  facet normal 0 -0.707107 -0.707107
    outer loop
      vertex 82.5 0.53888 1.3
      vertex 97 1.33329 0.50559
      vertex 97 0.50559 1.33329
    endloop
  endfacet
  facet normal 0.396646 -0.593596 -0.700226
    outer loop
      vertex 97.9546 0.695466 1.33329
      vertex 97.6378 1.46016 0.50559
      vertex 98.1785 1.82146 0.50559
    endloop
  endfacet
  facet normal 0.700211 -0.139313 -0.700211
    outer loop
      vertex 99.4944 3 1.33329
      vertex 98.5398 2.36218 0.50559
      vertex 98.6667 3 0.50559
    endloop
  endfacet
  facet normal -0.51472 -0.770323 -0.376386
    outer loop
      vertex 2.04543 0.695466 1.33329
      vertex 0.919439 0.919439 2.41473
      vertex 1.23619 1.23619 1.33329
    endloop
  endfacet
  facet normal -0.139282 -0.700215 -0.700214
    outer loop
      vertex 3 0.50559 1.33329
      vertex 2.04543 0.695466 1.33329
      vertex 2.36218 1.46016 0.50559
    endloop
  endfacet
  facet normal -0.770329 -0.514716 -0.37638
    outer loop
      vertex 0.919439 0.919439 2.41473
      vertex 0.281617 1.87401 2.41473
      vertex 0.695466 2.04543 1.33329
    endloop
  endfacet
  facet normal -0.908663 -0.180745 -0.37638
    outer loop
      vertex 0.695466 2.04543 1.33329
      vertex 0.281617 1.87401 2.41473
      vertex 0.50559 3 1.33329
    endloop
  endfacet
  facet normal -0.139282 -0.700215 0.700214
    outer loop
      vertex 2.36218 1.46016 27.4944
      vertex 2.04543 0.695466 26.6667
      vertex 3 0.50559 26.6667
    endloop
  endfacet
  facet normal -0.770319 -0.514717 0.376398
    outer loop
      vertex 1.23619 1.23619 26.6667
      vertex 0.695466 2.04543 26.6667
      vertex 0.919439 0.919439 25.5853
    endloop
  endfacet
  facet normal -0.216206 0.323509 0.921193
    outer loop
      vertex 2.77603 57.5407 27.9424
      vertex 2.36218 58.5398 27.4944
      vertex 2.58615 57.4138 27.9424
    endloop
  endfacet
  facet normal -0 0.382734 0.923859
    outer loop
      vertex 3 58.6667 27.4944
      vertex 97 57.5853 27.9424
      vertex 97 58.6667 27.4944
    endloop
  endfacet
  facet normal 0 0.382734 0.923859
    outer loop
      vertex 97 57.5853 27.9424
      vertex 3 58.6667 27.4944
      vertex 3 57.5853 27.9424
    endloop
  endfacet
  facet normal -0.382722 0 0.923864
    outer loop
      vertex 1.33329 57 27.4944
      vertex 2.41473 3 27.9424
      vertex 2.41473 57 27.9424
    endloop
  endfacet
  facet normal -0.382722 0 0.923864
    outer loop
      vertex 2.41473 3 27.9424
      vertex 1.33329 57 27.4944
      vertex 1.33329 3 27.4944
    endloop
  endfacet
  facet normal -0.514695 0.77032 0.376426
    outer loop
      vertex 2.04543 59.3045 26.6667
      vertex 0.919439 59.0806 25.5853
      vertex 1.23619 58.7638 26.6667
    endloop
  endfacet
  facet normal -0.92388 0 -0.382683
    outer loop
      vertex 0.50559 3 1.33329
      vertex 0.0576439 57 2.41473
      vertex 0.50559 57 1.33329
    endloop
  endfacet
  facet normal -0.92388 -0 -0.382683
    outer loop
      vertex 0.0576439 57 2.41473
      vertex 0.50559 3 1.33329
      vertex 0.0576439 3 2.41473
    endloop
  endfacet
  facet normal 0.323484 0.216281 0.921184
    outer loop
      vertex 98.5398 57.6378 27.4944
      vertex 97.4138 57.4138 27.9424
      vertex 97.5407 57.224 27.9424
    endloop
  endfacet
  facet normal 0.3816 0.0759794 0.921199
    outer loop
      vertex 98.5398 57.6378 27.4944
      vertex 97.5407 57.224 27.9424
      vertex 97.5853 57 27.9424
    endloop
  endfacet
  facet normal 0.700204 0.139293 0.700222
    outer loop
      vertex 99.3045 57.9546 26.6667
      vertex 98.5398 57.6378 27.4944
      vertex 99.4944 57 26.6667
    endloop
  endfacet
  facet normal 0.700211 0.139318 0.700211
    outer loop
      vertex 99.4944 57 26.6667
      vertex 98.5398 57.6378 27.4944
      vertex 98.6667 57 27.4944
    endloop
  endfacet
  facet normal 0.831487 0.555544 0
    outer loop
      vertex 99.7184 58.126 25.5853
      vertex 99.0806 59.0806 2.41473
      vertex 99.0806 59.0806 25.5853
    endloop
  endfacet
  facet normal 0.831487 0.555544 0
    outer loop
      vertex 99.0806 59.0806 2.41473
      vertex 99.7184 58.126 25.5853
      vertex 99.7184 58.126 2.41473
    endloop
  endfacet
  facet normal 0.908644 -0.180764 -0.376419
    outer loop
      vertex 99.7184 1.87401 2.41473
      vertex 99.3045 2.04543 1.33329
      vertex 99.4944 3 1.33329
    endloop
  endfacet
  facet normal 0.59361 -0.39664 -0.700217
    outer loop
      vertex 99.3045 2.04543 1.33329
      vertex 98.1785 1.82146 0.50559
      vertex 98.5398 2.36218 0.50559
    endloop
  endfacet
  facet normal 0.323485 -0.216147 -0.921215
    outer loop
      vertex 98.1785 1.82146 0.50559
      vertex 97.4138 2.58615 0.0576439
      vertex 98.5398 2.36218 0.50559
    endloop
  endfacet
  facet normal 0.323476 -0.216184 -0.92121
    outer loop
      vertex 98.5398 2.36218 0.50559
      vertex 97.4138 2.58615 0.0576439
      vertex 97.5407 2.77603 0.0576439
    endloop
  endfacet
  facet normal 0.593612 -0.396626 -0.700223
    outer loop
      vertex 98.7638 1.23619 1.33329
      vertex 98.1785 1.82146 0.50559
      vertex 99.3045 2.04543 1.33329
    endloop
  endfacet
  facet normal 0.770324 -0.514698 -0.376414
    outer loop
      vertex 99.0806 0.919439 2.41473
      vertex 98.7638 1.23619 1.33329
      vertex 99.3045 2.04543 1.33329
    endloop
  endfacet
  facet normal 0.139285 -0.700214 -0.700214
    outer loop
      vertex 97.6378 1.46016 0.50559
      vertex 97 0.50559 1.33329
      vertex 97 1.33329 0.50559
    endloop
  endfacet
  facet normal 0.0759029 -0.381579 -0.921215
    outer loop
      vertex 97.6378 1.46016 0.50559
      vertex 97 1.33329 0.50559
      vertex 97 2.41473 0.0576439
    endloop
  endfacet
  facet normal -0.0759001 -0.381579 -0.921215
    outer loop
      vertex 3 2.41473 0.0576439
      vertex 2.36218 1.46016 0.50559
      vertex 2.77603 2.45928 0.0576439
    endloop
  endfacet
  facet normal -0.0759006 -0.381579 -0.921215
    outer loop
      vertex 3 1.33329 0.50559
      vertex 2.36218 1.46016 0.50559
      vertex 3 2.41473 0.0576439
    endloop
  endfacet
  facet normal -0.700215 -0.139281 -0.700215
    outer loop
      vertex 1.46016 2.36218 0.50559
      vertex 0.50559 3 1.33329
      vertex 1.33329 3 0.50559
    endloop
  endfacet
  facet normal -0.381579 -0.0759006 -0.921215
    outer loop
      vertex 1.46016 2.36218 0.50559
      vertex 1.33329 3 0.50559
      vertex 2.41473 3 0.0576439
    endloop
  endfacet
  facet normal -0.180761 0.90864 0.376429
    outer loop
      vertex 3 59.9424 25.5853
      vertex 1.87401 59.7184 25.5853
      vertex 3 59.4944 26.6667
    endloop
  endfacet
  facet normal -0.700215 -0.139282 0.700214
    outer loop
      vertex 1.46016 2.36218 27.4944
      vertex 0.50559 3 26.6667
      vertex 0.695466 2.04543 26.6667
    endloop
  endfacet
  facet normal -0.396644 -0.593612 0.700214
    outer loop
      vertex 1.82146 1.82146 27.4944
      vertex 1.23619 1.23619 26.6667
      vertex 2.04543 0.695466 26.6667
    endloop
  endfacet
  facet normal -0.593612 -0.396641 0.700215
    outer loop
      vertex 1.46016 2.36218 27.4944
      vertex 0.695466 2.04543 26.6667
      vertex 1.82146 1.82146 27.4944
    endloop
  endfacet
  facet normal 0 0.923864 -0.382722
    outer loop
      vertex 97 59.4944 1.33329
      vertex 82.5 59.9424 2.41473
      vertex 97 59.9424 2.41473
    endloop
  endfacet
  facet normal 0 0.923864 -0.382722
    outer loop
      vertex 82.5 59.9424 2.41473
      vertex 97 59.4944 1.33329
      vertex 82.5 59.4944 1.33329
    endloop
  endfacet
  facet normal 0 0.923864 -0.382722
    outer loop
      vertex 17.5 59.4944 1.33329
      vertex 3 59.9424 2.41473
      vertex 17.5 59.9424 2.41473
    endloop
  endfacet
  facet normal 0 0.923864 -0.382722
    outer loop
      vertex 3 59.9424 2.41473
      vertex 17.5 59.4944 1.33329
      vertex 3 59.4944 1.33329
    endloop
  endfacet
  facet normal 0 0.923864 -0.382722
    outer loop
      vertex 77.5 59.4944 1.33329
      vertex 22.5 59.9424 2.41473
      vertex 77.5 59.9424 2.41473
    endloop
  endfacet
  facet normal 0 0.923864 -0.382722
    outer loop
      vertex 22.5 59.9424 2.41473
      vertex 77.5 59.4944 1.33329
      vertex 22.5 59.4944 1.33329
    endloop
  endfacet
  facet normal -0.180762 0.908645 -0.376417
    outer loop
      vertex 3 59.4944 1.33329
      vertex 1.87401 59.7184 2.41473
      vertex 3 59.9424 2.41473
    endloop
  endfacet
  facet normal -0.396641 -0.593612 -0.700215
    outer loop
      vertex 2.04543 0.695466 1.33329
      vertex 1.82146 1.82146 0.50559
      vertex 2.36218 1.46016 0.50559
    endloop
  endfacet
  facet normal -0.396644 -0.593612 -0.700214
    outer loop
      vertex 2.04543 0.695466 1.33329
      vertex 1.23619 1.23619 1.33329
      vertex 1.82146 1.82146 0.50559
    endloop
  endfacet
  facet normal -0.923875 0 0.382695
    outer loop
      vertex 0.0576439 3 25.5853
      vertex 0.50559 57 26.6667
      vertex 0.0576439 57 25.5853
    endloop
  endfacet
  facet normal -0.923875 0 0.382695
    outer loop
      vertex 0.50559 57 26.6667
      vertex 0.0576439 3 25.5853
      vertex 0.50559 3 26.6667
    endloop
  endfacet
  facet normal -0.396641 -0.593612 0.700215
    outer loop
      vertex 2.36218 1.46016 27.4944
      vertex 1.82146 1.82146 27.4944
      vertex 2.04543 0.695466 26.6667
    endloop
  endfacet
  facet normal -0.216171 -0.32352 0.921197
    outer loop
      vertex 2.58615 2.58615 27.9424
      vertex 1.82146 1.82146 27.4944
      vertex 2.36218 1.46016 27.4944
    endloop
  endfacet
  facet normal 0 0.707001 -0.707213
    outer loop
      vertex 97 59.4944 1.33329
      vertex 82.5 59.4611 1.3
      vertex 82.5 59.4944 1.33329
    endloop
  endfacet
  facet normal 0 0.707111 -0.707102
    outer loop
      vertex 97 58.6667 0.50559
      vertex 77.5 59.4611 1.3
      vertex 82.5 59.4611 1.3
    endloop
  endfacet
  facet normal 0 0.707111 -0.707102
    outer loop
      vertex 77.5 59.4611 1.3
      vertex 97 58.6667 0.50559
      vertex 22.5 59.4611 1.3
    endloop
  endfacet
  facet normal 0 0.707111 -0.707102
    outer loop
      vertex 3 58.6667 0.50559
      vertex 22.5 59.4611 1.3
      vertex 97 58.6667 0.50559
    endloop
  endfacet
  facet normal -4.8766e-07 0.707107 -0.707107
    outer loop
      vertex 97 58.6667 0.50559
      vertex 82.5 59.4611 1.3
      vertex 97 59.4944 1.33329
    endloop
  endfacet
  facet normal 0 0.707001 -0.707213
    outer loop
      vertex 77.5 59.4611 1.3
      vertex 22.5 59.4944 1.33329
      vertex 77.5 59.4944 1.33329
    endloop
  endfacet
  facet normal 0 0.707001 -0.707213
    outer loop
      vertex 22.5 59.4944 1.33329
      vertex 77.5 59.4611 1.3
      vertex 22.5 59.4611 1.3
    endloop
  endfacet
  facet normal 0 0.707001 -0.707213
    outer loop
      vertex 17.5 59.4611 1.3
      vertex 3 59.4944 1.33329
      vertex 17.5 59.4944 1.33329
    endloop
  endfacet
  facet normal 0 0.707111 -0.707102
    outer loop
      vertex 22.5 59.4611 1.3
      vertex 3 58.6667 0.50559
      vertex 17.5 59.4611 1.3
    endloop
  endfacet
  facet normal 4.8766e-07 0.707107 -0.707107
    outer loop
      vertex 17.5 59.4611 1.3
      vertex 3 58.6667 0.50559
      vertex 3 59.4944 1.33329
    endloop
  endfacet
  facet normal -0.139298 0.700207 -0.700219
    outer loop
      vertex 2.36218 58.5398 0.50559
      vertex 2.04543 59.3045 1.33329
      vertex 3 59.4944 1.33329
    endloop
  endfacet
  facet normal -0.39664 0.59361 -0.700217
    outer loop
      vertex 2.36218 58.5398 0.50559
      vertex 1.82146 58.1785 0.50559
      vertex 2.04543 59.3045 1.33329
    endloop
  endfacet
  facet normal -0.908664 0.180743 -0.37638
    outer loop
      vertex 0.50559 57 1.33329
      vertex 0.0576439 57 2.41473
      vertex 0.281617 58.126 2.41473
    endloop
  endfacet
  facet normal -0.39664 0.59361 0.700217
    outer loop
      vertex 2.04543 59.3045 26.6667
      vertex 1.82146 58.1785 27.4944
      vertex 2.36218 58.5398 27.4944
    endloop
  endfacet
  facet normal -0.514693 0.770322 0.376424
    outer loop
      vertex 1.87401 59.7184 25.5853
      vertex 0.919439 59.0806 25.5853
      vertex 2.04543 59.3045 26.6667
    endloop
  endfacet
  facet normal 0 0 1
    outer loop
      vertex 97 57.5853 27.9424
      vertex 97.5853 57 27.9424
      vertex 97.5407 57.224 27.9424
    endloop
  endfacet
  facet normal 0 0 1
    outer loop
      vertex 97.5853 57 27.9424
      vertex 97 57.5853 27.9424
      vertex 97.5853 3 27.9424
    endloop
  endfacet
  facet normal 0 0 1
    outer loop
      vertex 97 57.5853 27.9424
      vertex 97.5407 57.224 27.9424
      vertex 97.4138 57.4138 27.9424
    endloop
  endfacet
  facet normal 0 0 1
    outer loop
      vertex 97 2.41473 27.9424
      vertex 97.5853 3 27.9424
      vertex 97 57.5853 27.9424
    endloop
  endfacet
  facet normal 0 0 1
    outer loop
      vertex 97 57.5853 27.9424
      vertex 97.4138 57.4138 27.9424
      vertex 97.224 57.5407 27.9424
    endloop
  endfacet
  facet normal 0 0 1
    outer loop
      vertex 97.5853 3 27.9424
      vertex 97 2.41473 27.9424
      vertex 97.5407 2.77603 27.9424
    endloop
  endfacet
  facet normal 0 0 1
    outer loop
      vertex 97.5407 2.77603 27.9424
      vertex 97 2.41473 27.9424
      vertex 97.4138 2.58615 27.9424
    endloop
  endfacet
  facet normal 0 0 1
    outer loop
      vertex 97.4138 2.58615 27.9424
      vertex 97 2.41473 27.9424
      vertex 97.224 2.45928 27.9424
    endloop
  endfacet
  facet normal -0 0 1
    outer loop
      vertex 3 57.5853 27.9424
      vertex 97 2.41473 27.9424
      vertex 97 57.5853 27.9424
    endloop
  endfacet
  facet normal 0 0 1
    outer loop
      vertex 3 57.5853 27.9424
      vertex 3 2.41473 27.9424
      vertex 97 2.41473 27.9424
    endloop
  endfacet
  facet normal 0 0 1
    outer loop
      vertex 2.41473 57 27.9424
      vertex 3 57.5853 27.9424
      vertex 2.77603 57.5407 27.9424
    endloop
  endfacet
  facet normal 0 0 1
    outer loop
      vertex 3 57.5853 27.9424
      vertex 2.41473 57 27.9424
      vertex 3 2.41473 27.9424
    endloop
  endfacet
  facet normal 0 0 1
    outer loop
      vertex 2.41473 57 27.9424
      vertex 2.77603 57.5407 27.9424
      vertex 2.58615 57.4138 27.9424
    endloop
  endfacet
  facet normal -0 0 1
    outer loop
      vertex 2.41473 3 27.9424
      vertex 3 2.41473 27.9424
      vertex 2.41473 57 27.9424
    endloop
  endfacet
  facet normal 0 0 1
    outer loop
      vertex 2.41473 57 27.9424
      vertex 2.58615 57.4138 27.9424
      vertex 2.45928 57.224 27.9424
    endloop
  endfacet
  facet normal 0 0 1
    outer loop
      vertex 3 2.41473 27.9424
      vertex 2.41473 3 27.9424
      vertex 2.77603 2.45928 27.9424
    endloop
  endfacet
  facet normal 0 0 1
    outer loop
      vertex 2.77603 2.45928 27.9424
      vertex 2.41473 3 27.9424
      vertex 2.58615 2.58615 27.9424
    endloop
  endfacet
  facet normal 0 0 1
    outer loop
      vertex 2.58615 2.58615 27.9424
      vertex 2.41473 3 27.9424
      vertex 2.45928 2.77603 27.9424
    endloop
  endfacet
  facet normal -0.32352 -0.216171 0.921197
    outer loop
      vertex 2.58615 2.58615 27.9424
      vertex 1.46016 2.36218 27.4944
      vertex 1.82146 1.82146 27.4944
    endloop
  endfacet
  facet normal -0.908659 -0.180744 0.376392
    outer loop
      vertex 0.50559 3 26.6667
      vertex 0.281617 1.87401 25.5853
      vertex 0.695466 2.04543 26.6667
    endloop
  endfacet
  facet normal -0.323522 -0.216164 0.921198
    outer loop
      vertex 2.45928 2.77603 27.9424
      vertex 1.46016 2.36218 27.4944
      vertex 2.58615 2.58615 27.9424
    endloop
  endfacet
  facet normal -0.381618 -0.0759079 0.921198
    outer loop
      vertex 2.41473 3 27.9424
      vertex 1.46016 2.36218 27.4944
      vertex 2.45928 2.77603 27.9424
    endloop
  endfacet
  facet normal -0.195113 0.980781 0
    outer loop
      vertex 3 59.9424 2.41473
      vertex 1.87401 59.7184 25.5853
      vertex 3 59.9424 25.5853
    endloop
  endfacet
  facet normal -0.195113 0.980781 0
    outer loop
      vertex 1.87401 59.7184 25.5853
      vertex 3 59.9424 2.41473
      vertex 1.87401 59.7184 2.41473
    endloop
  endfacet
  facet normal -0.396626 0.593612 -0.700223
    outer loop
      vertex 1.82146 58.1785 0.50559
      vertex 1.23619 58.7638 1.33329
      vertex 2.04543 59.3045 1.33329
    endloop
  endfacet
  facet normal -0.180763 0.908639 0.376431
    outer loop
      vertex 3 59.4944 26.6667
      vertex 1.87401 59.7184 25.5853
      vertex 2.04543 59.3045 26.6667
    endloop
  endfacet
  facet normal -0.381625 0.075899 0.921196
    outer loop
      vertex 2.45928 57.224 27.9424
      vertex 1.46016 57.6378 27.4944
      vertex 2.41473 57 27.9424
    endloop
  endfacet
  facet normal -0.514698 0.770324 -0.376414
    outer loop
      vertex 1.23619 58.7638 1.33329
      vertex 0.919439 59.0806 2.41473
      vertex 2.04543 59.3045 1.33329
    endloop
  endfacet
  facet normal -0.770304 0.514733 -0.376407
    outer loop
      vertex 1.23619 58.7638 1.33329
      vertex 0.695466 57.9546 1.33329
      vertex 0.919439 59.0806 2.41473
    endloop
  endfacet
  facet normal -0.980786 0.195088 0
    outer loop
      vertex 0.0576439 57 2.41473
      vertex 0.281617 58.126 25.5853
      vertex 0.281617 58.126 2.41473
    endloop
  endfacet
  facet normal -0.980786 0.195088 0
    outer loop
      vertex 0.281617 58.126 25.5853
      vertex 0.0576439 57 2.41473
      vertex 0.0576439 57 25.5853
    endloop
  endfacet
  facet normal -0.908659 0.180742 0.376392
    outer loop
      vertex 0.281617 58.126 25.5853
      vertex 0.0576439 57 25.5853
      vertex 0.50559 57 26.6667
    endloop
  endfacet
  facet normal -0.770334 0.514704 0.376385
    outer loop
      vertex 0.919439 59.0806 25.5853
      vertex 0.281617 58.126 25.5853
      vertex 0.695466 57.9546 26.6667
    endloop
  endfacet
  facet normal -0.908661 0.180738 0.376389
    outer loop
      vertex 0.695466 57.9546 26.6667
      vertex 0.281617 58.126 25.5853
      vertex 0.50559 57 26.6667
    endloop
  endfacet
  facet normal -0.7703 0.51473 0.376419
    outer loop
      vertex 0.919439 59.0806 25.5853
      vertex 0.695466 57.9546 26.6667
      vertex 1.23619 58.7638 26.6667
    endloop
  endfacet
  facet normal -0.593595 0.396652 0.700222
    outer loop
      vertex 1.23619 58.7638 26.6667
      vertex 0.695466 57.9546 26.6667
      vertex 1.82146 58.1785 27.4944
    endloop
  endfacet
  facet normal -0.555556 0.831479 0
    outer loop
      vertex 1.87401 59.7184 2.41473
      vertex 0.919439 59.0806 25.5853
      vertex 1.87401 59.7184 25.5853
    endloop
  endfacet
  facet normal -0.555556 0.831479 0
    outer loop
      vertex 0.919439 59.0806 25.5853
      vertex 1.87401 59.7184 2.41473
      vertex 0.919439 59.0806 2.41473
    endloop
  endfacet
  facet normal -0.831478 0.555557 0
    outer loop
      vertex 0.281617 58.126 2.41473
      vertex 0.919439 59.0806 25.5853
      vertex 0.919439 59.0806 2.41473
    endloop
  endfacet
  facet normal -0.831478 0.555557 0
    outer loop
      vertex 0.919439 59.0806 25.5853
      vertex 0.281617 58.126 2.41473
      vertex 0.281617 58.126 25.5853
    endloop
  endfacet
  facet normal 0 0 -1
    outer loop
      vertex 2.5 2.5 25.5
      vertex 99.9424 3 25.5
      vertex 99.8429 2.5 25.5
    endloop
  endfacet
  facet normal -0 0 -1
    outer loop
      vertex 99.9424 3 25.5
      vertex 2.5 2.5 25.5
      vertex 99.9424 57 25.5
    endloop
  endfacet
  facet normal 0 0 -1
    outer loop
      vertex 2.5 57.5 25.5
      vertex 99.9424 57 25.5
      vertex 2.5 2.5 25.5
    endloop
  endfacet
  facet normal 0 0 -1
    outer loop
      vertex 99.9424 57 25.5
      vertex 2.5 57.5 25.5
      vertex 99.8429 57.5 25.5
    endloop
  endfacet
  facet normal -0 0 1
    outer loop
      vertex 2.5 57.5 2.5
      vertex 17.5 2.5 2.5
      vertex 17.5 57.5 2.5
    endloop
  endfacet
  facet normal 0 0 1
    outer loop
      vertex 17.5 2.5 2.5
      vertex 2.5 57.5 2.5
      vertex 2.5 2.5 2.5
    endloop
  endfacet
  facet normal -0 0 1
    outer loop
      vertex 82.5 57.5 2.5
      vertex 99.9424 57 2.5
      vertex 99.8429 57.5 2.5
    endloop
  endfacet
  facet normal 0 0 1
    outer loop
      vertex 99.9424 57 2.5
      vertex 82.5 57.5 2.5
      vertex 99.9424 3 2.5
    endloop
  endfacet
  facet normal 0 0 1
    outer loop
      vertex 82.5 2.5 2.5
      vertex 99.9424 3 2.5
      vertex 82.5 57.5 2.5
    endloop
  endfacet
  facet normal 0 0 1
    outer loop
      vertex 99.9424 3 2.5
      vertex 82.5 2.5 2.5
      vertex 99.8429 2.5 2.5
    endloop
  endfacet
  facet normal -0 0 1
    outer loop
      vertex 22.5 57.5 2.5
      vertex 77.5 2.5 2.5
      vertex 77.5 57.5 2.5
    endloop
  endfacet
  facet normal 0 0 1
    outer loop
      vertex 77.5 2.5 2.5
      vertex 22.5 57.5 2.5
      vertex 22.5 2.5 2.5
    endloop
  endfacet
  facet normal 1 -0 0
    outer loop
      vertex 2.5 2.5 25.5
      vertex 2.5 57.5 2.5
      vertex 2.5 57.5 25.5
    endloop
  endfacet
  facet normal 1 0 0
    outer loop
      vertex 2.5 57.5 2.5
      vertex 2.5 2.5 25.5
      vertex 2.5 2.5 2.5
    endloop
  endfacet
  facet normal 0 -1 0
    outer loop
      vertex 22.5 57.5 2.5
      vertex 77.5 57.5 3.8
      vertex 22.5 57.5 3.8
    endloop
  endfacet
  facet normal 0 -1 -0
    outer loop
      vertex 77.5 57.5 3.8
      vertex 22.5 57.5 2.5
      vertex 77.5 57.5 2.5
    endloop
  endfacet
  facet normal 0 -1 0
    outer loop
      vertex 22.5 57.5 3.8
      vertex 2.5 57.5 25.5
      vertex 17.5 57.5 3.8
    endloop
  endfacet
  facet normal 0 -1 0
    outer loop
      vertex 2.5 57.5 2.5
      vertex 17.5 57.5 3.8
      vertex 2.5 57.5 25.5
    endloop
  endfacet
  facet normal 0 -1 -0
    outer loop
      vertex 17.5 57.5 3.8
      vertex 2.5 57.5 2.5
      vertex 17.5 57.5 2.5
    endloop
  endfacet
  facet normal 0 -1 0
    outer loop
      vertex 77.5 57.5 3.8
      vertex 2.5 57.5 25.5
      vertex 22.5 57.5 3.8
    endloop
  endfacet
  facet normal 0 -1 0
    outer loop
      vertex 2.5 57.5 25.5
      vertex 77.5 57.5 3.8
      vertex 99.8429 57.5 25.5
    endloop
  endfacet
  facet normal 0 -1 0
    outer loop
      vertex 82.5 57.5 3.8
      vertex 99.8429 57.5 25.5
      vertex 77.5 57.5 3.8
    endloop
  endfacet
  facet normal 0 -1 0
    outer loop
      vertex 99.8429 57.5 2.5
      vertex 82.5 57.5 3.8
      vertex 82.5 57.5 2.5
    endloop
  endfacet
  facet normal 0 -1 0
    outer loop
      vertex 82.5 57.5 3.8
      vertex 99.8429 57.5 2.5
      vertex 99.8429 57.5 25.5
    endloop
  endfacet
  facet normal 0 1 -0
    outer loop
      vertex 77.5 2.5 2.5
      vertex 22.5 2.5 3.8
      vertex 77.5 2.5 3.8
    endloop
  endfacet
  facet normal 0 1 0
    outer loop
      vertex 22.5 2.5 3.8
      vertex 77.5 2.5 2.5
      vertex 22.5 2.5 2.5
    endloop
  endfacet
  facet normal 0 1 0
    outer loop
      vertex 77.5 2.5 3.8
      vertex 99.8429 2.5 25.5
      vertex 82.5 2.5 3.8
    endloop
  endfacet
  facet normal 0 1 -0
    outer loop
      vertex 99.8429 2.5 2.5
      vertex 82.5 2.5 3.8
      vertex 99.8429 2.5 25.5
    endloop
  endfacet
  facet normal 0 1 0
    outer loop
      vertex 82.5 2.5 3.8
      vertex 99.8429 2.5 2.5
      vertex 82.5 2.5 2.5
    endloop
  endfacet
  facet normal 0 1 0
    outer loop
      vertex 99.8429 2.5 25.5
      vertex 77.5 2.5 3.8
      vertex 2.5 2.5 25.5
    endloop
  endfacet
  facet normal 0 1 -0
    outer loop
      vertex 22.5 2.5 3.8
      vertex 2.5 2.5 25.5
      vertex 77.5 2.5 3.8
    endloop
  endfacet
  facet normal 0 1 -0
    outer loop
      vertex 17.5 2.5 3.8
      vertex 2.5 2.5 25.5
      vertex 22.5 2.5 3.8
    endloop
  endfacet
  facet normal 0 1 0
    outer loop
      vertex 2.5 2.5 2.5
      vertex 17.5 2.5 3.8
      vertex 17.5 2.5 2.5
    endloop
  endfacet
  facet normal 0 1 0
    outer loop
      vertex 17.5 2.5 3.8
      vertex 2.5 2.5 2.5
      vertex 2.5 2.5 25.5
    endloop
  endfacet
  facet normal -2.29651e-05 0.290297 -0.956937
    outer loop
      vertex 97.5853 24.9172 0.0576439
      vertex 98.8729 27.0736 0.711779
      vertex 98.6667 26.3939 0.50559
    endloop
  endfacet
  facet normal 0 0.290284 -0.956941
    outer loop
      vertex 2.41473 24.9172 0.0576439
      vertex 98.8729 27.0736 0.711779
      vertex 97.5853 24.9172 0.0576439
    endloop
  endfacet
  facet normal 2.29628e-05 0.290297 -0.956937
    outer loop
      vertex 1.1271 27.0736 0.711779
      vertex 2.41473 24.9172 0.0576439
      vertex 1.33329 26.3939 0.50559
    endloop
  endfacet
  facet normal 0 0.290284 -0.956941
    outer loop
      vertex 2.41473 24.9172 0.0576439
      vertex 1.1271 27.0736 0.711779
      vertex 98.8729 27.0736 0.711779
    endloop
  endfacet
  facet normal 0 -0.0980157 -0.995185
    outer loop
      vertex 99.1611 30 1
      vertex 1.1271 32.9264 0.711779
      vertex 98.8729 32.9264 0.711779
    endloop
  endfacet
  facet normal 0 -0.0980157 -0.995185
    outer loop
      vertex 1.1271 32.9264 0.711779
      vertex 99.1611 30 1
      vertex 0.83888 30 1
    endloop
  endfacet
  facet normal 2.28632e-05 -0.290284 -0.956941
    outer loop
      vertex 98.8729 32.9264 0.711779
      vertex 97.5853 35.0827 0.0576439
      vertex 98.6667 33.6061 0.50559
    endloop
  endfacet
  facet normal 0 -0.290296 -0.956937
    outer loop
      vertex 98.8729 32.9264 0.711779
      vertex 2.41473 35.0827 0.0576439
      vertex 97.5853 35.0827 0.0576439
    endloop
  endfacet
  facet normal 0 -0.290296 -0.956937
    outer loop
      vertex 1.1271 32.9264 0.711779
      vertex 2.41473 35.0827 0.0576439
      vertex 98.8729 32.9264 0.711779
    endloop
  endfacet
  facet normal -2.2861e-05 -0.290284 -0.956941
    outer loop
      vertex 2.41473 35.0827 0.0576439
      vertex 1.1271 32.9264 0.711779
      vertex 1.33329 33.6061 0.50559
    endloop
  endfacet
  facet normal 0 0.0980157 -0.995185
    outer loop
      vertex 1.1271 27.0736 0.711779
      vertex 99.1611 30 1
      vertex 98.8729 27.0736 0.711779
    endloop
  endfacet
  facet normal 0 0.0980157 -0.995185
    outer loop
      vertex 99.1611 30 1
      vertex 1.1271 27.0736 0.711779
      vertex 0.83888 30 1
    endloop
  endfacet
  facet normal -1 0 0
    outer loop
      vertex 22.5 59.4611 1.3
      vertex 22.5 2.5 2.5
      vertex 22.5 57.5 2.5
    endloop
  endfacet
  facet normal -1 0 0
    outer loop
      vertex 22.5 0.53888 1.3
      vertex 22.5 2.5 2.5
      vertex 22.5 59.4611 1.3
    endloop
  endfacet
  facet normal -1 0 0
    outer loop
      vertex 22.5 0.50559 1.33329
      vertex 22.5 2.5 2.5
      vertex 22.5 0.53888 1.3
    endloop
  endfacet
  facet normal -1 0 0
    outer loop
      vertex 22.5 0.0576439 2.41473
      vertex 22.5 2.5 2.5
      vertex 22.5 0.50559 1.33329
    endloop
  endfacet
  facet normal -1 0 0
    outer loop
      vertex 22.5 0.0576439 3.8
      vertex 22.5 2.5 2.5
      vertex 22.5 0.0576439 2.41473
    endloop
  endfacet
  facet normal -1 0 0
    outer loop
      vertex 22.5 2.5 2.5
      vertex 22.5 0.0576439 3.8
      vertex 22.5 2.5 3.8
    endloop
  endfacet
  facet normal -1 0 0
    outer loop
      vertex 22.5 57.5 2.5
      vertex 22.5 59.9424 2.41473
      vertex 22.5 59.4944 1.33329
    endloop
  endfacet
  facet normal -1 0 0
    outer loop
      vertex 22.5 57.5 2.5
      vertex 22.5 59.4944 1.33329
      vertex 22.5 59.4611 1.3
    endloop
  endfacet
  facet normal -1 0 0
    outer loop
      vertex 22.5 59.9424 2.41473
      vertex 22.5 57.5 2.5
      vertex 22.5 59.9424 3.8
    endloop
  endfacet
  facet normal -1 -0 0
    outer loop
      vertex 22.5 59.9424 3.8
      vertex 22.5 57.5 2.5
      vertex 22.5 57.5 3.8
    endloop
  endfacet
  facet normal 0 0 -1
    outer loop
      vertex 17.5 57.5 3.8
      vertex 22.5 59.9424 3.8
      vertex 22.5 57.5 3.8
    endloop
  endfacet
  facet normal -0 0 -1
    outer loop
      vertex 22.5 59.9424 3.8
      vertex 17.5 57.5 3.8
      vertex 17.5 59.9424 3.8
    endloop
  endfacet
  facet normal 0 0 -1
    outer loop
      vertex 17.5 0.0576439 3.8
      vertex 22.5 2.5 3.8
      vertex 22.5 0.0576439 3.8
    endloop
  endfacet
  facet normal -0 0 -1
    outer loop
      vertex 22.5 2.5 3.8
      vertex 17.5 0.0576439 3.8
      vertex 17.5 2.5 3.8
    endloop
  endfacet
  facet normal -0 0 1
    outer loop
      vertex 17.5 59.4611 1.3
      vertex 22.5 0.53888 1.3
      vertex 22.5 59.4611 1.3
    endloop
  endfacet
  facet normal 0 0 1
    outer loop
      vertex 22.5 0.53888 1.3
      vertex 17.5 59.4611 1.3
      vertex 17.5 0.53888 1.3
    endloop
  endfacet
  facet normal 1 -0 0
    outer loop
      vertex 17.5 0.0576439 3.8
      vertex 17.5 2.5 2.5
      vertex 17.5 2.5 3.8
    endloop
  endfacet
  facet normal 1 0 0
    outer loop
      vertex 17.5 2.5 2.5
      vertex 17.5 0.50559 1.33329
      vertex 17.5 0.53888 1.3
    endloop
  endfacet
  facet normal 1 0 0
    outer loop
      vertex 17.5 2.5 2.5
      vertex 17.5 0.0576439 3.8
      vertex 17.5 0.0576439 2.41473
    endloop
  endfacet
  facet normal 1 0 0
    outer loop
      vertex 17.5 2.5 2.5
      vertex 17.5 0.0576439 2.41473
      vertex 17.5 0.50559 1.33329
    endloop
  endfacet
  facet normal 1 -0 0
    outer loop
      vertex 17.5 57.5 2.5
      vertex 17.5 59.9424 2.41473
      vertex 17.5 59.9424 3.8
    endloop
  endfacet
  facet normal 1 0 0
    outer loop
      vertex 17.5 59.9424 2.41473
      vertex 17.5 57.5 2.5
      vertex 17.5 59.4944 1.33329
    endloop
  endfacet
  facet normal 1 0 0
    outer loop
      vertex 17.5 57.5 2.5
      vertex 17.5 59.9424 3.8
      vertex 17.5 57.5 3.8
    endloop
  endfacet
  facet normal 1 0 0
    outer loop
      vertex 17.5 59.4944 1.33329
      vertex 17.5 57.5 2.5
      vertex 17.5 59.4611 1.3
    endloop
  endfacet
  facet normal 1 -0 0
    outer loop
      vertex 17.5 2.5 2.5
      vertex 17.5 59.4611 1.3
      vertex 17.5 57.5 2.5
    endloop
  endfacet
  facet normal 1 0 0
    outer loop
      vertex 17.5 59.4611 1.3
      vertex 17.5 2.5 2.5
      vertex 17.5 0.53888 1.3
    endloop
  endfacet
  facet normal -1 0 0
    outer loop
      vertex 82.5 59.4611 1.3
      vertex 82.5 2.5 2.5
      vertex 82.5 57.5 2.5
    endloop
  endfacet
  facet normal -1 0 0
    outer loop
      vertex 82.5 0.53888 1.3
      vertex 82.5 2.5 2.5
      vertex 82.5 59.4611 1.3
    endloop
  endfacet
  facet normal -1 0 0
    outer loop
      vertex 82.5 0.50559 1.33329
      vertex 82.5 2.5 2.5
      vertex 82.5 0.53888 1.3
    endloop
  endfacet
  facet normal -1 0 0
    outer loop
      vertex 82.5 0.0576439 2.41473
      vertex 82.5 2.5 2.5
      vertex 82.5 0.50559 1.33329
    endloop
  endfacet
  facet normal -1 0 0
    outer loop
      vertex 82.5 0.0576439 3.8
      vertex 82.5 2.5 2.5
      vertex 82.5 0.0576439 2.41473
    endloop
  endfacet
  facet normal -1 0 0
    outer loop
      vertex 82.5 2.5 2.5
      vertex 82.5 0.0576439 3.8
      vertex 82.5 2.5 3.8
    endloop
  endfacet
  facet normal -1 0 0
    outer loop
      vertex 82.5 57.5 2.5
      vertex 82.5 59.9424 2.41473
      vertex 82.5 59.4944 1.33329
    endloop
  endfacet
  facet normal -1 0 0
    outer loop
      vertex 82.5 57.5 2.5
      vertex 82.5 59.4944 1.33329
      vertex 82.5 59.4611 1.3
    endloop
  endfacet
  facet normal -1 0 0
    outer loop
      vertex 82.5 59.9424 2.41473
      vertex 82.5 57.5 2.5
      vertex 82.5 59.9424 3.8
    endloop
  endfacet
  facet normal -1 -0 0
    outer loop
      vertex 82.5 59.9424 3.8
      vertex 82.5 57.5 2.5
      vertex 82.5 57.5 3.8
    endloop
  endfacet
  facet normal 0 0 -1
    outer loop
      vertex 77.5 57.5 3.8
      vertex 82.5 59.9424 3.8
      vertex 82.5 57.5 3.8
    endloop
  endfacet
  facet normal -0 0 -1
    outer loop
      vertex 82.5 59.9424 3.8
      vertex 77.5 57.5 3.8
      vertex 77.5 59.9424 3.8
    endloop
  endfacet
  facet normal 0 0 -1
    outer loop
      vertex 77.5 0.0576439 3.8
      vertex 82.5 2.5 3.8
      vertex 82.5 0.0576439 3.8
    endloop
  endfacet
  facet normal -0 0 -1
    outer loop
      vertex 82.5 2.5 3.8
      vertex 77.5 0.0576439 3.8
      vertex 77.5 2.5 3.8
    endloop
  endfacet
  facet normal -0 0 1
    outer loop
      vertex 77.5 59.4611 1.3
      vertex 82.5 0.53888 1.3
      vertex 82.5 59.4611 1.3
    endloop
  endfacet
  facet normal 0 0 1
    outer loop
      vertex 82.5 0.53888 1.3
      vertex 77.5 59.4611 1.3
      vertex 77.5 0.53888 1.3
    endloop
  endfacet
  facet normal 1 -0 0
    outer loop
      vertex 77.5 0.0576439 3.8
      vertex 77.5 2.5 2.5
      vertex 77.5 2.5 3.8
    endloop
  endfacet
  facet normal 1 0 0
    outer loop
      vertex 77.5 2.5 2.5
      vertex 77.5 0.50559 1.33329
      vertex 77.5 0.53888 1.3
    endloop
  endfacet
  facet normal 1 0 0
    outer loop
      vertex 77.5 2.5 2.5
      vertex 77.5 0.0576439 3.8
      vertex 77.5 0.0576439 2.41473
    endloop
  endfacet
  facet normal 1 0 0
    outer loop
      vertex 77.5 2.5 2.5
      vertex 77.5 0.0576439 2.41473
      vertex 77.5 0.50559 1.33329
    endloop
  endfacet
  facet normal 1 -0 0
    outer loop
      vertex 77.5 57.5 2.5
      vertex 77.5 59.9424 2.41473
      vertex 77.5 59.9424 3.8
    endloop
  endfacet
  facet normal 1 0 0
    outer loop
      vertex 77.5 59.9424 2.41473
      vertex 77.5 57.5 2.5
      vertex 77.5 59.4944 1.33329
    endloop
  endfacet
  facet normal 1 0 0
    outer loop
      vertex 77.5 57.5 2.5
      vertex 77.5 59.9424 3.8
      vertex 77.5 57.5 3.8
    endloop
  endfacet
  facet normal 1 0 0
    outer loop
      vertex 77.5 59.4944 1.33329
      vertex 77.5 57.5 2.5
      vertex 77.5 59.4611 1.3
    endloop
  endfacet
  facet normal 1 -0 0
    outer loop
      vertex 77.5 2.5 2.5
      vertex 77.5 59.4611 1.3
      vertex 77.5 57.5 2.5
    endloop
  endfacet
  facet normal 1 0 0
    outer loop
      vertex 77.5 59.4611 1.3
      vertex 77.5 2.5 2.5
      vertex 77.5 0.53888 1.3
    endloop
  endfacet
endsolid OpenSCAD_Model
