#VRML V2.0 utf8
# M8 6-Pin + Shield Horizontal Receptacle Model
Group {
  children [
Shape {
  appearance Appearance {
    material Material {
      diffuseColor 0.840 0.850 0.880
      specularColor 0.980 0.980 0.980
      shininess 0.92
    }
  }
  geometry IndexedFaceSet {
    solid FALSE
    coord Coordinate {
      point [
        -12.500 4.000 4.000,
        -12.500 3.939 4.695,
        -12.500 3.759 5.368,
        -12.500 3.464 6.000,
        -12.500 3.064 6.571,
        -12.500 2.571 7.064,
        -12.500 2.000 7.464,
        -12.500 1.368 7.759,
        -12.500 0.695 7.939,
        -12.500 0.000 8.000,
        -12.500 -0.695 7.939,
        -12.500 -1.368 7.759,
        -12.500 -2.000 7.464,
        -12.500 -2.571 7.064,
        -12.500 -3.064 6.571,
        -12.500 -3.464 6.000,
        -12.500 -3.759 5.368,
        -12.500 -3.939 4.695,
        -12.500 -4.000 4.000,
        -12.500 -3.939 3.305,
        -12.500 -3.759 2.632,
        -12.500 -3.464 2.000,
        -12.500 -3.064 1.429,
        -12.500 -2.571 0.936,
        -12.500 -2.000 0.536,
        -12.500 -1.368 0.241,
        -12.500 -0.695 0.061,
        -12.500 -0.000 0.000,
        -12.500 0.695 0.061,
        -12.500 1.368 0.241,
        -12.500 2.000 0.536,
        -12.500 2.571 0.936,
        -12.500 3.064 1.429,
        -12.500 3.464 2.000,
        -12.500 3.759 2.632,
        -12.500 3.939 3.305,
        -2.500 4.000 4.000,
        -2.500 3.939 4.695,
        -2.500 3.759 5.368,
        -2.500 3.464 6.000,
        -2.500 3.064 6.571,
        -2.500 2.571 7.064,
        -2.500 2.000 7.464,
        -2.500 1.368 7.759,
        -2.500 0.695 7.939,
        -2.500 0.000 8.000,
        -2.500 -0.695 7.939,
        -2.500 -1.368 7.759,
        -2.500 -2.000 7.464,
        -2.500 -2.571 7.064,
        -2.500 -3.064 6.571,
        -2.500 -3.464 6.000,
        -2.500 -3.759 5.368,
        -2.500 -3.939 4.695,
        -2.500 -4.000 4.000,
        -2.500 -3.939 3.305,
        -2.500 -3.759 2.632,
        -2.500 -3.464 2.000,
        -2.500 -3.064 1.429,
        -2.500 -2.571 0.936,
        -2.500 -2.000 0.536,
        -2.500 -1.368 0.241,
        -2.500 -0.695 0.061,
        -2.500 -0.000 0.000,
        -2.500 0.695 0.061,
        -2.500 1.368 0.241,
        -2.500 2.000 0.536,
        -2.500 2.571 0.936,
        -2.500 3.064 1.429,
        -2.500 3.464 2.000,
        -2.500 3.759 2.632,
        -2.500 3.939 3.305
      ]
    }
    coordIndex [
      0, 1, 37, 36, -1,
        1, 2, 38, 37, -1,
        2, 3, 39, 38, -1,
        3, 4, 40, 39, -1,
        4, 5, 41, 40, -1,
        5, 6, 42, 41, -1,
        6, 7, 43, 42, -1,
        7, 8, 44, 43, -1,
        8, 9, 45, 44, -1,
        9, 10, 46, 45, -1,
        10, 11, 47, 46, -1,
        11, 12, 48, 47, -1,
        12, 13, 49, 48, -1,
        13, 14, 50, 49, -1,
        14, 15, 51, 50, -1,
        15, 16, 52, 51, -1,
        16, 17, 53, 52, -1,
        17, 18, 54, 53, -1,
        18, 19, 55, 54, -1,
        19, 20, 56, 55, -1,
        20, 21, 57, 56, -1,
        21, 22, 58, 57, -1,
        22, 23, 59, 58, -1,
        23, 24, 60, 59, -1,
        24, 25, 61, 60, -1,
        25, 26, 62, 61, -1,
        26, 27, 63, 62, -1,
        27, 28, 64, 63, -1,
        28, 29, 65, 64, -1,
        29, 30, 66, 65, -1,
        30, 31, 67, 66, -1,
        31, 32, 68, 67, -1,
        32, 33, 69, 68, -1,
        33, 34, 70, 69, -1,
        34, 35, 71, 70, -1,
        35, 0, 36, 71, -1,
        35, 34, 33, 32, 31, 30, 29, 28, 27, 26, 25, 24, 23, 22, 21, 20, 19, 18, 17, 16, 15, 14, 13, 12, 11, 10, 9, 8, 7, 6, 5, 4, 3, 2, 1, 0, -1,
        36, 37, 38, 39, 40, 41, 42, 43, 44, 45, 46, 47, 48, 49, 50, 51, 52, 53, 54, 55, 56, 57, 58, 59, 60, 61, 62, 63, 64, 65, 66, 67, 68, 69, 70, 71, -1
    ]
  }
},
Shape {
  appearance Appearance {
    material Material {
      diffuseColor 0.760 0.770 0.800
      specularColor 0.900 0.900 0.900
      shininess 0.85
    }
  }
  geometry IndexedFaceSet {
    solid FALSE
    coord Coordinate {
      point [
        -4.700 4.100 4.000,
        -4.700 3.997 4.912,
        -4.700 3.694 5.779,
        -4.700 3.206 6.556,
        -4.700 2.556 7.206,
        -4.700 1.779 7.694,
        -4.700 0.912 7.997,
        -4.700 0.000 8.100,
        -4.700 -0.912 7.997,
        -4.700 -1.779 7.694,
        -4.700 -2.556 7.206,
        -4.700 -3.206 6.556,
        -4.700 -3.694 5.779,
        -4.700 -3.997 4.912,
        -4.700 -4.100 4.000,
        -4.700 -3.997 3.088,
        -4.700 -3.694 2.221,
        -4.700 -3.206 1.444,
        -4.700 -2.556 0.794,
        -4.700 -1.779 0.306,
        -4.700 -0.912 0.003,
        -4.700 -0.000 -0.100,
        -4.700 0.912 0.003,
        -4.700 1.779 0.306,
        -4.700 2.556 0.794,
        -4.700 3.206 1.444,
        -4.700 3.694 2.221,
        -4.700 3.997 3.088,
        -4.300 4.100 4.000,
        -4.300 3.997 4.912,
        -4.300 3.694 5.779,
        -4.300 3.206 6.556,
        -4.300 2.556 7.206,
        -4.300 1.779 7.694,
        -4.300 0.912 7.997,
        -4.300 0.000 8.100,
        -4.300 -0.912 7.997,
        -4.300 -1.779 7.694,
        -4.300 -2.556 7.206,
        -4.300 -3.206 6.556,
        -4.300 -3.694 5.779,
        -4.300 -3.997 4.912,
        -4.300 -4.100 4.000,
        -4.300 -3.997 3.088,
        -4.300 -3.694 2.221,
        -4.300 -3.206 1.444,
        -4.300 -2.556 0.794,
        -4.300 -1.779 0.306,
        -4.300 -0.912 0.003,
        -4.300 -0.000 -0.100,
        -4.300 0.912 0.003,
        -4.300 1.779 0.306,
        -4.300 2.556 0.794,
        -4.300 3.206 1.444,
        -4.300 3.694 2.221,
        -4.300 3.997 3.088
      ]
    }
    coordIndex [
      0, 1, 29, 28, -1,
        1, 2, 30, 29, -1,
        2, 3, 31, 30, -1,
        3, 4, 32, 31, -1,
        4, 5, 33, 32, -1,
        5, 6, 34, 33, -1,
        6, 7, 35, 34, -1,
        7, 8, 36, 35, -1,
        8, 9, 37, 36, -1,
        9, 10, 38, 37, -1,
        10, 11, 39, 38, -1,
        11, 12, 40, 39, -1,
        12, 13, 41, 40, -1,
        13, 14, 42, 41, -1,
        14, 15, 43, 42, -1,
        15, 16, 44, 43, -1,
        16, 17, 45, 44, -1,
        17, 18, 46, 45, -1,
        18, 19, 47, 46, -1,
        19, 20, 48, 47, -1,
        20, 21, 49, 48, -1,
        21, 22, 50, 49, -1,
        22, 23, 51, 50, -1,
        23, 24, 52, 51, -1,
        24, 25, 53, 52, -1,
        25, 26, 54, 53, -1,
        26, 27, 55, 54, -1,
        27, 0, 28, 55, -1,
        27, 26, 25, 24, 23, 22, 21, 20, 19, 18, 17, 16, 15, 14, 13, 12, 11, 10, 9, 8, 7, 6, 5, 4, 3, 2, 1, 0, -1,
        28, 29, 30, 31, 32, 33, 34, 35, 36, 37, 38, 39, 40, 41, 42, 43, 44, 45, 46, 47, 48, 49, 50, 51, 52, 53, 54, 55, -1
    ]
  }
},
Shape {
  appearance Appearance {
    material Material {
      diffuseColor 0.760 0.770 0.800
      specularColor 0.900 0.900 0.900
      shininess 0.85
    }
  }
  geometry IndexedFaceSet {
    solid FALSE
    coord Coordinate {
      point [
        -6.700 4.100 4.000,
        -6.700 3.997 4.912,
        -6.700 3.694 5.779,
        -6.700 3.206 6.556,
        -6.700 2.556 7.206,
        -6.700 1.779 7.694,
        -6.700 0.912 7.997,
        -6.700 0.000 8.100,
        -6.700 -0.912 7.997,
        -6.700 -1.779 7.694,
        -6.700 -2.556 7.206,
        -6.700 -3.206 6.556,
        -6.700 -3.694 5.779,
        -6.700 -3.997 4.912,
        -6.700 -4.100 4.000,
        -6.700 -3.997 3.088,
        -6.700 -3.694 2.221,
        -6.700 -3.206 1.444,
        -6.700 -2.556 0.794,
        -6.700 -1.779 0.306,
        -6.700 -0.912 0.003,
        -6.700 -0.000 -0.100,
        -6.700 0.912 0.003,
        -6.700 1.779 0.306,
        -6.700 2.556 0.794,
        -6.700 3.206 1.444,
        -6.700 3.694 2.221,
        -6.700 3.997 3.088,
        -6.300 4.100 4.000,
        -6.300 3.997 4.912,
        -6.300 3.694 5.779,
        -6.300 3.206 6.556,
        -6.300 2.556 7.206,
        -6.300 1.779 7.694,
        -6.300 0.912 7.997,
        -6.300 0.000 8.100,
        -6.300 -0.912 7.997,
        -6.300 -1.779 7.694,
        -6.300 -2.556 7.206,
        -6.300 -3.206 6.556,
        -6.300 -3.694 5.779,
        -6.300 -3.997 4.912,
        -6.300 -4.100 4.000,
        -6.300 -3.997 3.088,
        -6.300 -3.694 2.221,
        -6.300 -3.206 1.444,
        -6.300 -2.556 0.794,
        -6.300 -1.779 0.306,
        -6.300 -0.912 0.003,
        -6.300 -0.000 -0.100,
        -6.300 0.912 0.003,
        -6.300 1.779 0.306,
        -6.300 2.556 0.794,
        -6.300 3.206 1.444,
        -6.300 3.694 2.221,
        -6.300 3.997 3.088
      ]
    }
    coordIndex [
      0, 1, 29, 28, -1,
        1, 2, 30, 29, -1,
        2, 3, 31, 30, -1,
        3, 4, 32, 31, -1,
        4, 5, 33, 32, -1,
        5, 6, 34, 33, -1,
        6, 7, 35, 34, -1,
        7, 8, 36, 35, -1,
        8, 9, 37, 36, -1,
        9, 10, 38, 37, -1,
        10, 11, 39, 38, -1,
        11, 12, 40, 39, -1,
        12, 13, 41, 40, -1,
        13, 14, 42, 41, -1,
        14, 15, 43, 42, -1,
        15, 16, 44, 43, -1,
        16, 17, 45, 44, -1,
        17, 18, 46, 45, -1,
        18, 19, 47, 46, -1,
        19, 20, 48, 47, -1,
        20, 21, 49, 48, -1,
        21, 22, 50, 49, -1,
        22, 23, 51, 50, -1,
        23, 24, 52, 51, -1,
        24, 25, 53, 52, -1,
        25, 26, 54, 53, -1,
        26, 27, 55, 54, -1,
        27, 0, 28, 55, -1,
        27, 26, 25, 24, 23, 22, 21, 20, 19, 18, 17, 16, 15, 14, 13, 12, 11, 10, 9, 8, 7, 6, 5, 4, 3, 2, 1, 0, -1,
        28, 29, 30, 31, 32, 33, 34, 35, 36, 37, 38, 39, 40, 41, 42, 43, 44, 45, 46, 47, 48, 49, 50, 51, 52, 53, 54, 55, -1
    ]
  }
},
Shape {
  appearance Appearance {
    material Material {
      diffuseColor 0.760 0.770 0.800
      specularColor 0.900 0.900 0.900
      shininess 0.85
    }
  }
  geometry IndexedFaceSet {
    solid FALSE
    coord Coordinate {
      point [
        -8.700 4.100 4.000,
        -8.700 3.997 4.912,
        -8.700 3.694 5.779,
        -8.700 3.206 6.556,
        -8.700 2.556 7.206,
        -8.700 1.779 7.694,
        -8.700 0.912 7.997,
        -8.700 0.000 8.100,
        -8.700 -0.912 7.997,
        -8.700 -1.779 7.694,
        -8.700 -2.556 7.206,
        -8.700 -3.206 6.556,
        -8.700 -3.694 5.779,
        -8.700 -3.997 4.912,
        -8.700 -4.100 4.000,
        -8.700 -3.997 3.088,
        -8.700 -3.694 2.221,
        -8.700 -3.206 1.444,
        -8.700 -2.556 0.794,
        -8.700 -1.779 0.306,
        -8.700 -0.912 0.003,
        -8.700 -0.000 -0.100,
        -8.700 0.912 0.003,
        -8.700 1.779 0.306,
        -8.700 2.556 0.794,
        -8.700 3.206 1.444,
        -8.700 3.694 2.221,
        -8.700 3.997 3.088,
        -8.300 4.100 4.000,
        -8.300 3.997 4.912,
        -8.300 3.694 5.779,
        -8.300 3.206 6.556,
        -8.300 2.556 7.206,
        -8.300 1.779 7.694,
        -8.300 0.912 7.997,
        -8.300 0.000 8.100,
        -8.300 -0.912 7.997,
        -8.300 -1.779 7.694,
        -8.300 -2.556 7.206,
        -8.300 -3.206 6.556,
        -8.300 -3.694 5.779,
        -8.300 -3.997 4.912,
        -8.300 -4.100 4.000,
        -8.300 -3.997 3.088,
        -8.300 -3.694 2.221,
        -8.300 -3.206 1.444,
        -8.300 -2.556 0.794,
        -8.300 -1.779 0.306,
        -8.300 -0.912 0.003,
        -8.300 -0.000 -0.100,
        -8.300 0.912 0.003,
        -8.300 1.779 0.306,
        -8.300 2.556 0.794,
        -8.300 3.206 1.444,
        -8.300 3.694 2.221,
        -8.300 3.997 3.088
      ]
    }
    coordIndex [
      0, 1, 29, 28, -1,
        1, 2, 30, 29, -1,
        2, 3, 31, 30, -1,
        3, 4, 32, 31, -1,
        4, 5, 33, 32, -1,
        5, 6, 34, 33, -1,
        6, 7, 35, 34, -1,
        7, 8, 36, 35, -1,
        8, 9, 37, 36, -1,
        9, 10, 38, 37, -1,
        10, 11, 39, 38, -1,
        11, 12, 40, 39, -1,
        12, 13, 41, 40, -1,
        13, 14, 42, 41, -1,
        14, 15, 43, 42, -1,
        15, 16, 44, 43, -1,
        16, 17, 45, 44, -1,
        17, 18, 46, 45, -1,
        18, 19, 47, 46, -1,
        19, 20, 48, 47, -1,
        20, 21, 49, 48, -1,
        21, 22, 50, 49, -1,
        22, 23, 51, 50, -1,
        23, 24, 52, 51, -1,
        24, 25, 53, 52, -1,
        25, 26, 54, 53, -1,
        26, 27, 55, 54, -1,
        27, 0, 28, 55, -1,
        27, 26, 25, 24, 23, 22, 21, 20, 19, 18, 17, 16, 15, 14, 13, 12, 11, 10, 9, 8, 7, 6, 5, 4, 3, 2, 1, 0, -1,
        28, 29, 30, 31, 32, 33, 34, 35, 36, 37, 38, 39, 40, 41, 42, 43, 44, 45, 46, 47, 48, 49, 50, 51, 52, 53, 54, 55, -1
    ]
  }
},
Shape {
  appearance Appearance {
    material Material {
      diffuseColor 0.760 0.770 0.800
      specularColor 0.900 0.900 0.900
      shininess 0.85
    }
  }
  geometry IndexedFaceSet {
    solid FALSE
    coord Coordinate {
      point [
        -10.700 4.100 4.000,
        -10.700 3.997 4.912,
        -10.700 3.694 5.779,
        -10.700 3.206 6.556,
        -10.700 2.556 7.206,
        -10.700 1.779 7.694,
        -10.700 0.912 7.997,
        -10.700 0.000 8.100,
        -10.700 -0.912 7.997,
        -10.700 -1.779 7.694,
        -10.700 -2.556 7.206,
        -10.700 -3.206 6.556,
        -10.700 -3.694 5.779,
        -10.700 -3.997 4.912,
        -10.700 -4.100 4.000,
        -10.700 -3.997 3.088,
        -10.700 -3.694 2.221,
        -10.700 -3.206 1.444,
        -10.700 -2.556 0.794,
        -10.700 -1.779 0.306,
        -10.700 -0.912 0.003,
        -10.700 -0.000 -0.100,
        -10.700 0.912 0.003,
        -10.700 1.779 0.306,
        -10.700 2.556 0.794,
        -10.700 3.206 1.444,
        -10.700 3.694 2.221,
        -10.700 3.997 3.088,
        -10.300 4.100 4.000,
        -10.300 3.997 4.912,
        -10.300 3.694 5.779,
        -10.300 3.206 6.556,
        -10.300 2.556 7.206,
        -10.300 1.779 7.694,
        -10.300 0.912 7.997,
        -10.300 0.000 8.100,
        -10.300 -0.912 7.997,
        -10.300 -1.779 7.694,
        -10.300 -2.556 7.206,
        -10.300 -3.206 6.556,
        -10.300 -3.694 5.779,
        -10.300 -3.997 4.912,
        -10.300 -4.100 4.000,
        -10.300 -3.997 3.088,
        -10.300 -3.694 2.221,
        -10.300 -3.206 1.444,
        -10.300 -2.556 0.794,
        -10.300 -1.779 0.306,
        -10.300 -0.912 0.003,
        -10.300 -0.000 -0.100,
        -10.300 0.912 0.003,
        -10.300 1.779 0.306,
        -10.300 2.556 0.794,
        -10.300 3.206 1.444,
        -10.300 3.694 2.221,
        -10.300 3.997 3.088
      ]
    }
    coordIndex [
      0, 1, 29, 28, -1,
        1, 2, 30, 29, -1,
        2, 3, 31, 30, -1,
        3, 4, 32, 31, -1,
        4, 5, 33, 32, -1,
        5, 6, 34, 33, -1,
        6, 7, 35, 34, -1,
        7, 8, 36, 35, -1,
        8, 9, 37, 36, -1,
        9, 10, 38, 37, -1,
        10, 11, 39, 38, -1,
        11, 12, 40, 39, -1,
        12, 13, 41, 40, -1,
        13, 14, 42, 41, -1,
        14, 15, 43, 42, -1,
        15, 16, 44, 43, -1,
        16, 17, 45, 44, -1,
        17, 18, 46, 45, -1,
        18, 19, 47, 46, -1,
        19, 20, 48, 47, -1,
        20, 21, 49, 48, -1,
        21, 22, 50, 49, -1,
        22, 23, 51, 50, -1,
        23, 24, 52, 51, -1,
        24, 25, 53, 52, -1,
        25, 26, 54, 53, -1,
        26, 27, 55, 54, -1,
        27, 0, 28, 55, -1,
        27, 26, 25, 24, 23, 22, 21, 20, 19, 18, 17, 16, 15, 14, 13, 12, 11, 10, 9, 8, 7, 6, 5, 4, 3, 2, 1, 0, -1,
        28, 29, 30, 31, 32, 33, 34, 35, 36, 37, 38, 39, 40, 41, 42, 43, 44, 45, 46, 47, 48, 49, 50, 51, 52, 53, 54, 55, -1
    ]
  }
},
Shape {
  appearance Appearance {
    material Material {
      diffuseColor 0.740 0.750 0.780
      specularColor 0.920 0.920 0.920
      shininess 0.88
    }
  }
  geometry IndexedFaceSet {
    solid FALSE
    coord Coordinate {
      point [
        -3.750 5.100 4.000,
        -3.750 5.023 4.886,
        -3.750 4.792 5.744,
        -3.750 4.417 6.550,
        -3.750 3.907 7.278,
        -3.750 3.278 7.907,
        -3.750 2.550 8.417,
        -3.750 1.744 8.792,
        -3.750 0.886 9.023,
        -3.750 0.000 9.100,
        -3.750 -0.886 9.023,
        -3.750 -1.744 8.792,
        -3.750 -2.550 8.417,
        -3.750 -3.278 7.907,
        -3.750 -3.907 7.278,
        -3.750 -4.417 6.550,
        -3.750 -4.792 5.744,
        -3.750 -5.023 4.886,
        -3.750 -5.100 4.000,
        -3.750 -5.023 3.114,
        -3.750 -4.792 2.256,
        -3.750 -4.417 1.450,
        -3.750 -3.907 0.722,
        -3.750 -3.278 0.093,
        -3.750 -2.550 -0.417,
        -3.750 -1.744 -0.792,
        -3.750 -0.886 -1.023,
        -3.750 -0.000 -1.100,
        -3.750 0.886 -1.023,
        -3.750 1.744 -0.792,
        -3.750 2.550 -0.417,
        -3.750 3.278 0.093,
        -3.750 3.907 0.722,
        -3.750 4.417 1.450,
        -3.750 4.792 2.256,
        -3.750 5.023 3.114,
        -1.250 5.100 4.000,
        -1.250 5.023 4.886,
        -1.250 4.792 5.744,
        -1.250 4.417 6.550,
        -1.250 3.907 7.278,
        -1.250 3.278 7.907,
        -1.250 2.550 8.417,
        -1.250 1.744 8.792,
        -1.250 0.886 9.023,
        -1.250 0.000 9.100,
        -1.250 -0.886 9.023,
        -1.250 -1.744 8.792,
        -1.250 -2.550 8.417,
        -1.250 -3.278 7.907,
        -1.250 -3.907 7.278,
        -1.250 -4.417 6.550,
        -1.250 -4.792 5.744,
        -1.250 -5.023 4.886,
        -1.250 -5.100 4.000,
        -1.250 -5.023 3.114,
        -1.250 -4.792 2.256,
        -1.250 -4.417 1.450,
        -1.250 -3.907 0.722,
        -1.250 -3.278 0.093,
        -1.250 -2.550 -0.417,
        -1.250 -1.744 -0.792,
        -1.250 -0.886 -1.023,
        -1.250 -0.000 -1.100,
        -1.250 0.886 -1.023,
        -1.250 1.744 -0.792,
        -1.250 2.550 -0.417,
        -1.250 3.278 0.093,
        -1.250 3.907 0.722,
        -1.250 4.417 1.450,
        -1.250 4.792 2.256,
        -1.250 5.023 3.114
      ]
    }
    coordIndex [
      0, 1, 37, 36, -1,
        1, 2, 38, 37, -1,
        2, 3, 39, 38, -1,
        3, 4, 40, 39, -1,
        4, 5, 41, 40, -1,
        5, 6, 42, 41, -1,
        6, 7, 43, 42, -1,
        7, 8, 44, 43, -1,
        8, 9, 45, 44, -1,
        9, 10, 46, 45, -1,
        10, 11, 47, 46, -1,
        11, 12, 48, 47, -1,
        12, 13, 49, 48, -1,
        13, 14, 50, 49, -1,
        14, 15, 51, 50, -1,
        15, 16, 52, 51, -1,
        16, 17, 53, 52, -1,
        17, 18, 54, 53, -1,
        18, 19, 55, 54, -1,
        19, 20, 56, 55, -1,
        20, 21, 57, 56, -1,
        21, 22, 58, 57, -1,
        22, 23, 59, 58, -1,
        23, 24, 60, 59, -1,
        24, 25, 61, 60, -1,
        25, 26, 62, 61, -1,
        26, 27, 63, 62, -1,
        27, 28, 64, 63, -1,
        28, 29, 65, 64, -1,
        29, 30, 66, 65, -1,
        30, 31, 67, 66, -1,
        31, 32, 68, 67, -1,
        32, 33, 69, 68, -1,
        33, 34, 70, 69, -1,
        34, 35, 71, 70, -1,
        35, 0, 36, 71, -1,
        35, 34, 33, 32, 31, 30, 29, 28, 27, 26, 25, 24, 23, 22, 21, 20, 19, 18, 17, 16, 15, 14, 13, 12, 11, 10, 9, 8, 7, 6, 5, 4, 3, 2, 1, 0, -1,
        36, 37, 38, 39, 40, 41, 42, 43, 44, 45, 46, 47, 48, 49, 50, 51, 52, 53, 54, 55, 56, 57, 58, 59, 60, 61, 62, 63, 64, 65, 66, 67, 68, 69, 70, 71, -1
    ]
  }
},
Shape {
  appearance Appearance {
    material Material {
      diffuseColor 0.680 0.700 0.720
      specularColor 0.850 0.850 0.850
      shininess 0.80
    }
  }
  geometry IndexedFaceSet {
    solid FALSE
    coord Coordinate {
      point [
        -3.100 5.250 4.000,
        -3.100 5.071 5.359,
        -3.100 4.547 6.625,
        -3.100 3.712 7.712,
        -3.100 2.625 8.547,
        -3.100 1.359 9.071,
        -3.100 0.000 9.250,
        -3.100 -1.359 9.071,
        -3.100 -2.625 8.547,
        -3.100 -3.712 7.712,
        -3.100 -4.547 6.625,
        -3.100 -5.071 5.359,
        -3.100 -5.250 4.000,
        -3.100 -5.071 2.641,
        -3.100 -4.547 1.375,
        -3.100 -3.712 0.288,
        -3.100 -2.625 -0.547,
        -3.100 -1.359 -1.071,
        -3.100 -0.000 -1.250,
        -3.100 1.359 -1.071,
        -3.100 2.625 -0.547,
        -3.100 3.712 0.288,
        -3.100 4.547 1.375,
        -3.100 5.071 2.641,
        -1.900 5.250 4.000,
        -1.900 5.071 5.359,
        -1.900 4.547 6.625,
        -1.900 3.712 7.712,
        -1.900 2.625 8.547,
        -1.900 1.359 9.071,
        -1.900 0.000 9.250,
        -1.900 -1.359 9.071,
        -1.900 -2.625 8.547,
        -1.900 -3.712 7.712,
        -1.900 -4.547 6.625,
        -1.900 -5.071 5.359,
        -1.900 -5.250 4.000,
        -1.900 -5.071 2.641,
        -1.900 -4.547 1.375,
        -1.900 -3.712 0.288,
        -1.900 -2.625 -0.547,
        -1.900 -1.359 -1.071,
        -1.900 -0.000 -1.250,
        -1.900 1.359 -1.071,
        -1.900 2.625 -0.547,
        -1.900 3.712 0.288,
        -1.900 4.547 1.375,
        -1.900 5.071 2.641
      ]
    }
    coordIndex [
      0, 1, 25, 24, -1,
        1, 2, 26, 25, -1,
        2, 3, 27, 26, -1,
        3, 4, 28, 27, -1,
        4, 5, 29, 28, -1,
        5, 6, 30, 29, -1,
        6, 7, 31, 30, -1,
        7, 8, 32, 31, -1,
        8, 9, 33, 32, -1,
        9, 10, 34, 33, -1,
        10, 11, 35, 34, -1,
        11, 12, 36, 35, -1,
        12, 13, 37, 36, -1,
        13, 14, 38, 37, -1,
        14, 15, 39, 38, -1,
        15, 16, 40, 39, -1,
        16, 17, 41, 40, -1,
        17, 18, 42, 41, -1,
        18, 19, 43, 42, -1,
        19, 20, 44, 43, -1,
        20, 21, 45, 44, -1,
        21, 22, 46, 45, -1,
        22, 23, 47, 46, -1,
        23, 0, 24, 47, -1,
        23, 22, 21, 20, 19, 18, 17, 16, 15, 14, 13, 12, 11, 10, 9, 8, 7, 6, 5, 4, 3, 2, 1, 0, -1,
        24, 25, 26, 27, 28, 29, 30, 31, 32, 33, 34, 35, 36, 37, 38, 39, 40, 41, 42, 43, 44, 45, 46, 47, -1
    ]
  }
},
Shape {
  appearance Appearance {
    material Material {
      diffuseColor 0.120 0.120 0.140
      specularColor 0.250 0.250 0.250
      shininess 0.30
    }
  }
  geometry IndexedFaceSet {
    solid FALSE
    coord Coordinate {
      point [
        -12.550 3.200 4.000,
        -12.550 3.120 4.712,
        -12.550 2.883 5.388,
        -12.550 2.502 5.995,
        -12.550 1.995 6.502,
        -12.550 1.388 6.883,
        -12.550 0.712 7.120,
        -12.550 0.000 7.200,
        -12.550 -0.712 7.120,
        -12.550 -1.388 6.883,
        -12.550 -1.995 6.502,
        -12.550 -2.502 5.995,
        -12.550 -2.883 5.388,
        -12.550 -3.120 4.712,
        -12.550 -3.200 4.000,
        -12.550 -3.120 3.288,
        -12.550 -2.883 2.612,
        -12.550 -2.502 2.005,
        -12.550 -1.995 1.498,
        -12.550 -1.388 1.117,
        -12.550 -0.712 0.880,
        -12.550 -0.000 0.800,
        -12.550 0.712 0.880,
        -12.550 1.388 1.117,
        -12.550 1.995 1.498,
        -12.550 2.502 2.005,
        -12.550 2.883 2.612,
        -12.550 3.120 3.288,
        -3.050 3.200 4.000,
        -3.050 3.120 4.712,
        -3.050 2.883 5.388,
        -3.050 2.502 5.995,
        -3.050 1.995 6.502,
        -3.050 1.388 6.883,
        -3.050 0.712 7.120,
        -3.050 0.000 7.200,
        -3.050 -0.712 7.120,
        -3.050 -1.388 6.883,
        -3.050 -1.995 6.502,
        -3.050 -2.502 5.995,
        -3.050 -2.883 5.388,
        -3.050 -3.120 4.712,
        -3.050 -3.200 4.000,
        -3.050 -3.120 3.288,
        -3.050 -2.883 2.612,
        -3.050 -2.502 2.005,
        -3.050 -1.995 1.498,
        -3.050 -1.388 1.117,
        -3.050 -0.712 0.880,
        -3.050 -0.000 0.800,
        -3.050 0.712 0.880,
        -3.050 1.388 1.117,
        -3.050 1.995 1.498,
        -3.050 2.502 2.005,
        -3.050 2.883 2.612,
        -3.050 3.120 3.288
      ]
    }
    coordIndex [
      0, 1, 29, 28, -1,
        1, 2, 30, 29, -1,
        2, 3, 31, 30, -1,
        3, 4, 32, 31, -1,
        4, 5, 33, 32, -1,
        5, 6, 34, 33, -1,
        6, 7, 35, 34, -1,
        7, 8, 36, 35, -1,
        8, 9, 37, 36, -1,
        9, 10, 38, 37, -1,
        10, 11, 39, 38, -1,
        11, 12, 40, 39, -1,
        12, 13, 41, 40, -1,
        13, 14, 42, 41, -1,
        14, 15, 43, 42, -1,
        15, 16, 44, 43, -1,
        16, 17, 45, 44, -1,
        17, 18, 46, 45, -1,
        18, 19, 47, 46, -1,
        19, 20, 48, 47, -1,
        20, 21, 49, 48, -1,
        21, 22, 50, 49, -1,
        22, 23, 51, 50, -1,
        23, 24, 52, 51, -1,
        24, 25, 53, 52, -1,
        25, 26, 54, 53, -1,
        26, 27, 55, 54, -1,
        27, 0, 28, 55, -1,
        27, 26, 25, 24, 23, 22, 21, 20, 19, 18, 17, 16, 15, 14, 13, 12, 11, 10, 9, 8, 7, 6, 5, 4, 3, 2, 1, 0, -1,
        28, 29, 30, 31, 32, 33, 34, 35, 36, 37, 38, 39, 40, 41, 42, 43, 44, 45, 46, 47, 48, 49, 50, 51, 52, 53, 54, 55, -1
    ]
  }
},
Shape {
  appearance Appearance {
    material Material {
      diffuseColor 0.100 0.100 0.120
      specularColor 0.200 0.200 0.200
      shininess 0.20
    }
  }
  geometry IndexedFaceSet {
    solid FALSE
    coord Coordinate {
      point [
        -12.750 -0.450 5.200,
        -11.250 -0.450 5.200,
        -11.250 0.450 5.200,
        -12.750 0.450 5.200,
        -12.750 -0.450 6.400,
        -11.250 -0.450 6.400,
        -11.250 0.450 6.400,
        -12.750 0.450 6.400
      ]
    }
    coordIndex [
      0, 3, 2, 1, -1,
        4, 5, 6, 7, -1,
        0, 1, 5, 4, -1,
        1, 2, 6, 5, -1,
        2, 3, 7, 6, -1,
        3, 0, 4, 7, -1
    ]
  }
},
Shape {
  appearance Appearance {
    material Material {
      diffuseColor 0.880 0.760 0.220
      specularColor 0.950 0.900 0.550
      shininess 0.90
    }
  }
  geometry IndexedFaceSet {
    solid FALSE
    coord Coordinate {
      point [
        -12.500 2.200 4.000,
        -12.500 2.177 4.115,
        -12.500 2.112 4.212,
        -12.500 2.015 4.277,
        -12.500 1.900 4.300,
        -12.500 1.785 4.277,
        -12.500 1.688 4.212,
        -12.500 1.623 4.115,
        -12.500 1.600 4.000,
        -12.500 1.623 3.885,
        -12.500 1.688 3.788,
        -12.500 1.785 3.723,
        -12.500 1.900 3.700,
        -12.500 2.015 3.723,
        -12.500 2.112 3.788,
        -12.500 2.177 3.885,
        -9.500 2.200 4.000,
        -9.500 2.177 4.115,
        -9.500 2.112 4.212,
        -9.500 2.015 4.277,
        -9.500 1.900 4.300,
        -9.500 1.785 4.277,
        -9.500 1.688 4.212,
        -9.500 1.623 4.115,
        -9.500 1.600 4.000,
        -9.500 1.623 3.885,
        -9.500 1.688 3.788,
        -9.500 1.785 3.723,
        -9.500 1.900 3.700,
        -9.500 2.015 3.723,
        -9.500 2.112 3.788,
        -9.500 2.177 3.885
      ]
    }
    coordIndex [
      0, 1, 17, 16, -1,
        1, 2, 18, 17, -1,
        2, 3, 19, 18, -1,
        3, 4, 20, 19, -1,
        4, 5, 21, 20, -1,
        5, 6, 22, 21, -1,
        6, 7, 23, 22, -1,
        7, 8, 24, 23, -1,
        8, 9, 25, 24, -1,
        9, 10, 26, 25, -1,
        10, 11, 27, 26, -1,
        11, 12, 28, 27, -1,
        12, 13, 29, 28, -1,
        13, 14, 30, 29, -1,
        14, 15, 31, 30, -1,
        15, 0, 16, 31, -1,
        15, 14, 13, 12, 11, 10, 9, 8, 7, 6, 5, 4, 3, 2, 1, 0, -1,
        16, 17, 18, 19, 20, 21, 22, 23, 24, 25, 26, 27, 28, 29, 30, 31, -1
    ]
  }
},
Shape {
  appearance Appearance {
    material Material {
      diffuseColor 0.880 0.760 0.220
      specularColor 0.950 0.900 0.550
      shininess 0.90
    }
  }
  geometry IndexedFaceSet {
    solid FALSE
    coord Coordinate {
      point [
        -12.500 1.250 5.645,
        -12.500 1.227 5.760,
        -12.500 1.162 5.858,
        -12.500 1.065 5.923,
        -12.500 0.950 5.945,
        -12.500 0.835 5.923,
        -12.500 0.738 5.858,
        -12.500 0.673 5.760,
        -12.500 0.650 5.645,
        -12.500 0.673 5.531,
        -12.500 0.738 5.433,
        -12.500 0.835 5.368,
        -12.500 0.950 5.345,
        -12.500 1.065 5.368,
        -12.500 1.162 5.433,
        -12.500 1.227 5.531,
        -9.500 1.250 5.645,
        -9.500 1.227 5.760,
        -9.500 1.162 5.858,
        -9.500 1.065 5.923,
        -9.500 0.950 5.945,
        -9.500 0.835 5.923,
        -9.500 0.738 5.858,
        -9.500 0.673 5.760,
        -9.500 0.650 5.645,
        -9.500 0.673 5.531,
        -9.500 0.738 5.433,
        -9.500 0.835 5.368,
        -9.500 0.950 5.345,
        -9.500 1.065 5.368,
        -9.500 1.162 5.433,
        -9.500 1.227 5.531
      ]
    }
    coordIndex [
      0, 1, 17, 16, -1,
        1, 2, 18, 17, -1,
        2, 3, 19, 18, -1,
        3, 4, 20, 19, -1,
        4, 5, 21, 20, -1,
        5, 6, 22, 21, -1,
        6, 7, 23, 22, -1,
        7, 8, 24, 23, -1,
        8, 9, 25, 24, -1,
        9, 10, 26, 25, -1,
        10, 11, 27, 26, -1,
        11, 12, 28, 27, -1,
        12, 13, 29, 28, -1,
        13, 14, 30, 29, -1,
        14, 15, 31, 30, -1,
        15, 0, 16, 31, -1,
        15, 14, 13, 12, 11, 10, 9, 8, 7, 6, 5, 4, 3, 2, 1, 0, -1,
        16, 17, 18, 19, 20, 21, 22, 23, 24, 25, 26, 27, 28, 29, 30, 31, -1
    ]
  }
},
Shape {
  appearance Appearance {
    material Material {
      diffuseColor 0.880 0.760 0.220
      specularColor 0.950 0.900 0.550
      shininess 0.90
    }
  }
  geometry IndexedFaceSet {
    solid FALSE
    coord Coordinate {
      point [
        -12.500 -0.650 5.645,
        -12.500 -0.673 5.760,
        -12.500 -0.738 5.858,
        -12.500 -0.835 5.923,
        -12.500 -0.950 5.945,
        -12.500 -1.065 5.923,
        -12.500 -1.162 5.858,
        -12.500 -1.227 5.760,
        -12.500 -1.250 5.645,
        -12.500 -1.227 5.531,
        -12.500 -1.162 5.433,
        -12.500 -1.065 5.368,
        -12.500 -0.950 5.345,
        -12.500 -0.835 5.368,
        -12.500 -0.738 5.433,
        -12.500 -0.673 5.531,
        -9.500 -0.650 5.645,
        -9.500 -0.673 5.760,
        -9.500 -0.738 5.858,
        -9.500 -0.835 5.923,
        -9.500 -0.950 5.945,
        -9.500 -1.065 5.923,
        -9.500 -1.162 5.858,
        -9.500 -1.227 5.760,
        -9.500 -1.250 5.645,
        -9.500 -1.227 5.531,
        -9.500 -1.162 5.433,
        -9.500 -1.065 5.368,
        -9.500 -0.950 5.345,
        -9.500 -0.835 5.368,
        -9.500 -0.738 5.433,
        -9.500 -0.673 5.531
      ]
    }
    coordIndex [
      0, 1, 17, 16, -1,
        1, 2, 18, 17, -1,
        2, 3, 19, 18, -1,
        3, 4, 20, 19, -1,
        4, 5, 21, 20, -1,
        5, 6, 22, 21, -1,
        6, 7, 23, 22, -1,
        7, 8, 24, 23, -1,
        8, 9, 25, 24, -1,
        9, 10, 26, 25, -1,
        10, 11, 27, 26, -1,
        11, 12, 28, 27, -1,
        12, 13, 29, 28, -1,
        13, 14, 30, 29, -1,
        14, 15, 31, 30, -1,
        15, 0, 16, 31, -1,
        15, 14, 13, 12, 11, 10, 9, 8, 7, 6, 5, 4, 3, 2, 1, 0, -1,
        16, 17, 18, 19, 20, 21, 22, 23, 24, 25, 26, 27, 28, 29, 30, 31, -1
    ]
  }
},
Shape {
  appearance Appearance {
    material Material {
      diffuseColor 0.880 0.760 0.220
      specularColor 0.950 0.900 0.550
      shininess 0.90
    }
  }
  geometry IndexedFaceSet {
    solid FALSE
    coord Coordinate {
      point [
        -12.500 -1.600 4.000,
        -12.500 -1.623 4.115,
        -12.500 -1.688 4.212,
        -12.500 -1.785 4.277,
        -12.500 -1.900 4.300,
        -12.500 -2.015 4.277,
        -12.500 -2.112 4.212,
        -12.500 -2.177 4.115,
        -12.500 -2.200 4.000,
        -12.500 -2.177 3.885,
        -12.500 -2.112 3.788,
        -12.500 -2.015 3.723,
        -12.500 -1.900 3.700,
        -12.500 -1.785 3.723,
        -12.500 -1.688 3.788,
        -12.500 -1.623 3.885,
        -9.500 -1.600 4.000,
        -9.500 -1.623 4.115,
        -9.500 -1.688 4.212,
        -9.500 -1.785 4.277,
        -9.500 -1.900 4.300,
        -9.500 -2.015 4.277,
        -9.500 -2.112 4.212,
        -9.500 -2.177 4.115,
        -9.500 -2.200 4.000,
        -9.500 -2.177 3.885,
        -9.500 -2.112 3.788,
        -9.500 -2.015 3.723,
        -9.500 -1.900 3.700,
        -9.500 -1.785 3.723,
        -9.500 -1.688 3.788,
        -9.500 -1.623 3.885
      ]
    }
    coordIndex [
      0, 1, 17, 16, -1,
        1, 2, 18, 17, -1,
        2, 3, 19, 18, -1,
        3, 4, 20, 19, -1,
        4, 5, 21, 20, -1,
        5, 6, 22, 21, -1,
        6, 7, 23, 22, -1,
        7, 8, 24, 23, -1,
        8, 9, 25, 24, -1,
        9, 10, 26, 25, -1,
        10, 11, 27, 26, -1,
        11, 12, 28, 27, -1,
        12, 13, 29, 28, -1,
        13, 14, 30, 29, -1,
        14, 15, 31, 30, -1,
        15, 0, 16, 31, -1,
        15, 14, 13, 12, 11, 10, 9, 8, 7, 6, 5, 4, 3, 2, 1, 0, -1,
        16, 17, 18, 19, 20, 21, 22, 23, 24, 25, 26, 27, 28, 29, 30, 31, -1
    ]
  }
},
Shape {
  appearance Appearance {
    material Material {
      diffuseColor 0.880 0.760 0.220
      specularColor 0.950 0.900 0.550
      shininess 0.90
    }
  }
  geometry IndexedFaceSet {
    solid FALSE
    coord Coordinate {
      point [
        -12.500 -0.650 2.355,
        -12.500 -0.673 2.469,
        -12.500 -0.738 2.567,
        -12.500 -0.835 2.632,
        -12.500 -0.950 2.655,
        -12.500 -1.065 2.632,
        -12.500 -1.162 2.567,
        -12.500 -1.227 2.469,
        -12.500 -1.250 2.355,
        -12.500 -1.227 2.240,
        -12.500 -1.162 2.142,
        -12.500 -1.065 2.077,
        -12.500 -0.950 2.055,
        -12.500 -0.835 2.077,
        -12.500 -0.738 2.142,
        -12.500 -0.673 2.240,
        -9.500 -0.650 2.355,
        -9.500 -0.673 2.469,
        -9.500 -0.738 2.567,
        -9.500 -0.835 2.632,
        -9.500 -0.950 2.655,
        -9.500 -1.065 2.632,
        -9.500 -1.162 2.567,
        -9.500 -1.227 2.469,
        -9.500 -1.250 2.355,
        -9.500 -1.227 2.240,
        -9.500 -1.162 2.142,
        -9.500 -1.065 2.077,
        -9.500 -0.950 2.055,
        -9.500 -0.835 2.077,
        -9.500 -0.738 2.142,
        -9.500 -0.673 2.240
      ]
    }
    coordIndex [
      0, 1, 17, 16, -1,
        1, 2, 18, 17, -1,
        2, 3, 19, 18, -1,
        3, 4, 20, 19, -1,
        4, 5, 21, 20, -1,
        5, 6, 22, 21, -1,
        6, 7, 23, 22, -1,
        7, 8, 24, 23, -1,
        8, 9, 25, 24, -1,
        9, 10, 26, 25, -1,
        10, 11, 27, 26, -1,
        11, 12, 28, 27, -1,
        12, 13, 29, 28, -1,
        13, 14, 30, 29, -1,
        14, 15, 31, 30, -1,
        15, 0, 16, 31, -1,
        15, 14, 13, 12, 11, 10, 9, 8, 7, 6, 5, 4, 3, 2, 1, 0, -1,
        16, 17, 18, 19, 20, 21, 22, 23, 24, 25, 26, 27, 28, 29, 30, 31, -1
    ]
  }
},
Shape {
  appearance Appearance {
    material Material {
      diffuseColor 0.880 0.760 0.220
      specularColor 0.950 0.900 0.550
      shininess 0.90
    }
  }
  geometry IndexedFaceSet {
    solid FALSE
    coord Coordinate {
      point [
        -12.500 1.250 2.355,
        -12.500 1.227 2.469,
        -12.500 1.162 2.567,
        -12.500 1.065 2.632,
        -12.500 0.950 2.655,
        -12.500 0.835 2.632,
        -12.500 0.738 2.567,
        -12.500 0.673 2.469,
        -12.500 0.650 2.355,
        -12.500 0.673 2.240,
        -12.500 0.738 2.142,
        -12.500 0.835 2.077,
        -12.500 0.950 2.055,
        -12.500 1.065 2.077,
        -12.500 1.162 2.142,
        -12.500 1.227 2.240,
        -9.500 1.250 2.355,
        -9.500 1.227 2.469,
        -9.500 1.162 2.567,
        -9.500 1.065 2.632,
        -9.500 0.950 2.655,
        -9.500 0.835 2.632,
        -9.500 0.738 2.567,
        -9.500 0.673 2.469,
        -9.500 0.650 2.355,
        -9.500 0.673 2.240,
        -9.500 0.738 2.142,
        -9.500 0.835 2.077,
        -9.500 0.950 2.055,
        -9.500 1.065 2.077,
        -9.500 1.162 2.142,
        -9.500 1.227 2.240
      ]
    }
    coordIndex [
      0, 1, 17, 16, -1,
        1, 2, 18, 17, -1,
        2, 3, 19, 18, -1,
        3, 4, 20, 19, -1,
        4, 5, 21, 20, -1,
        5, 6, 22, 21, -1,
        6, 7, 23, 22, -1,
        7, 8, 24, 23, -1,
        8, 9, 25, 24, -1,
        9, 10, 26, 25, -1,
        10, 11, 27, 26, -1,
        11, 12, 28, 27, -1,
        12, 13, 29, 28, -1,
        13, 14, 30, 29, -1,
        14, 15, 31, 30, -1,
        15, 0, 16, 31, -1,
        15, 14, 13, 12, 11, 10, 9, 8, 7, 6, 5, 4, 3, 2, 1, 0, -1,
        16, 17, 18, 19, 20, 21, 22, 23, 24, 25, 26, 27, 28, 29, 30, 31, -1
    ]
  }
},
Shape {
  appearance Appearance {
    material Material {
      diffuseColor 0.860 0.740 0.200
      specularColor 0.920 0.880 0.500
      shininess 0.88
    }
  }
  geometry IndexedFaceSet {
    solid FALSE
    coord Coordinate {
      point [
        -12.500 0.250 4.000,
        -12.500 0.231 4.096,
        -12.500 0.177 4.177,
        -12.500 0.096 4.231,
        -12.500 0.000 4.250,
        -12.500 -0.096 4.231,
        -12.500 -0.177 4.177,
        -12.500 -0.231 4.096,
        -12.500 -0.250 4.000,
        -12.500 -0.231 3.904,
        -12.500 -0.177 3.823,
        -12.500 -0.096 3.769,
        -12.500 -0.000 3.750,
        -12.500 0.096 3.769,
        -12.500 0.177 3.823,
        -12.500 0.231 3.904,
        -9.500 0.250 4.000,
        -9.500 0.231 4.096,
        -9.500 0.177 4.177,
        -9.500 0.096 4.231,
        -9.500 0.000 4.250,
        -9.500 -0.096 4.231,
        -9.500 -0.177 4.177,
        -9.500 -0.231 4.096,
        -9.500 -0.250 4.000,
        -9.500 -0.231 3.904,
        -9.500 -0.177 3.823,
        -9.500 -0.096 3.769,
        -9.500 -0.000 3.750,
        -9.500 0.096 3.769,
        -9.500 0.177 3.823,
        -9.500 0.231 3.904
      ]
    }
    coordIndex [
      0, 1, 17, 16, -1,
        1, 2, 18, 17, -1,
        2, 3, 19, 18, -1,
        3, 4, 20, 19, -1,
        4, 5, 21, 20, -1,
        5, 6, 22, 21, -1,
        6, 7, 23, 22, -1,
        7, 8, 24, 23, -1,
        8, 9, 25, 24, -1,
        9, 10, 26, 25, -1,
        10, 11, 27, 26, -1,
        11, 12, 28, 27, -1,
        12, 13, 29, 28, -1,
        13, 14, 30, 29, -1,
        14, 15, 31, 30, -1,
        15, 0, 16, 31, -1,
        15, 14, 13, 12, 11, 10, 9, 8, 7, 6, 5, 4, 3, 2, 1, 0, -1,
        16, 17, 18, 19, 20, 21, 22, 23, 24, 25, 26, 27, 28, 29, 30, 31, -1
    ]
  }
},
Shape {
  appearance Appearance {
    material Material {
      diffuseColor 0.160 0.170 0.180
      specularColor 0.300 0.300 0.300
      shininess 0.35
    }
  }
  geometry IndexedFaceSet {
    solid FALSE
    coord Coordinate {
      point [
        -2.300 -4.900 0.000,
        -0.500 -4.900 0.000,
        -0.500 4.900 0.000,
        -2.300 4.900 0.000,
        -2.300 -4.900 2.600,
        -0.500 -4.900 2.600,
        -0.500 4.900 2.600,
        -2.300 4.900 2.600
      ]
    }
    coordIndex [
      0, 3, 2, 1, -1,
        4, 5, 6, 7, -1,
        0, 1, 5, 4, -1,
        1, 2, 6, 5, -1,
        2, 3, 7, 6, -1,
        3, 0, 4, 7, -1
    ]
  }
},
Shape {
  appearance Appearance {
    material Material {
      diffuseColor 0.880 0.760 0.250
      specularColor 0.920 0.880 0.550
      shininess 0.85
    }
  }
  geometry IndexedFaceSet {
    solid FALSE
    coord Coordinate {
      point [
        -0.900 -4.680 0.010,
        0.300 -4.680 0.010,
        0.300 -4.320 0.010,
        -0.900 -4.320 0.010,
        -0.900 -4.680 0.190,
        0.300 -4.680 0.190,
        0.300 -4.320 0.190,
        -0.900 -4.320 0.190
      ]
    }
    coordIndex [
      0, 3, 2, 1, -1,
        4, 5, 6, 7, -1,
        0, 1, 5, 4, -1,
        1, 2, 6, 5, -1,
        2, 3, 7, 6, -1,
        3, 0, 4, 7, -1
    ]
  }
},
Shape {
  appearance Appearance {
    material Material {
      diffuseColor 0.850 0.740 0.220
      specularColor 0.900 0.850 0.500
      shininess 0.85
    }
  }
  geometry IndexedFaceSet {
    solid FALSE
    coord Coordinate {
      point [
        -0.925 -4.680 0.050,
        -0.675 -4.680 0.050,
        -0.675 -4.320 0.050,
        -0.925 -4.320 0.050,
        -0.925 -4.680 1.250,
        -0.675 -4.680 1.250,
        -0.675 -4.320 1.250,
        -0.925 -4.320 1.250
      ]
    }
    coordIndex [
      0, 3, 2, 1, -1,
        4, 5, 6, 7, -1,
        0, 1, 5, 4, -1,
        1, 2, 6, 5, -1,
        2, 3, 7, 6, -1,
        3, 0, 4, 7, -1
    ]
  }
},
Shape {
  appearance Appearance {
    material Material {
      diffuseColor 0.780 0.800 0.820
      specularColor 0.950 0.950 0.950
      shininess 0.90
    }
  }
  geometry IndexedFaceSet {
    solid FALSE
    coord Coordinate {
      point [
        -0.600 -4.750 0.000,
        0.200 -4.750 0.000,
        0.200 -4.250 0.000,
        -0.600 -4.250 0.000,
        -0.600 -4.750 0.120,
        0.200 -4.750 0.120,
        0.200 -4.250 0.120,
        -0.600 -4.250 0.120
      ]
    }
    coordIndex [
      0, 3, 2, 1, -1,
        4, 5, 6, 7, -1,
        0, 1, 5, 4, -1,
        1, 2, 6, 5, -1,
        2, 3, 7, 6, -1,
        3, 0, 4, 7, -1
    ]
  }
},
Shape {
  appearance Appearance {
    material Material {
      diffuseColor 0.880 0.760 0.250
      specularColor 0.920 0.880 0.550
      shininess 0.85
    }
  }
  geometry IndexedFaceSet {
    solid FALSE
    coord Coordinate {
      point [
        -0.900 -3.180 0.010,
        0.300 -3.180 0.010,
        0.300 -2.820 0.010,
        -0.900 -2.820 0.010,
        -0.900 -3.180 0.190,
        0.300 -3.180 0.190,
        0.300 -2.820 0.190,
        -0.900 -2.820 0.190
      ]
    }
    coordIndex [
      0, 3, 2, 1, -1,
        4, 5, 6, 7, -1,
        0, 1, 5, 4, -1,
        1, 2, 6, 5, -1,
        2, 3, 7, 6, -1,
        3, 0, 4, 7, -1
    ]
  }
},
Shape {
  appearance Appearance {
    material Material {
      diffuseColor 0.850 0.740 0.220
      specularColor 0.900 0.850 0.500
      shininess 0.85
    }
  }
  geometry IndexedFaceSet {
    solid FALSE
    coord Coordinate {
      point [
        -0.925 -3.180 0.050,
        -0.675 -3.180 0.050,
        -0.675 -2.820 0.050,
        -0.925 -2.820 0.050,
        -0.925 -3.180 1.250,
        -0.675 -3.180 1.250,
        -0.675 -2.820 1.250,
        -0.925 -2.820 1.250
      ]
    }
    coordIndex [
      0, 3, 2, 1, -1,
        4, 5, 6, 7, -1,
        0, 1, 5, 4, -1,
        1, 2, 6, 5, -1,
        2, 3, 7, 6, -1,
        3, 0, 4, 7, -1
    ]
  }
},
Shape {
  appearance Appearance {
    material Material {
      diffuseColor 0.780 0.800 0.820
      specularColor 0.950 0.950 0.950
      shininess 0.90
    }
  }
  geometry IndexedFaceSet {
    solid FALSE
    coord Coordinate {
      point [
        -0.600 -3.250 0.000,
        0.200 -3.250 0.000,
        0.200 -2.750 0.000,
        -0.600 -2.750 0.000,
        -0.600 -3.250 0.120,
        0.200 -3.250 0.120,
        0.200 -2.750 0.120,
        -0.600 -2.750 0.120
      ]
    }
    coordIndex [
      0, 3, 2, 1, -1,
        4, 5, 6, 7, -1,
        0, 1, 5, 4, -1,
        1, 2, 6, 5, -1,
        2, 3, 7, 6, -1,
        3, 0, 4, 7, -1
    ]
  }
},
Shape {
  appearance Appearance {
    material Material {
      diffuseColor 0.880 0.760 0.250
      specularColor 0.920 0.880 0.550
      shininess 0.85
    }
  }
  geometry IndexedFaceSet {
    solid FALSE
    coord Coordinate {
      point [
        -0.900 -1.680 0.010,
        0.300 -1.680 0.010,
        0.300 -1.320 0.010,
        -0.900 -1.320 0.010,
        -0.900 -1.680 0.190,
        0.300 -1.680 0.190,
        0.300 -1.320 0.190,
        -0.900 -1.320 0.190
      ]
    }
    coordIndex [
      0, 3, 2, 1, -1,
        4, 5, 6, 7, -1,
        0, 1, 5, 4, -1,
        1, 2, 6, 5, -1,
        2, 3, 7, 6, -1,
        3, 0, 4, 7, -1
    ]
  }
},
Shape {
  appearance Appearance {
    material Material {
      diffuseColor 0.850 0.740 0.220
      specularColor 0.900 0.850 0.500
      shininess 0.85
    }
  }
  geometry IndexedFaceSet {
    solid FALSE
    coord Coordinate {
      point [
        -0.925 -1.680 0.050,
        -0.675 -1.680 0.050,
        -0.675 -1.320 0.050,
        -0.925 -1.320 0.050,
        -0.925 -1.680 1.250,
        -0.675 -1.680 1.250,
        -0.675 -1.320 1.250,
        -0.925 -1.320 1.250
      ]
    }
    coordIndex [
      0, 3, 2, 1, -1,
        4, 5, 6, 7, -1,
        0, 1, 5, 4, -1,
        1, 2, 6, 5, -1,
        2, 3, 7, 6, -1,
        3, 0, 4, 7, -1
    ]
  }
},
Shape {
  appearance Appearance {
    material Material {
      diffuseColor 0.780 0.800 0.820
      specularColor 0.950 0.950 0.950
      shininess 0.90
    }
  }
  geometry IndexedFaceSet {
    solid FALSE
    coord Coordinate {
      point [
        -0.600 -1.750 0.000,
        0.200 -1.750 0.000,
        0.200 -1.250 0.000,
        -0.600 -1.250 0.000,
        -0.600 -1.750 0.120,
        0.200 -1.750 0.120,
        0.200 -1.250 0.120,
        -0.600 -1.250 0.120
      ]
    }
    coordIndex [
      0, 3, 2, 1, -1,
        4, 5, 6, 7, -1,
        0, 1, 5, 4, -1,
        1, 2, 6, 5, -1,
        2, 3, 7, 6, -1,
        3, 0, 4, 7, -1
    ]
  }
},
Shape {
  appearance Appearance {
    material Material {
      diffuseColor 0.880 0.760 0.250
      specularColor 0.920 0.880 0.550
      shininess 0.85
    }
  }
  geometry IndexedFaceSet {
    solid FALSE
    coord Coordinate {
      point [
        -0.900 -0.180 0.010,
        0.300 -0.180 0.010,
        0.300 0.180 0.010,
        -0.900 0.180 0.010,
        -0.900 -0.180 0.190,
        0.300 -0.180 0.190,
        0.300 0.180 0.190,
        -0.900 0.180 0.190
      ]
    }
    coordIndex [
      0, 3, 2, 1, -1,
        4, 5, 6, 7, -1,
        0, 1, 5, 4, -1,
        1, 2, 6, 5, -1,
        2, 3, 7, 6, -1,
        3, 0, 4, 7, -1
    ]
  }
},
Shape {
  appearance Appearance {
    material Material {
      diffuseColor 0.850 0.740 0.220
      specularColor 0.900 0.850 0.500
      shininess 0.85
    }
  }
  geometry IndexedFaceSet {
    solid FALSE
    coord Coordinate {
      point [
        -0.925 -0.180 0.050,
        -0.675 -0.180 0.050,
        -0.675 0.180 0.050,
        -0.925 0.180 0.050,
        -0.925 -0.180 1.250,
        -0.675 -0.180 1.250,
        -0.675 0.180 1.250,
        -0.925 0.180 1.250
      ]
    }
    coordIndex [
      0, 3, 2, 1, -1,
        4, 5, 6, 7, -1,
        0, 1, 5, 4, -1,
        1, 2, 6, 5, -1,
        2, 3, 7, 6, -1,
        3, 0, 4, 7, -1
    ]
  }
},
Shape {
  appearance Appearance {
    material Material {
      diffuseColor 0.780 0.800 0.820
      specularColor 0.950 0.950 0.950
      shininess 0.90
    }
  }
  geometry IndexedFaceSet {
    solid FALSE
    coord Coordinate {
      point [
        -0.600 -0.250 0.000,
        0.200 -0.250 0.000,
        0.200 0.250 0.000,
        -0.600 0.250 0.000,
        -0.600 -0.250 0.120,
        0.200 -0.250 0.120,
        0.200 0.250 0.120,
        -0.600 0.250 0.120
      ]
    }
    coordIndex [
      0, 3, 2, 1, -1,
        4, 5, 6, 7, -1,
        0, 1, 5, 4, -1,
        1, 2, 6, 5, -1,
        2, 3, 7, 6, -1,
        3, 0, 4, 7, -1
    ]
  }
},
Shape {
  appearance Appearance {
    material Material {
      diffuseColor 0.880 0.760 0.250
      specularColor 0.920 0.880 0.550
      shininess 0.85
    }
  }
  geometry IndexedFaceSet {
    solid FALSE
    coord Coordinate {
      point [
        -0.900 1.320 0.010,
        0.300 1.320 0.010,
        0.300 1.680 0.010,
        -0.900 1.680 0.010,
        -0.900 1.320 0.190,
        0.300 1.320 0.190,
        0.300 1.680 0.190,
        -0.900 1.680 0.190
      ]
    }
    coordIndex [
      0, 3, 2, 1, -1,
        4, 5, 6, 7, -1,
        0, 1, 5, 4, -1,
        1, 2, 6, 5, -1,
        2, 3, 7, 6, -1,
        3, 0, 4, 7, -1
    ]
  }
},
Shape {
  appearance Appearance {
    material Material {
      diffuseColor 0.850 0.740 0.220
      specularColor 0.900 0.850 0.500
      shininess 0.85
    }
  }
  geometry IndexedFaceSet {
    solid FALSE
    coord Coordinate {
      point [
        -0.925 1.320 0.050,
        -0.675 1.320 0.050,
        -0.675 1.680 0.050,
        -0.925 1.680 0.050,
        -0.925 1.320 1.250,
        -0.675 1.320 1.250,
        -0.675 1.680 1.250,
        -0.925 1.680 1.250
      ]
    }
    coordIndex [
      0, 3, 2, 1, -1,
        4, 5, 6, 7, -1,
        0, 1, 5, 4, -1,
        1, 2, 6, 5, -1,
        2, 3, 7, 6, -1,
        3, 0, 4, 7, -1
    ]
  }
},
Shape {
  appearance Appearance {
    material Material {
      diffuseColor 0.780 0.800 0.820
      specularColor 0.950 0.950 0.950
      shininess 0.90
    }
  }
  geometry IndexedFaceSet {
    solid FALSE
    coord Coordinate {
      point [
        -0.600 1.250 0.000,
        0.200 1.250 0.000,
        0.200 1.750 0.000,
        -0.600 1.750 0.000,
        -0.600 1.250 0.120,
        0.200 1.250 0.120,
        0.200 1.750 0.120,
        -0.600 1.750 0.120
      ]
    }
    coordIndex [
      0, 3, 2, 1, -1,
        4, 5, 6, 7, -1,
        0, 1, 5, 4, -1,
        1, 2, 6, 5, -1,
        2, 3, 7, 6, -1,
        3, 0, 4, 7, -1
    ]
  }
},
Shape {
  appearance Appearance {
    material Material {
      diffuseColor 0.880 0.760 0.250
      specularColor 0.920 0.880 0.550
      shininess 0.85
    }
  }
  geometry IndexedFaceSet {
    solid FALSE
    coord Coordinate {
      point [
        -0.900 2.820 0.010,
        0.300 2.820 0.010,
        0.300 3.180 0.010,
        -0.900 3.180 0.010,
        -0.900 2.820 0.190,
        0.300 2.820 0.190,
        0.300 3.180 0.190,
        -0.900 3.180 0.190
      ]
    }
    coordIndex [
      0, 3, 2, 1, -1,
        4, 5, 6, 7, -1,
        0, 1, 5, 4, -1,
        1, 2, 6, 5, -1,
        2, 3, 7, 6, -1,
        3, 0, 4, 7, -1
    ]
  }
},
Shape {
  appearance Appearance {
    material Material {
      diffuseColor 0.850 0.740 0.220
      specularColor 0.900 0.850 0.500
      shininess 0.85
    }
  }
  geometry IndexedFaceSet {
    solid FALSE
    coord Coordinate {
      point [
        -0.925 2.820 0.050,
        -0.675 2.820 0.050,
        -0.675 3.180 0.050,
        -0.925 3.180 0.050,
        -0.925 2.820 1.250,
        -0.675 2.820 1.250,
        -0.675 3.180 1.250,
        -0.925 3.180 1.250
      ]
    }
    coordIndex [
      0, 3, 2, 1, -1,
        4, 5, 6, 7, -1,
        0, 1, 5, 4, -1,
        1, 2, 6, 5, -1,
        2, 3, 7, 6, -1,
        3, 0, 4, 7, -1
    ]
  }
},
Shape {
  appearance Appearance {
    material Material {
      diffuseColor 0.780 0.800 0.820
      specularColor 0.950 0.950 0.950
      shininess 0.90
    }
  }
  geometry IndexedFaceSet {
    solid FALSE
    coord Coordinate {
      point [
        -0.600 2.750 0.000,
        0.200 2.750 0.000,
        0.200 3.250 0.000,
        -0.600 3.250 0.000,
        -0.600 2.750 0.120,
        0.200 2.750 0.120,
        0.200 3.250 0.120,
        -0.600 3.250 0.120
      ]
    }
    coordIndex [
      0, 3, 2, 1, -1,
        4, 5, 6, 7, -1,
        0, 1, 5, 4, -1,
        1, 2, 6, 5, -1,
        2, 3, 7, 6, -1,
        3, 0, 4, 7, -1
    ]
  }
},
Shape {
  appearance Appearance {
    material Material {
      diffuseColor 0.880 0.760 0.250
      specularColor 0.920 0.880 0.550
      shininess 0.85
    }
  }
  geometry IndexedFaceSet {
    solid FALSE
    coord Coordinate {
      point [
        -0.900 4.320 0.010,
        0.300 4.320 0.010,
        0.300 4.680 0.010,
        -0.900 4.680 0.010,
        -0.900 4.320 0.190,
        0.300 4.320 0.190,
        0.300 4.680 0.190,
        -0.900 4.680 0.190
      ]
    }
    coordIndex [
      0, 3, 2, 1, -1,
        4, 5, 6, 7, -1,
        0, 1, 5, 4, -1,
        1, 2, 6, 5, -1,
        2, 3, 7, 6, -1,
        3, 0, 4, 7, -1
    ]
  }
},
Shape {
  appearance Appearance {
    material Material {
      diffuseColor 0.850 0.740 0.220
      specularColor 0.900 0.850 0.500
      shininess 0.85
    }
  }
  geometry IndexedFaceSet {
    solid FALSE
    coord Coordinate {
      point [
        -0.925 4.320 0.050,
        -0.675 4.320 0.050,
        -0.675 4.680 0.050,
        -0.925 4.680 0.050,
        -0.925 4.320 1.250,
        -0.675 4.320 1.250,
        -0.675 4.680 1.250,
        -0.925 4.680 1.250
      ]
    }
    coordIndex [
      0, 3, 2, 1, -1,
        4, 5, 6, 7, -1,
        0, 1, 5, 4, -1,
        1, 2, 6, 5, -1,
        2, 3, 7, 6, -1,
        3, 0, 4, 7, -1
    ]
  }
},
Shape {
  appearance Appearance {
    material Material {
      diffuseColor 0.780 0.800 0.820
      specularColor 0.950 0.950 0.950
      shininess 0.90
    }
  }
  geometry IndexedFaceSet {
    solid FALSE
    coord Coordinate {
      point [
        -0.600 4.250 0.000,
        0.200 4.250 0.000,
        0.200 4.750 0.000,
        -0.600 4.750 0.000,
        -0.600 4.250 0.120,
        0.200 4.250 0.120,
        0.200 4.750 0.120,
        -0.600 4.750 0.120
      ]
    }
    coordIndex [
      0, 3, 2, 1, -1,
        4, 5, 6, 7, -1,
        0, 1, 5, 4, -1,
        1, 2, 6, 5, -1,
        2, 3, 7, 6, -1,
        3, 0, 4, 7, -1
    ]
  }
}
  ]
}
