#VRML V2.0 utf8
# MagSafe 6-Pin Magnetic Dock Receptacle Model
Group {
  children [
Shape {
  appearance Appearance {
    material Material {
      diffuseColor 0.520 0.550 0.580
      specularColor 0.850 0.880 0.920
      shininess 0.88
    }
  }
  geometry IndexedFaceSet {
    solid FALSE
    coord Coordinate {
      point [
        1.250 -7.400 0.200,
        7.750 -7.400 0.200,
        7.750 7.400 0.200,
        1.250 7.400 0.200,
        1.250 -7.400 6.000,
        7.750 -7.400 6.000,
        7.750 7.400 6.000,
        1.250 7.400 6.000
      ]
    }
    coordIndex [
      0, 3, 2, 1, -1,
        4, 5, 6, 7, -1,
        0, 1, 5, 4, -1,
        1, 2, 6, 5, -1,
        2, 3, 7, 6, -1,
        3, 0, 4, 7, -1
    ]
  }
},
Shape {
  appearance Appearance {
    material Material {
      diffuseColor 0.480 0.500 0.540
      specularColor 0.800 0.850 0.880
      shininess 0.85
    }
  }
  geometry IndexedFaceSet {
    solid FALSE
    coord Coordinate {
      point [
        5.200 -7.100 0.300,
        5.166 -6.884 0.300,
        5.066 -6.689 0.300,
        4.911 -6.534 0.300,
        4.716 -6.434 0.300,
        4.500 -6.400 0.300,
        4.284 -6.434 0.300,
        4.089 -6.534 0.300,
        3.934 -6.689 0.300,
        3.834 -6.884 0.300,
        3.800 -7.100 0.300,
        3.834 -7.316 0.300,
        3.934 -7.511 0.300,
        4.089 -7.666 0.300,
        4.284 -7.766 0.300,
        4.500 -7.800 0.300,
        4.716 -7.766 0.300,
        4.911 -7.666 0.300,
        5.066 -7.511 0.300,
        5.166 -7.316 0.300,
        5.200 -7.100 5.900,
        5.166 -6.884 5.900,
        5.066 -6.689 5.900,
        4.911 -6.534 5.900,
        4.716 -6.434 5.900,
        4.500 -6.400 5.900,
        4.284 -6.434 5.900,
        4.089 -6.534 5.900,
        3.934 -6.689 5.900,
        3.834 -6.884 5.900,
        3.800 -7.100 5.900,
        3.834 -7.316 5.900,
        3.934 -7.511 5.900,
        4.089 -7.666 5.900,
        4.284 -7.766 5.900,
        4.500 -7.800 5.900,
        4.716 -7.766 5.900,
        4.911 -7.666 5.900,
        5.066 -7.511 5.900,
        5.166 -7.316 5.900
      ]
    }
    coordIndex [
      0, 1, 21, 20, -1,
        1, 2, 22, 21, -1,
        2, 3, 23, 22, -1,
        3, 4, 24, 23, -1,
        4, 5, 25, 24, -1,
        5, 6, 26, 25, -1,
        6, 7, 27, 26, -1,
        7, 8, 28, 27, -1,
        8, 9, 29, 28, -1,
        9, 10, 30, 29, -1,
        10, 11, 31, 30, -1,
        11, 12, 32, 31, -1,
        12, 13, 33, 32, -1,
        13, 14, 34, 33, -1,
        14, 15, 35, 34, -1,
        15, 16, 36, 35, -1,
        16, 17, 37, 36, -1,
        17, 18, 38, 37, -1,
        18, 19, 39, 38, -1,
        19, 0, 20, 39, -1,
        19, 18, 17, 16, 15, 14, 13, 12, 11, 10, 9, 8, 7, 6, 5, 4, 3, 2, 1, 0, -1,
        20, 21, 22, 23, 24, 25, 26, 27, 28, 29, 30, 31, 32, 33, 34, 35, 36, 37, 38, 39, -1
    ]
  }
},
Shape {
  appearance Appearance {
    material Material {
      diffuseColor 0.480 0.500 0.540
      specularColor 0.800 0.850 0.880
      shininess 0.85
    }
  }
  geometry IndexedFaceSet {
    solid FALSE
    coord Coordinate {
      point [
        5.200 7.100 0.300,
        5.166 7.316 0.300,
        5.066 7.511 0.300,
        4.911 7.666 0.300,
        4.716 7.766 0.300,
        4.500 7.800 0.300,
        4.284 7.766 0.300,
        4.089 7.666 0.300,
        3.934 7.511 0.300,
        3.834 7.316 0.300,
        3.800 7.100 0.300,
        3.834 6.884 0.300,
        3.934 6.689 0.300,
        4.089 6.534 0.300,
        4.284 6.434 0.300,
        4.500 6.400 0.300,
        4.716 6.434 0.300,
        4.911 6.534 0.300,
        5.066 6.689 0.300,
        5.166 6.884 0.300,
        5.200 7.100 5.900,
        5.166 7.316 5.900,
        5.066 7.511 5.900,
        4.911 7.666 5.900,
        4.716 7.766 5.900,
        4.500 7.800 5.900,
        4.284 7.766 5.900,
        4.089 7.666 5.900,
        3.934 7.511 5.900,
        3.834 7.316 5.900,
        3.800 7.100 5.900,
        3.834 6.884 5.900,
        3.934 6.689 5.900,
        4.089 6.534 5.900,
        4.284 6.434 5.900,
        4.500 6.400 5.900,
        4.716 6.434 5.900,
        4.911 6.534 5.900,
        5.066 6.689 5.900,
        5.166 6.884 5.900
      ]
    }
    coordIndex [
      0, 1, 21, 20, -1,
        1, 2, 22, 21, -1,
        2, 3, 23, 22, -1,
        3, 4, 24, 23, -1,
        4, 5, 25, 24, -1,
        5, 6, 26, 25, -1,
        6, 7, 27, 26, -1,
        7, 8, 28, 27, -1,
        8, 9, 29, 28, -1,
        9, 10, 30, 29, -1,
        10, 11, 31, 30, -1,
        11, 12, 32, 31, -1,
        12, 13, 33, 32, -1,
        13, 14, 34, 33, -1,
        14, 15, 35, 34, -1,
        15, 16, 36, 35, -1,
        16, 17, 37, 36, -1,
        17, 18, 38, 37, -1,
        18, 19, 39, 38, -1,
        19, 0, 20, 39, -1,
        19, 18, 17, 16, 15, 14, 13, 12, 11, 10, 9, 8, 7, 6, 5, 4, 3, 2, 1, 0, -1,
        20, 21, 22, 23, 24, 25, 26, 27, 28, 29, 30, 31, 32, 33, 34, 35, 36, 37, 38, 39, -1
    ]
  }
},
Shape {
  appearance Appearance {
    material Material {
      diffuseColor 0.140 0.150 0.170
      specularColor 0.300 0.300 0.300
      shininess 0.35
    }
  }
  geometry IndexedFaceSet {
    solid FALSE
    coord Coordinate {
      point [
        6.200 -6.800 0.700,
        7.800 -6.800 0.700,
        7.800 6.800 0.700,
        6.200 6.800 0.700,
        6.200 -6.800 5.500,
        7.800 -6.800 5.500,
        7.800 6.800 5.500,
        6.200 6.800 5.500
      ]
    }
    coordIndex [
      0, 3, 2, 1, -1,
        4, 5, 6, 7, -1,
        0, 1, 5, 4, -1,
        1, 2, 6, 5, -1,
        2, 3, 7, 6, -1,
        3, 0, 4, 7, -1
    ]
  }
},
Shape {
  appearance Appearance {
    material Material {
      diffuseColor 0.680 0.700 0.740
      specularColor 0.980 0.980 0.980
      shininess 0.96
    }
  }
  geometry IndexedFaceSet {
    solid FALSE
    coord Coordinate {
      point [
        6.350 -6.400 1.000,
        7.850 -6.400 1.000,
        7.850 -4.200 1.000,
        6.350 -4.200 1.000,
        6.350 -6.400 5.200,
        7.850 -6.400 5.200,
        7.850 -4.200 5.200,
        6.350 -4.200 5.200
      ]
    }
    coordIndex [
      0, 3, 2, 1, -1,
        4, 5, 6, 7, -1,
        0, 1, 5, 4, -1,
        1, 2, 6, 5, -1,
        2, 3, 7, 6, -1,
        3, 0, 4, 7, -1
    ]
  }
},
Shape {
  appearance Appearance {
    material Material {
      diffuseColor 0.780 0.800 0.840
      specularColor 0.990 0.990 0.990
      shininess 0.98
    }
  }
  geometry IndexedFaceSet {
    solid FALSE
    coord Coordinate {
      point [
        7.600 -6.300 1.100,
        8.000 -6.300 1.100,
        8.000 -4.300 1.100,
        7.600 -4.300 1.100,
        7.600 -6.300 5.100,
        8.000 -6.300 5.100,
        8.000 -4.300 5.100,
        7.600 -4.300 5.100
      ]
    }
    coordIndex [
      0, 3, 2, 1, -1,
        4, 5, 6, 7, -1,
        0, 1, 5, 4, -1,
        1, 2, 6, 5, -1,
        2, 3, 7, 6, -1,
        3, 0, 4, 7, -1
    ]
  }
},
Shape {
  appearance Appearance {
    material Material {
      diffuseColor 0.680 0.700 0.740
      specularColor 0.980 0.980 0.980
      shininess 0.96
    }
  }
  geometry IndexedFaceSet {
    solid FALSE
    coord Coordinate {
      point [
        6.350 4.200 1.000,
        7.850 4.200 1.000,
        7.850 6.400 1.000,
        6.350 6.400 1.000,
        6.350 4.200 5.200,
        7.850 4.200 5.200,
        7.850 6.400 5.200,
        6.350 6.400 5.200
      ]
    }
    coordIndex [
      0, 3, 2, 1, -1,
        4, 5, 6, 7, -1,
        0, 1, 5, 4, -1,
        1, 2, 6, 5, -1,
        2, 3, 7, 6, -1,
        3, 0, 4, 7, -1
    ]
  }
},
Shape {
  appearance Appearance {
    material Material {
      diffuseColor 0.780 0.800 0.840
      specularColor 0.990 0.990 0.990
      shininess 0.98
    }
  }
  geometry IndexedFaceSet {
    solid FALSE
    coord Coordinate {
      point [
        7.600 4.300 1.100,
        8.000 4.300 1.100,
        8.000 6.300 1.100,
        7.600 6.300 1.100,
        7.600 4.300 5.100,
        8.000 4.300 5.100,
        8.000 6.300 5.100,
        7.600 6.300 5.100
      ]
    }
    coordIndex [
      0, 3, 2, 1, -1,
        4, 5, 6, 7, -1,
        0, 1, 5, 4, -1,
        1, 2, 6, 5, -1,
        2, 3, 7, 6, -1,
        3, 0, 4, 7, -1
    ]
  }
},
Shape {
  appearance Appearance {
    material Material {
      diffuseColor 0.940 0.800 0.240
      specularColor 0.980 0.940 0.650
      shininess 0.96
    }
  }
  geometry IndexedFaceSet {
    solid FALSE
    coord Coordinate {
      point [
        6.600 -3.500 3.100,
        6.600 -3.524 3.255,
        6.600 -3.595 3.394,
        6.600 -3.706 3.505,
        6.600 -3.845 3.576,
        6.600 -4.000 3.600,
        6.600 -4.155 3.576,
        6.600 -4.294 3.505,
        6.600 -4.405 3.394,
        6.600 -4.476 3.255,
        6.600 -4.500 3.100,
        6.600 -4.476 2.945,
        6.600 -4.405 2.806,
        6.600 -4.294 2.695,
        6.600 -4.155 2.624,
        6.600 -4.000 2.600,
        6.600 -3.845 2.624,
        6.600 -3.706 2.695,
        6.600 -3.595 2.806,
        6.600 -3.524 2.945,
        8.200 -3.500 3.100,
        8.200 -3.524 3.255,
        8.200 -3.595 3.394,
        8.200 -3.706 3.505,
        8.200 -3.845 3.576,
        8.200 -4.000 3.600,
        8.200 -4.155 3.576,
        8.200 -4.294 3.505,
        8.200 -4.405 3.394,
        8.200 -4.476 3.255,
        8.200 -4.500 3.100,
        8.200 -4.476 2.945,
        8.200 -4.405 2.806,
        8.200 -4.294 2.695,
        8.200 -4.155 2.624,
        8.200 -4.000 2.600,
        8.200 -3.845 2.624,
        8.200 -3.706 2.695,
        8.200 -3.595 2.806,
        8.200 -3.524 2.945
      ]
    }
    coordIndex [
      0, 1, 21, 20, -1,
        1, 2, 22, 21, -1,
        2, 3, 23, 22, -1,
        3, 4, 24, 23, -1,
        4, 5, 25, 24, -1,
        5, 6, 26, 25, -1,
        6, 7, 27, 26, -1,
        7, 8, 28, 27, -1,
        8, 9, 29, 28, -1,
        9, 10, 30, 29, -1,
        10, 11, 31, 30, -1,
        11, 12, 32, 31, -1,
        12, 13, 33, 32, -1,
        13, 14, 34, 33, -1,
        14, 15, 35, 34, -1,
        15, 16, 36, 35, -1,
        16, 17, 37, 36, -1,
        17, 18, 38, 37, -1,
        18, 19, 39, 38, -1,
        19, 0, 20, 39, -1,
        19, 18, 17, 16, 15, 14, 13, 12, 11, 10, 9, 8, 7, 6, 5, 4, 3, 2, 1, 0, -1,
        20, 21, 22, 23, 24, 25, 26, 27, 28, 29, 30, 31, 32, 33, 34, 35, 36, 37, 38, 39, -1
    ]
  }
},
Shape {
  appearance Appearance {
    material Material {
      diffuseColor 0.880 0.740 0.200
      specularColor 0.920 0.880 0.550
      shininess 0.90
    }
  }
  geometry IndexedFaceSet {
    solid FALSE
    coord Coordinate {
      point [
        6.600 -3.250 3.100,
        6.600 -3.287 3.332,
        6.600 -3.393 3.541,
        6.600 -3.559 3.707,
        6.600 -3.768 3.813,
        6.600 -4.000 3.850,
        6.600 -4.232 3.813,
        6.600 -4.441 3.707,
        6.600 -4.607 3.541,
        6.600 -4.713 3.332,
        6.600 -4.750 3.100,
        6.600 -4.713 2.868,
        6.600 -4.607 2.659,
        6.600 -4.441 2.493,
        6.600 -4.232 2.387,
        6.600 -4.000 2.350,
        6.600 -3.768 2.387,
        6.600 -3.559 2.493,
        6.600 -3.393 2.659,
        6.600 -3.287 2.868,
        7.000 -3.250 3.100,
        7.000 -3.287 3.332,
        7.000 -3.393 3.541,
        7.000 -3.559 3.707,
        7.000 -3.768 3.813,
        7.000 -4.000 3.850,
        7.000 -4.232 3.813,
        7.000 -4.441 3.707,
        7.000 -4.607 3.541,
        7.000 -4.713 3.332,
        7.000 -4.750 3.100,
        7.000 -4.713 2.868,
        7.000 -4.607 2.659,
        7.000 -4.441 2.493,
        7.000 -4.232 2.387,
        7.000 -4.000 2.350,
        7.000 -3.768 2.387,
        7.000 -3.559 2.493,
        7.000 -3.393 2.659,
        7.000 -3.287 2.868
      ]
    }
    coordIndex [
      0, 1, 21, 20, -1,
        1, 2, 22, 21, -1,
        2, 3, 23, 22, -1,
        3, 4, 24, 23, -1,
        4, 5, 25, 24, -1,
        5, 6, 26, 25, -1,
        6, 7, 27, 26, -1,
        7, 8, 28, 27, -1,
        8, 9, 29, 28, -1,
        9, 10, 30, 29, -1,
        10, 11, 31, 30, -1,
        11, 12, 32, 31, -1,
        12, 13, 33, 32, -1,
        13, 14, 34, 33, -1,
        14, 15, 35, 34, -1,
        15, 16, 36, 35, -1,
        16, 17, 37, 36, -1,
        17, 18, 38, 37, -1,
        18, 19, 39, 38, -1,
        19, 0, 20, 39, -1,
        19, 18, 17, 16, 15, 14, 13, 12, 11, 10, 9, 8, 7, 6, 5, 4, 3, 2, 1, 0, -1,
        20, 21, 22, 23, 24, 25, 26, 27, 28, 29, 30, 31, 32, 33, 34, 35, 36, 37, 38, 39, -1
    ]
  }
},
Shape {
  appearance Appearance {
    material Material {
      diffuseColor 0.900 0.780 0.240
      specularColor 0.960 0.900 0.600
      shininess 0.90
    }
  }
  geometry IndexedFaceSet {
    solid FALSE
    coord Coordinate {
      point [
        -1.000 -4.400 0.000,
        1.400 -4.400 0.000,
        1.400 -3.600 0.000,
        -1.000 -3.600 0.000,
        -1.000 -4.400 0.400,
        1.400 -4.400 0.400,
        1.400 -3.600 0.400,
        -1.000 -3.600 0.400
      ]
    }
    coordIndex [
      0, 3, 2, 1, -1,
        4, 5, 6, 7, -1,
        0, 1, 5, 4, -1,
        1, 2, 6, 5, -1,
        2, 3, 7, 6, -1,
        3, 0, 4, 7, -1
    ]
  }
},
Shape {
  appearance Appearance {
    material Material {
      diffuseColor 0.860 0.740 0.220
      specularColor 0.940 0.880 0.550
      shininess 0.88
    }
  }
  geometry IndexedFaceSet {
    solid FALSE
    coord Coordinate {
      point [
        0.400 -4.325 0.100,
        1.600 -4.325 0.100,
        1.600 -3.675 0.100,
        0.400 -3.675 0.100,
        0.400 -4.325 1.900,
        1.600 -4.325 1.900,
        1.600 -3.675 1.900,
        0.400 -3.675 1.900
      ]
    }
    coordIndex [
      0, 3, 2, 1, -1,
        4, 5, 6, 7, -1,
        0, 1, 5, 4, -1,
        1, 2, 6, 5, -1,
        2, 3, 7, 6, -1,
        3, 0, 4, 7, -1
    ]
  }
},
Shape {
  appearance Appearance {
    material Material {
      diffuseColor 0.940 0.800 0.240
      specularColor 0.980 0.940 0.650
      shininess 0.96
    }
  }
  geometry IndexedFaceSet {
    solid FALSE
    coord Coordinate {
      point [
        6.600 -1.900 3.100,
        6.600 -1.924 3.255,
        6.600 -1.995 3.394,
        6.600 -2.106 3.505,
        6.600 -2.245 3.576,
        6.600 -2.400 3.600,
        6.600 -2.555 3.576,
        6.600 -2.694 3.505,
        6.600 -2.805 3.394,
        6.600 -2.876 3.255,
        6.600 -2.900 3.100,
        6.600 -2.876 2.945,
        6.600 -2.805 2.806,
        6.600 -2.694 2.695,
        6.600 -2.555 2.624,
        6.600 -2.400 2.600,
        6.600 -2.245 2.624,
        6.600 -2.106 2.695,
        6.600 -1.995 2.806,
        6.600 -1.924 2.945,
        8.200 -1.900 3.100,
        8.200 -1.924 3.255,
        8.200 -1.995 3.394,
        8.200 -2.106 3.505,
        8.200 -2.245 3.576,
        8.200 -2.400 3.600,
        8.200 -2.555 3.576,
        8.200 -2.694 3.505,
        8.200 -2.805 3.394,
        8.200 -2.876 3.255,
        8.200 -2.900 3.100,
        8.200 -2.876 2.945,
        8.200 -2.805 2.806,
        8.200 -2.694 2.695,
        8.200 -2.555 2.624,
        8.200 -2.400 2.600,
        8.200 -2.245 2.624,
        8.200 -2.106 2.695,
        8.200 -1.995 2.806,
        8.200 -1.924 2.945
      ]
    }
    coordIndex [
      0, 1, 21, 20, -1,
        1, 2, 22, 21, -1,
        2, 3, 23, 22, -1,
        3, 4, 24, 23, -1,
        4, 5, 25, 24, -1,
        5, 6, 26, 25, -1,
        6, 7, 27, 26, -1,
        7, 8, 28, 27, -1,
        8, 9, 29, 28, -1,
        9, 10, 30, 29, -1,
        10, 11, 31, 30, -1,
        11, 12, 32, 31, -1,
        12, 13, 33, 32, -1,
        13, 14, 34, 33, -1,
        14, 15, 35, 34, -1,
        15, 16, 36, 35, -1,
        16, 17, 37, 36, -1,
        17, 18, 38, 37, -1,
        18, 19, 39, 38, -1,
        19, 0, 20, 39, -1,
        19, 18, 17, 16, 15, 14, 13, 12, 11, 10, 9, 8, 7, 6, 5, 4, 3, 2, 1, 0, -1,
        20, 21, 22, 23, 24, 25, 26, 27, 28, 29, 30, 31, 32, 33, 34, 35, 36, 37, 38, 39, -1
    ]
  }
},
Shape {
  appearance Appearance {
    material Material {
      diffuseColor 0.880 0.740 0.200
      specularColor 0.920 0.880 0.550
      shininess 0.90
    }
  }
  geometry IndexedFaceSet {
    solid FALSE
    coord Coordinate {
      point [
        6.600 -1.650 3.100,
        6.600 -1.687 3.332,
        6.600 -1.793 3.541,
        6.600 -1.959 3.707,
        6.600 -2.168 3.813,
        6.600 -2.400 3.850,
        6.600 -2.632 3.813,
        6.600 -2.841 3.707,
        6.600 -3.007 3.541,
        6.600 -3.113 3.332,
        6.600 -3.150 3.100,
        6.600 -3.113 2.868,
        6.600 -3.007 2.659,
        6.600 -2.841 2.493,
        6.600 -2.632 2.387,
        6.600 -2.400 2.350,
        6.600 -2.168 2.387,
        6.600 -1.959 2.493,
        6.600 -1.793 2.659,
        6.600 -1.687 2.868,
        7.000 -1.650 3.100,
        7.000 -1.687 3.332,
        7.000 -1.793 3.541,
        7.000 -1.959 3.707,
        7.000 -2.168 3.813,
        7.000 -2.400 3.850,
        7.000 -2.632 3.813,
        7.000 -2.841 3.707,
        7.000 -3.007 3.541,
        7.000 -3.113 3.332,
        7.000 -3.150 3.100,
        7.000 -3.113 2.868,
        7.000 -3.007 2.659,
        7.000 -2.841 2.493,
        7.000 -2.632 2.387,
        7.000 -2.400 2.350,
        7.000 -2.168 2.387,
        7.000 -1.959 2.493,
        7.000 -1.793 2.659,
        7.000 -1.687 2.868
      ]
    }
    coordIndex [
      0, 1, 21, 20, -1,
        1, 2, 22, 21, -1,
        2, 3, 23, 22, -1,
        3, 4, 24, 23, -1,
        4, 5, 25, 24, -1,
        5, 6, 26, 25, -1,
        6, 7, 27, 26, -1,
        7, 8, 28, 27, -1,
        8, 9, 29, 28, -1,
        9, 10, 30, 29, -1,
        10, 11, 31, 30, -1,
        11, 12, 32, 31, -1,
        12, 13, 33, 32, -1,
        13, 14, 34, 33, -1,
        14, 15, 35, 34, -1,
        15, 16, 36, 35, -1,
        16, 17, 37, 36, -1,
        17, 18, 38, 37, -1,
        18, 19, 39, 38, -1,
        19, 0, 20, 39, -1,
        19, 18, 17, 16, 15, 14, 13, 12, 11, 10, 9, 8, 7, 6, 5, 4, 3, 2, 1, 0, -1,
        20, 21, 22, 23, 24, 25, 26, 27, 28, 29, 30, 31, 32, 33, 34, 35, 36, 37, 38, 39, -1
    ]
  }
},
Shape {
  appearance Appearance {
    material Material {
      diffuseColor 0.900 0.780 0.240
      specularColor 0.960 0.900 0.600
      shininess 0.90
    }
  }
  geometry IndexedFaceSet {
    solid FALSE
    coord Coordinate {
      point [
        -1.000 -2.800 0.000,
        1.400 -2.800 0.000,
        1.400 -2.000 0.000,
        -1.000 -2.000 0.000,
        -1.000 -2.800 0.400,
        1.400 -2.800 0.400,
        1.400 -2.000 0.400,
        -1.000 -2.000 0.400
      ]
    }
    coordIndex [
      0, 3, 2, 1, -1,
        4, 5, 6, 7, -1,
        0, 1, 5, 4, -1,
        1, 2, 6, 5, -1,
        2, 3, 7, 6, -1,
        3, 0, 4, 7, -1
    ]
  }
},
Shape {
  appearance Appearance {
    material Material {
      diffuseColor 0.860 0.740 0.220
      specularColor 0.940 0.880 0.550
      shininess 0.88
    }
  }
  geometry IndexedFaceSet {
    solid FALSE
    coord Coordinate {
      point [
        0.400 -2.725 0.100,
        1.600 -2.725 0.100,
        1.600 -2.075 0.100,
        0.400 -2.075 0.100,
        0.400 -2.725 1.900,
        1.600 -2.725 1.900,
        1.600 -2.075 1.900,
        0.400 -2.075 1.900
      ]
    }
    coordIndex [
      0, 3, 2, 1, -1,
        4, 5, 6, 7, -1,
        0, 1, 5, 4, -1,
        1, 2, 6, 5, -1,
        2, 3, 7, 6, -1,
        3, 0, 4, 7, -1
    ]
  }
},
Shape {
  appearance Appearance {
    material Material {
      diffuseColor 0.940 0.800 0.240
      specularColor 0.980 0.940 0.650
      shininess 0.96
    }
  }
  geometry IndexedFaceSet {
    solid FALSE
    coord Coordinate {
      point [
        6.600 -0.300 3.100,
        6.600 -0.324 3.255,
        6.600 -0.395 3.394,
        6.600 -0.506 3.505,
        6.600 -0.645 3.576,
        6.600 -0.800 3.600,
        6.600 -0.955 3.576,
        6.600 -1.094 3.505,
        6.600 -1.205 3.394,
        6.600 -1.276 3.255,
        6.600 -1.300 3.100,
        6.600 -1.276 2.945,
        6.600 -1.205 2.806,
        6.600 -1.094 2.695,
        6.600 -0.955 2.624,
        6.600 -0.800 2.600,
        6.600 -0.645 2.624,
        6.600 -0.506 2.695,
        6.600 -0.395 2.806,
        6.600 -0.324 2.945,
        8.200 -0.300 3.100,
        8.200 -0.324 3.255,
        8.200 -0.395 3.394,
        8.200 -0.506 3.505,
        8.200 -0.645 3.576,
        8.200 -0.800 3.600,
        8.200 -0.955 3.576,
        8.200 -1.094 3.505,
        8.200 -1.205 3.394,
        8.200 -1.276 3.255,
        8.200 -1.300 3.100,
        8.200 -1.276 2.945,
        8.200 -1.205 2.806,
        8.200 -1.094 2.695,
        8.200 -0.955 2.624,
        8.200 -0.800 2.600,
        8.200 -0.645 2.624,
        8.200 -0.506 2.695,
        8.200 -0.395 2.806,
        8.200 -0.324 2.945
      ]
    }
    coordIndex [
      0, 1, 21, 20, -1,
        1, 2, 22, 21, -1,
        2, 3, 23, 22, -1,
        3, 4, 24, 23, -1,
        4, 5, 25, 24, -1,
        5, 6, 26, 25, -1,
        6, 7, 27, 26, -1,
        7, 8, 28, 27, -1,
        8, 9, 29, 28, -1,
        9, 10, 30, 29, -1,
        10, 11, 31, 30, -1,
        11, 12, 32, 31, -1,
        12, 13, 33, 32, -1,
        13, 14, 34, 33, -1,
        14, 15, 35, 34, -1,
        15, 16, 36, 35, -1,
        16, 17, 37, 36, -1,
        17, 18, 38, 37, -1,
        18, 19, 39, 38, -1,
        19, 0, 20, 39, -1,
        19, 18, 17, 16, 15, 14, 13, 12, 11, 10, 9, 8, 7, 6, 5, 4, 3, 2, 1, 0, -1,
        20, 21, 22, 23, 24, 25, 26, 27, 28, 29, 30, 31, 32, 33, 34, 35, 36, 37, 38, 39, -1
    ]
  }
},
Shape {
  appearance Appearance {
    material Material {
      diffuseColor 0.880 0.740 0.200
      specularColor 0.920 0.880 0.550
      shininess 0.90
    }
  }
  geometry IndexedFaceSet {
    solid FALSE
    coord Coordinate {
      point [
        6.600 -0.050 3.100,
        6.600 -0.087 3.332,
        6.600 -0.193 3.541,
        6.600 -0.359 3.707,
        6.600 -0.568 3.813,
        6.600 -0.800 3.850,
        6.600 -1.032 3.813,
        6.600 -1.241 3.707,
        6.600 -1.407 3.541,
        6.600 -1.513 3.332,
        6.600 -1.550 3.100,
        6.600 -1.513 2.868,
        6.600 -1.407 2.659,
        6.600 -1.241 2.493,
        6.600 -1.032 2.387,
        6.600 -0.800 2.350,
        6.600 -0.568 2.387,
        6.600 -0.359 2.493,
        6.600 -0.193 2.659,
        6.600 -0.087 2.868,
        7.000 -0.050 3.100,
        7.000 -0.087 3.332,
        7.000 -0.193 3.541,
        7.000 -0.359 3.707,
        7.000 -0.568 3.813,
        7.000 -0.800 3.850,
        7.000 -1.032 3.813,
        7.000 -1.241 3.707,
        7.000 -1.407 3.541,
        7.000 -1.513 3.332,
        7.000 -1.550 3.100,
        7.000 -1.513 2.868,
        7.000 -1.407 2.659,
        7.000 -1.241 2.493,
        7.000 -1.032 2.387,
        7.000 -0.800 2.350,
        7.000 -0.568 2.387,
        7.000 -0.359 2.493,
        7.000 -0.193 2.659,
        7.000 -0.087 2.868
      ]
    }
    coordIndex [
      0, 1, 21, 20, -1,
        1, 2, 22, 21, -1,
        2, 3, 23, 22, -1,
        3, 4, 24, 23, -1,
        4, 5, 25, 24, -1,
        5, 6, 26, 25, -1,
        6, 7, 27, 26, -1,
        7, 8, 28, 27, -1,
        8, 9, 29, 28, -1,
        9, 10, 30, 29, -1,
        10, 11, 31, 30, -1,
        11, 12, 32, 31, -1,
        12, 13, 33, 32, -1,
        13, 14, 34, 33, -1,
        14, 15, 35, 34, -1,
        15, 16, 36, 35, -1,
        16, 17, 37, 36, -1,
        17, 18, 38, 37, -1,
        18, 19, 39, 38, -1,
        19, 0, 20, 39, -1,
        19, 18, 17, 16, 15, 14, 13, 12, 11, 10, 9, 8, 7, 6, 5, 4, 3, 2, 1, 0, -1,
        20, 21, 22, 23, 24, 25, 26, 27, 28, 29, 30, 31, 32, 33, 34, 35, 36, 37, 38, 39, -1
    ]
  }
},
Shape {
  appearance Appearance {
    material Material {
      diffuseColor 0.900 0.780 0.240
      specularColor 0.960 0.900 0.600
      shininess 0.90
    }
  }
  geometry IndexedFaceSet {
    solid FALSE
    coord Coordinate {
      point [
        -1.000 -1.200 0.000,
        1.400 -1.200 0.000,
        1.400 -0.400 0.000,
        -1.000 -0.400 0.000,
        -1.000 -1.200 0.400,
        1.400 -1.200 0.400,
        1.400 -0.400 0.400,
        -1.000 -0.400 0.400
      ]
    }
    coordIndex [
      0, 3, 2, 1, -1,
        4, 5, 6, 7, -1,
        0, 1, 5, 4, -1,
        1, 2, 6, 5, -1,
        2, 3, 7, 6, -1,
        3, 0, 4, 7, -1
    ]
  }
},
Shape {
  appearance Appearance {
    material Material {
      diffuseColor 0.860 0.740 0.220
      specularColor 0.940 0.880 0.550
      shininess 0.88
    }
  }
  geometry IndexedFaceSet {
    solid FALSE
    coord Coordinate {
      point [
        0.400 -1.125 0.100,
        1.600 -1.125 0.100,
        1.600 -0.475 0.100,
        0.400 -0.475 0.100,
        0.400 -1.125 1.900,
        1.600 -1.125 1.900,
        1.600 -0.475 1.900,
        0.400 -0.475 1.900
      ]
    }
    coordIndex [
      0, 3, 2, 1, -1,
        4, 5, 6, 7, -1,
        0, 1, 5, 4, -1,
        1, 2, 6, 5, -1,
        2, 3, 7, 6, -1,
        3, 0, 4, 7, -1
    ]
  }
},
Shape {
  appearance Appearance {
    material Material {
      diffuseColor 0.940 0.800 0.240
      specularColor 0.980 0.940 0.650
      shininess 0.96
    }
  }
  geometry IndexedFaceSet {
    solid FALSE
    coord Coordinate {
      point [
        6.600 1.300 3.100,
        6.600 1.276 3.255,
        6.600 1.205 3.394,
        6.600 1.094 3.505,
        6.600 0.955 3.576,
        6.600 0.800 3.600,
        6.600 0.645 3.576,
        6.600 0.506 3.505,
        6.600 0.395 3.394,
        6.600 0.324 3.255,
        6.600 0.300 3.100,
        6.600 0.324 2.945,
        6.600 0.395 2.806,
        6.600 0.506 2.695,
        6.600 0.645 2.624,
        6.600 0.800 2.600,
        6.600 0.955 2.624,
        6.600 1.094 2.695,
        6.600 1.205 2.806,
        6.600 1.276 2.945,
        8.200 1.300 3.100,
        8.200 1.276 3.255,
        8.200 1.205 3.394,
        8.200 1.094 3.505,
        8.200 0.955 3.576,
        8.200 0.800 3.600,
        8.200 0.645 3.576,
        8.200 0.506 3.505,
        8.200 0.395 3.394,
        8.200 0.324 3.255,
        8.200 0.300 3.100,
        8.200 0.324 2.945,
        8.200 0.395 2.806,
        8.200 0.506 2.695,
        8.200 0.645 2.624,
        8.200 0.800 2.600,
        8.200 0.955 2.624,
        8.200 1.094 2.695,
        8.200 1.205 2.806,
        8.200 1.276 2.945
      ]
    }
    coordIndex [
      0, 1, 21, 20, -1,
        1, 2, 22, 21, -1,
        2, 3, 23, 22, -1,
        3, 4, 24, 23, -1,
        4, 5, 25, 24, -1,
        5, 6, 26, 25, -1,
        6, 7, 27, 26, -1,
        7, 8, 28, 27, -1,
        8, 9, 29, 28, -1,
        9, 10, 30, 29, -1,
        10, 11, 31, 30, -1,
        11, 12, 32, 31, -1,
        12, 13, 33, 32, -1,
        13, 14, 34, 33, -1,
        14, 15, 35, 34, -1,
        15, 16, 36, 35, -1,
        16, 17, 37, 36, -1,
        17, 18, 38, 37, -1,
        18, 19, 39, 38, -1,
        19, 0, 20, 39, -1,
        19, 18, 17, 16, 15, 14, 13, 12, 11, 10, 9, 8, 7, 6, 5, 4, 3, 2, 1, 0, -1,
        20, 21, 22, 23, 24, 25, 26, 27, 28, 29, 30, 31, 32, 33, 34, 35, 36, 37, 38, 39, -1
    ]
  }
},
Shape {
  appearance Appearance {
    material Material {
      diffuseColor 0.880 0.740 0.200
      specularColor 0.920 0.880 0.550
      shininess 0.90
    }
  }
  geometry IndexedFaceSet {
    solid FALSE
    coord Coordinate {
      point [
        6.600 1.550 3.100,
        6.600 1.513 3.332,
        6.600 1.407 3.541,
        6.600 1.241 3.707,
        6.600 1.032 3.813,
        6.600 0.800 3.850,
        6.600 0.568 3.813,
        6.600 0.359 3.707,
        6.600 0.193 3.541,
        6.600 0.087 3.332,
        6.600 0.050 3.100,
        6.600 0.087 2.868,
        6.600 0.193 2.659,
        6.600 0.359 2.493,
        6.600 0.568 2.387,
        6.600 0.800 2.350,
        6.600 1.032 2.387,
        6.600 1.241 2.493,
        6.600 1.407 2.659,
        6.600 1.513 2.868,
        7.000 1.550 3.100,
        7.000 1.513 3.332,
        7.000 1.407 3.541,
        7.000 1.241 3.707,
        7.000 1.032 3.813,
        7.000 0.800 3.850,
        7.000 0.568 3.813,
        7.000 0.359 3.707,
        7.000 0.193 3.541,
        7.000 0.087 3.332,
        7.000 0.050 3.100,
        7.000 0.087 2.868,
        7.000 0.193 2.659,
        7.000 0.359 2.493,
        7.000 0.568 2.387,
        7.000 0.800 2.350,
        7.000 1.032 2.387,
        7.000 1.241 2.493,
        7.000 1.407 2.659,
        7.000 1.513 2.868
      ]
    }
    coordIndex [
      0, 1, 21, 20, -1,
        1, 2, 22, 21, -1,
        2, 3, 23, 22, -1,
        3, 4, 24, 23, -1,
        4, 5, 25, 24, -1,
        5, 6, 26, 25, -1,
        6, 7, 27, 26, -1,
        7, 8, 28, 27, -1,
        8, 9, 29, 28, -1,
        9, 10, 30, 29, -1,
        10, 11, 31, 30, -1,
        11, 12, 32, 31, -1,
        12, 13, 33, 32, -1,
        13, 14, 34, 33, -1,
        14, 15, 35, 34, -1,
        15, 16, 36, 35, -1,
        16, 17, 37, 36, -1,
        17, 18, 38, 37, -1,
        18, 19, 39, 38, -1,
        19, 0, 20, 39, -1,
        19, 18, 17, 16, 15, 14, 13, 12, 11, 10, 9, 8, 7, 6, 5, 4, 3, 2, 1, 0, -1,
        20, 21, 22, 23, 24, 25, 26, 27, 28, 29, 30, 31, 32, 33, 34, 35, 36, 37, 38, 39, -1
    ]
  }
},
Shape {
  appearance Appearance {
    material Material {
      diffuseColor 0.900 0.780 0.240
      specularColor 0.960 0.900 0.600
      shininess 0.90
    }
  }
  geometry IndexedFaceSet {
    solid FALSE
    coord Coordinate {
      point [
        -1.000 0.400 0.000,
        1.400 0.400 0.000,
        1.400 1.200 0.000,
        -1.000 1.200 0.000,
        -1.000 0.400 0.400,
        1.400 0.400 0.400,
        1.400 1.200 0.400,
        -1.000 1.200 0.400
      ]
    }
    coordIndex [
      0, 3, 2, 1, -1,
        4, 5, 6, 7, -1,
        0, 1, 5, 4, -1,
        1, 2, 6, 5, -1,
        2, 3, 7, 6, -1,
        3, 0, 4, 7, -1
    ]
  }
},
Shape {
  appearance Appearance {
    material Material {
      diffuseColor 0.860 0.740 0.220
      specularColor 0.940 0.880 0.550
      shininess 0.88
    }
  }
  geometry IndexedFaceSet {
    solid FALSE
    coord Coordinate {
      point [
        0.400 0.475 0.100,
        1.600 0.475 0.100,
        1.600 1.125 0.100,
        0.400 1.125 0.100,
        0.400 0.475 1.900,
        1.600 0.475 1.900,
        1.600 1.125 1.900,
        0.400 1.125 1.900
      ]
    }
    coordIndex [
      0, 3, 2, 1, -1,
        4, 5, 6, 7, -1,
        0, 1, 5, 4, -1,
        1, 2, 6, 5, -1,
        2, 3, 7, 6, -1,
        3, 0, 4, 7, -1
    ]
  }
},
Shape {
  appearance Appearance {
    material Material {
      diffuseColor 0.940 0.800 0.240
      specularColor 0.980 0.940 0.650
      shininess 0.96
    }
  }
  geometry IndexedFaceSet {
    solid FALSE
    coord Coordinate {
      point [
        6.600 2.900 3.100,
        6.600 2.876 3.255,
        6.600 2.805 3.394,
        6.600 2.694 3.505,
        6.600 2.555 3.576,
        6.600 2.400 3.600,
        6.600 2.245 3.576,
        6.600 2.106 3.505,
        6.600 1.995 3.394,
        6.600 1.924 3.255,
        6.600 1.900 3.100,
        6.600 1.924 2.945,
        6.600 1.995 2.806,
        6.600 2.106 2.695,
        6.600 2.245 2.624,
        6.600 2.400 2.600,
        6.600 2.555 2.624,
        6.600 2.694 2.695,
        6.600 2.805 2.806,
        6.600 2.876 2.945,
        8.200 2.900 3.100,
        8.200 2.876 3.255,
        8.200 2.805 3.394,
        8.200 2.694 3.505,
        8.200 2.555 3.576,
        8.200 2.400 3.600,
        8.200 2.245 3.576,
        8.200 2.106 3.505,
        8.200 1.995 3.394,
        8.200 1.924 3.255,
        8.200 1.900 3.100,
        8.200 1.924 2.945,
        8.200 1.995 2.806,
        8.200 2.106 2.695,
        8.200 2.245 2.624,
        8.200 2.400 2.600,
        8.200 2.555 2.624,
        8.200 2.694 2.695,
        8.200 2.805 2.806,
        8.200 2.876 2.945
      ]
    }
    coordIndex [
      0, 1, 21, 20, -1,
        1, 2, 22, 21, -1,
        2, 3, 23, 22, -1,
        3, 4, 24, 23, -1,
        4, 5, 25, 24, -1,
        5, 6, 26, 25, -1,
        6, 7, 27, 26, -1,
        7, 8, 28, 27, -1,
        8, 9, 29, 28, -1,
        9, 10, 30, 29, -1,
        10, 11, 31, 30, -1,
        11, 12, 32, 31, -1,
        12, 13, 33, 32, -1,
        13, 14, 34, 33, -1,
        14, 15, 35, 34, -1,
        15, 16, 36, 35, -1,
        16, 17, 37, 36, -1,
        17, 18, 38, 37, -1,
        18, 19, 39, 38, -1,
        19, 0, 20, 39, -1,
        19, 18, 17, 16, 15, 14, 13, 12, 11, 10, 9, 8, 7, 6, 5, 4, 3, 2, 1, 0, -1,
        20, 21, 22, 23, 24, 25, 26, 27, 28, 29, 30, 31, 32, 33, 34, 35, 36, 37, 38, 39, -1
    ]
  }
},
Shape {
  appearance Appearance {
    material Material {
      diffuseColor 0.880 0.740 0.200
      specularColor 0.920 0.880 0.550
      shininess 0.90
    }
  }
  geometry IndexedFaceSet {
    solid FALSE
    coord Coordinate {
      point [
        6.600 3.150 3.100,
        6.600 3.113 3.332,
        6.600 3.007 3.541,
        6.600 2.841 3.707,
        6.600 2.632 3.813,
        6.600 2.400 3.850,
        6.600 2.168 3.813,
        6.600 1.959 3.707,
        6.600 1.793 3.541,
        6.600 1.687 3.332,
        6.600 1.650 3.100,
        6.600 1.687 2.868,
        6.600 1.793 2.659,
        6.600 1.959 2.493,
        6.600 2.168 2.387,
        6.600 2.400 2.350,
        6.600 2.632 2.387,
        6.600 2.841 2.493,
        6.600 3.007 2.659,
        6.600 3.113 2.868,
        7.000 3.150 3.100,
        7.000 3.113 3.332,
        7.000 3.007 3.541,
        7.000 2.841 3.707,
        7.000 2.632 3.813,
        7.000 2.400 3.850,
        7.000 2.168 3.813,
        7.000 1.959 3.707,
        7.000 1.793 3.541,
        7.000 1.687 3.332,
        7.000 1.650 3.100,
        7.000 1.687 2.868,
        7.000 1.793 2.659,
        7.000 1.959 2.493,
        7.000 2.168 2.387,
        7.000 2.400 2.350,
        7.000 2.632 2.387,
        7.000 2.841 2.493,
        7.000 3.007 2.659,
        7.000 3.113 2.868
      ]
    }
    coordIndex [
      0, 1, 21, 20, -1,
        1, 2, 22, 21, -1,
        2, 3, 23, 22, -1,
        3, 4, 24, 23, -1,
        4, 5, 25, 24, -1,
        5, 6, 26, 25, -1,
        6, 7, 27, 26, -1,
        7, 8, 28, 27, -1,
        8, 9, 29, 28, -1,
        9, 10, 30, 29, -1,
        10, 11, 31, 30, -1,
        11, 12, 32, 31, -1,
        12, 13, 33, 32, -1,
        13, 14, 34, 33, -1,
        14, 15, 35, 34, -1,
        15, 16, 36, 35, -1,
        16, 17, 37, 36, -1,
        17, 18, 38, 37, -1,
        18, 19, 39, 38, -1,
        19, 0, 20, 39, -1,
        19, 18, 17, 16, 15, 14, 13, 12, 11, 10, 9, 8, 7, 6, 5, 4, 3, 2, 1, 0, -1,
        20, 21, 22, 23, 24, 25, 26, 27, 28, 29, 30, 31, 32, 33, 34, 35, 36, 37, 38, 39, -1
    ]
  }
},
Shape {
  appearance Appearance {
    material Material {
      diffuseColor 0.900 0.780 0.240
      specularColor 0.960 0.900 0.600
      shininess 0.90
    }
  }
  geometry IndexedFaceSet {
    solid FALSE
    coord Coordinate {
      point [
        -1.000 2.000 0.000,
        1.400 2.000 0.000,
        1.400 2.800 0.000,
        -1.000 2.800 0.000,
        -1.000 2.000 0.400,
        1.400 2.000 0.400,
        1.400 2.800 0.400,
        -1.000 2.800 0.400
      ]
    }
    coordIndex [
      0, 3, 2, 1, -1,
        4, 5, 6, 7, -1,
        0, 1, 5, 4, -1,
        1, 2, 6, 5, -1,
        2, 3, 7, 6, -1,
        3, 0, 4, 7, -1
    ]
  }
},
Shape {
  appearance Appearance {
    material Material {
      diffuseColor 0.860 0.740 0.220
      specularColor 0.940 0.880 0.550
      shininess 0.88
    }
  }
  geometry IndexedFaceSet {
    solid FALSE
    coord Coordinate {
      point [
        0.400 2.075 0.100,
        1.600 2.075 0.100,
        1.600 2.725 0.100,
        0.400 2.725 0.100,
        0.400 2.075 1.900,
        1.600 2.075 1.900,
        1.600 2.725 1.900,
        0.400 2.725 1.900
      ]
    }
    coordIndex [
      0, 3, 2, 1, -1,
        4, 5, 6, 7, -1,
        0, 1, 5, 4, -1,
        1, 2, 6, 5, -1,
        2, 3, 7, 6, -1,
        3, 0, 4, 7, -1
    ]
  }
},
Shape {
  appearance Appearance {
    material Material {
      diffuseColor 0.940 0.800 0.240
      specularColor 0.980 0.940 0.650
      shininess 0.96
    }
  }
  geometry IndexedFaceSet {
    solid FALSE
    coord Coordinate {
      point [
        6.600 4.500 3.100,
        6.600 4.476 3.255,
        6.600 4.405 3.394,
        6.600 4.294 3.505,
        6.600 4.155 3.576,
        6.600 4.000 3.600,
        6.600 3.845 3.576,
        6.600 3.706 3.505,
        6.600 3.595 3.394,
        6.600 3.524 3.255,
        6.600 3.500 3.100,
        6.600 3.524 2.945,
        6.600 3.595 2.806,
        6.600 3.706 2.695,
        6.600 3.845 2.624,
        6.600 4.000 2.600,
        6.600 4.155 2.624,
        6.600 4.294 2.695,
        6.600 4.405 2.806,
        6.600 4.476 2.945,
        8.200 4.500 3.100,
        8.200 4.476 3.255,
        8.200 4.405 3.394,
        8.200 4.294 3.505,
        8.200 4.155 3.576,
        8.200 4.000 3.600,
        8.200 3.845 3.576,
        8.200 3.706 3.505,
        8.200 3.595 3.394,
        8.200 3.524 3.255,
        8.200 3.500 3.100,
        8.200 3.524 2.945,
        8.200 3.595 2.806,
        8.200 3.706 2.695,
        8.200 3.845 2.624,
        8.200 4.000 2.600,
        8.200 4.155 2.624,
        8.200 4.294 2.695,
        8.200 4.405 2.806,
        8.200 4.476 2.945
      ]
    }
    coordIndex [
      0, 1, 21, 20, -1,
        1, 2, 22, 21, -1,
        2, 3, 23, 22, -1,
        3, 4, 24, 23, -1,
        4, 5, 25, 24, -1,
        5, 6, 26, 25, -1,
        6, 7, 27, 26, -1,
        7, 8, 28, 27, -1,
        8, 9, 29, 28, -1,
        9, 10, 30, 29, -1,
        10, 11, 31, 30, -1,
        11, 12, 32, 31, -1,
        12, 13, 33, 32, -1,
        13, 14, 34, 33, -1,
        14, 15, 35, 34, -1,
        15, 16, 36, 35, -1,
        16, 17, 37, 36, -1,
        17, 18, 38, 37, -1,
        18, 19, 39, 38, -1,
        19, 0, 20, 39, -1,
        19, 18, 17, 16, 15, 14, 13, 12, 11, 10, 9, 8, 7, 6, 5, 4, 3, 2, 1, 0, -1,
        20, 21, 22, 23, 24, 25, 26, 27, 28, 29, 30, 31, 32, 33, 34, 35, 36, 37, 38, 39, -1
    ]
  }
},
Shape {
  appearance Appearance {
    material Material {
      diffuseColor 0.880 0.740 0.200
      specularColor 0.920 0.880 0.550
      shininess 0.90
    }
  }
  geometry IndexedFaceSet {
    solid FALSE
    coord Coordinate {
      point [
        6.600 4.750 3.100,
        6.600 4.713 3.332,
        6.600 4.607 3.541,
        6.600 4.441 3.707,
        6.600 4.232 3.813,
        6.600 4.000 3.850,
        6.600 3.768 3.813,
        6.600 3.559 3.707,
        6.600 3.393 3.541,
        6.600 3.287 3.332,
        6.600 3.250 3.100,
        6.600 3.287 2.868,
        6.600 3.393 2.659,
        6.600 3.559 2.493,
        6.600 3.768 2.387,
        6.600 4.000 2.350,
        6.600 4.232 2.387,
        6.600 4.441 2.493,
        6.600 4.607 2.659,
        6.600 4.713 2.868,
        7.000 4.750 3.100,
        7.000 4.713 3.332,
        7.000 4.607 3.541,
        7.000 4.441 3.707,
        7.000 4.232 3.813,
        7.000 4.000 3.850,
        7.000 3.768 3.813,
        7.000 3.559 3.707,
        7.000 3.393 3.541,
        7.000 3.287 3.332,
        7.000 3.250 3.100,
        7.000 3.287 2.868,
        7.000 3.393 2.659,
        7.000 3.559 2.493,
        7.000 3.768 2.387,
        7.000 4.000 2.350,
        7.000 4.232 2.387,
        7.000 4.441 2.493,
        7.000 4.607 2.659,
        7.000 4.713 2.868
      ]
    }
    coordIndex [
      0, 1, 21, 20, -1,
        1, 2, 22, 21, -1,
        2, 3, 23, 22, -1,
        3, 4, 24, 23, -1,
        4, 5, 25, 24, -1,
        5, 6, 26, 25, -1,
        6, 7, 27, 26, -1,
        7, 8, 28, 27, -1,
        8, 9, 29, 28, -1,
        9, 10, 30, 29, -1,
        10, 11, 31, 30, -1,
        11, 12, 32, 31, -1,
        12, 13, 33, 32, -1,
        13, 14, 34, 33, -1,
        14, 15, 35, 34, -1,
        15, 16, 36, 35, -1,
        16, 17, 37, 36, -1,
        17, 18, 38, 37, -1,
        18, 19, 39, 38, -1,
        19, 0, 20, 39, -1,
        19, 18, 17, 16, 15, 14, 13, 12, 11, 10, 9, 8, 7, 6, 5, 4, 3, 2, 1, 0, -1,
        20, 21, 22, 23, 24, 25, 26, 27, 28, 29, 30, 31, 32, 33, 34, 35, 36, 37, 38, 39, -1
    ]
  }
},
Shape {
  appearance Appearance {
    material Material {
      diffuseColor 0.900 0.780 0.240
      specularColor 0.960 0.900 0.600
      shininess 0.90
    }
  }
  geometry IndexedFaceSet {
    solid FALSE
    coord Coordinate {
      point [
        -1.000 3.600 0.000,
        1.400 3.600 0.000,
        1.400 4.400 0.000,
        -1.000 4.400 0.000,
        -1.000 3.600 0.400,
        1.400 3.600 0.400,
        1.400 4.400 0.400,
        -1.000 4.400 0.400
      ]
    }
    coordIndex [
      0, 3, 2, 1, -1,
        4, 5, 6, 7, -1,
        0, 1, 5, 4, -1,
        1, 2, 6, 5, -1,
        2, 3, 7, 6, -1,
        3, 0, 4, 7, -1
    ]
  }
},
Shape {
  appearance Appearance {
    material Material {
      diffuseColor 0.860 0.740 0.220
      specularColor 0.940 0.880 0.550
      shininess 0.88
    }
  }
  geometry IndexedFaceSet {
    solid FALSE
    coord Coordinate {
      point [
        0.400 3.675 0.100,
        1.600 3.675 0.100,
        1.600 4.325 0.100,
        0.400 4.325 0.100,
        0.400 3.675 1.900,
        1.600 3.675 1.900,
        1.600 4.325 1.900,
        0.400 4.325 1.900
      ]
    }
    coordIndex [
      0, 3, 2, 1, -1,
        4, 5, 6, 7, -1,
        0, 1, 5, 4, -1,
        1, 2, 6, 5, -1,
        2, 3, 7, 6, -1,
        3, 0, 4, 7, -1
    ]
  }
},
Shape {
  appearance Appearance {
    material Material {
      diffuseColor 0.820 0.820 0.850
      specularColor 0.950 0.950 0.950
      shininess 0.90
    }
  }
  geometry IndexedFaceSet {
    solid FALSE
    coord Coordinate {
      point [
        0.500 -7.700 0.000,
        2.500 -7.700 0.000,
        2.500 -6.300 0.000,
        0.500 -6.300 0.000,
        0.500 -7.700 1.200,
        2.500 -7.700 1.200,
        2.500 -6.300 1.200,
        0.500 -6.300 1.200
      ]
    }
    coordIndex [
      0, 3, 2, 1, -1,
        4, 5, 6, 7, -1,
        0, 1, 5, 4, -1,
        1, 2, 6, 5, -1,
        2, 3, 7, 6, -1,
        3, 0, 4, 7, -1
    ]
  }
},
Shape {
  appearance Appearance {
    material Material {
      diffuseColor 0.820 0.820 0.850
      specularColor 0.950 0.950 0.950
      shininess 0.90
    }
  }
  geometry IndexedFaceSet {
    solid FALSE
    coord Coordinate {
      point [
        0.500 6.300 0.000,
        2.500 6.300 0.000,
        2.500 7.700 0.000,
        0.500 7.700 0.000,
        0.500 6.300 1.200,
        2.500 6.300 1.200,
        2.500 7.700 1.200,
        0.500 7.700 1.200
      ]
    }
    coordIndex [
      0, 3, 2, 1, -1,
        4, 5, 6, 7, -1,
        0, 1, 5, 4, -1,
        1, 2, 6, 5, -1,
        2, 3, 7, 6, -1,
        3, 0, 4, 7, -1
    ]
  }
}
  ]
}
