#VRML V2.0 utf8
# NiceRF SA818-DMR 400-470MHz Transceiver Module (Horizontal 38.0 x 16.0 x 3.2 mm)
Group {
  children [
  Shape {
    appearance Appearance {
      material Material {
        diffuseColor 0.08 0.16 0.11
        specularColor 0.2 0.3 0.2
        shininess 0.3
      }
    }
    geometry IndexedFaceSet {
      solid TRUE
      coord Coordinate {
        point [
          -19.000 -8.000 0.000,
        19.000 -8.000 0.000,
        19.000 8.000 0.000,
        -19.000 8.000 0.000,
        -19.000 -8.000 0.800,
        19.000 -8.000 0.800,
        19.000 8.000 0.800,
        -19.000 8.000 0.800
        ]
      }
      coordIndex [
          0, 3, 2, 1, -1,
        4, 5, 6, 7, -1,
        0, 1, 5, 4, -1,
        1, 2, 6, 5, -1,
        2, 3, 7, 6, -1,
        3, 0, 4, 7, -1
      ]
    }
  },
  Shape {
    appearance Appearance {
      material Material {
        diffuseColor 0.78 0.80 0.84
        specularColor 0.92 0.94 0.96
        shininess 0.85
      }
    }
    geometry IndexedFaceSet {
      solid TRUE
      coord Coordinate {
        point [
          -16.500 -7.300 0.800,
        16.500 -7.300 0.800,
        16.500 7.300 0.800,
        -16.500 7.300 0.800,
        -16.500 -7.300 3.200,
        16.500 -7.300 3.200,
        16.500 7.300 3.200,
        -16.500 7.300 3.200
        ]
      }
      coordIndex [
          0, 3, 2, 1, -1,
        4, 5, 6, 7, -1,
        0, 1, 5, 4, -1,
        1, 2, 6, 5, -1,
        2, 3, 7, 6, -1,
        3, 0, 4, 7, -1
      ]
    }
  },
  Shape {
    appearance Appearance {
      material Material {
        diffuseColor 0.70 0.72 0.76
        specularColor 0.85 0.88 0.92
        shininess 0.8
      }
    }
    geometry IndexedFaceSet {
      solid TRUE
      coord Coordinate {
        point [
          -15.500 -6.500 3.200,
        15.500 -6.500 3.200,
        15.500 6.500 3.200,
        -15.500 6.500 3.200,
        -15.500 -6.500 3.250,
        15.500 -6.500 3.250,
        15.500 6.500 3.250,
        -15.500 6.500 3.250
        ]
      }
      coordIndex [
          0, 3, 2, 1, -1,
        4, 5, 6, 7, -1,
        0, 1, 5, 4, -1,
        1, 2, 6, 5, -1,
        2, 3, 7, 6, -1,
        3, 0, 4, 7, -1
      ]
    }
  },
  Shape {
    appearance Appearance {
      material Material {
        diffuseColor 0.32 0.34 0.38
        specularColor 0.4 0.4 0.4
        shininess 0.25
      }
    }
    geometry IndexedFaceSet {
      solid TRUE
      coord Coordinate {
        point [
          -13.000 -5.500 3.250,
        13.000 -5.500 3.250,
        13.000 5.500 3.250,
        -13.000 5.500 3.250,
        -13.000 -5.500 3.280,
        13.000 -5.500 3.280,
        13.000 5.500 3.280,
        -13.000 5.500 3.280
        ]
      }
      coordIndex [
          0, 3, 2, 1, -1,
        4, 5, 6, 7, -1,
        0, 1, 5, 4, -1,
        1, 2, 6, 5, -1,
        2, 3, 7, 6, -1,
        3, 0, 4, 7, -1
      ]
    }
  },
  Shape {
    appearance Appearance {
      material Material {
        diffuseColor 0.9 0.9 0.95
        specularColor 1.0 1.0 1.0
        shininess 0.9
      }
    }
    geometry IndexedFaceSet {
      solid TRUE
      coord Coordinate {
        point [
          -15.500 -5.800 3.250,
        -14.500 -5.800 3.250,
        -14.500 -4.800 3.250,
        -15.500 -4.800 3.250,
        -15.500 -5.800 3.290,
        -14.500 -5.800 3.290,
        -14.500 -4.800 3.290,
        -15.500 -4.800 3.290
        ]
      }
      coordIndex [
          0, 3, 2, 1, -1,
        4, 5, 6, 7, -1,
        0, 1, 5, 4, -1,
        1, 2, 6, 5, -1,
        2, 3, 7, 6, -1,
        3, 0, 4, 7, -1
      ]
    }
  },
  Shape {
    appearance Appearance {
      material Material {
        diffuseColor 0.88 0.72 0.18
        specularColor 0.98 0.90 0.45
        shininess 0.95
      }
    }
    geometry IndexedFaceSet {
      solid TRUE
      coord Coordinate {
        point [
          -10.760 -8.050 0.000,
        -9.560 -8.050 0.000,
        -9.560 -6.750 0.000,
        -10.760 -6.750 0.000,
        -10.760 -8.050 0.820,
        -9.560 -8.050 0.820,
        -9.560 -6.750 0.820,
        -10.760 -6.750 0.820,
        -10.760 6.750 0.000,
        -9.560 6.750 0.000,
        -9.560 8.050 0.000,
        -10.760 8.050 0.000,
        -10.760 6.750 0.820,
        -9.560 6.750 0.820,
        -9.560 8.050 0.820,
        -10.760 8.050 0.820,
        -8.220 -8.050 0.000,
        -7.020 -8.050 0.000,
        -7.020 -6.750 0.000,
        -8.220 -6.750 0.000,
        -8.220 -8.050 0.820,
        -7.020 -8.050 0.820,
        -7.020 -6.750 0.820,
        -8.220 -6.750 0.820,
        -8.220 6.750 0.000,
        -7.020 6.750 0.000,
        -7.020 8.050 0.000,
        -8.220 8.050 0.000,
        -8.220 6.750 0.820,
        -7.020 6.750 0.820,
        -7.020 8.050 0.820,
        -8.220 8.050 0.820,
        -5.680 -8.050 0.000,
        -4.480 -8.050 0.000,
        -4.480 -6.750 0.000,
        -5.680 -6.750 0.000,
        -5.680 -8.050 0.820,
        -4.480 -8.050 0.820,
        -4.480 -6.750 0.820,
        -5.680 -6.750 0.820,
        -5.680 6.750 0.000,
        -4.480 6.750 0.000,
        -4.480 8.050 0.000,
        -5.680 8.050 0.000,
        -5.680 6.750 0.820,
        -4.480 6.750 0.820,
        -4.480 8.050 0.820,
        -5.680 8.050 0.820,
        -3.140 -8.050 0.000,
        -1.940 -8.050 0.000,
        -1.940 -6.750 0.000,
        -3.140 -6.750 0.000,
        -3.140 -8.050 0.820,
        -1.940 -8.050 0.820,
        -1.940 -6.750 0.820,
        -3.140 -6.750 0.820,
        -3.140 6.750 0.000,
        -1.940 6.750 0.000,
        -1.940 8.050 0.000,
        -3.140 8.050 0.000,
        -3.140 6.750 0.820,
        -1.940 6.750 0.820,
        -1.940 8.050 0.820,
        -3.140 8.050 0.820,
        -0.600 -8.050 0.000,
        0.600 -8.050 0.000,
        0.600 -6.750 0.000,
        -0.600 -6.750 0.000,
        -0.600 -8.050 0.820,
        0.600 -8.050 0.820,
        0.600 -6.750 0.820,
        -0.600 -6.750 0.820,
        -0.600 6.750 0.000,
        0.600 6.750 0.000,
        0.600 8.050 0.000,
        -0.600 8.050 0.000,
        -0.600 6.750 0.820,
        0.600 6.750 0.820,
        0.600 8.050 0.820,
        -0.600 8.050 0.820,
        1.940 -8.050 0.000,
        3.140 -8.050 0.000,
        3.140 -6.750 0.000,
        1.940 -6.750 0.000,
        1.940 -8.050 0.820,
        3.140 -8.050 0.820,
        3.140 -6.750 0.820,
        1.940 -6.750 0.820,
        1.940 6.750 0.000,
        3.140 6.750 0.000,
        3.140 8.050 0.000,
        1.940 8.050 0.000,
        1.940 6.750 0.820,
        3.140 6.750 0.820,
        3.140 8.050 0.820,
        1.940 8.050 0.820,
        4.480 -8.050 0.000,
        5.680 -8.050 0.000,
        5.680 -6.750 0.000,
        4.480 -6.750 0.000,
        4.480 -8.050 0.820,
        5.680 -8.050 0.820,
        5.680 -6.750 0.820,
        4.480 -6.750 0.820,
        4.480 6.750 0.000,
        5.680 6.750 0.000,
        5.680 8.050 0.000,
        4.480 8.050 0.000,
        4.480 6.750 0.820,
        5.680 6.750 0.820,
        5.680 8.050 0.820,
        4.480 8.050 0.820,
        7.020 -8.050 0.000,
        8.220 -8.050 0.000,
        8.220 -6.750 0.000,
        7.020 -6.750 0.000,
        7.020 -8.050 0.820,
        8.220 -8.050 0.820,
        8.220 -6.750 0.820,
        7.020 -6.750 0.820,
        7.020 6.750 0.000,
        8.220 6.750 0.000,
        8.220 8.050 0.000,
        7.020 8.050 0.000,
        7.020 6.750 0.820,
        8.220 6.750 0.820,
        8.220 8.050 0.820,
        7.020 8.050 0.820,
        9.560 -8.050 0.000,
        10.760 -8.050 0.000,
        10.760 -6.750 0.000,
        9.560 -6.750 0.000,
        9.560 -8.050 0.820,
        10.760 -8.050 0.820,
        10.760 -6.750 0.820,
        9.560 -6.750 0.820,
        9.560 6.750 0.000,
        10.760 6.750 0.000,
        10.760 8.050 0.000,
        9.560 8.050 0.000,
        9.560 6.750 0.820,
        10.760 6.750 0.820,
        10.760 8.050 0.820,
        9.560 8.050 0.820
        ]
      }
      coordIndex [
          0, 3, 2, 1, -1,
        4, 5, 6, 7, -1,
        0, 1, 5, 4, -1,
        1, 2, 6, 5, -1,
        2, 3, 7, 6, -1,
        3, 0, 4, 7, -1,
        8, 11, 10, 9, -1,
        12, 13, 14, 15, -1,
        8, 9, 13, 12, -1,
        9, 10, 14, 13, -1,
        10, 11, 15, 14, -1,
        11, 8, 12, 15, -1,
        16, 19, 18, 17, -1,
        20, 21, 22, 23, -1,
        16, 17, 21, 20, -1,
        17, 18, 22, 21, -1,
        18, 19, 23, 22, -1,
        19, 16, 20, 23, -1,
        24, 27, 26, 25, -1,
        28, 29, 30, 31, -1,
        24, 25, 29, 28, -1,
        25, 26, 30, 29, -1,
        26, 27, 31, 30, -1,
        27, 24, 28, 31, -1,
        32, 35, 34, 33, -1,
        36, 37, 38, 39, -1,
        32, 33, 37, 36, -1,
        33, 34, 38, 37, -1,
        34, 35, 39, 38, -1,
        35, 32, 36, 39, -1,
        40, 43, 42, 41, -1,
        44, 45, 46, 47, -1,
        40, 41, 45, 44, -1,
        41, 42, 46, 45, -1,
        42, 43, 47, 46, -1,
        43, 40, 44, 47, -1,
        48, 51, 50, 49, -1,
        52, 53, 54, 55, -1,
        48, 49, 53, 52, -1,
        49, 50, 54, 53, -1,
        50, 51, 55, 54, -1,
        51, 48, 52, 55, -1,
        56, 59, 58, 57, -1,
        60, 61, 62, 63, -1,
        56, 57, 61, 60, -1,
        57, 58, 62, 61, -1,
        58, 59, 63, 62, -1,
        59, 56, 60, 63, -1,
        64, 67, 66, 65, -1,
        68, 69, 70, 71, -1,
        64, 65, 69, 68, -1,
        65, 66, 70, 69, -1,
        66, 67, 71, 70, -1,
        67, 64, 68, 71, -1,
        72, 75, 74, 73, -1,
        76, 77, 78, 79, -1,
        72, 73, 77, 76, -1,
        73, 74, 78, 77, -1,
        74, 75, 79, 78, -1,
        75, 72, 76, 79, -1,
        80, 83, 82, 81, -1,
        84, 85, 86, 87, -1,
        80, 81, 85, 84, -1,
        81, 82, 86, 85, -1,
        82, 83, 87, 86, -1,
        83, 80, 84, 87, -1,
        88, 91, 90, 89, -1,
        92, 93, 94, 95, -1,
        88, 89, 93, 92, -1,
        89, 90, 94, 93, -1,
        90, 91, 95, 94, -1,
        91, 88, 92, 95, -1,
        96, 99, 98, 97, -1,
        100, 101, 102, 103, -1,
        96, 97, 101, 100, -1,
        97, 98, 102, 101, -1,
        98, 99, 103, 102, -1,
        99, 96, 100, 103, -1,
        104, 107, 106, 105, -1,
        108, 109, 110, 111, -1,
        104, 105, 109, 108, -1,
        105, 106, 110, 109, -1,
        106, 107, 111, 110, -1,
        107, 104, 108, 111, -1,
        112, 115, 114, 113, -1,
        116, 117, 118, 119, -1,
        112, 113, 117, 116, -1,
        113, 114, 118, 117, -1,
        114, 115, 119, 118, -1,
        115, 112, 116, 119, -1,
        120, 123, 122, 121, -1,
        124, 125, 126, 127, -1,
        120, 121, 125, 124, -1,
        121, 122, 126, 125, -1,
        122, 123, 127, 126, -1,
        123, 120, 124, 127, -1,
        128, 131, 130, 129, -1,
        132, 133, 134, 135, -1,
        128, 129, 133, 132, -1,
        129, 130, 134, 133, -1,
        130, 131, 135, 134, -1,
        131, 128, 132, 135, -1,
        136, 139, 138, 137, -1,
        140, 141, 142, 143, -1,
        136, 137, 141, 140, -1,
        137, 138, 142, 141, -1,
        138, 139, 143, 142, -1,
        139, 136, 140, 143, -1
      ]
    }
  }
  ]
}
